<svg xmlns="http://www.w3.org/2000/svg" width="32" height="32" viewBox="0 0 8.467 8.467"><path fill="#ef5350" style="line-height:normal;font-variant-ligatures:normal;font-variant-position:normal;font-variant-caps:normal;font-variant-numeric:normal;font-variant-alternates:normal;font-feature-settings:normal;text-indent:0;text-align:start;text-decoration-line:none;text-decoration-style:solid;text-decoration-color:#000;text-transform:none;text-orientation:mixed;shape-padding:0;isolation:auto;mix-blend-mode:normal" d="M 16.003906 2 A 1.0000998 1.0000998 0 0 0 15.28125 2.3105469 C 15.28125 2.3105469 12.738369 4.9471046 10.195312 8.3632812 C 7.6522563 11.779458 4.9980469 15.884011 4.9980469 19.466797 C 4.9980469 22.299906 5.9972044 24.951421 7.8984375 26.884766 C 9.7996702 28.818111 12.587291 30 15.996094 30 C 19.404894 30 22.20033 28.818111 24.101562 26.884766 C 26.002795 24.951421 27.003906 22.299906 27.003906 19.466797 C 27.003906 15.884012 24.341884 11.779458 21.798828 8.3632812 C 19.255773 4.9471046 16.720703 2.3105469 16.720703 2.3105469 A 1.0000998 1.0000998 0 0 0 16.003906 2 z " color="#000" font-family="sans-serif" font-weight="400" overflow="visible" transform="scale(.26458)" white-space="normal"/><path fill="#b71c1c" style="line-height:normal;font-variant-ligatures:normal;font-variant-position:normal;font-variant-caps:normal;font-variant-numeric:normal;font-variant-alternates:normal;font-feature-settings:normal;text-indent:0;text-align:start;text-decoration-line:none;text-decoration-style:solid;text-decoration-color:#000;text-transform:none;text-orientation:mixed;shape-padding:0;isolation:auto;mix-blend-mode:normal" d="M 4.2285156,3.9648438 A 0.26460981,0.26460981 0 0 0 3.96875,4.2324219 v 1.0585937 a 0.26464845,0.26464845 0 1 0 0.5292969,0 V 4.2324219 A 0.26460981,0.26460981 0 0 0 4.2285156,3.9648438 Z" color="#000" font-family="sans-serif" font-weight="400" overflow="visible" white-space="normal"/><path fill="#b71c1c" style="line-height:normal;font-variant-ligatures:normal;font-variant-position:normal;font-variant-caps:normal;font-variant-numeric:normal;font-variant-alternates:normal;font-feature-settings:normal;text-indent:0;text-align:start;text-decoration-line:none;text-decoration-style:solid;text-decoration-color:#000;text-transform:none;text-orientation:mixed;shape-padding:0;isolation:auto;mix-blend-mode:normal" d="m 3.6777344,4.4980469 a 0.26500137,0.26500137 0 0 0 0.027344,0.5292969 h 1.0566407 a 0.26464845,0.26464845 0 1 0 0,-0.5292969 h -1.056641 a 0.26460981,0.26460981 0 0 0 -0.027344,0 z" color="#000" font-family="sans-serif" font-weight="400" overflow="visible" white-space="normal"/></svg>