<svg xmlns="http://www.w3.org/2000/svg" xmlns:xlink="http://www.w3.org/1999/xlink" data-name="Layer 1" viewBox="0 0 512 512"><defs><linearGradient id="a" x1="256" x2="256" y1="2" y2="504.78" gradientUnits="userSpaceOnUse"><stop offset="0" stop-color="#00efd1"/><stop offset="1" stop-color="#00acea"/></linearGradient><linearGradient id="b" x1="301" x2="301" y1="2" y2="504.78" xlink:href="#a"/></defs><g data-name="&lt;Group&gt;"><path fill="url(#a)" d="M436.641,31H162.565C130.883,31,105,58.268,105,91.212V235H51.63C33.031,235,18,251.068,18,270.3V385.961C18,405.19,33.031,421,51.63,421H79.179l11.332,51.753a10.062,10.062,0,0,0,17.3,4.457L157.021,421h73.766c18.6,0,34.213-15.81,34.213-35.039V321h12.252L359.1,415.047a9.937,9.937,0,0,0,7.549,3.371,10.069,10.069,0,0,0,2.474-.347,9.846,9.846,0,0,0,7.294-7.429L396.049,321h40.592C468.323,321,494,293.917,494,260.973V91.212C494,58.268,468.323,31,436.641,31ZM245,385.961c0,8.2-6.643,15.039-14.213,15.039H152.48a9.924,9.924,0,0,0-7.528,3.335l-39.14,44.722L97,408.8a9.945,9.945,0,0,0-9.769-7.8H51.63C44.06,401,38,394.163,38,385.961V270.3c0-8.2,6.06-15.3,13.63-15.3H105v5.973C105,293.917,130.883,321,162.565,321H245ZM474,260.973C474,282.889,457.3,301,436.641,301H388a9.876,9.876,0,0,0-9.769,7.722l-17.1,78.1-71.771-82.491A9.9,9.9,0,0,0,281.811,301H162.565C141.91,301,125,282.889,125,260.973V91.212C125,69.3,141.91,51,162.565,51H436.641C457.3,51,474,69.3,474,91.212Z" data-name="&lt;Compound Path&gt;"/><path fill="url(#b)" d="M370,141H331V102a10,10,0,0,0-10-10H281a10,10,0,0,0-10,10v39H232a10,10,0,0,0-10,10v40a10,10,0,0,0,10,10h39v39a10,10,0,0,0,10,10h40a10,10,0,0,0,10-10V201h39a10,10,0,0,0,10-10V151A10,10,0,0,0,370,141Zm-10,40H321a10,10,0,0,0-10,10v39H291V191a10,10,0,0,0-10-10H242V161h39a10,10,0,0,0,10-10V112h20v39a10,10,0,0,0,10,10h39Z" data-name="&lt;Compound Path&gt;"/></g></svg>