<svg xmlns="http://www.w3.org/2000/svg" width="32" height="32" viewBox="0 0 32 32"><g transform="translate(-349.5 -676.798)"><path fill="#5bdadd" d="m 353.5,688.2997 24.01562,0 0,19 -7.99195,0 0,-5.9944 c -2.4375,0 -8.01073,0 -8.01073,0 l 0,5.9944 -8.01294,0 z"/><path fill="#63eef1" d="m 353.5,688.29546 0,19 1.5,0 0,-19 z"/><path fill="#42bbbb" d="m 353.5,688.30932 0,0 24,0 0,3"/><path fill="#2667ac" d="m 353,688.29546 2,-5 21,0 2,5 z"/><rect width="6" height="5" x="358.938" y="678.295" fill="#5bdadd"/><path fill="#42bbbb" d="m 376.01562,688.29546 0,19 1.5,0 0,-19 z"/><path fill="#2e7dd0" d="m 355,683.29546 -2,5 0,0 c 5.25619,-5.3697 14,-3.5 21,-5 z"/><path fill="#63eef1" d="m 358.9375,678.2997 0,5 1.46875,0 0,-5 -1.46875,0 z"/><path fill="#42bbbb" d="m 363.4375,678.2997 0,5 1.5,0 0,-5 -1.5,0 z"/><rect width="3" height="3" x="356.5" y="691.295" fill="#cdd7e0"/><path fill="#e1edf6" d="m 356.5,691.29546 0,3 1.48614,0 0,-3 z"/><rect width="3" height="3" x="356.5" y="691.295" fill="none"/><rect width="3" height="3" x="361.5" y="691.295" fill="#cdd7e0"/><path fill="#e1edf6" d="m 361.5,691.29546 0,3 1.48614,0 0,-3 z"/><rect width="3" height="3" x="361.5" y="691.295" fill="none"/><rect width="3" height="3" x="366.5" y="691.295" fill="#cdd7e0"/><path fill="#e1edf6" d="m 366.5,691.29546 0,3 1.48614,0 0,-3 z"/><rect width="3" height="3" x="366.5" y="691.295" fill="none"/><rect width="3" height="3" x="371.5" y="691.295" fill="#cdd7e0"/><path fill="#e1edf6" d="m 371.5,691.29546 0,3 1.48614,0 0,-3 z"/><rect width="3" height="3" x="371.5" y="691.295" fill="none"/><rect width="3" height="3" x="371.5" y="696.314" fill="#cdd7e0"/><path fill="#e1edf6" d="m 371.5,696.31437 0,3 1.48614,0 0,-3 z"/><rect width="3" height="3" x="371.5" y="696.314" fill="none"/><rect width="3" height="3" x="371.5" y="701.299" fill="#cdd7e0"/><path fill="#e1edf6" d="m 371.5,701.29875 0,3 1.48614,0 0,-3 z"/><rect width="3" height="3" x="371.5" y="701.299" fill="none"/><rect width="3" height="3" x="356.5" y="701.299" fill="#cdd7e0"/><path fill="#e1edf6" d="m 356.5,701.29875 0,3 1.48614,0 0,-3 z"/><rect width="3" height="3" x="356.5" y="701.299" fill="none"/><rect width="3" height="3" x="356.5" y="696.295" fill="#ffdc7b"/><path fill="#fff099" d="m 356.5,696.29546 0,3 1.5,0 0,-3 z"/><rect width="3" height="3" x="356.5" y="696.295" fill="none"/><rect width="3" height="3" x="361.505" y="696.295" fill="#ffdc7b"/><path fill="#fff099" d="m 361.50499,696.29546 0,3 1.5,0 0,-3 z"/><rect width="3" height="3" x="361.505" y="696.295" fill="none"/><rect width="3" height="3" x="366.504" y="696.295" fill="#ffdc7b"/><path fill="#fff099" d="m 366.50383,696.29546 0,3 1.5,0 0,-3 z"/><rect width="3" height="3" x="366.504" y="696.295" fill="none"/><g transform="translate(.323 .188)"><path fill="#ff5855" d="m 364.43458,702.1122 0,5 1.5,0 0,-5 -1.5,0 z"/><path fill="#ff5855" d="m 367.68458,703.8622 -5,0 0,1.5 5,0 0,-1.5 z"/></g></g></svg>