<svg xmlns="http://www.w3.org/2000/svg" viewBox="0 0 32 32"><path fill="#ff8162" d="M29.46,26.37l-2.14-10A3,3,0,0,0,24.38,14h-1a1,1,0,0,0-.9.56,7.1,7.1,0,0,1-1.35,1.88l-4.43,4.44a1,1,0,0,1-1.41,0l-4.44-4.44a7.08,7.08,0,0,1-1.35-1.87,1,1,0,0,0-.9-.56h-1a3,3,0,0,0-2.93,2.37l-2.14,10A3,3,0,0,0,5.47,30H26.53a3,3,0,0,0,2.93-3.63Z"/><path fill="#d34848" d="M22.56,4.72A9.27,9.27,0,0,0,7.71,15.44a9.06,9.06,0,0,0,1.73,2.4l4.43,4.44a3,3,0,0,0,4.25,0l4.43-4.44a9.09,9.09,0,0,0,1.73-2.4A9.22,9.22,0,0,0,22.56,4.72Z"/><path fill="#ffcd60" d="M19.31,8a4.67,4.67,0,1,0,1.37,3.31A4.64,4.64,0,0,0,19.31,8Z"/></svg>