<svg xmlns="http://www.w3.org/2000/svg" data-name="Layer 1" viewBox="0 0 64 64"><circle cx="32" cy="32" r="27" fill="#40a26a"/><path fill="#44b273" d="M48.75,53.16a26.94,26.94,0,0,1-33.5,0L16,50.5A9.12,9.12,0,0,1,24.79,44H39.21A9.12,9.12,0,0,1,48,50.5Z"/><rect width="2" height="7.93" x="31.03" y="51.07" fill="#40a26a"/><path fill="#ffd2b4" d="M36,39v9.76a2,2,0,0,1-1.11,1.8h0a6.46,6.46,0,0,1-5.78,0h0A2,2,0,0,1,28,48.76V39Z"/><path fill="#ffd2b4" d="M32,15.21C43.45,15.21,42.47,26,42.47,26c1.68-.17,3,.49,3,2.86s-1,2.86-2.35,3a.29.29,0,0,0-.27.27c-.39,3.69-3,6.39-5.58,8.2a9.16,9.16,0,0,1-10.56,0c-2.57-1.81-5.19-4.52-5.58-8.2a.29.29,0,0,0-.27-.27c-1.31-.13-2.35-.63-2.35-3s1.27-3,2.94-2.86C21.47,26,20.54,15.21,32,15.21Z"/><path fill="#262234" d="M36,41.08v1.5a9.16,9.16,0,0,1-8,0v-1.5a9.16,9.16,0,0,0,8,0Z" opacity=".1"/><circle cx="28.04" cy="28.15" r="1.7" fill="#262234"/><circle cx="35.96" cy="28.15" r="1.7" fill="#262234"/><path fill="#611c24" d="M35.87,32.53a1,1,0,0,1,1,1.25,5,5,0,0,1-9.68,0,1,1,0,0,1,1-1.25Z"/><path fill="#be1e2d" d="M34.42,36.91a5,5,0,0,1-4.84,0c.2-1.23,1.21-1.57,2.42-1.57S34.22,35.68,34.42,36.91Z"/><path fill="#fff" d="M34.87,32.53v.95a.37.37,0,0,1-.36.37h-5a.37.37,0,0,1-.36-.37v-.95Z"/><path fill="#262234" d="M32,13.62c-8.83,0-11.31,6.71-11.31,12.72A9.56,9.56,0,0,0,21,28.47c.18.72,2.07.69,2.19,0a16.75,16.75,0,0,1,1.11-6.85,1.05,1.05,0,0,1,.06-.09,12.65,12.65,0,0,0,4.29,2.77.38.38,0,0,0,.51-.47,17.71,17.71,0,0,1-.49-1.75,12.45,12.45,0,0,0,4.55,2.67.38.38,0,0,0,.49-.5c-.15-.39-.34-.89-.5-1.44a11.91,11.91,0,0,0,5.27,2,.38.38,0,0,0,.39-.58,16.92,16.92,0,0,1-1-1.83,13.24,13.24,0,0,0,2.54.86,20.68,20.68,0,0,1,.51,5.18c.11.64,2,.67,2.19,0a9.56,9.56,0,0,0,.26-2.12C43.31,20.33,40.84,13.62,32,13.62Z"/><path fill="#262234" d="M32.13,16s-1.39-2.46-6.84-3a.38.38,0,0,0-.35.61c.2.27.43.6.66,1a15.57,15.57,0,0,0-2.85.3.38.38,0,0,0-.16.68c1.22.93,3.6,3,3.06,4.39Z"/><path fill="#40a26a" d="M25.3 44c0 3.44 2.15 6.79 3.18 8.19a1 1 0 0 0 1.28.28L32 51.24 32 51.09a6.18 6.18 0 0 0-1-1.46c-1-1-2.93-3.34-2.93-5.63zM38.7 44c0 3.44-2.15 6.78-3.17 8.18a1 1 0 0 1-1.29.28L32 51.24h0A6.4 6.4 0 0 1 33.2 49.5c1-1.08 2.81-3.3 2.81-5.5z"/><rect width="4.29" height="1.66" x="37.08" y="53.37" fill="#40a26a"/><circle cx="53.78" cy="48.05" r="9.49" fill="#fff"/><path fill="#be1e2d" d="M58.1,46.31H55.52V43.73a.75.75,0,0,0-.75-.75h-2a.75.75,0,0,0-.75.75v2.58H49.46a.75.75,0,0,0-.75.75v2a.75.75,0,0,0,.75.75H52v2.58a.75.75,0,0,0,.75.75h2a.75.75,0,0,0,.75-.75V49.79H58.1a.75.75,0,0,0,.75-.75v-2A.75.75,0,0,0,58.1,46.31Z"/></svg>