<svg xmlns="http://www.w3.org/2000/svg" width="75" height="179" fill-rule="evenodd" clip-rule="evenodd" image-rendering="optimizeQuality" shape-rendering="geometricPrecision" text-rendering="geometricPrecision" viewBox="0 0 4211 10123"><rect width="3894" height="333" x="317" fill="#384a66" rx="251" ry="167"/><path fill="#6b7f9e" d="M998 4135l0 -3759c0,-119 98,-217 217,-217l2157 0c120,0 217,98 217,217l0 3759c0,119 -97,217 -217,217l-2157 0c-119,0 -217,-98 -217,-217z"/><polygon fill="#e4e7ed" points="1313 159 1913 159 1913 4352 1313 4352"/><path fill="#e4e7ed" d="M2161 4137l0 -2860 284 0 0 2860 -284 0zm0 -3763l0 475 284 0 0 -475 -284 0z"/><path fill="#c6cbd6" d="M2611 4089l0-431c0-27 21-48 48-48l423 0c27 0 48 21 48 48l0 431c0 27-21 48-48 48l-423 0c-27 0-48-21-48-48zM2721 3438l0-1347 81 0 0 1347-81 0zm202 0l0-1347 82 0 0 1347-82 0z"/><path fill="#fed298" d="M1689 3562c-6,417 116,612 116,746 0,134 -204,553 -204,553l-588 -626 -15 -2330c0,0 -835,1060 -929,1339 -93,280 -65,2206 -65,2206 0,0 956,1516 1364,2076l0 755 1650 0 -52 -1128c0,0 303,-1470 198,-1971 -105,-502 -571,-1086 -571,-1086 0,0 -26,-948 -170,-1129 -324,-409 -728,179 -734,595z"/><polygon fill="#f2f2f2" points="1024 7776 3496 7776 3496 8429 1024 8429"/><polygon fill="#6b7f9e" points="765 8330 3756 8330 3916 10123 601 10123"/><path fill="#c6cbd6" fill-rule="nonzero" d="M4123 2545l0 1160 -74 0 0 -1160 74 0zm-3448 -2059l0 1428 -74 0 0 -1428 74 0zm-196 218l0 666 -74 0 0 -666 74 0zm3448 1276l0 1427 -74 0 0 -1427 74 0z"/></svg>