<svg width="162" height="169" viewBox="0 0 162 169" fill="none" xmlns="http://www.w3.org/2000/svg">
<rect y="16" width="162" height="136" rx="14" fill="#00A8B3" fill-opacity="0.88"/>
<path d="M87.2578 79.0859H115.805V91.3906H87.2578V123.734H74.1797V91.3906H45.6328V79.0859H74.1797V49.2031H87.2578V79.0859Z" fill="#E3F2FD"/>
<path d="M87.2578 79.0859H78.2578V88.0859H87.2578V79.0859ZM115.805 79.0859H124.805V70.0859H115.805V79.0859ZM115.805 91.3906V100.391H124.805V91.3906H115.805ZM87.2578 91.3906V82.3906H78.2578V91.3906H87.2578ZM87.2578 123.734V132.734H96.2578V123.734H87.2578ZM74.1797 123.734H65.1797V132.734H74.1797V123.734ZM74.1797 91.3906H83.1797V82.3906H74.1797V91.3906ZM45.6328 91.3906H36.6328V100.391H45.6328V91.3906ZM45.6328 79.0859V70.0859H36.6328V79.0859H45.6328ZM74.1797 79.0859V88.0859H83.1797V79.0859H74.1797ZM74.1797 49.2031V40.2031H65.1797V49.2031H74.1797ZM87.2578 49.2031H96.2578V40.2031H87.2578V49.2031ZM87.2578 88.0859H115.805V70.0859H87.2578V88.0859ZM106.805 79.0859V91.3906H124.805V79.0859H106.805ZM115.805 82.3906H87.2578V100.391H115.805V82.3906ZM78.2578 91.3906V123.734H96.2578V91.3906H78.2578ZM87.2578 114.734H74.1797V132.734H87.2578V114.734ZM83.1797 123.734V91.3906H65.1797V123.734H83.1797ZM74.1797 82.3906H45.6328V100.391H74.1797V82.3906ZM54.6328 91.3906V79.0859H36.6328V91.3906H54.6328ZM45.6328 88.0859H74.1797V70.0859H45.6328V88.0859ZM83.1797 79.0859V49.2031H65.1797V79.0859H83.1797ZM74.1797 58.2031H87.2578V40.2031H74.1797V58.2031ZM78.2578 49.2031V79.0859H96.2578V49.2031H78.2578Z" fill="#E3F2FD"/>
</svg>
