<svg xmlns="http://www.w3.org/2000/svg" width="48" height="48" viewBox="0 0 48 48"><g transform="translate(-8 -1008.495)"><circle cx="32.001" cy="1032.495" r="24" fill="#ef4c45" fill-rule="evenodd"/><path fill="#fff" style="isolation:auto;mix-blend-mode:normal" d="m 30.50092,1017.4946 0,1.1192 a 4.4999999,4.4999999 0 0 0 -1.394531,0.5723 l -0.78711,-0.7872 -1.414062,1.4141 0.789062,0.7891 a 4.4999999,4.4999999 0 0 0 -0.576171,1.3925 l -1.117188,0 0,2 1.119141,0 a 4.4999999,4.4999999 0 0 0 0.572265,1.3946 l -0.787109,0.7871 1.414062,1.414 0.789063,-0.789 a 4.4999999,4.4999999 0 0 0 1.392578,0.5762 l 0,1.1171 2,0 0,-1.1191 a 4.4999999,4.4999999 0 0 0 1.394531,-0.5723 l 0.78711,0.7871 1.414062,-1.414 -0.789062,-0.7891 a 4.4999999,4.4999999 0 0 0 0.576171,-1.3926 l 1.117188,0 0,-2 -1.119141,0 a 4.4999999,4.4999999 0 0 0 -0.572265,-1.3945 l 0.787109,-0.7871 -1.414062,-1.4141 -0.789063,0.7891 a 4.4999999,4.4999999 0 0 0 -1.392578,-0.5762 l 0,-1.1172 -2,0 z m 1,2.6563 a 2.8448277,2.8448277 0 0 1 2.845703,2.8437 2.8448277,2.8448277 0 0 1 -2.845703,2.8457 2.8448277,2.8448277 0 0 1 -2.845703,-2.8457 2.8448277,2.8448277 0 0 1 2.845703,-2.8437 z m 8.818359,7.3437 0,1.3223 a 5.318182,5.318182 0 0 0 -1.648437,0.6777 l -0.929688,-0.9316 -1.671875,1.6719 0.933594,0.9316 a 5.318182,5.318182 0 0 0 -0.681641,1.6465 l -1.320312,0 0,2.3633 1.322266,0 a 5.318182,5.318182 0 0 0 0.675781,1.6484 l -0.929688,0.9297 1.671875,1.6719 0.931641,-0.9336 a 5.318182,5.318182 0 0 0 1.646484,0.6816 l 0,1.3203 2.363282,0 0,-1.3222 a 5.318182,5.318182 0 0 0 1.648437,-0.6758 l 0.929688,0.9297 1.671875,-1.6719 -0.933594,-0.9316 a 5.318182,5.318182 0 0 0 0.681641,-1.6465 l 1.320312,0 0,-2.3633 -1.322266,0 a 5.318182,5.318182 0 0 0 -0.675781,-1.6484 l 0.929688,-0.9297 -1.671875,-1.6719 -0.931641,0.9336 a 5.318182,5.318182 0 0 0 -1.646484,-0.6816 l 0,-1.3204 -2.363282,0 z m -16.363281,3 0,1.7305 a 6.954543,6.954543 0 0 0 -2.15625,0.8828 l -1.216796,-1.2148 -2.183594,2.1855 1.21875,1.2188 a 6.954543,6.954543 0 0 0 -0.890625,2.1523 l -1.726563,0 0,3.0899 1.730469,0 a 6.954543,6.954543 0 0 0 0.882813,2.1562 l -1.214844,1.2168 2.183594,2.1856 1.220703,-1.2207 a 6.954543,6.954543 0 0 0 2.152343,0.8906 l 0,1.7265 3.089844,0 0,-1.7285 a 6.954543,6.954543 0 0 0 2.15625,-0.8847 l 1.216797,1.2168 2.183593,-2.1856 -1.21875,-1.2207 a 6.954543,6.954543 0 0 0 0.890626,-2.1523 l 1.726562,0 0,-3.0899 -1.730469,0 a 6.954543,6.954543 0 0 0 -0.882812,-2.1562 l 1.214843,-1.2149 -2.183593,-2.1855 -1.220703,1.2187 a 6.954543,6.954543 0 0 0 -2.152344,-0.8906 l 0,-1.7266 -3.089844,0 z m 17.544922,0.1387 a 3.3620691,3.3620691 0 0 1 3.361328,3.3613 3.3620691,3.3620691 0 0 1 -3.361328,3.3633 3.3620691,3.3620691 0 0 1 -3.361328,-3.3633 3.3620691,3.3620691 0 0 1 3.361328,-3.3613 z m -16,3.9649 a 4.3965502,4.3965502 0 0 1 4.396484,4.3964 4.3965502,4.3965502 0 0 1 -4.396484,4.3965 4.3965502,4.3965502 0 0 1 -4.396484,-4.3965 4.3965502,4.3965502 0 0 1 4.396484,-4.3964 z" color="#000" overflow="visible"/></g></svg>