<svg id="Capa_1" enable-background="new 0 0 512 512" height="512" viewBox="0 0 512 512" width="512" xmlns="http://www.w3.org/2000/svg" xmlns:xlink="http://www.w3.org/1999/xlink"><linearGradient id="SVGID_1_" gradientUnits="userSpaceOnUse" x1="27.58" x2="504.532" y1="394.045" y2="118.677"><stop offset="0" stop-color="#fff" stop-opacity="0"/><stop offset=".2532" stop-color="#eef" stop-opacity=".403"/><stop offset=".629" stop-color="#d9d9ff"/></linearGradient><linearGradient id="lg1"><stop offset="0" stop-color="#ff4d4d" stop-opacity=".4"/><stop offset="1" stop-color="#ff4d4d" stop-opacity="0"/></linearGradient><linearGradient id="SVGID_2_" gradientUnits="userSpaceOnUse" x1="361.522" x2="361.522" xlink:href="#lg1" y1="481.269" y2="164.506"/><linearGradient id="SVGID_3_" gradientUnits="userSpaceOnUse" x1="148.698" x2="148.698" xlink:href="#lg1" y1="401.889" y2="194.89"/><g><g><g><path d="m4.896 328.875c17.448 172.871 292.417 167.142 420.803 136.265 82.47-19.834 87.596-59.472 86.106-144.001-.96-54.486 3.443-198.725-32.004-244.123-54.448-69.733-103.228-25.998-170.656-3.235-86.488 29.197-120.189-22.932-202.476-21.38-120.641 2.278-110.778 187.252-101.773 276.474z" fill="url(#SVGID_1_)"/></g><g><g><g><path d="m138.374 119.831h20.648v89.351h-20.648z" fill="#6c6cff"/></g><g fill="#4d4dff"><path d="m138.374 119.831h20.648v21.962h-20.648z"/><path d="m138.374 152.304h20.648v29.658h-20.648z"/></g><g><path d="m227.218 89.809h75.083v20.648h-75.083z" fill="#6c6cff"/><path d="m344.065 51.174h34.913v122.88h-34.913z" fill="#6c6cff"/><path d="m344.065 51.174h34.913v93.434h-34.913z" fill="#4d4dff"/><g><path d="m391.508 192.989v-18.483c0-5.523-4.477-10-10-10h-39.972c-5.523 0-10 4.477-10 10v18.483c-21.95 11.006-37.025 33.698-37.025 59.925v218.355c0 5.523 4.477 10 10 10h114.023c5.523 0 10-4.477 10-10v-218.355c-.001-26.227-15.076-48.92-37.026-59.925z" fill="#b3b3ff"/><path d="m428.533 269.62v-16.707c0-26.227-15.075-48.919-37.025-59.925v-18.483c0-5.523-4.477-10-10-10h-39.972c-5.523 0-10 4.477-10 10v18.483c-21.95 11.006-37.025 33.698-37.025 59.925v16.707z" fill="#9494ff"/><path d="m428.533 252.914c0-26.227-15.075-48.919-37.025-59.925v-18.483c0-5.523-4.477-10-10-10h-39.972c-5.523 0-10 4.477-10 10v18.483c-21.95 11.006-37.025 33.698-37.025 59.925z" fill="#fff"/></g><g><path d="m381.651 127.762h-76.937c-12.88 0-23.322-10.441-23.322-23.322v-8.615c0-12.88 10.441-23.322 23.322-23.322h76.937c5.523 0 10 4.477 10 10v35.258c0 5.524-4.477 10.001-10 10.001z" fill="#fff"/><path d="m305.68 72.504h16.143v55.258h-16.143z" fill="#d9d9ff"/><path d="m341.532 108.024h-35.852v19.738h45.852v-9.738c0-5.523-4.477-10-10-10z" fill="#b3b3ff"/></g><path d="m395.398 51.174h-67.754c-5.857 0-10.605-4.748-10.605-10.605 0-5.857 4.748-10.605 10.605-10.605h67.754c5.857 0 10.605 4.748 10.605 10.605.001 5.856-4.747 10.605-10.605 10.605z" fill="#ff9d33"/><g><path d="m233.977 82.506v35.26c0 5.52-4.48 10-10 10h-125.51c-5.52 0-10-4.48-10-10v-35.26c0-5.52 4.48-10 10-10h125.51c5.52 0 10 4.48 10 10z" fill="#ffc599"/><path d="m217.087 88.276c0 13.89-11.27 25.15-25.16 25.15s-25.15-11.26-25.15-25.15c0-5.97 2.08-11.46 5.57-15.77h39.17c3.49 4.31 5.57 9.8 5.57 15.77z" fill="#ffab66"/><path d="m233.977 97.586v5.09c0 2.96-2.39 5.35-5.35 5.35h-134.81c-2.96 0-5.35-2.39-5.35-5.35v-5.09c0-2.95 2.39-5.34 5.35-5.34h134.81c2.96 0 5.35 2.39 5.35 5.34z" fill="#ffd6bb"/><path d="m216.777 92.246c-1.01 6.38-4.43 11.96-9.29 15.78h-31.12c-4.86-3.82-8.27-9.4-9.28-15.78z" fill="#ffc599"/><ellipse cx="191.93" cy="72.504" fill="#ff9d33" rx="25.153" ry="25.153" transform="matrix(.23 -.973 .973 .23 77.269 242.641)"/></g></g><path d="m181.777 401.889h-66.157c-5.523 0-10-4.477-10-10v-168.318c0-15.84 12.841-28.682 28.682-28.682h28.794c15.84 0 28.682 12.841 28.682 28.682v168.317c-.001 5.523-4.478 10.001-10.001 10.001z" fill="#d9d9ff"/><path d="m191.777 261.737v-38.166c0-15.84-12.841-28.682-28.682-28.682h-28.794c-15.841 0-28.682 12.841-28.682 28.682v38.166z" fill="#b3b3ff"/><path d="m191.777 248.222v-24.651c0-15.84-12.841-28.682-28.682-28.682h-28.794c-15.841 0-28.682 12.841-28.682 28.682v24.651z" fill="#6c6cff"/><path d="m164.184 157.211c2.762 0 5-2.238 5-5s-2.238-5-5-5h-37.447c-2.762 0-5 2.238-5 5s2.238 5 5 5zm-50.118 6.893c-2.762 0-5 2.238-5 5s2.238 5 5 5h50.117c2.762 0 5-2.238 5-5s-2.238-5-5-5h-.161z" fill="#2c27ff"/><path d="m240.769 448.964h-139.913c-4.074 0-7.389-3.314-7.389-7.389 0-4.074 3.314-7.389 7.389-7.389h118.514c8.967 0 16.262-7.295 16.262-16.262v-180.227c0-9.374-7.626-17-17-17h-49.942c-2.762 0-5 2.238-5 5s2.238 5 5 5h49.942c3.859 0 7 3.141 7 7v180.228c0 3.453-2.809 6.262-6.262 6.262h-118.514c-9.588 0-17.389 7.801-17.389 17.389s7.801 17.389 17.389 17.389h139.912c3.453 0 6.262 2.81 6.262 6.263s-2.809 6.263-6.262 6.263h-152.3c-2.762 0-5 2.238-5 5s2.238 5 5 5h152.301c8.967 0 16.262-7.295 16.262-16.263-.001-8.969-7.296-16.264-16.262-16.264z" fill="#2c27ff"/><path d="m399.413 388.157h-50.348c-2.761 0-5-2.238-5-5v-92.075c0-2.762 2.239-5 5-5h50.348c2.761 0 5 2.238 5 5v92.075c0 2.761-2.238 5-5 5z" fill="#fff"/><g><g><path d="m386.45 311.66h-18.583c-2.762 0-5-2.238-5-5s2.238-5 5-5h18.583c2.762 0 5 2.238 5 5 0 2.761-2.239 5-5 5z" fill="#ff9d33"/></g><g><path d="m386.45 330.04h-58.583c-2.762 0-5-2.238-5-5s2.238-5 5-5h58.583c2.762 0 5 2.238 5 5s-2.239 5-5 5z" fill="#ff6c6c"/></g><g><path d="m386.45 348.422h-58.583c-2.762 0-5-2.238-5-5s2.238-5 5-5h58.583c2.762 0 5 2.238 5 5s-2.239 5-5 5z" fill="#ff6c6c"/></g></g><g><path d="m191.929 74.338c-2.762 0-5-2.238-5-5v-4.505c0-2.762 2.238-5 5-5s5 2.238 5 5v4.505c0 2.761-2.238 5-5 5z" fill="#ff4d4d"/></g><g><path d="m362.675 98.61c-2.762 0-5-2.238-5-5v-.149c0-2.762 2.238-5 5-5s5 2.238 5 5v.149c0 2.762-2.239 5-5 5z" fill="#ff9d33"/></g></g></g><g fill="#6c6cff"><g><path d="m435.647 143.599c-2.762 0-5-2.238-5-5v-.15c0-2.762 2.238-5 5-5s5 2.238 5 5v.15c0 2.762-2.238 5-5 5z"/><path d="m435.647 171.383c-2.762 0-5-2.238-5-5v-.15c0-2.762 2.238-5 5-5s5 2.238 5 5v.15c0 2.762-2.238 5-5 5z"/></g><g><path d="m423.677 150.508c-.841 0-1.693-.213-2.476-.66l-.13-.074c-2.398-1.37-3.23-4.424-1.86-6.821 1.369-2.397 4.423-3.231 6.821-1.86l.13.074c2.397 1.37 3.23 4.424 1.86 6.821-.922 1.615-2.609 2.52-4.345 2.52z"/><path d="m447.738 164.401c-.851 0-1.712-.217-2.5-.674l-.13-.075c-2.39-1.384-3.206-4.442-1.822-6.832 1.384-2.392 4.445-3.206 6.832-1.822l.13.075c2.39 1.384 3.206 4.442 1.822 6.832-.926 1.601-2.606 2.496-4.332 2.496z"/></g><g><path d="m423.557 164.401c-1.727 0-3.405-.895-4.332-2.496-1.384-2.39-.567-5.448 1.822-6.832l.13-.075c2.39-1.386 5.449-.567 6.832 1.822 1.384 2.39.567 5.448-1.822 6.832l-.13.075c-.788.457-1.651.674-2.5.674z"/><path d="m447.618 150.508c-1.736 0-3.423-.905-4.346-2.52-1.37-2.398-.537-5.451 1.86-6.821l.13-.074c2.397-1.369 5.452-.536 6.821 1.86 1.37 2.398.537 5.451-1.86 6.821l-.13.074c-.782.448-1.634.66-2.475.66z"/></g></g><path d="m264.76 204.889c-2.762 0-5-2.238-5-5 0-3.492-2.841-6.333-6.333-6.333-2.762 0-5-2.238-5-5s2.238-5 5-5c3.492 0 6.333-2.841 6.333-6.333 0-2.762 2.238-5 5-5s5 2.238 5 5c0 3.492 2.841 6.333 6.333 6.333 2.762 0 5 2.238 5 5s-2.238 5-5 5c-3.492 0-6.333 2.841-6.333 6.333 0 2.762-2.239 5-5 5z" fill="#ff4d4d"/><path d="m458.946 223.226c-2.762 0-5-2.238-5-5 0-3.492-2.841-6.333-6.333-6.333-2.762 0-5-2.238-5-5s2.238-5 5-5c3.492 0 6.333-2.842 6.333-6.334 0-2.762 2.238-5 5-5s5 2.238 5 5c0 3.492 2.841 6.334 6.333 6.334 2.762 0 5 2.238 5 5s-2.238 5-5 5c-3.492 0-6.333 2.841-6.333 6.333 0 2.762-2.238 5-5 5z" fill="#ff9d33"/></g><g fill="#ff4d4d"><g><path d="m69.761 173.144c-2.762 0-5-2.238-5-5v-.149c0-2.762 2.238-5 5-5s5 2.238 5 5v.149c0 2.762-2.239 5-5 5z"/><path d="m69.761 200.928c-2.762 0-5-2.238-5-5v-.149c0-2.762 2.238-5 5-5s5 2.238 5 5v.149c0 2.762-2.239 5-5 5z"/></g><g><path d="m57.789 180.054c-.851 0-1.712-.217-2.5-.674l-.13-.075c-2.39-1.384-3.206-4.442-1.822-6.832 1.383-2.392 4.444-3.207 6.832-1.822l.13.075c2.39 1.384 3.206 4.442 1.822 6.832-.927 1.602-2.606 2.496-4.332 2.496z"/><path d="m81.852 193.946c-.851 0-1.712-.217-2.5-.674l-.13-.075c-2.39-1.384-3.206-4.442-1.822-6.832 1.384-2.391 4.444-3.206 6.832-1.822l.13.075c2.39 1.384 3.206 4.442 1.822 6.832-.927 1.601-2.607 2.496-4.332 2.496z"/></g><g><path d="m57.669 193.946c-1.727 0-3.405-.895-4.332-2.496-1.384-2.39-.567-5.448 1.822-6.832l.13-.075c2.39-1.386 5.449-.567 6.832 1.822 1.384 2.39.567 5.448-1.822 6.832l-.13.075c-.788.457-1.65.674-2.5.674z"/><path d="m81.731 180.054c-1.727 0-3.405-.895-4.332-2.496-1.384-2.39-.567-5.448 1.822-6.832l.13-.075c2.389-1.387 5.449-.567 6.832 1.822 1.384 2.39.567 5.448-1.822 6.832l-.13.075c-.788.458-1.65.674-2.5.674z"/></g></g><path d="m62.019 411.888c-2.762 0-5-2.238-5-5 0-3.492-2.842-6.333-6.334-6.333-2.762 0-5-2.238-5-5s2.238-5 5-5c3.492 0 6.334-2.841 6.334-6.333 0-2.762 2.238-5 5-5s5 2.238 5 5c0 3.492 2.841 6.333 6.333 6.333 2.762 0 5 2.238 5 5s-2.238 5-5 5c-3.492 0-6.333 2.841-6.333 6.333 0 2.762-2.238 5-5 5z" fill="#ff9d33"/><path d="m391.508 192.989v-18.483c0-5.523-4.477-10-10-10h-39.972c-5.523 0-10 4.477-10 10v18.483c-21.95 11.006-37.025 33.698-37.025 59.925v218.355c0 5.523 4.477 10 10 10h114.023c5.523 0 10-4.477 10-10v-218.355c-.001-26.227-15.076-48.92-37.026-59.925z" fill="url(#SVGID_2_)"/><path d="m181.777 401.889h-66.157c-5.523 0-10-4.477-10-10v-168.318c0-15.84 12.841-28.682 28.682-28.682h28.794c15.84 0 28.682 12.841 28.682 28.682v168.317c-.001 5.523-4.478 10.001-10.001 10.001z" fill="url(#SVGID_3_)"/></g></svg>