<svg id="Capa_1" enable-background="new 0 0 512 512" height="512" viewBox="0 0 512 512" width="512" xmlns="http://www.w3.org/2000/svg" xmlns:xlink="http://www.w3.org/1999/xlink"><linearGradient id="SVGID_1_" gradientUnits="userSpaceOnUse" x1="68.572" x2="395.005" y1="430.558" y2="41.53"><stop offset="0" stop-color="#fff3ee" stop-opacity="0"/><stop offset=".2938" stop-color="#ffeade" stop-opacity=".373"/><stop offset=".7874" stop-color="#ffd6bb"/></linearGradient><linearGradient id="SVGID_2_" gradientUnits="userSpaceOnUse" x1="266.879" x2="266.879" y1="411.645" y2="78.448"><stop offset="0" stop-color="#ff4d4d" stop-opacity=".4"/><stop offset="1" stop-color="#ff4d4d" stop-opacity="0"/></linearGradient><g><g><path d="m16.074 302.88c18.727 64.003 72.707 194.564 163.922 182.844 91.486-11.754 55.758-129.724 139.508-145.893 36.867-7.118 61.857 56.689 98.806 54.704 47.588-2.557 71.81-49.663 85.108-89.264 28.197-83.968-14.029-226.352-112.858-251.011-86.245-21.519-96.332 83.855-171.322 53.248-42.149-17.203-37.938-68.576-89.272-78.942-155.299-31.36-138.811 189.15-113.892 274.314z" fill="url(#SVGID_1_)"/></g><g><g><path d="m248.192 207.143h93.302v19.88h-93.302z" fill="#b3b3ff" transform="matrix(.707 .707 -.707 .707 239.858 -144.904)"/><g><g><path d="m63.12 398.59h80.432v20h-80.432z" fill="#b3b3ff" transform="matrix(.707 -.707 .707 .707 -258.65 192.743)"/></g><g><path d="m94.202 385.715h44.017v20h-44.017z" fill="#9494ff" transform="matrix(.707 -.707 .707 .707 -245.776 198.076)"/></g></g><g><path d="m163.054 361.66 61.815-61.815c3.905-3.905 3.905-10.237 0-14.142-3.905-3.905-10.237-3.905-14.142 0l-61.815 61.815z" fill="#6c6cff"/></g><g><g><path d="m160.306 351.62c1.273-1.273 2.255-2.805 2.881-4.493l37.941-102.303 145.037-145.037c4.881-4.881 4.881-12.796 0-17.678-4.881-4.881-12.796-4.881-17.678 0l-146.968 146.969c-1.273 1.273-2.255 2.805-2.881 4.493l-37.941 102.303-36.755 36.755c-4.881 4.881-4.881 12.796 0 17.678l8.839 8.839z" fill="#d9d9ff"/></g><g><path d="m121.619 407.984c4.881 4.881 12.796 4.881 17.678 0l36.755-36.755 102.304-37.941c1.688-.626 3.22-1.608 4.493-2.881l146.968-146.968c4.881-4.881 4.881-12.796 0-17.678-4.881-4.881-12.796-4.881-17.678 0l-145.037 145.037-102.304 37.941c-1.688.626-3.22 1.608-4.493 2.881l-47.525 47.525z" fill="#b3b3ff"/></g></g><g><g><path d="m331.526 114.426 14.639-14.639c4.881-4.881 4.881-12.796 0-17.678-4.881-4.881-12.796-4.881-17.678 0l-14.639 14.639z" fill="#b3b3ff"/></g><g><path d="m415.178 198.078 14.639-14.639c4.881-4.881 4.881-12.796 0-17.678-4.881-4.881-12.796-4.881-17.678 0l-14.639 14.639z" fill="#9494ff"/></g></g><g><path d="m60.821 423.663-5.682 5.682c-7.692 7.692-7.878 20.468-.042 28.013 7.597 7.314 19.685 7.227 27.175-.262l5.991-5.991c2.977-2.977 2.977-7.803 0-10.78l-16.662-16.663c-2.977-2.976-7.803-2.976-10.78.001z" fill="#6c6cff"/></g><path d="m299.463 244.298-31.835-31.835c-1.953-1.953-1.953-5.118 0-7.071l15.525-15.525c1.953-1.953 5.118-1.953 7.071 0l31.835 31.835c1.953 1.953 1.953 5.118 0 7.071l-15.525 15.525c-1.953 1.953-5.118 1.953-7.071 0z" fill="#ffab66"/></g><path d="m429.817 165.761c-4.882-4.881-12.796-4.881-17.678 0l-145.037 145.037-102.304 37.941c-1.688.626-3.22 1.608-4.493 2.881 1.273-1.273 2.255-2.805 2.881-4.493l37.941-102.303 145.038-145.037c4.881-4.881 4.881-12.796 0-17.677s-12.796-4.881-17.678 0l-146.968 146.968c-1.273 1.273-2.255 2.805-2.881 4.493l-37.941 102.303-36.755 36.755c-4.882 4.881-4.882 12.796 0 17.678l8.839 8.839 8.839 8.839c4.881 4.881 12.796 4.881 17.678 0l36.755-36.755 102.304-37.941c1.688-.626 3.22-1.608 4.493-2.881l146.968-146.968c4.881-4.883 4.881-12.798-.001-17.679z" fill="url(#SVGID_2_)"/><path d="m432.054 188.77-108.898-108.898c-3.905-3.905-3.905-10.237 0-14.142l13.58-13.58c3.905-3.905 10.237-3.905 14.142 0l108.898 108.898c3.905 3.905 3.905 10.237 0 14.142l-13.58 13.58c-3.905 3.905-10.237 3.905-14.142 0z" fill="#ffab66"/><g><g><circle cx="364.337" cy="268.793" fill="#ff4d4d" r="69.494"/><path d="m396.674 254.152h-17.695v-17.695c0-5.523-4.477-10-10-10h-9.282c-5.523 0-10 4.477-10 10v17.695h-17.695c-5.523 0-10 4.477-10 10v9.282c0 5.523 4.477 10 10 10h17.695v17.695c0 5.523 4.477 10 10 10h9.282c5.523 0 10-4.477 10-10v-17.695h17.695c5.523 0 10-4.477 10-10v-9.282c0-5.523-4.477-10-10-10z" fill="#fff"/></g></g><g fill="#2c27ff"><path d="m327.104 351.908h-18.583c-2.762 0-5 2.238-5 5s2.238 5 5 5h18.583c2.762 0 5-2.238 5-5 0-2.761-2.239-5-5-5z"/><path d="m327.104 370.29h-58.583c-2.762 0-5 2.238-5 5s2.238 5 5 5h58.583c2.762 0 5-2.238 5-5s-2.239-5-5-5z"/><path d="m327.104 388.671h-58.583c-2.762 0-5 2.238-5 5s2.238 5 5 5h58.583c2.762 0 5-2.238 5-5s-2.239-5-5-5z"/></g><path d="m103.336 319.372c-2.762 0-5-2.238-5-5 0-3.492-2.841-6.333-6.333-6.333-2.762 0-5-2.238-5-5s2.238-5 5-5c3.492 0 6.333-2.841 6.333-6.333 0-2.762 2.238-5 5-5s5 2.238 5 5c0 3.492 2.842 6.333 6.334 6.333 2.762 0 5 2.238 5 5s-2.238 5-5 5c-3.492 0-6.334 2.841-6.334 6.333 0 2.762-2.238 5-5 5z" fill="#ff9d33"/><path d="m462.705 248.302c-2.762 0-5-2.238-5-5 0-3.492-2.842-6.333-6.334-6.333-2.762 0-5-2.238-5-5s2.238-5 5-5c3.492 0 6.334-2.842 6.334-6.334 0-2.762 2.238-5 5-5s5 2.238 5 5c0 3.492 2.841 6.334 6.333 6.334 2.762 0 5 2.238 5 5s-2.238 5-5 5c-3.492 0-6.333 2.841-6.333 6.333 0 2.762-2.238 5-5 5z" fill="#ff4d4d"/><g fill="#6c6cff"><g><path d="m119.981 239.295c-2.762 0-5-2.238-5-5v-.15c0-2.762 2.238-5 5-5s5 2.238 5 5v.15c0 2.762-2.239 5-5 5z"/><path d="m119.981 267.079c-2.762 0-5-2.238-5-5v-.15c0-2.762 2.238-5 5-5s5 2.238 5 5v.15c0 2.762-2.239 5-5 5z"/></g><g><path d="m108.01 246.204c-.841 0-1.693-.213-2.476-.66l-.13-.074c-2.397-1.37-3.23-4.424-1.86-6.821 1.369-2.397 4.422-3.231 6.821-1.86l.13.074c2.397 1.37 3.23 4.424 1.86 6.821-.922 1.615-2.609 2.52-4.345 2.52z"/><path d="m132.071 260.097c-.851 0-1.712-.217-2.5-.674l-.13-.075c-2.39-1.384-3.206-4.442-1.822-6.832 1.384-2.391 4.445-3.206 6.832-1.822l.13.075c2.39 1.384 3.206 4.442 1.822 6.832-.926 1.601-2.606 2.496-4.332 2.496z"/></g><g><path d="m107.89 260.097c-1.726 0-3.405-.895-4.332-2.496-1.384-2.39-.567-5.448 1.822-6.832l.13-.075c2.39-1.386 5.449-.567 6.832 1.822 1.384 2.39.567 5.448-1.822 6.832l-.13.075c-.788.457-1.651.674-2.5.674z"/><path d="m131.951 246.204c-1.736 0-3.423-.905-4.346-2.521-1.37-2.397-.537-5.451 1.86-6.821l.13-.074c2.398-1.37 5.452-.536 6.821 1.86 1.37 2.398.537 5.451-1.86 6.821l-.13.074c-.781.448-1.634.661-2.475.661z"/></g></g><g fill="#ff9d33"><g><path d="m268.129 61.418c-2.762 0-5-2.238-5-5v-.15c0-2.762 2.238-5 5-5s5 2.238 5 5v.15c0 2.762-2.238 5-5 5z"/><path d="m268.129 89.202c-2.762 0-5-2.238-5-5v-.15c0-2.762 2.238-5 5-5s5 2.238 5 5v.15c0 2.762-2.238 5-5 5z"/></g><g><path d="m256.158 68.327c-.841 0-1.693-.213-2.476-.66l-.13-.074c-2.397-1.37-3.23-4.424-1.86-6.821 1.369-2.399 4.423-3.232 6.821-1.86l.13.074c2.397 1.37 3.23 4.424 1.86 6.821-.922 1.615-2.608 2.52-4.345 2.52z"/><path d="m280.221 82.22c-.845 0-1.701-.215-2.486-.666l-.131-.075c-2.395-1.376-3.22-4.432-1.844-6.826 1.377-2.395 4.432-3.22 6.826-1.844l.131.075c2.395 1.376 3.22 4.432 1.844 6.826-.925 1.609-2.609 2.51-4.34 2.51z"/></g><g><path d="m256.038 82.22c-1.727 0-3.405-.895-4.332-2.496-1.384-2.39-.567-5.448 1.822-6.832l.13-.075c2.39-1.386 5.449-.567 6.832 1.822 1.384 2.39.567 5.448-1.822 6.832l-.13.075c-.788.457-1.65.674-2.5.674z"/><path d="m280.1 68.327c-1.742 0-3.434-.911-4.354-2.534-1.362-2.402-.52-5.454 1.883-6.816l.131-.074c2.404-1.361 5.454-.52 6.816 1.883 1.362 2.402.52 5.454-1.883 6.816l-.131.074c-.78.441-1.626.651-2.462.651z"/></g></g><g fill="#ff4d4d"><g><path d="m376.433 378.091c-2.762 0-5-2.238-5-5v-.149c0-2.762 2.238-5 5-5s5 2.238 5 5v.149c0 2.762-2.239 5-5 5z"/><path d="m376.433 405.875c-2.762 0-5-2.238-5-5v-.149c0-2.762 2.238-5 5-5s5 2.238 5 5v.149c0 2.762-2.239 5-5 5z"/></g><g><path d="m364.462 385.001c-.851 0-1.712-.217-2.5-.674l-.13-.075c-2.39-1.384-3.206-4.442-1.822-6.832 1.384-2.392 4.445-3.206 6.832-1.822l.13.075c2.39 1.384 3.206 4.442 1.822 6.832-.927 1.601-2.606 2.496-4.332 2.496z"/><path d="m388.524 398.893c-.845 0-1.701-.215-2.486-.666l-.131-.075c-2.395-1.376-3.22-4.432-1.844-6.826 1.376-2.395 4.432-3.221 6.826-1.844l.131.075c2.395 1.376 3.22 4.432 1.844 6.826-.924 1.609-2.608 2.51-4.34 2.51z"/></g><g><path d="m364.342 398.893c-1.727 0-3.405-.895-4.332-2.496-1.384-2.39-.567-5.448 1.822-6.832l.13-.075c2.39-1.386 5.449-.567 6.832 1.822 1.384 2.39.567 5.448-1.822 6.832l-.13.075c-.788.457-1.651.674-2.5.674z"/><path d="m388.403 385.001c-1.732 0-3.415-.9-4.34-2.51-1.376-2.395-.551-5.45 1.844-6.826l.131-.075c2.396-1.376 5.45-.55 6.826 1.844 1.376 2.395.551 5.45-1.844 6.826l-.131.075c-.784.451-1.641.666-2.486.666z"/></g></g></g></g></svg>