<svg id="Capa_1" enable-background="new 0 0 512 512" height="512" viewBox="0 0 512 512" width="512" xmlns="http://www.w3.org/2000/svg" xmlns:xlink="http://www.w3.org/1999/xlink"><linearGradient id="SVGID_1_" gradientUnits="userSpaceOnUse" x1="96.524" x2="444.685" y1="453.699" y2="38.776"><stop offset="0" stop-color="#fff3ee" stop-opacity="0"/><stop offset=".2938" stop-color="#ffeade" stop-opacity=".373"/><stop offset=".7874" stop-color="#ffd6bb"/></linearGradient><linearGradient id="SVGID_2_" gradientUnits="userSpaceOnUse" x1="243.823" x2="243.823" y1="346.92" y2="148.56"><stop offset="0" stop-color="#ff4d4d" stop-opacity=".4"/><stop offset="1" stop-color="#ff4d4d" stop-opacity="0"/></linearGradient><g><g><path d="m4.896 324.259c17.448 172.871 292.417 167.142 420.803 136.265 82.47-19.834 87.596-59.472 86.106-144.001-.96-54.486 3.443-198.725-32.004-244.123-54.448-69.733-103.228-25.998-170.656-3.235-86.488 29.197-120.189-22.932-202.476-21.379-120.641 2.277-110.778 187.251-101.773 276.473z" fill="url(#SVGID_1_)"/></g><g><g><circle cx="120.995" cy="140.005" fill="#ff4d4d" r="69.494"/><path d="m153.332 125.364h-17.695v-17.696c0-5.523-4.477-10-10-10h-9.282c-5.523 0-10 4.477-10 10v17.696h-17.697c-5.523 0-10 4.477-10 10v9.282c0 5.523 4.477 10 10 10h17.695v17.695c0 5.523 4.477 10 10 10h9.282c5.523 0 10-4.477 10-10v-17.695h17.695c5.523 0 10-4.477 10-10v-9.282c.002-5.523-4.476-10-9.998-10z" fill="#fff"/></g><path d="m243.828 148.56c-68.686 0-139.356 67.224-173.066 90.983-5.681 4.004-5.681 12.39 0 16.395 33.71 23.759 104.378 90.983 173.056 90.983 68.686 0 139.356-67.224 173.066-90.983 5.681-4.004 5.681-12.39 0-16.395-33.71-23.759-104.378-90.983-173.056-90.983z" fill="#fff"/><g><ellipse cx="243.823" cy="247.74" fill="#4d4dff" rx="74.597" ry="74.597" transform="matrix(.152 -.988 .988 .152 -38.021 451.182)"/><ellipse cx="243.823" cy="247.74" fill="#2c27ff" rx="43.638" ry="43.638" transform="matrix(.162 -.987 .987 .162 -40.223 448.097)"/><circle cx="270.776" cy="220.788" fill="#6c6cff" r="19.24"/><circle cx="284.8" cy="228.5" fill="#9494ff" r="10.334"/></g><path d="m243.828 148.56c-68.686 0-139.356 67.224-173.066 90.983-5.681 4.004-5.681 12.39 0 16.395 33.71 23.759 104.378 90.983 173.056 90.983 68.686 0 139.356-67.224 173.066-90.983 5.681-4.004 5.681-12.39 0-16.395-33.71-23.759-104.378-90.983-173.056-90.983z" fill="url(#SVGID_2_)"/><g><g><path d="m392.927 411.488h-113.459c-5.523 0-10-4.477-10-10v-63.83c0-5.523 4.477-10 10-10h113.459c5.523 0 10 4.477 10 10v63.83c0 5.523-4.477 10-10 10z" fill="#ff9d33"/><g><g><path d="m373.751 354.629h-18.583c-2.762 0-5-2.239-5-5s2.238-5 5-5h18.583c2.762 0 5 2.239 5 5s-2.239 5-5 5z" fill="#fff"/></g><g><path d="m373.751 373.01h-58.583c-2.762 0-5-2.239-5-5s2.238-5 5-5h58.583c2.762 0 5 2.239 5 5 0 2.762-2.239 5-5 5z" fill="#fff"/></g><g><path d="m373.751 391.392h-58.583c-2.762 0-5-2.239-5-5s2.238-5 5-5h58.583c2.762 0 5 2.239 5 5s-2.239 5-5 5z" fill="#fff"/></g></g></g><g fill="#2c27ff"><path d="m245.922 369.725h-18.582c-2.761 0-5 2.238-5 5s2.239 5 5 5h18.583c2.761 0 5-2.238 5-5-.001-2.762-2.239-5-5.001-5z"/><path d="m245.922 388.106h-58.582c-2.761 0-5 2.238-5 5s2.239 5 5 5h58.583c2.761 0 5-2.238 5-5-.001-2.761-2.239-5-5.001-5z"/><path d="m245.922 406.488h-58.582c-2.761 0-5 2.238-5 5s2.239 5 5 5h58.583c2.761 0 5-2.238 5-5-.001-2.761-2.239-5-5.001-5z"/></g></g><path d="m97.696 360.962c-2.761 0-5-2.238-5-5 0-3.492-2.841-6.333-6.333-6.333-2.761 0-5-2.238-5-5s2.239-5 5-5c3.492 0 6.333-2.842 6.333-6.334 0-2.762 2.239-5 5-5s5 2.238 5 5c0 3.492 2.841 6.334 6.334 6.334 2.761 0 5 2.238 5 5s-2.239 5-5 5c-3.492 0-6.334 2.841-6.334 6.333 0 2.762-2.239 5-5 5z" fill="#ff4d4d"/><path d="m449.165 324.701c-2.762 0-5-2.238-5-5 0-3.492-2.841-6.333-6.333-6.333-2.762 0-5-2.238-5-5s2.238-5 5-5c3.492 0 6.333-2.841 6.333-6.333 0-2.762 2.238-5 5-5s5 2.238 5 5c0 3.492 2.842 6.333 6.334 6.333 2.762 0 5 2.238 5 5s-2.238 5-5 5c-3.492 0-6.334 2.841-6.334 6.333 0 2.762-2.238 5-5 5z" fill="#ff4d4d"/><path d="m301.349 133.258c-2.762 0-5-2.238-5-5 0-3.492-2.841-6.333-6.333-6.333-2.762 0-5-2.238-5-5s2.238-5 5-5c3.492 0 6.333-2.842 6.333-6.334 0-2.762 2.238-5 5-5s5 2.238 5 5c0 3.492 2.842 6.334 6.334 6.334 2.762 0 5 2.238 5 5s-2.238 5-5 5c-3.492 0-6.334 2.841-6.334 6.333 0 2.762-2.239 5-5 5z" fill="#6c6cff"/><g fill="#ff9d33"><g><path d="m120.995 376.251c-2.761 0-5-2.238-5-5v-.15c0-2.762 2.239-5 5-5s5 2.238 5 5v.15c0 2.762-2.239 5-5 5z"/><path d="m120.995 404.035c-2.761 0-5-2.238-5-5v-.15c0-2.762 2.239-5 5-5s5 2.238 5 5v.15c0 2.762-2.239 5-5 5z"/></g><g><path d="m109.025 383.16c-.839 0-1.688-.211-2.469-.655l-.13-.074c-2.4-1.366-3.238-4.42-1.872-6.819 1.367-2.4 4.421-3.235 6.819-1.872l.13.074c2.4 1.366 3.238 4.42 1.872 6.819-.922 1.619-2.612 2.527-4.35 2.527z"/><path d="m133.086 397.053c-.85 0-1.711-.217-2.501-.674l-.13-.075c-2.39-1.384-3.206-4.442-1.822-6.832 1.383-2.391 4.44-3.208 6.833-1.822l.13.075c2.39 1.384 3.206 4.442 1.822 6.832-.927 1.601-2.606 2.496-4.332 2.496z"/></g><g><path d="m108.904 397.053c-1.729 0-3.41-.897-4.336-2.503-1.38-2.392-.559-5.449 1.833-6.829l.13-.075c2.391-1.381 5.449-.559 6.829 1.833s.559 5.449-1.833 6.829l-.13.075c-.787.454-1.646.67-2.493.67z"/><path d="m132.965 383.16c-1.736 0-3.423-.905-4.346-2.521-1.37-2.397-.537-5.451 1.861-6.821l.13-.074c2.396-1.37 5.452-.538 6.822 1.86 1.37 2.397.537 5.451-1.861 6.821l-.13.074c-.782.448-1.634.661-2.476.661z"/></g></g><g fill="#ff4d4d"><g><path d="m245.922 88.852c-2.761 0-5-2.238-5-5v-.149c0-2.762 2.239-5 5-5s5 2.238 5 5v.149c0 2.761-2.238 5-5 5z"/><path d="m245.922 116.636c-2.761 0-5-2.238-5-5v-.149c0-2.762 2.239-5 5-5s5 2.238 5 5v.149c0 2.761-2.238 5-5 5z"/></g><g><path d="m233.952 95.762c-.85 0-1.712-.217-2.501-.674l-.13-.075c-2.39-1.384-3.206-4.442-1.822-6.832 1.383-2.391 4.441-3.207 6.833-1.822l.13.075c2.39 1.384 3.206 4.442 1.822 6.832-.927 1.601-2.606 2.496-4.332 2.496z"/><path d="m258.014 109.653c-.851 0-1.711-.217-2.501-.674l-.13-.075c-2.39-1.384-3.206-4.442-1.822-6.832 1.384-2.391 4.444-3.206 6.832-1.822l.13.075c2.39 1.384 3.206 4.442 1.822 6.832-.926 1.602-2.606 2.496-4.331 2.496z"/></g><g><path d="m233.831 109.653c-1.726 0-3.405-.895-4.332-2.496-1.384-2.39-.568-5.448 1.822-6.832l.13-.075c2.392-1.386 5.449-.568 6.833 1.822s.568 5.448-1.822 6.832l-.13.075c-.789.457-1.65.674-2.501.674z"/><path d="m257.894 95.762c-1.726 0-3.405-.895-4.332-2.496-1.384-2.39-.568-5.448 1.822-6.832l.13-.075c2.393-1.385 5.45-.567 6.833 1.822 1.384 2.39.567 5.448-1.822 6.832l-.13.075c-.79.457-1.652.674-2.501.674z"/></g></g></g></g></svg>