<svg id="Capa_1" enable-background="new 0 0 512 512" height="512" viewBox="0 0 512 512" width="512" xmlns="http://www.w3.org/2000/svg" xmlns:xlink="http://www.w3.org/1999/xlink"><linearGradient id="SVGID_1_" gradientUnits="userSpaceOnUse" x1="0" x2="512" y1="256" y2="256"><stop offset="0" stop-color="#ffd9d9" stop-opacity="0"/><stop offset=".9981" stop-color="#ffb3b3"/></linearGradient><linearGradient id="SVGID_2_" gradientUnits="userSpaceOnUse" x1="254.505" x2="254.505" y1="473.374" y2="112.592"><stop offset="0" stop-color="#ff4d4d" stop-opacity=".4"/><stop offset="1" stop-color="#ff4d4d" stop-opacity="0"/></linearGradient><g><g><path d="m20.337 133.512c-23.967 39.398-26.493 107.613-8.937 150.256 15.377 37.351 45.966 72.409 86.12 76.801 14.766 1.615 29.858-1.024 44.472 1.638 50.257 9.152 68.952 71.09 108.01 104.014 27.182 22.913 64.898 31.021 100.174 26.607s68.302-20.363 97.376-40.824c22.957-16.157 44.436-36.022 55.764-61.707 23.744-53.839-4.19-118.501-47.587-158.239-13.517-12.377-28.582-23.294-39.875-37.727-11.293-14.434-18.48-33.695-13.099-51.214 4.293-13.977 15.849-24.812 20.227-38.763 5.958-18.984-3.035-40.281-17.802-53.616s-34.308-20.039-53.666-24.64c-81.103-19.281-258.823-11.524-331.177 107.414z" fill="url(#SVGID_1_)"/></g><g><g><g><path d="m257.347 38.626h122.576v151.744h-122.576z" fill="#ffd6bb"/><g><g><path d="m403.634 122.591v235.764c0 42.531-29.772 79.256-71.383 88.054l-118.241 25c-6.274 1.326-12.541 1.965-18.707 1.965-41.629 0-79.008-29.045-87.963-71.401-10.282-48.631 20.805-96.389 69.436-106.671l46.858-9.907v-162.804c0-5.523 4.477-10 10-10h160c5.523 0 10 4.478 10 10z" fill="#ff8b00"/></g><path d="m269.885 168.731 108.339-56.139h15.411c5.523 0 10 4.477 10 10l.001 54.382-78.01 28.345z" fill="#ffc599"/><path d="m223.634 138.372 101.992 66.946-101.965 37.05z" fill="#ff9d33"/><path d="m403.635 176.968v88.42l-180 20.01.03-43.03z" fill="#ffab66"/><path d="m402.155 196.298h-44.46c-2.47 0-4.48 2-4.48 4.47v50.83c0 2.47 2.01 4.47 4.48 4.47h44.46c.52 0 1.02-.09 1.48-.25v-59.27c-.46-.16-.96-.25-1.48-.25zm-18.82 45.37h-15.43v-30.97h15.43z" fill="#ff9d33"/><path d="m403.636 297.733v60.62c0 42.53-29.77 79.26-71.38 88.06l-118.25 25c-6.27 1.32-12.54 1.96-18.7 1.96-24.66 0-47.83-10.19-64.48-27.31z" fill="#ff9d33"/><path d="m385.586 412.413c-12.72 16.94-31.38 29.36-53.33 34l-118.25 25c-6.27 1.32-12.54 1.96-18.7 1.96-41.63 0-79.01-29.04-87.97-71.4-10.28-48.63 20.81-96.39 69.44-106.67l46.86-9.91z" fill="#ffab66"/><path d="m254.505 309.598v.2c0 5.53-4.48 10-10 10h-112.85c11.92-11.98 27.35-20.74 45.12-24.5l46.86-9.91z" fill="#ff9d33"/><path d="m240.665 436.269c-31.46-42.615-62.811-85.552-90.147-130.948-32.917 18.919-51.458 57.501-43.182 96.652 8.96 42.36 46.34 71.4 87.97 71.4 6.16 0 12.43-.64 18.7-1.96l45.487-9.617c-6.267-8.516-12.548-17.021-18.828-25.527z" fill="#ffc599"/><path d="m159.415 319.798h-27.75c5.56-5.59 11.88-10.47 18.85-14.48 2.92 4.85 5.89 9.68 8.9 14.48z" fill="#ffab66"/><path d="m306.486 451.863-92.48 19.55c-6.27 1.32-12.54 1.96-18.7 1.96-41.63 0-79.01-29.04-87.97-71.4-4.07-19.25-1.66-38.36 5.77-55.06z" fill="#ff9d33"/></g></g><path d="m403.634 122.591v235.764c0 42.531-29.772 79.256-71.383 88.054l-118.241 25c-6.274 1.326-12.541 1.965-18.707 1.965-41.629 0-79.008-29.045-87.963-71.401-10.282-48.631 20.805-96.389 69.436-106.671l46.858-9.907v-162.804c0-5.523 4.477-10 10-10h160c5.523 0 10 4.478 10 10z" fill="url(#SVGID_2_)"/><path d="m353.217 179.905v50.826c0 2.471 2.003 4.474 4.474 4.474h44.464c2.471 0 4.474-2.003 4.474-4.474v-50.826c0-2.471-2.003-4.474-4.474-4.474h-44.464c-2.471 0-4.474 2.003-4.474 4.474zm30.12 40.903h-15.436v-30.979h15.436z" fill="#b3b3ff"/><g><path d="m244.504 297.983h-113.459c-5.523 0-10-4.477-10-10v-63.83c0-5.523 4.477-10 10-10h113.459c5.523 0 10 4.477 10 10v63.83c0 5.523-4.477 10-10 10z" fill="#ff4d4d"/><g><g><path d="m225.327 241.124h-18.583c-2.762 0-5-2.239-5-5s2.238-5 5-5h18.583c2.762 0 5 2.239 5 5s-2.238 5-5 5z" fill="#fff"/></g><g><path d="m225.327 259.505h-58.583c-2.762 0-5-2.239-5-5s2.238-5 5-5h58.583c2.762 0 5 2.239 5 5 0 2.762-2.238 5-5 5z" fill="#fff"/></g><g><path d="m225.327 277.887h-58.583c-2.762 0-5-2.239-5-5s2.238-5 5-5h58.583c2.762 0 5 2.239 5 5s-2.238 5-5 5z" fill="#fff"/></g></g></g></g><path d="m145.54 141.518c-2.761 0-5-2.238-5-5 0-3.492-2.841-6.334-6.333-6.334-2.761 0-5-2.238-5-5s2.239-5 5-5c3.492 0 6.333-2.841 6.333-6.333 0-2.762 2.239-5 5-5s5 2.238 5 5c0 3.492 2.841 6.333 6.333 6.333 2.761 0 5 2.238 5 5s-2.239 5-5 5c-3.492 0-6.333 2.842-6.333 6.334 0 2.761-2.239 5-5 5z" fill="#6c6cff"/><path d="m70.766 399.061c-2.761 0-5-2.238-5-5 0-3.492-2.841-6.334-6.333-6.334-2.761 0-5-2.238-5-5s2.239-5 5-5c3.492 0 6.333-2.841 6.333-6.333 0-2.762 2.239-5 5-5s5 2.238 5 5c0 3.492 2.841 6.333 6.333 6.333 2.761 0 5 2.238 5 5s-2.239 5-5 5c-3.492 0-6.333 2.842-6.333 6.334 0 2.762-2.239 5-5 5z" fill="#ff4d4d"/><path d="m450.009 187.49c-2.761 0-5-2.238-5-5 0-3.492-2.841-6.334-6.333-6.334-2.761 0-5-2.238-5-5s2.239-5 5-5c3.492 0 6.333-2.841 6.333-6.333 0-2.762 2.239-5 5-5s5 2.238 5 5c0 3.492 2.841 6.333 6.333 6.333 2.761 0 5 2.238 5 5s-2.239 5-5 5c-3.492 0-6.333 2.842-6.333 6.334 0 2.762-2.239 5-5 5z" fill="#ff4d4d"/><path d="m76.281 338.671c-2.761 0-5-2.238-5-5 0-3.492-2.841-6.334-6.334-6.334-2.761 0-5-2.238-5-5s2.239-5 5-5c3.492 0 6.334-2.841 6.334-6.333 0-2.762 2.239-5 5-5s5 2.238 5 5c0 3.492 2.841 6.333 6.333 6.333 2.761 0 5 2.238 5 5s-2.239 5-5 5c-3.492 0-6.333 2.842-6.333 6.334 0 2.762-2.239 5-5 5z" fill="#ff9d33"/><g fill="#ff4d4d"><g><path d="m182.433 155.431c-2.761 0-5-2.238-5-5v-.149c0-2.762 2.239-5 5-5s5 2.238 5 5v.149c0 2.761-2.239 5-5 5z"/><path d="m182.433 183.215c-2.761 0-5-2.238-5-5v-.149c0-2.762 2.239-5 5-5s5 2.238 5 5v.149c0 2.762-2.239 5-5 5z"/></g><g><path d="m170.462 162.341c-.85 0-1.711-.217-2.501-.674l-.13-.075c-2.39-1.384-3.205-4.442-1.822-6.832 1.384-2.39 4.441-3.207 6.833-1.822l.13.075c2.39 1.384 3.205 4.442 1.822 6.832-.927 1.601-2.606 2.496-4.332 2.496z"/><path d="m194.523 176.232c-.85 0-1.711-.217-2.501-.674l-.13-.075c-2.39-1.384-3.206-4.442-1.822-6.832 1.383-2.39 4.441-3.207 6.833-1.822l.13.075c2.39 1.384 3.206 4.442 1.822 6.832-.926 1.602-2.606 2.496-4.332 2.496z"/></g><g><path d="m170.342 176.232c-1.726 0-3.405-.895-4.332-2.496-1.384-2.39-.568-5.448 1.822-6.832l.13-.075c2.392-1.385 5.449-.567 6.833 1.822 1.384 2.39.568 5.448-1.822 6.832l-.13.075c-.79.458-1.651.674-2.501.674z"/><path d="m194.403 162.341c-1.726 0-3.405-.895-4.332-2.496-1.384-2.39-.568-5.448 1.822-6.832l.13-.075c2.392-1.385 5.449-.567 6.833 1.822 1.384 2.39.568 5.448-1.822 6.832l-.13.075c-.789.457-1.651.674-2.501.674z"/></g></g></g></g></svg>