<svg id="Capa_1" enable-background="new 0 0 512 512" height="512" viewBox="0 0 512 512" width="512" xmlns="http://www.w3.org/2000/svg" xmlns:xlink="http://www.w3.org/1999/xlink"><linearGradient id="SVGID_1_" gradientUnits="userSpaceOnUse" x1="0" x2="512" y1="256.151" y2="256.151"><stop offset="0" stop-color="#ffd9d9" stop-opacity="0"/><stop offset=".9981" stop-color="#ffb3b3"/></linearGradient><linearGradient id="SVGID_2_" gradientUnits="userSpaceOnUse" x1="276" x2="276" y1="437.21" y2="75.092"><stop offset="0" stop-color="#ff4d4d" stop-opacity=".4"/><stop offset="1" stop-color="#ff4d4d" stop-opacity="0"/></linearGradient><g><g><path d="m20.337 133.663c-23.967 39.398-26.493 107.613-8.937 150.256 15.377 37.351 45.966 72.409 86.12 76.801 14.766 1.615 29.858-1.024 44.472 1.638 50.258 9.152 68.952 71.09 108.01 104.014 27.183 22.913 64.898 31.022 100.174 26.607 35.276-4.414 68.302-20.363 97.376-40.824 22.957-16.157 44.436-36.022 55.764-61.707 23.744-53.839-4.19-118.501-47.587-158.239-13.516-12.377-28.581-23.294-39.875-37.727-11.293-14.434-18.48-33.695-13.099-51.214 4.293-13.977 15.849-24.812 20.227-38.763 5.958-18.984-3.035-40.281-17.802-53.616s-34.308-20.039-53.666-24.64c-81.103-19.281-258.823-11.524-331.177 107.414z" fill="url(#SVGID_1_)"/></g><g><g><path d="m408.263 437.21h-264.526c-5.523 0-10-4.477-10-10v-342.118c0-5.523 4.477-10 10-10h264.526c5.523 0 10 4.477 10 10v342.118c0 5.523-4.477 10-10 10z" fill="#d9d9ff"/><path d="m203.23 359.121c0 38.35-31.06 69.44-69.39 69.49-.07-.46-.1-.92-.1-1.4v-137.58c38.38 0 69.49 31.11 69.49 69.49z" fill="#b3b3ff"/><path d="m133.737 123.085h284.526v32.098h-284.526z" fill="#b3b3ff"/><path d="m379.9 224.741v167.04c0 2.76-2.24 5-5 5h-197.8c-2.76 0-5-2.24-5-5v-167.04c0-2.76 2.24-5 5-5h197.8c2.76 0 5 2.24 5 5z" fill="#fff"/><path d="m203.23 359.121c0 13.88-4.07 26.81-11.08 37.66h-15.05c-2.76 0-5-2.24-5-5v-90.6c18.76 12.43 31.13 33.74 31.13 57.94z" fill="#ebebff"/><g><g><g><path d="m275.24 285.633h76.52c2.762 0 5-2.239 5-5s-2.238-5-5-5h-76.52c-2.762 0-5 2.239-5 5s2.238 5 5 5z" fill="#6c6cff"/></g><g><path d="m275.24 303.633h76.52c2.762 0 5-2.239 5-5s-2.238-5-5-5h-76.52c-2.762 0-5 2.239-5 5s2.238 5 5 5z" fill="#6c6cff"/></g><g><path d="m305.24 321.633h46.52c2.762 0 5-2.239 5-5s-2.238-5-5-5h-46.52c-2.762 0-5 2.239-5 5s2.238 5 5 5z" fill="#6c6cff"/></g></g><g><g><path d="m200.24 355.779h151.52c2.762 0 5-2.239 5-5s-2.238-5-5-5h-151.52c-2.762 0-5 2.239-5 5s2.238 5 5 5z" fill="#6c6cff"/></g><g><path d="m200.24 373.779h151.52c2.762 0 5-2.239 5-5s-2.238-5-5-5h-151.52c-2.762 0-5 2.239-5 5s2.238 5 5 5z" fill="#6c6cff"/></g></g></g><path d="m379.896 250.555v-25.817c0-2.762-2.239-5-5-5h-197.792c-2.761 0-5 2.238-5 5v25.817z" fill="#ff6c6c"/><g><g><circle cx="218.902" cy="270.633" fill="#ffab66" r="5"/></g><g><circle cx="203.231" cy="270.633" fill="#ffab66" r="5"/></g></g><path d="m408.263 437.21h-264.526c-5.523 0-10-4.477-10-10v-342.118c0-5.523 4.477-10 10-10h264.526c5.523 0 10 4.477 10 10v342.118c0 5.523-4.477 10-10 10z" fill="url(#SVGID_2_)"/><g><circle cx="133.737" cy="333.481" fill="#ff4d4d" r="69.494"/><path d="m166.074 318.84h-17.695v-17.696c0-5.523-4.477-10-10-10h-9.282c-5.523 0-10 4.477-10 10v17.696h-17.697c-5.523 0-10 4.477-10 10v9.282c0 5.523 4.477 10 10 10h17.696v17.695c0 5.523 4.477 10 10 10h9.282c5.523 0 10-4.477 10-10v-17.695h17.695c5.523 0 10-4.477 10-10v-9.282c.001-5.523-4.477-10-9.999-10z" fill="#fff"/></g><path d="m423.943 129.596h-295.886c-2.762 0-5-2.238-5-5v-10.384c0-2.762 2.238-5 5-5h295.887c2.762 0 5 2.238 5 5v10.384c-.001 2.761-2.239 5-5.001 5z" fill="#ff4d4d"/></g><path d="m69.938 189.333c-2.761 0-5-2.239-5-5 0-3.492-2.841-6.333-6.333-6.333-2.761 0-5-2.239-5-5s2.239-5 5-5c3.492 0 6.333-2.841 6.333-6.333 0-2.761 2.239-5 5-5s5 2.239 5 5c0 3.492 2.841 6.333 6.333 6.333 2.761 0 5 2.239 5 5s-2.239 5-5 5c-3.492 0-6.333 2.841-6.333 6.333 0 2.761-2.238 5-5 5z" fill="#ff9d33"/><path d="m461.94 195.871c-2.761 0-5-2.239-5-5 0-3.492-2.841-6.333-6.333-6.333-2.761 0-5-2.239-5-5s2.239-5 5-5c3.492 0 6.333-2.841 6.333-6.333 0-2.761 2.239-5 5-5s5 2.239 5 5c0 3.492 2.841 6.333 6.333 6.333 2.761 0 5 2.239 5 5s-2.239 5-5 5c-3.492 0-6.333 2.841-6.333 6.333 0 2.761-2.238 5-5 5z" fill="#ff9d33"/><path d="m91.4 453.544c-2.761 0-5-2.239-5-5 0-3.492-2.841-6.333-6.333-6.333-2.761 0-5-2.239-5-5s2.239-5 5-5c3.492 0 6.333-2.841 6.333-6.333 0-2.761 2.239-5 5-5s5 2.239 5 5c0 3.492 2.841 6.333 6.334 6.333 2.761 0 5 2.239 5 5s-2.239 5-5 5c-3.492 0-6.334 2.841-6.334 6.333 0 2.761-2.238 5-5 5z" fill="#6c6cff"/><g fill="#ff4d4d"><g><g><path d="m86.51 218.736c-2.761 0-5-2.239-5-5v-.15c0-2.761 2.239-5 5-5s5 2.239 5 5v.15c0 2.762-2.239 5-5 5z"/><path d="m86.51 246.521c-2.761 0-5-2.239-5-5v-.15c0-2.761 2.239-5 5-5s5 2.239 5 5v.15c0 2.761-2.239 5-5 5z"/></g><g><path d="m74.54 225.646c-.848 0-1.706-.216-2.493-.67l-.13-.075c-2.392-1.379-3.213-4.437-1.833-6.829 1.379-2.392 4.437-3.214 6.829-1.833l.13.075c2.392 1.379 3.213 4.437 1.833 6.829-.926 1.605-2.607 2.503-4.336 2.503z"/><path d="m98.601 239.538c-.85 0-1.712-.217-2.5-.674l-.13-.075c-2.39-1.384-3.206-4.442-1.822-6.833 1.383-2.389 4.442-3.205 6.833-1.822l.13.075c2.39 1.384 3.206 4.442 1.822 6.833-.928 1.601-2.607 2.496-4.333 2.496z"/></g><g><path d="m74.419 239.538c-1.729 0-3.41-.898-4.336-2.503-1.38-2.392-.559-5.45 1.833-6.829l.13-.075c2.392-1.381 5.45-.559 6.829 1.833 1.38 2.392.559 5.45-1.833 6.829l-.13.075c-.787.454-1.646.67-2.493.67z"/><path d="m98.481 225.646c-1.726 0-3.405-.895-4.332-2.496-1.384-2.39-.568-5.449 1.822-6.833l.13-.075c2.391-1.383 5.449-.568 6.832 1.822 1.384 2.39.568 5.449-1.822 6.832l-.13.075c-.789.458-1.65.675-2.5.675z"/></g></g><g><g><path d="m382.917 28.017c-2.761 0-5-2.239-5-5v-.15c0-2.761 2.239-5 5-5s5 2.239 5 5v.15c0 2.761-2.238 5-5 5z"/><path d="m382.917 55.801c-2.761 0-5-2.239-5-5v-.15c0-2.761 2.239-5 5-5s5 2.239 5 5v.15c0 2.761-2.238 5-5 5z"/></g><g><path d="m370.947 34.926c-.843 0-1.697-.213-2.481-.663l-.13-.075c-2.396-1.373-3.225-4.428-1.853-6.824 1.373-2.395 4.428-3.226 6.824-1.853l.13.075c2.396 1.373 3.225 4.428 1.853 6.824-.924 1.613-2.609 2.516-4.343 2.516z"/><path d="m395.008 48.818c-.846 0-1.702-.215-2.488-.667l-.13-.075c-2.393-1.376-3.218-4.433-1.841-6.827 1.377-2.393 4.432-3.218 6.827-1.841l.13.075c2.394 1.377 3.218 4.433 1.841 6.827-.925 1.608-2.608 2.508-4.339 2.508z"/></g><g><path d="m370.826 48.818c-1.734 0-3.419-.903-4.343-2.515-1.373-2.396-.543-5.451 1.853-6.824l.13-.075c2.395-1.374 5.451-.543 6.824 1.853s.543 5.451-1.853 6.824l-.13.075c-.784.449-1.638.662-2.481.662z"/><path d="m394.888 34.926c-1.731 0-3.414-.9-4.339-2.508-1.377-2.394-.553-5.451 1.841-6.827l.13-.075c2.395-1.378 5.45-.552 6.827 1.841 1.377 2.394.553 5.451-1.841 6.827l-.13.075c-.785.452-1.643.667-2.488.667z"/></g></g></g></g></g></svg>