<svg id="Capa_1" enable-background="new 0 0 512 512" height="512" viewBox="0 0 512 512" width="512" xmlns="http://www.w3.org/2000/svg" xmlns:xlink="http://www.w3.org/1999/xlink"><linearGradient id="SVGID_1_" gradientUnits="userSpaceOnUse" x1="0" x2="512" y1="256" y2="256"><stop offset="0" stop-color="#ffd9d9" stop-opacity="0"/><stop offset=".9981" stop-color="#ffb3b3"/></linearGradient><linearGradient id="SVGID_2_" gradientUnits="userSpaceOnUse" x1="281.982" x2="281.982" y1="417.798" y2="53.434"><stop offset="0" stop-color="#ff4d4d" stop-opacity=".4"/><stop offset="1" stop-color="#ff4d4d" stop-opacity="0"/></linearGradient><g><g><path d="m451.798 43.963c-160.556-97.869-410.51-8.611-439.594 61.949-38.908 94.393 26.578 110.528 38.743 187.874 9.761 62.061-51.182 121.495-16.394 176.282 37.882 59.663 163.465 44.681 211.198 16.447 87.376-51.682 43.309-112.012 84.684-187.299 39.408-71.707 116.244-42.625 160.961-99.99 42.5-54.521 14.311-122.402-39.598-155.263z" fill="url(#SVGID_1_)"/></g><g><g><g><circle cx="281.982" cy="235.616" fill="#ff4d4d" r="182.182"/><path d="m169.25 351.97-18.09 10.44c-8.28-8.55-15.74-17.9-22.23-27.94l22.67-13.08c1.66-.97 3.79-.4 4.75 1.27l14.18 24.55c.96 1.66.39 3.79-1.28 4.76z" fill="#ff2c2c"/><path d="m207.35 88.96v63.83c0 5.52-4.47 10-10 10h-82.41c15.32-35.08 41.36-64.4 73.98-83.83h8.43c5.53 0 10 4.48 10 10z" fill="#ff2c2c"/><path d="m377.969 197.234h-57.605v-57.605c0-8.284-6.716-15-15-15h-46.765c-8.284 0-15 6.716-15 15v57.605h-57.605c-8.284 0-15 6.716-15 15v46.765c0 8.284 6.716 15 15 15h57.605v57.605c0 8.284 6.716 15 15 15h46.765c8.284 0 15-6.716 15-15v-57.605h57.605c8.284 0 15-6.716 15-15v-46.765c0-8.284-6.715-15-15-15z" fill="#fff"/></g><circle cx="281.982" cy="235.616" fill="url(#SVGID_2_)" r="182.182"/><path d="m170.527 327.685-14.172-24.547c-.962-1.666-3.093-2.237-4.759-1.275l-24.525 14.159v-28.319c0-1.924-1.56-3.484-3.484-3.484h-28.344c-1.924 0-3.484 1.56-3.484 3.484v28.319l-24.525-14.159c-1.666-.962-3.797-.391-4.759 1.275l-14.172 24.547c-.962 1.666-.391 3.797 1.275 4.759l24.525 14.16-24.525 14.159c-1.666.962-2.237 3.093-1.275 4.759l14.172 24.547c.962 1.666 3.093 2.237 4.759 1.275l24.525-14.159v28.319c0 1.924 1.56 3.484 3.484 3.484h28.344c1.924 0 3.484-1.56 3.484-3.484v-28.319l24.525 14.159c1.666.962 3.797.391 4.759-1.275l14.172-24.547c.962-1.666.391-3.797-1.275-4.759l-24.525-14.159 24.525-14.16c1.666-.962 2.237-3.092 1.275-4.759z" fill="#8383ff"/><g><path d="m197.354 140.972h-113.46c-5.523 0-10-4.477-10-10v-63.83c0-5.523 4.477-10 10-10h113.459c5.523 0 10 4.477 10 10v63.83c.001 5.523-4.477 10-9.999 10z" fill="#ff9d33"/><g><g><path d="m178.177 84.113h-18.583c-2.762 0-5-2.239-5-5s2.238-5 5-5h18.583c2.762 0 5 2.239 5 5s-2.239 5-5 5z" fill="#fff"/></g><g><path d="m178.177 102.495h-58.583c-2.762 0-5-2.239-5-5s2.238-5 5-5h58.583c2.762 0 5 2.239 5 5s-2.239 5-5 5z" fill="#fff"/></g><g><path d="m178.177 120.876h-58.583c-2.762 0-5-2.239-5-5s2.238-5 5-5h58.583c2.762 0 5 2.239 5 5s-2.239 5-5 5z" fill="#fff"/></g></g></g><g><path d="m454.164 438.759h-113.46c-5.523 0-10-4.477-10-10v-63.83c0-5.523 4.477-10 10-10h113.459c5.523 0 10 4.477 10 10v63.83c.001 5.523-4.477 10-9.999 10z" fill="#fff"/><g fill="#2c27ff"><path d="m185.954 416.802h-18.583c-2.762 0-5 2.239-5 5s2.238 5 5 5h18.583c2.762 0 5-2.239 5-5s-2.238-5-5-5z"/><path d="m185.954 435.184h-58.583c-2.762 0-5 2.239-5 5s2.238 5 5 5h58.583c2.762 0 5-2.239 5-5s-2.238-5-5-5z"/><path d="m185.954 453.565h-58.583c-2.762 0-5 2.239-5 5s2.238 5 5 5h58.583c2.762 0 5-2.239 5-5s-2.238-5-5-5z"/></g><g><g><path d="m434.987 381.899h-18.583c-2.762 0-5-2.239-5-5s2.238-5 5-5h18.583c2.762 0 5 2.239 5 5s-2.239 5-5 5z" fill="#6c6cff"/></g><g><path d="m434.987 400.281h-58.583c-2.762 0-5-2.239-5-5s2.238-5 5-5h58.583c2.762 0 5 2.239 5 5s-2.239 5-5 5z" fill="#6c6cff"/></g><g><path d="m434.987 418.662h-58.583c-2.762 0-5-2.239-5-5s2.238-5 5-5h58.583c2.762 0 5 2.239 5 5 0 2.762-2.239 5-5 5z" fill="#6c6cff"/></g></g></g></g><g fill="#6c6cff"><g><path d="m67.367 167.712c-2.762 0-5-2.239-5-5v-.15c0-2.761 2.238-5 5-5s5 2.239 5 5v.15c0 2.762-2.238 5-5 5z"/><path d="m67.367 195.497c-2.762 0-5-2.239-5-5v-.15c0-2.761 2.238-5 5-5s5 2.239 5 5v.15c0 2.761-2.238 5-5 5z"/></g><g><path d="m55.397 174.622c-.84 0-1.691-.212-2.474-.659l-.131-.075c-2.398-1.369-3.232-4.423-1.863-6.821 1.367-2.398 4.42-3.232 6.82-1.863l.131.075c2.398 1.369 3.232 4.423 1.863 6.821-.922 1.615-2.61 2.522-4.346 2.522z"/><path d="m79.458 188.514c-.851 0-1.712-.217-2.5-.674l-.13-.075c-2.39-1.384-3.206-4.442-1.822-6.832s4.445-3.205 6.832-1.822l.13.075c2.39 1.384 3.206 4.442 1.822 6.833-.927 1.6-2.606 2.495-4.332 2.495z"/></g><g><path d="m55.275 188.514c-1.732 0-3.415-.9-4.34-2.51-1.376-2.395-.551-5.451 1.844-6.827l.131-.075c2.396-1.376 5.45-.55 6.826 1.844 1.376 2.395.551 5.451-1.844 6.827l-.131.075c-.784.451-1.641.666-2.486.666z"/><path d="m79.338 174.622c-1.731 0-3.414-.9-4.339-2.508-1.377-2.394-.553-5.451 1.841-6.827l.13-.075c2.396-1.378 5.451-.552 6.827 1.841 1.377 2.394.553 5.451-1.841 6.827l-.13.075c-.786.452-1.642.667-2.488.667z"/></g></g><g fill="#ff9d33"><g><path d="m307.454 451.367c-2.762 0-5-2.239-5-5v-.15c0-2.761 2.238-5 5-5s5 2.239 5 5v.15c0 2.761-2.238 5-5 5z"/><path d="m307.454 479.151c-2.762 0-5-2.239-5-5v-.15c0-2.761 2.238-5 5-5s5 2.239 5 5v.15c0 2.762-2.238 5-5 5z"/></g><g><path d="m295.483 458.276c-.84 0-1.691-.212-2.474-.659l-.131-.075c-2.398-1.369-3.232-4.423-1.863-6.821 1.367-2.397 4.421-3.232 6.82-1.863l.131.075c2.398 1.369 3.232 4.423 1.863 6.821-.921 1.616-2.609 2.522-4.346 2.522z"/><path d="m319.545 472.169c-.846 0-1.702-.215-2.488-.667l-.13-.075c-2.394-1.376-3.218-4.433-1.841-6.827 1.377-2.393 4.432-3.219 6.827-1.841l.13.075c2.393 1.376 3.218 4.433 1.841 6.827-.925 1.608-2.608 2.508-4.339 2.508z"/></g><g><path d="m295.362 472.169c-1.736 0-3.425-.906-4.347-2.522-1.369-2.398-.535-5.452 1.863-6.821l.131-.075c2.397-1.369 5.453-.535 6.82 1.863 1.369 2.398.535 5.452-1.863 6.821l-.131.075c-.78.446-1.633.659-2.473.659z"/><path d="m319.425 458.276c-1.731 0-3.414-.9-4.339-2.508-1.377-2.394-.553-5.451 1.841-6.827l.13-.075c2.396-1.376 5.451-.553 6.827 1.841 1.377 2.394.553 5.451-1.841 6.827l-.13.075c-.786.453-1.642.667-2.488.667z"/></g></g><path d="m459.986 120.962c-2.762 0-5-2.239-5-5 0-3.492-2.841-6.333-6.333-6.333-2.762 0-5-2.239-5-5s2.238-5 5-5c3.492 0 6.333-2.841 6.333-6.333 0-2.761 2.238-5 5-5s5 2.239 5 5c0 3.492 2.842 6.333 6.334 6.333 2.762 0 5 2.239 5 5s-2.238 5-5 5c-3.492 0-6.334 2.841-6.334 6.333 0 2.761-2.238 5-5 5z" fill="#ff4d4d"/><path d="m262.333 464.609c-2.762 0-5-2.239-5-5 0-3.492-2.841-6.333-6.333-6.333-2.762 0-5-2.239-5-5s2.238-5 5-5c3.492 0 6.333-2.841 6.333-6.333 0-2.761 2.238-5 5-5s5 2.239 5 5c0 3.492 2.842 6.333 6.334 6.333 2.762 0 5 2.239 5 5s-2.238 5-5 5c-3.492 0-6.334 2.841-6.334 6.333 0 2.761-2.238 5-5 5z" fill="#ff4d4d"/><path d="m427.737 84.809c-2.762 0-5-2.239-5-5 0-3.492-2.842-6.333-6.334-6.333-2.762 0-5-2.239-5-5s2.238-5 5-5c3.492 0 6.334-2.841 6.334-6.333 0-2.761 2.238-5 5-5s5 2.239 5 5c0 3.492 2.841 6.333 6.333 6.333 2.762 0 5 2.239 5 5s-2.238 5-5 5c-3.492 0-6.333 2.841-6.333 6.333 0 2.761-2.238 5-5 5z" fill="#6c6cff"/></g></g></svg>