<svg id="Capa_1" enable-background="new 0 0 512 512" height="512" viewBox="0 0 512 512" width="512" xmlns="http://www.w3.org/2000/svg" xmlns:xlink="http://www.w3.org/1999/xlink"><linearGradient id="SVGID_1_" gradientUnits="userSpaceOnUse" x1="68.572" x2="395.005" y1="430.558" y2="41.53"><stop offset="0" stop-color="#fff3ee" stop-opacity="0"/><stop offset=".2938" stop-color="#ffeade" stop-opacity=".373"/><stop offset=".7874" stop-color="#ffd6bb"/></linearGradient><linearGradient id="SVGID_2_" gradientUnits="userSpaceOnUse" x1="265.688" x2="265.688" y1="441.731" y2="108.74"><stop offset="0" stop-color="#ff4d4d" stop-opacity=".4"/><stop offset="1" stop-color="#ff4d4d" stop-opacity="0"/></linearGradient><g><g><path d="m16.074 302.88c18.727 64.003 72.707 194.564 163.922 182.845 91.486-11.755 55.758-129.725 139.508-145.894 36.867-7.118 61.857 56.689 98.806 54.704 47.588-2.557 71.81-49.663 85.108-89.264 28.197-83.968-14.029-226.352-112.858-251.011-86.245-21.519-96.333 83.855-171.322 53.248-42.149-17.203-37.938-68.576-89.272-78.942-155.299-31.36-138.811 189.15-113.892 274.314z" fill="url(#SVGID_1_)"/></g><g><g><g><path d="m346.058 108.74c-14.564 0-27.79 5.375-37.896 14.193-11.39 9.939-25.937 15.508-41.054 15.508h-2.841c-15.117 0-29.664-5.57-41.054-15.508-10.105-8.818-23.332-14.193-37.896-14.193-35.288 0-62.314 31.387-57.074 66.284l36.171 240.89c2.228 14.84 14.977 25.818 29.984 25.818 15.865 0 29.047-12.23 30.235-28.05l2.896-38.576c1.499-19.966 18.136-35.401 38.159-35.401 20.022 0 36.66 15.435 38.159 35.401l2.896 38.576c1.188 15.82 14.37 28.05 30.235 28.05 15.007 0 27.755-10.978 29.984-25.818l36.171-240.89c5.239-34.897-21.787-66.284-57.075-66.284z" fill="#fff"/><path d="m382.43 312.86-12.58 83.83h-29.11c-5.53 0-10-4.47-10-10v-63.83c0-5.52 4.47-10 10-10z" fill="#ebebff"/><path d="m256.808 174.036c0 52.25-42.35 94.61-94.6 94.61-6.94 0-13.71-.75-20.23-2.17l-13.73-91.45c-.44-2.93-.65-5.83-.65-8.69 0-31.25 25.39-57.6 57.72-57.6 14.56 0 27.79 5.38 37.9 14.2 7.5 6.54 16.36 11.19 25.85 13.6 4.98 11.5 7.74 24.18 7.74 37.5z" fill="#ebebff"/><path d="m346.058 108.74c-14.564 0-27.79 5.375-37.896 14.193-11.39 9.939-25.937 15.508-41.054 15.508h-2.841c-15.117 0-29.664-5.57-41.054-15.508-10.105-8.818-23.332-14.193-37.896-14.193-35.288 0-62.314 31.387-57.074 66.284l36.171 240.89c2.228 14.84 14.977 25.818 29.984 25.818 15.865 0 29.047-12.23 30.235-28.05l2.896-38.576c1.499-19.966 18.136-35.401 38.159-35.401 20.022 0 36.66 15.435 38.159 35.401l2.896 38.576c1.188 15.82 14.37 28.05 30.235 28.05 15.007 0 27.755-10.978 29.984-25.818l36.171-240.89c5.239-34.897-21.787-66.284-57.075-66.284z" fill="url(#SVGID_2_)"/><g><ellipse cx="162.209" cy="151.704" fill="#ff6c6c" rx="94.604" ry="94.604" transform="matrix(.707 -.707 .707 .707 -59.761 159.132)"/><circle cx="162.209" cy="151.704" fill="#d9d9ff" r="75.218"/></g><path d="m237.428 151.706c0 41.54-33.68 75.22-75.22 75.22s-75.22-33.68-75.22-75.22c0-.91.02-1.83.05-2.73 0-.01 0-.01 0-.01 10.83-29.71 39.31-51.49 73.52-51.49 19.73 0 37.65 7.28 51.34 19.23 6.8 5.94 14.44 10.72 22.62 14.21 1.89 6.6 2.91 13.58 2.91 20.79z" fill="#fff"/><path d="m195.898 157.686c-.79.47-1.67.69-2.53.69-1.71 0-3.38-.88-4.31-2.47l-8.07-13.74c-.59-1.01-1.58-1.71-2.73-1.94l-7.12-1.4-9.06 17.79c-.41.8-.54 1.72-.36 2.6l5.39 26.97c.54 2.71-1.21 5.34-3.92 5.88-.33.07-.66.1-.99.1-2.33 0-4.42-1.64-4.89-4.02l-5.4-26.97c-.61-3.07-.17-6.3 1.26-9.1l8.45-16.6c-2.8-2.14-4.77-5.3-5.36-8.91l-4.67-28.58c2.94-.34 5.93-.51 8.97-.51.36 0 .72 0 1.08.01l4.49 27.47c.27 1.67 1.57 3.01 3.23 3.33l10.83 2.13c3.95.78 7.38 3.21 9.42 6.68l8.07 13.75c1.4 2.38.6 5.45-1.78 6.84z" fill="#6c6cff"/></g><g><path d="m454.197 376.421h-113.46c-5.523 0-10-4.477-10-10v-63.83c0-5.523 4.477-10 10-10h113.459c5.523 0 10 4.477 10 10v63.83c.001 5.523-4.476 10-9.999 10z" fill="#ff9d33"/><g fill="#2c27ff"><path d="m120.791 263.034h-18.582c-2.761 0-5 2.238-5 5s2.239 5 5 5h18.582c2.761 0 5-2.238 5-5 0-2.761-2.239-5-5-5z"/><path d="m120.791 281.416h-58.583c-2.761 0-5 2.238-5 5s2.239 5 5 5h58.582c2.761 0 5-2.238 5-5 .001-2.762-2.238-5-4.999-5z"/><path d="m120.791 299.797h-58.583c-2.761 0-5 2.238-5 5s2.239 5 5 5h58.582c2.761 0 5-2.238 5-5 .001-2.762-2.238-5-4.999-5z"/></g><g><g><path d="m435.02 319.562h-18.583c-2.762 0-5-2.239-5-5s2.238-5 5-5h18.583c2.762 0 5 2.239 5 5s-2.238 5-5 5z" fill="#fff"/></g><g><path d="m435.02 337.943h-58.583c-2.762 0-5-2.239-5-5s2.238-5 5-5h58.583c2.762 0 5 2.239 5 5s-2.238 5-5 5z" fill="#fff"/></g><g><path d="m435.02 356.325h-58.583c-2.762 0-5-2.239-5-5s2.238-5 5-5h58.583c2.762 0 5 2.239 5 5s-2.238 5-5 5z" fill="#fff"/></g></g></g></g><path d="m113.541 379.806c-2.761 0-5-2.238-5-5 0-3.492-2.841-6.333-6.333-6.333-2.761 0-5-2.238-5-5s2.239-5 5-5c3.492 0 6.333-2.841 6.333-6.333 0-2.762 2.239-5 5-5s5 2.238 5 5c0 3.492 2.841 6.333 6.333 6.333 2.761 0 5 2.238 5 5s-2.239 5-5 5c-3.492 0-6.333 2.841-6.333 6.333 0 2.761-2.239 5-5 5z" fill="#ff9d33"/><path d="m265.9 83.552c-2.762 0-5-2.238-5-5 0-3.492-2.841-6.333-6.333-6.333-2.761 0-5-2.238-5-5s2.239-5 5-5c3.492 0 6.333-2.841 6.333-6.333 0-2.762 2.238-5 5-5s5 2.238 5 5c0 3.492 2.842 6.333 6.334 6.333 2.762 0 5 2.238 5 5s-2.238 5-5 5c-3.492 0-6.334 2.841-6.334 6.333 0 2.762-2.238 5-5 5z" fill="#ff9d33"/><path d="m309.404 92.165c-2.762 0-5-2.238-5-5 0-3.492-2.841-6.333-6.333-6.333-2.762 0-5-2.238-5-5s2.238-5 5-5c3.492 0 6.333-2.841 6.333-6.333 0-2.762 2.238-5 5-5s5 2.238 5 5c0 3.492 2.841 6.333 6.333 6.333 2.762 0 5 2.238 5 5s-2.238 5-5 5c-3.492 0-6.333 2.841-6.333 6.333 0 2.762-2.238 5-5 5z" fill="#6c6cff"/><g fill="#6c6cff"><g><path d="m83.82 387.873c-2.761 0-5-2.238-5-5v-.15c0-2.762 2.239-5 5-5s5 2.238 5 5v.15c0 2.762-2.238 5-5 5z"/><path d="m83.82 415.657c-2.761 0-5-2.238-5-5v-.15c0-2.762 2.239-5 5-5s5 2.238 5 5v.15c0 2.762-2.238 5-5 5z"/></g><g><path d="m71.85 394.782c-.848 0-1.706-.216-2.493-.67l-.13-.075c-2.392-1.38-3.213-4.438-1.833-6.829 1.38-2.393 4.436-3.214 6.829-1.833l.13.075c2.392 1.38 3.213 4.438 1.833 6.829-.926 1.606-2.607 2.503-4.336 2.503z"/><path d="m95.911 408.675c-.85 0-1.711-.217-2.501-.674l-.13-.075c-2.39-1.384-3.206-4.442-1.822-6.832 1.383-2.39 4.441-3.207 6.832-1.822l.13.075c2.39 1.384 3.206 4.442 1.822 6.832-.926 1.601-2.605 2.496-4.331 2.496z"/></g><g><path d="m71.729 408.675c-1.729 0-3.41-.897-4.336-2.503-1.38-2.392-.559-5.449 1.833-6.829l.13-.075c2.392-1.382 5.45-.56 6.829 1.833 1.38 2.392.559 5.449-1.833 6.829l-.13.075c-.786.454-1.646.67-2.493.67z"/><path d="m95.791 394.782c-1.726 0-3.405-.895-4.332-2.496-1.384-2.39-.568-5.448 1.822-6.832l.13-.075c2.392-1.385 5.449-.568 6.833 1.822s.568 5.448-1.822 6.832l-.13.075c-.79.457-1.651.674-2.501.674z"/></g></g><g fill="#ff4d4d"><g><path d="m437.824 231.14c-2.762 0-5-2.238-5-5v-.15c0-2.762 2.238-5 5-5s5 2.238 5 5v.15c0 2.761-2.238 5-5 5z"/><path d="m437.824 258.924c-2.762 0-5-2.238-5-5v-.15c0-2.762 2.238-5 5-5s5 2.238 5 5v.15c0 2.762-2.238 5-5 5z"/></g><g><path d="m425.854 238.05c-.851 0-1.712-.217-2.5-.674l-.13-.075c-2.39-1.384-3.206-4.442-1.822-6.832 1.384-2.391 4.446-3.206 6.832-1.822l.13.075c2.39 1.384 3.206 4.442 1.822 6.832-.927 1.601-2.607 2.496-4.332 2.496z"/><path d="m449.915 251.941c-.85 0-1.712-.217-2.5-.674l-.13-.075c-2.39-1.384-3.206-4.442-1.822-6.832 1.384-2.392 4.445-3.207 6.832-1.822l.13.075c2.39 1.384 3.206 4.442 1.822 6.832-.927 1.602-2.606 2.496-4.332 2.496z"/></g><g><path d="m425.733 251.941c-1.727 0-3.405-.895-4.332-2.496-1.384-2.39-.567-5.448 1.822-6.832l.13-.075c2.391-1.386 5.449-.567 6.832 1.822 1.384 2.39.567 5.448-1.822 6.832l-.13.075c-.788.458-1.65.674-2.5.674z"/><path d="m449.795 238.05c-1.727 0-3.405-.895-4.332-2.496-1.384-2.39-.567-5.448 1.822-6.832l.13-.075c2.39-1.386 5.449-.567 6.832 1.822 1.384 2.39.567 5.448-1.822 6.832l-.13.075c-.788.457-1.65.674-2.5.674z"/></g></g></g></g></svg>