<svg id="Capa_1" enable-background="new 0 0 512 512" height="512" viewBox="0 0 512 512" width="512" xmlns="http://www.w3.org/2000/svg" xmlns:xlink="http://www.w3.org/1999/xlink"><linearGradient id="SVGID_1_" gradientUnits="userSpaceOnUse" x1="0" x2="512" y1="256" y2="256"><stop offset="0" stop-color="#ffd9d9" stop-opacity="0"/><stop offset=".9981" stop-color="#ffb3b3"/></linearGradient><linearGradient id="SVGID_2_" gradientUnits="userSpaceOnUse" x1="261.071" x2="261.071" y1="434.617" y2="116.736"><stop offset="0" stop-color="#ff4d4d" stop-opacity=".4"/><stop offset="1" stop-color="#ff4d4d" stop-opacity="0"/></linearGradient><g><g><path d="m451.798 43.963c-160.556-97.869-410.51-8.611-439.594 61.948-38.908 94.394 26.578 110.528 38.743 187.874 9.761 62.061-51.182 121.495-16.394 176.282 37.882 59.663 163.465 44.681 211.198 16.447 87.376-51.682 43.309-112.012 84.684-187.299 39.407-71.707 116.244-42.625 160.961-99.99 42.5-54.52 14.311-122.401-39.598-155.262z" fill="url(#SVGID_1_)"/></g><g><g><g><path d="m439.339 257.62h-109.676c-5.523 0-10-4.477-10-10v-103.95c0-5.523 4.477-10 10-10h109.676c5.523 0 10 4.477 10 10v103.95c0 5.523-4.477 10-10 10z" fill="#fff"/><path d="m449.339 163.928v-20.258c0-5.523-4.477-10-10-10h-109.676c-5.523 0-10 4.477-10 10v20.258z" fill="#ff9d33"/><g><g><g><path d="m349.618 185.273h-5.691c-2.761 0-5-2.238-5-5s2.239-5 5-5h5.691c2.761 0 5 2.238 5 5s-2.239 5-5 5z" fill="#6c6cff"/></g><g><path d="m374.77 185.273h-5.691c-2.761 0-5-2.238-5-5s2.239-5 5-5h5.691c2.761 0 5 2.238 5 5s-2.239 5-5 5z" fill="#6c6cff"/></g><g><path d="m399.923 185.273h-5.691c-2.761 0-5-2.238-5-5s2.239-5 5-5h5.691c2.761 0 5 2.238 5 5s-2.239 5-5 5z" fill="#6c6cff"/></g><g><path d="m425.076 185.273h-5.691c-2.761 0-5-2.238-5-5s2.239-5 5-5h5.691c2.761 0 5 2.238 5 5s-2.239 5-5 5z" fill="#ff6c6c"/></g></g><g><g><path d="m349.618 203.003h-5.691c-2.761 0-5-2.238-5-5s2.239-5 5-5h5.691c2.761 0 5 2.238 5 5 0 2.761-2.239 5-5 5z" fill="#6c6cff"/></g><g><path d="m374.77 203.003h-5.691c-2.761 0-5-2.238-5-5s2.239-5 5-5h5.691c2.761 0 5 2.238 5 5 0 2.761-2.239 5-5 5z" fill="#6c6cff"/></g><g><path d="m399.923 203.003h-5.691c-2.761 0-5-2.238-5-5s2.239-5 5-5h5.691c2.761 0 5 2.238 5 5 0 2.761-2.239 5-5 5z" fill="#6c6cff"/></g><g><path d="m425.076 203.003h-5.691c-2.761 0-5-2.238-5-5s2.239-5 5-5h5.691c2.761 0 5 2.238 5 5 0 2.761-2.239 5-5 5z" fill="#ff6c6c"/></g></g><g><g><path d="m349.618 220.733h-5.691c-2.761 0-5-2.238-5-5s2.239-5 5-5h5.691c2.761 0 5 2.238 5 5s-2.239 5-5 5z" fill="#6c6cff"/></g><g><path d="m374.77 220.733h-5.691c-2.761 0-5-2.238-5-5s2.239-5 5-5h5.691c2.761 0 5 2.238 5 5s-2.239 5-5 5z" fill="#6c6cff"/></g><g><path d="m399.923 220.733h-5.691c-2.761 0-5-2.238-5-5s2.239-5 5-5h5.691c2.761 0 5 2.238 5 5s-2.239 5-5 5z" fill="#6c6cff"/></g><g><path d="m425.076 220.733h-5.691c-2.761 0-5-2.238-5-5s2.239-5 5-5h5.691c2.761 0 5 2.238 5 5s-2.239 5-5 5z" fill="#ff6c6c"/></g></g><g><g><path d="m349.618 238.463h-5.691c-2.761 0-5-2.238-5-5s2.239-5 5-5h5.691c2.761 0 5 2.238 5 5 0 2.761-2.239 5-5 5z" fill="#6c6cff"/></g><g><path d="m374.77 238.463h-5.691c-2.761 0-5-2.238-5-5s2.239-5 5-5h5.691c2.761 0 5 2.238 5 5 0 2.761-2.239 5-5 5z" fill="#6c6cff"/></g><g><path d="m399.923 238.463h-5.691c-2.761 0-5-2.238-5-5s2.239-5 5-5h5.691c2.761 0 5 2.238 5 5 0 2.761-2.239 5-5 5z" fill="#ff6c6c"/></g><g><path d="m425.076 238.463h-5.691c-2.761 0-5-2.238-5-5s2.239-5 5-5h5.691c2.761 0 5 2.238 5 5 0 2.761-2.239 5-5 5z" fill="#ff6c6c"/></g></g></g></g><g><path d="m288.894 206.548h-.05c-2.28 0-3.834-2.267-3.054-4.409 2.021-5.551 3.119-11.544 3.104-17.798-.069-28.644-23.947-51.557-52.591-51.557h-.003c-9.221 0-17.544-5.526-21.123-14.025l-.852-2.024h-87.369s-9.773 75.74 29.645 168.151c25.195 59.068 16.452 100.362 4.54 124.735-3.818 7.812-5.975 16.317-6.184 24.995h130.115c59.605-7.325 110.977-39.135 111.188-100.251.244-70.549-36.873-127.817-107.366-127.817z" fill="#ffd6bb"/><path d="m161.438 408.995c-.1.207-.197.423-.297.627-3.818 7.812-5.975 16.317-6.184 24.995h130.115c27.095-3.33 52.486-11.72 72.146-25.622z" fill="#8383ff"/><g fill="#9494ff"><path d="m181.946 408.995h16.143v25.622h-16.143z"/><path d="m220.665 408.995h16.143v25.622h-16.143z"/><path d="m259.385 408.995h16.143v25.622h-16.143z"/><path d="m314.248 408.991v19.83c-5.26 1.49-10.65 2.74-16.14 3.78v-23.61z"/><path d="m357.218 408.991c-6.26 4.43-13.1 8.3-20.39 11.62v-11.62z"/></g><path d="m356.858 230.921v1.68c-9.3-.48-23.58 2.7-30.12 18.51-6.25 15.09-18.9 41.4-27.7 59.38-2.88 5.87-7.29 10.66-12.62 13.99-5.34 3.32-11.58 5.18-18.12 5.18-13.72 0-26.11-8.2-31.49-20.82 10-16.47 60.33-80.25 75.93-99.91 17.35 3.63 32.08 11.27 44.12 21.99z" fill="#ffc599"/><path d="m335.126 196.545-26.509-9.397c-2.431-.862-5.121-.579-7.319.769l-13.622 8.354c-5.715 3.505-10.22 8.675-12.91 14.815l-14.759 33.685-27.03-69.686h-62.507l50.28 118.516c5.364 12.644 17.768 20.856 31.503 20.856 13.068 0 24.992-7.436 30.736-19.174 8.798-17.979 21.454-44.29 27.698-59.381 6.543-15.812 20.82-18.989 30.127-18.51v-12.797c-.001-3.616-2.279-6.841-5.688-8.05z" fill="#ffd6bb"/><path d="m370.055 337.243c9.49-9.49 9.49-24.875 0-34.365-9.49-9.49-24.875-9.49-34.365 0l-3.862 3.862-3.862-3.862c-9.49-9.49-24.875-9.49-34.365 0-9.49 9.49-9.49 24.875 0 34.365l35.843 35.843c1.317 1.316 3.451 1.316 4.768 0z" fill="#ff4d4d"/><path d="m337.055 217.407c1.316-.076 2.577-.074 3.759-.014v-12.797c0-3.617-2.278-6.842-5.688-8.051l-26.509-9.397c-2.431-.862-5.121-.579-7.319.769l-13.622 8.355c-.06.037-.116.08-.176.117.915-3.867 1.405-7.899 1.395-12.048-.069-28.644-23.947-51.557-52.591-51.557h-.004c-9.221 0-17.544-5.526-21.123-14.025l-.852-2.024h-87.369s-9.773 75.739 29.645 168.151c25.195 59.068 16.452 100.361 4.54 124.735-3.818 7.812-5.975 16.317-6.184 24.995h130.115c59.605-7.325 110.977-39.135 111.188-100.251.181-52.197-20.096-97.116-59.205-116.958z" fill="url(#SVGID_2_)"/></g><g><circle cx="125.881" cy="123.793" fill="#ff4d4d" r="69.494"/><path d="m158.218 109.152h-17.695v-17.695c0-5.523-4.477-10-10-10h-9.282c-5.523 0-10 4.477-10 10v17.695h-17.696c-5.523 0-10 4.477-10 10v9.282c0 5.523 4.477 10 10 10h17.695v17.696c0 5.523 4.477 10 10 10h9.282c5.523 0 10-4.477 10-10v-17.696h17.695c5.523 0 10-4.477 10-10v-9.282c.001-5.522-4.476-10-9.999-10z" fill="#fff"/></g><path d="m139.988 368.004c-2.761 0-5-2.238-5-5 0-3.492-2.841-6.334-6.334-6.334-2.761 0-5-2.238-5-5s2.239-5 5-5c3.492 0 6.334-2.841 6.334-6.333 0-2.762 2.239-5 5-5s5 2.238 5 5c0 3.492 2.841 6.333 6.333 6.333 2.761 0 5 2.238 5 5s-2.239 5-5 5c-3.492 0-6.333 2.842-6.333 6.334 0 2.762-2.239 5-5 5z" fill="#ff4d4d"/><path d="m338.927 95.633c-2.761 0-5-2.238-5-5 0-3.492-2.841-6.333-6.333-6.333-2.761 0-5-2.238-5-5s2.239-5 5-5c3.492 0 6.333-2.841 6.333-6.333 0-2.762 2.239-5 5-5s5 2.238 5 5c0 3.492 2.841 6.333 6.333 6.333 2.761 0 5 2.238 5 5s-2.239 5-5 5c-3.492 0-6.333 2.841-6.333 6.333 0 2.762-2.239 5-5 5z" fill="#6c6cff"/><path d="m439.057 327.263c-2.761 0-5-2.238-5-5 0-3.492-2.841-6.333-6.333-6.333-2.761 0-5-2.238-5-5s2.239-5 5-5c3.492 0 6.333-2.841 6.333-6.333 0-2.762 2.239-5 5-5s5 2.238 5 5c0 3.492 2.841 6.333 6.333 6.333 2.761 0 5 2.238 5 5s-2.239 5-5 5c-3.492 0-6.333 2.841-6.333 6.333 0 2.761-2.239 5-5 5z" fill="#6c6cff"/><g fill="#ff9d33"><g><path d="m121.689 297.703c-2.761 0-5-2.238-5-5v-.15c0-2.762 2.239-5 5-5s5 2.238 5 5v.15c0 2.762-2.239 5-5 5z"/><path d="m121.689 325.487c-2.761 0-5-2.238-5-5v-.15c0-2.762 2.239-5 5-5s5 2.238 5 5v.15c0 2.762-2.239 5-5 5z"/></g><g><path d="m109.718 304.612c-.85 0-1.712-.217-2.501-.674l-.13-.075c-2.39-1.384-3.206-4.442-1.822-6.832 1.383-2.39 4.441-3.207 6.833-1.822l.13.075c2.39 1.384 3.206 4.442 1.822 6.832-.927 1.602-2.606 2.496-4.332 2.496z"/><path d="m133.78 318.504c-.848 0-1.706-.216-2.493-.67l-.13-.075c-2.392-1.38-3.213-4.438-1.833-6.829 1.38-2.393 4.436-3.214 6.829-1.833l.13.075c2.392 1.38 3.213 4.438 1.833 6.829-.926 1.605-2.607 2.503-4.336 2.503z"/></g><g><path d="m109.598 318.504c-1.726 0-3.405-.895-4.332-2.496-1.384-2.39-.568-5.448 1.822-6.832l.13-.075c2.392-1.385 5.45-.567 6.833 1.822 1.384 2.39.568 5.448-1.822 6.832l-.13.075c-.79.457-1.651.674-2.501.674z"/><path d="m133.659 304.612c-1.729 0-3.41-.897-4.336-2.503-1.38-2.392-.559-5.449 1.833-6.829l.13-.075c2.392-1.381 5.449-.559 6.829 1.833s.559 5.449-1.833 6.829l-.13.075c-.786.455-1.646.67-2.493.67z"/></g></g><g fill="#ff4d4d"><g><path d="m293.197 86.146c-2.761 0-5-2.238-5-5v-.15c0-2.762 2.239-5 5-5s5 2.238 5 5v.15c0 2.761-2.239 5-5 5z"/><path d="m293.197 113.93c-2.761 0-5-2.238-5-5v-.15c0-2.762 2.239-5 5-5s5 2.238 5 5v.15c0 2.761-2.239 5-5 5z"/></g><g><path d="m281.227 93.056c-.85 0-1.711-.217-2.5-.674l-.13-.075c-2.39-1.384-3.206-4.442-1.822-6.832 1.383-2.39 4.44-3.207 6.832-1.822l.13.075c2.39 1.384 3.206 4.442 1.822 6.832-.927 1.601-2.606 2.496-4.332 2.496z"/><path d="m305.288 106.947c-.85 0-1.711-.217-2.501-.674l-.13-.075c-2.39-1.384-3.206-4.442-1.822-6.832 1.383-2.39 4.44-3.207 6.833-1.822l.13.075c2.39 1.384 3.206 4.442 1.822 6.832-.927 1.602-2.606 2.496-4.332 2.496z"/></g><g><path d="m281.106 106.947c-1.726 0-3.405-.895-4.332-2.496-1.384-2.39-.568-5.448 1.822-6.832l.13-.075c2.391-1.385 5.45-.567 6.832 1.822 1.384 2.39.568 5.448-1.822 6.832l-.13.075c-.788.458-1.649.674-2.5.674z"/><path d="m305.168 93.056c-1.726 0-3.405-.895-4.332-2.496-1.384-2.39-.568-5.448 1.822-6.832l.13-.075c2.391-1.385 5.449-.567 6.833 1.822 1.384 2.39.568 5.448-1.822 6.832l-.13.075c-.79.457-1.651.674-2.501.674z"/></g></g></g><g fill="#2c27ff"><path d="m114.735 213.538h-18.583c-2.761 0-5 2.238-5 5s2.239 5 5 5h18.583c2.761 0 5-2.238 5-5s-2.239-5-5-5z"/><path d="m114.735 231.919h-58.583c-2.761 0-5 2.238-5 5s2.239 5 5 5h58.583c2.761 0 5-2.238 5-5s-2.239-5-5-5z"/><path d="m114.735 250.301h-58.583c-2.761 0-5 2.238-5 5s2.239 5 5 5h58.583c2.761 0 5-2.238 5-5s-2.239-5-5-5z"/></g></g></g></svg>