<svg id="Capa_1" enable-background="new 0 0 512 512" height="512" viewBox="0 0 512 512" width="512" xmlns="http://www.w3.org/2000/svg" xmlns:xlink="http://www.w3.org/1999/xlink"><linearGradient id="SVGID_1_" gradientUnits="userSpaceOnUse" x1="0" x2="512" y1="256" y2="256"><stop offset="0" stop-color="#ffd9d9" stop-opacity="0"/><stop offset=".9981" stop-color="#ffb3b3"/></linearGradient><linearGradient id="lg1"><stop offset="0" stop-color="#ff4d4d" stop-opacity=".4"/><stop offset="1" stop-color="#ff4d4d" stop-opacity="0"/></linearGradient><linearGradient id="SVGID_2_" gradientUnits="userSpaceOnUse" x1="279.692" x2="279.692" xlink:href="#lg1" y1="387.721" y2="67.299"/><linearGradient id="SVGID_3_" gradientUnits="userSpaceOnUse" x1="279.692" x2="279.692" xlink:href="#lg1" y1="418.447" y2="339.968"/><g><g><path d="m451.798 43.963c-160.556-97.87-410.51-8.612-439.594 61.949-38.908 94.394 26.578 110.528 38.743 187.874 9.761 62.061-51.182 121.495-16.394 176.282 37.882 59.663 163.465 44.681 211.198 16.447 87.376-51.682 43.309-112.012 84.684-187.299 39.408-71.707 116.244-42.625 160.961-99.99 42.5-54.521 14.311-122.402-39.598-155.263z" fill="url(#SVGID_1_)"/></g><g><g><g><path d="m413.41 387.721h-267.436v-186.705c0-73.85 59.867-133.718 133.718-133.718 73.85 0 133.718 59.867 133.718 133.718z" fill="#ff4d4d"/><path d="m413.412 201.02v19.16c-38.08 26.02-84.12 41.24-133.72 41.24s-95.64-15.22-133.72-41.24v-19.16c0-73.85 59.87-133.72 133.72-133.72 36.92 0 70.36 14.97 94.55 39.17 24.2 24.2 39.17 57.62 39.17 94.55z" fill="#ff6c6c"/><path d="m188.562 149.46c0 28.84-17.57 53.58-42.59 64.1v-12.54c0-33.46 12.29-64.04 32.59-87.49 6.35 10.48 10 22.78 10 35.93z" fill="#ff4d4d"/><ellipse cx="279.692" cy="228.429" fill="#ffab66" rx="34.98" ry="70.108"/><path d="m241.682 285.799v54.169h76.021v-54.169c0-2.762-2.239-5-5-5h-66.021c-2.762 0-5 2.239-5 5z" fill="#6c6cff"/><g><g fill="#2c27ff"><path d="m122.918 227.048c2.762 0 5-2.238 5-5s-2.238-5-5-5h-18.583c-2.762 0-5 2.238-5 5s2.238 5 5 5z"/><path d="m59.335 240.43c0 2.762 2.238 5 5 5h58.583c2.762 0 5-2.238 5-5s-2.238-5-5-5h-58.583c-2.762 0-5 2.238-5 5z"/><path d="m127.918 258.812c0-2.762-2.238-5-5-5h-58.583c-2.762 0-5 2.238-5 5s2.238 5 5 5h58.583c2.762 0 5-2.239 5-5z"/></g></g><g><path d="m271.112 305.79h-15.017c-2.762 0-5-2.238-5-5s2.238-5 5-5h15.017c2.762 0 5 2.238 5 5s-2.238 5-5 5z" fill="#4d4dff"/></g><g><path d="m271.112 322.684h-15.017c-2.762 0-5-2.238-5-5s2.238-5 5-5h15.017c2.762 0 5 2.238 5 5 0 2.761-2.238 5-5 5z" fill="#4d4dff"/></g><ellipse cx="287.255" cy="220.252" fill="#ffd6bb" rx="18.771" ry="33.224"/><ellipse cx="276.112" cy="240.43" fill="#ffc599" rx="9.507" ry="16.828"/><path d="m413.41 387.721h-267.436v-186.705c0-73.85 59.867-133.718 133.718-133.718 73.85 0 133.718 59.867 133.718 133.718z" fill="url(#SVGID_2_)"/><path d="m438.64 418.447h-317.896l14.403-70.481c.951-4.655 5.046-7.998 9.798-7.998h269.495c4.751 0 8.846 3.343 9.798 7.998z" fill="#9494ff"/><path d="m208.887 339.968h83.623v78.479h-83.623z" fill="#8383ff"/><path d="m178.479 339.968h41.389v78.479h-41.389z" fill="#b3b3ff"/><path d="m438.64 418.447h-317.896l14.403-70.481c.951-4.655 5.046-7.998 9.798-7.998h269.495c4.751 0 8.846 3.343 9.798 7.998z" fill="url(#SVGID_3_)"/><path d="m442.429 449.19h-325.474c-5.523 0-10-4.477-10-10v-18.855c0-5.523 4.477-10 10-10h325.474c5.523 0 10 4.477 10 10v18.855c0 5.523-4.477 10-10 10z" fill="#4d4dff"/></g><g><circle cx="119.065" cy="122.304" fill="#ff4d4d" r="69.494"/><path d="m151.401 107.663h-17.695v-17.696c0-5.523-4.477-10-10-10h-9.282c-5.523 0-10 4.477-10 10v17.696h-17.696c-5.523 0-10 4.477-10 10v9.282c0 5.523 4.477 10 10 10h17.695v17.695c0 5.523 4.477 10 10 10h9.282c5.523 0 10-4.477 10-10v-17.695h17.695c5.523 0 10-4.477 10-10v-9.282c.001-5.523-4.476-10-9.999-10z" fill="#fff"/></g></g><g fill="#ff4d4d"><g><path d="m74.335 329.126c-2.762 0-5-2.238-5-5v-.149c0-2.762 2.238-5 5-5s5 2.238 5 5v.149c0 2.762-2.238 5-5 5z"/><path d="m74.335 356.91c-2.762 0-5-2.238-5-5v-.15c0-2.762 2.238-5 5-5s5 2.238 5 5v.15c0 2.762-2.238 5-5 5z"/></g><g><path d="m62.364 336.036c-.851 0-1.712-.217-2.5-.674l-.13-.075c-2.39-1.384-3.206-4.442-1.822-6.832 1.384-2.391 4.445-3.206 6.832-1.822l.13.075c2.39 1.384 3.206 4.442 1.822 6.832-.926 1.602-2.606 2.496-4.332 2.496z"/><path d="m86.427 349.928c-.851 0-1.712-.217-2.5-.674l-.13-.075c-2.39-1.384-3.206-4.442-1.822-6.832 1.384-2.392 4.445-3.207 6.832-1.822l.13.075c2.39 1.384 3.206 4.442 1.822 6.832-.927 1.601-2.607 2.496-4.332 2.496z"/></g><g><path d="m62.244 349.928c-1.726 0-3.405-.894-4.332-2.496-1.384-2.39-.567-5.448 1.822-6.832l.13-.075c2.39-1.386 5.449-.567 6.832 1.822 1.384 2.39.567 5.448-1.822 6.832l-.13.075c-.788.457-1.65.674-2.5.674z"/><path d="m86.307 336.036c-1.727 0-3.405-.895-4.332-2.496-1.384-2.39-.567-5.448 1.822-6.832l.13-.075c2.389-1.386 5.449-.567 6.832 1.822 1.384 2.39.567 5.448-1.822 6.832l-.13.075c-.788.457-1.651.674-2.5.674z"/></g></g><g fill="#ff9d33"><g><path d="m452.429 251.612c-2.762 0-5-2.238-5-5v-.149c0-2.762 2.238-5 5-5s5 2.238 5 5v.149c0 2.762-2.239 5-5 5z"/><path d="m452.429 279.397c-2.762 0-5-2.238-5-5v-.149c0-2.762 2.238-5 5-5s5 2.238 5 5v.149c0 2.761-2.239 5-5 5z"/></g><g><path d="m440.458 258.523c-.851 0-1.712-.217-2.5-.674l-.13-.075c-2.39-1.384-3.206-4.442-1.822-6.832 1.384-2.392 4.445-3.207 6.832-1.822l.13.075c2.39 1.384 3.206 4.442 1.822 6.832-.927 1.601-2.606 2.496-4.332 2.496z"/><path d="m464.52 272.414c-.851 0-1.712-.217-2.5-.674l-.13-.075c-2.39-1.384-3.206-4.442-1.822-6.832 1.384-2.391 4.445-3.206 6.832-1.822l.13.075c2.39 1.384 3.206 4.442 1.822 6.832-.927 1.602-2.607 2.496-4.332 2.496z"/></g><g><path d="m440.338 272.414c-1.727 0-3.405-.895-4.332-2.496-1.384-2.39-.567-5.448 1.822-6.832l.13-.075c2.391-1.385 5.449-.567 6.832 1.822 1.384 2.39.567 5.448-1.822 6.832l-.13.075c-.788.457-1.65.674-2.5.674z"/><path d="m464.399 258.523c-1.727 0-3.405-.895-4.332-2.496-1.384-2.39-.567-5.448 1.822-6.832l.13-.075c2.39-1.386 5.449-.567 6.832 1.822 1.384 2.39.567 5.448-1.822 6.832l-.13.075c-.788.457-1.65.674-2.5.674z"/></g></g><path d="m109.335 321.717c-2.762 0-5-2.238-5-5 0-3.492-2.841-6.333-6.333-6.333-2.762 0-5-2.238-5-5s2.238-5 5-5c3.492 0 6.333-2.842 6.333-6.334 0-2.762 2.238-5 5-5s5 2.238 5 5c0 3.492 2.841 6.334 6.333 6.334 2.762 0 5 2.238 5 5s-2.238 5-5 5c-3.492 0-6.333 2.841-6.333 6.333 0 2.762-2.238 5-5 5z" fill="#ff9d33"/><path d="m402.076 83.633c-2.762 0-5-2.238-5-5 0-3.492-2.841-6.333-6.333-6.333-2.762 0-5-2.238-5-5s2.238-5 5-5c3.492 0 6.333-2.841 6.333-6.333 0-2.762 2.238-5 5-5s5 2.238 5 5c0 3.492 2.842 6.333 6.334 6.333 2.762 0 5 2.238 5 5s-2.238 5-5 5c-3.492 0-6.334 2.841-6.334 6.333 0 2.762-2.238 5-5 5z" fill="#ff4d4d"/><path d="m449.974 107.634c-2.762 0-5-2.238-5-5 0-3.492-2.841-6.333-6.333-6.333-2.762 0-5-2.238-5-5s2.238-5 5-5c3.492 0 6.333-2.842 6.333-6.334 0-2.762 2.238-5 5-5s5 2.238 5 5c0 3.492 2.841 6.334 6.333 6.334 2.762 0 5 2.238 5 5s-2.238 5-5 5c-3.492 0-6.333 2.841-6.333 6.333 0 2.762-2.239 5-5 5z" fill="#6c6cff"/></g></g></svg>