<svg id="Capa_1" enable-background="new 0 0 512 512" height="512" viewBox="0 0 512 512" width="512" xmlns="http://www.w3.org/2000/svg" xmlns:xlink="http://www.w3.org/1999/xlink"><linearGradient id="SVGID_1_" gradientUnits="userSpaceOnUse" x1="27.58" x2="504.532" y1="390.913" y2="115.544"><stop offset="0" stop-color="#fff" stop-opacity="0"/><stop offset=".2532" stop-color="#eef" stop-opacity=".403"/><stop offset=".629" stop-color="#d9d9ff"/></linearGradient><linearGradient id="SVGID_2_" gradientUnits="userSpaceOnUse" x1="261" x2="261" y1="447.639" y2="202.9"><stop offset="0" stop-color="#ff4d4d" stop-opacity=".4"/><stop offset="1" stop-color="#ff4d4d" stop-opacity="0"/></linearGradient><g><g><path d="m4.896 325.742c17.448 172.871 292.417 167.142 420.803 136.265 82.47-19.834 87.596-59.472 86.106-144.001-.96-54.486 3.443-198.725-32.004-244.123-54.448-69.733-103.228-25.998-170.656-3.235-86.488 29.197-120.189-22.932-202.476-21.38-120.641 2.278-110.778 187.252-101.773 276.474z" fill="url(#SVGID_1_)"/></g><g><g><path d="m214.988 104.671-28.253-30.85c-3.788-4.137-9.14-6.492-14.749-6.492h-94.053c-5.523 0-10 4.477-10 10v252.485h386.133v-215.143c0-5.523-4.477-10-10-10z" fill="#ff9d33"/><g><path d="m382.749 248.277h-243.499c-5.523 0-10-4.477-10-10v-99.755c0-5.523 4.477-10 10-10h243.499c5.523 0 10 4.477 10 10v99.755c0 5.522-4.477 10-10 10z" fill="#ebebff"/></g><path d="m397.749 283.82h-273.499c-5.523 0-10-4.477-10-10v-99.755c0-5.523 4.477-10 10-10h273.499c5.523 0 10 4.477 10 10v99.755c0 5.523-4.477 10-10 10z" fill="#fff"/><g><ellipse cx="176.316" cy="223.943" fill="#ff4d4d" rx="30.718" ry="30.718" transform="matrix(.924 -.383 .383 .924 -72.278 84.52)"/><path d="m190.61 217.471h-7.822v-7.822c0-2.441-1.979-4.42-4.42-4.42h-4.103c-2.441 0-4.42 1.979-4.42 4.42v7.822h-7.822c-2.441 0-4.42 1.979-4.42 4.42v4.103c0 2.441 1.979 4.42 4.42 4.42h7.822v7.822c0 2.441 1.979 4.42 4.42 4.42h4.103c2.441 0 4.42-1.979 4.42-4.42v-7.822h7.822c2.441 0 4.42-1.979 4.42-4.42v-4.103c0-2.441-1.979-4.42-4.42-4.42z" fill="#fff"/></g><path d="m256.166 208.687-34.155 33.81h-144.078c-5.523 0-10 4.477-10 10v185.142c0 5.523 4.477 10 10 10h366.133c5.523 0 10-4.477 10-10v-224.739c0-5.523-4.477-10-10-10h-173.83c-5.269 0-10.325 2.08-14.07 5.787z" fill="#ffab66"/><path d="m170.148 105.688h-72.09c-2.761 0-5-2.239-5-5v-7.457c0-2.761 2.239-5 5-5h65.465c1.428 0 2.789.611 3.738 1.679l6.626 7.457c2.864 3.225.574 8.321-3.739 8.321z" fill="#ff4d4d"/><g><circle cx="345.063" cy="325.269" fill="#ff4d4d" r="69.494"/><path d="m377.4 310.628h-17.695v-17.695c0-5.523-4.477-10-10-10h-9.282c-5.523 0-10 4.477-10 10v17.695h-17.695c-5.523 0-10 4.477-10 10v9.282c0 5.523 4.477 10 10 10h17.695v17.695c0 5.523 4.477 10 10 10h9.282c5.523 0 10-4.477 10-10v-17.695h17.695c5.523 0 10-4.477 10-10v-9.282c0-5.523-4.477-10-10-10z" fill="#fff"/></g><g><g><path d="m123.542 376.382h-18.583c-2.762 0-5-2.238-5-5s2.238-5 5-5h18.583c2.762 0 5 2.238 5 5s-2.238 5-5 5z" fill="#fff"/></g><g><path d="m163.542 394.763h-58.583c-2.762 0-5-2.238-5-5s2.238-5 5-5h58.583c2.762 0 5 2.238 5 5 0 2.761-2.238 5-5 5z" fill="#fff"/></g><g><path d="m163.542 413.145h-58.583c-2.762 0-5-2.238-5-5s2.238-5 5-5h58.583c2.762 0 5 2.238 5 5 0 2.761-2.238 5-5 5z" fill="#fff"/></g></g></g><g fill="#6c6cff"><g><path d="m344.166 50.168c-2.762 0-5-2.238-5-5v-.15c0-2.762 2.238-5 5-5s5 2.238 5 5v.15c0 2.762-2.238 5-5 5z"/><path d="m344.166 77.952c-2.762 0-5-2.238-5-5v-.15c0-2.762 2.238-5 5-5s5 2.238 5 5v.15c0 2.762-2.238 5-5 5z"/></g><g><path d="m332.195 57.077c-.851 0-1.712-.217-2.5-.674l-.13-.075c-2.39-1.384-3.206-4.442-1.822-6.832 1.384-2.392 4.445-3.207 6.832-1.822l.13.075c2.39 1.384 3.206 4.442 1.822 6.832-.926 1.602-2.606 2.496-4.332 2.496z"/><path d="m356.258 70.97c-.845 0-1.701-.215-2.486-.666l-.131-.075c-2.395-1.376-3.22-4.432-1.844-6.826 1.376-2.395 4.431-3.22 6.826-1.844l.131.075c2.395 1.376 3.22 4.432 1.844 6.826-.925 1.609-2.609 2.51-4.34 2.51z"/></g><g><path d="m332.075 70.97c-1.727 0-3.405-.895-4.332-2.496-1.384-2.39-.567-5.448 1.822-6.832l.13-.075c2.391-1.386 5.449-.567 6.832 1.822 1.384 2.39.567 5.448-1.822 6.832l-.13.075c-.788.457-1.65.674-2.5.674z"/><path d="m356.137 57.077c-1.732 0-3.415-.9-4.34-2.51-1.376-2.395-.551-5.45 1.844-6.826l.131-.075c2.396-1.377 5.45-.551 6.826 1.844s.551 5.45-1.844 6.826l-.131.075c-.785.451-1.642.666-2.486.666z"/></g></g><g fill="#ff9d33"><g><path d="m33.73 412.391c-2.762 0-5-2.238-5-5v-.149c0-2.762 2.238-5 5-5s5 2.238 5 5v.149c0 2.761-2.238 5-5 5z"/><path d="m33.73 440.175c-2.762 0-5-2.238-5-5v-.149c0-2.762 2.238-5 5-5s5 2.238 5 5v.149c0 2.761-2.238 5-5 5z"/></g><g><path d="m21.76 419.301c-.851 0-1.712-.217-2.5-.674l-.13-.075c-2.39-1.384-3.206-4.442-1.822-6.832 1.383-2.391 4.444-3.206 6.832-1.822l.13.075c2.39 1.384 3.206 4.442 1.822 6.832-.927 1.601-2.607 2.496-4.332 2.496z"/><path d="m45.821 433.192c-.851 0-1.712-.217-2.5-.674l-.13-.075c-2.39-1.384-3.206-4.442-1.822-6.832 1.384-2.392 4.445-3.207 6.832-1.822l.13.075c2.39 1.384 3.206 4.442 1.822 6.832-.926 1.602-2.606 2.496-4.332 2.496z"/></g><g><path d="m21.64 433.192c-1.726 0-3.405-.895-4.332-2.496-1.384-2.39-.567-5.448 1.822-6.832l.13-.075c2.39-1.387 5.449-.567 6.832 1.822 1.384 2.39.567 5.448-1.822 6.832l-.13.075c-.788.458-1.651.674-2.5.674z"/><path d="m45.701 419.301c-1.727 0-3.405-.895-4.332-2.496-1.384-2.39-.567-5.448 1.822-6.832l.13-.075c2.39-1.386 5.449-.567 6.832 1.822 1.384 2.39.567 5.448-1.822 6.832l-.13.075c-.788.457-1.65.674-2.5.674z"/></g></g><path d="m469.066 490.306c-2.762 0-5-2.238-5-5 0-3.492-2.841-6.334-6.333-6.334-2.762 0-5-2.238-5-5s2.238-5 5-5c3.492 0 6.333-2.841 6.333-6.333 0-2.762 2.238-5 5-5s5 2.238 5 5c0 3.492 2.842 6.333 6.334 6.333 2.762 0 5 2.238 5 5s-2.238 5-5 5c-3.492 0-6.334 2.842-6.334 6.334 0 2.761-2.238 5-5 5z" fill="#6c6cff"/><path d="m291.902 54.361c-2.762 0-5-2.238-5-5 0-3.492-2.841-6.333-6.333-6.333-2.762 0-5-2.238-5-5s2.238-5 5-5c3.492 0 6.333-2.842 6.333-6.334 0-2.762 2.238-5 5-5s5 2.238 5 5c0 3.492 2.842 6.334 6.334 6.334 2.762 0 5 2.238 5 5s-2.238 5-5 5c-3.492 0-6.334 2.841-6.334 6.333 0 2.762-2.238 5-5 5z" fill="#ff9d33"/><path d="m264.236 90.237c-2.762 0-5-2.238-5-5 0-3.492-2.841-6.334-6.333-6.334-2.762 0-5-2.238-5-5s2.238-5 5-5c3.492 0 6.333-2.841 6.333-6.333 0-2.762 2.238-5 5-5s5 2.238 5 5c0 3.492 2.841 6.333 6.333 6.333 2.762 0 5 2.238 5 5s-2.238 5-5 5c-3.492 0-6.333 2.842-6.333 6.334 0 2.762-2.238 5-5 5z" fill="#ff4d4d"/></g><path d="m256.166 208.687-34.155 33.81h-144.078c-5.523 0-10 4.477-10 10v185.142c0 5.523 4.477 10 10 10h366.133c5.523 0 10-4.477 10-10v-224.739c0-5.523-4.477-10-10-10h-173.83c-5.269 0-10.325 2.08-14.07 5.787z" fill="url(#SVGID_2_)"/></g></svg>