<svg id="Capa_1" enable-background="new 0 0 512 512" height="512" viewBox="0 0 512 512" width="512" xmlns="http://www.w3.org/2000/svg" xmlns:xlink="http://www.w3.org/1999/xlink"><linearGradient id="SVGID_1_" gradientUnits="userSpaceOnUse" x1="0" x2="512" y1="256" y2="256"><stop offset="0" stop-color="#ffd9d9" stop-opacity="0"/><stop offset=".9981" stop-color="#ffb3b3"/></linearGradient><linearGradient id="lg1"><stop offset="0" stop-color="#ff4d4d" stop-opacity=".4"/><stop offset="1" stop-color="#ff4d4d" stop-opacity="0"/></linearGradient><linearGradient id="SVGID_2_" gradientUnits="userSpaceOnUse" x1="123.22" x2="123.22" xlink:href="#lg1" y1="431.114" y2="150.83"/><linearGradient id="SVGID_3_" gradientUnits="userSpaceOnUse" x1="388.781" x2="388.781" xlink:href="#lg1" y1="431.114" y2="150.83"/><g><g><path d="m451.798 43.963c-160.556-97.869-410.51-8.611-439.594 61.949-38.908 94.393 26.578 110.528 38.743 187.874 9.761 62.06-51.182 121.495-16.394 176.282 37.882 59.663 163.465 44.681 211.198 16.447 87.376-51.682 43.309-112.012 84.684-187.299 39.408-71.707 116.244-42.625 160.961-99.99 42.5-54.521 14.31-122.402-39.598-155.263z" fill="url(#SVGID_1_)"/></g><g><g><g><path d="m215.077 177.789v120.105c0 73.576-59.645 133.221-133.221 133.221-15.24 0-29.665-6.884-39.251-18.733-9.685-11.972-13.392-27.712-10.026-42.739 13.764-61.444 56.051-218.813 128.113-218.813h27.426c14.889 0 26.959 12.07 26.959 26.959z" fill="#ff6c6c"/><g><circle cx="154.302" cy="338.315" fill="#ff4d4d" r="26.464"/><ellipse cx="133.301" cy="364.779" fill="#ffb3b3" rx="18.713" ry="18.713" transform="matrix(.973 -.232 .232 .973 -80.861 40.792)"/></g><path d="m215.077 177.789v120.105c0 73.576-59.645 133.221-133.221 133.221-15.24 0-29.665-6.884-39.251-18.733-9.685-11.972-13.392-27.712-10.026-42.739 13.764-61.444 56.051-218.813 128.113-218.813h27.426c14.889 0 26.959 12.07 26.959 26.959z" fill="url(#SVGID_2_)"/><g><g><path d="m256 55.886c-5.987 0-10.84 4.854-10.84 10.84v118.877c0 19.47-15.84 35.311-35.311 35.311h-25.844c-5.987 0-10.84 4.854-10.84 10.84 0 5.987 4.854 10.84 10.84 10.84h25.844c31.425 0 56.992-25.566 56.992-56.991v-118.877c-.001-5.987-4.854-10.84-10.841-10.84z" fill="#6c6cff"/></g><path d="m195.046 202.044c-6.484 8.735-9.912 19.086-9.912 29.933 0 10.846 3.428 21.197 9.913 29.933h-31.734v-59.865h31.733z" fill="#ff6c6c"/></g></g><g><path d="m296.923 177.789v120.105c0 73.576 59.645 133.221 133.221 133.221 15.24 0 29.665-6.884 39.251-18.733 9.685-11.972 13.392-27.712 10.026-42.739-13.764-61.444-56.051-218.813-128.113-218.813h-27.426c-14.889 0-26.959 12.07-26.959 26.959z" fill="#ff6c6c"/><g><g><circle cx="357.698" cy="338.315" fill="#ff4d4d" r="26.464"/><ellipse cx="378.699" cy="364.779" fill="#ffb3b3" rx="18.713" ry="18.713" transform="matrix(.232 -.973 .973 .232 -63.87 648.696)"/></g><path d="m296.923 177.789v120.105c0 73.576 59.645 133.221 133.221 133.221 15.24 0 29.665-6.884 39.251-18.733 9.685-11.972 13.392-27.712 10.026-42.739-13.764-61.444-56.051-218.813-128.113-218.813h-27.426c-14.889 0-26.959 12.07-26.959 26.959z" fill="url(#SVGID_3_)"/><g><path d="m256 55.886c5.987 0 10.84 4.854 10.84 10.84v118.877c0 19.47 15.841 35.311 35.311 35.311h25.844c5.987 0 10.84 4.854 10.84 10.84 0 5.987-4.854 10.84-10.84 10.84h-25.844c-31.425 0-56.992-25.566-56.992-56.991v-118.877c.001-5.987 4.854-10.84 10.841-10.84z" fill="#9494ff"/></g><path d="m316.954 202.044c6.484 8.735 9.912 19.086 9.912 29.933 0 10.846-3.428 21.197-9.913 29.933h31.734v-59.865h-31.733z" fill="#ff6c6c"/><g fill="#ff2c2c"><path d="m192.913 247.595-2.431-10c-.229-1.851-.348-3.726-.348-5.618 0-2.044.143-4.067.411-6.062l2.534-10c1.467-3.845 3.468-7.503 5.982-10.89 1.646-2.217 1.183-5.349-1.034-6.995-2.218-1.645-5.349-1.182-6.995 1.034-7.129 9.603-10.897 20.984-10.897 32.913s3.769 23.31 10.898 32.913c.982 1.321 2.49 2.02 4.019 2.02 1.036 0 2.081-.32 2.977-.985 2.217-1.646 2.68-4.778 1.034-6.995-2.613-3.518-4.67-7.327-6.15-11.335z"/><path d="m320.969 199.064c-1.646-2.216-4.778-2.68-6.995-1.034s-2.68 4.778-1.034 6.995c2.514 3.387 4.515 7.044 5.982 10.89l2.534 10c.267 1.996.411 4.019.411 6.062 0 1.892-.119 3.767-.348 5.618l-2.431 10c-1.481 4.008-3.537 7.817-6.148 11.334-1.646 2.217-1.183 5.349 1.034 6.995.896.665 1.941.985 2.977.985 1.528 0 3.038-.698 4.019-2.02 7.13-9.604 10.898-20.984 10.898-32.913-.001-11.928-3.769-23.31-10.899-32.912z"/></g></g></g></g><path d="m296.923 418.877c-2.761 0-5-2.238-5-5 0-3.492-2.841-6.334-6.334-6.334-2.761 0-5-2.238-5-5s2.239-5 5-5c3.492 0 6.334-2.841 6.334-6.333 0-2.762 2.239-5 5-5s5 2.238 5 5c0 3.492 2.841 6.333 6.333 6.333 2.761 0 5 2.238 5 5s-2.239 5-5 5c-3.492 0-6.333 2.842-6.333 6.334 0 2.762-2.238 5-5 5z" fill="#ff9d33"/><path d="m397.413 139.99c-2.761 0-5-2.238-5-5 0-3.492-2.841-6.334-6.333-6.334-2.761 0-5-2.238-5-5s2.239-5 5-5c3.492 0 6.333-2.841 6.333-6.333 0-2.762 2.239-5 5-5s5 2.238 5 5c0 3.492 2.841 6.333 6.333 6.333 2.761 0 5 2.238 5 5s-2.239 5-5 5c-3.492 0-6.333 2.842-6.333 6.334 0 2.762-2.239 5-5 5z" fill="#6c6cff"/><path d="m123.22 107.989c-2.761 0-5-2.238-5-5 0-3.492-2.841-6.334-6.334-6.334-2.761 0-5-2.238-5-5s2.239-5 5-5c3.492 0 6.334-2.841 6.334-6.333 0-2.762 2.239-5 5-5s5 2.238 5 5c0 3.492 2.841 6.333 6.333 6.333 2.761 0 5 2.238 5 5s-2.239 5-5 5c-3.492 0-6.333 2.842-6.333 6.334 0 2.762-2.239 5-5 5z" fill="#ff4d4d"/><g fill="#ff9d33"><g><path d="m89.741 119.84c-2.761 0-5-2.238-5-5v-.15c0-2.762 2.239-5 5-5s5 2.238 5 5v.15c0 2.762-2.239 5-5 5z"/><path d="m89.741 147.624c-2.761 0-5-2.238-5-5v-.15c0-2.762 2.239-5 5-5s5 2.238 5 5v.15c0 2.762-2.239 5-5 5z"/></g><g><path d="m77.771 126.749c-.85 0-1.711-.217-2.5-.674l-.131-.075c-2.39-1.384-3.205-4.442-1.822-6.832s4.441-3.207 6.832-1.822l.13.075c2.39 1.384 3.205 4.442 1.822 6.832-.926 1.602-2.605 2.496-4.331 2.496z"/><path d="m101.833 140.641c-.839 0-1.689-.211-2.469-.655l-.13-.074c-2.4-1.366-3.238-4.42-1.872-6.819 1.367-2.4 4.421-3.236 6.819-1.872l.13.074c2.4 1.366 3.238 4.42 1.872 6.819-.922 1.618-2.612 2.527-4.35 2.527z"/></g><g><path d="m77.65 140.641c-1.736 0-3.423-.905-4.346-2.52-1.37-2.397-.537-5.451 1.861-6.821l.13-.074c2.396-1.37 5.452-.538 6.822 1.86 1.37 2.397.537 5.451-1.861 6.821l-.13.074c-.782.447-1.635.66-2.476.66z"/><path d="m101.712 126.749c-1.729 0-3.41-.897-4.336-2.503-1.38-2.392-.559-5.449 1.833-6.829l.13-.075c2.391-1.382 5.45-.56 6.829 1.833 1.38 2.392.559 5.449-1.833 6.829l-.13.075c-.786.454-1.646.67-2.493.67z"/></g></g><g fill="#6c6cff"><g><path d="m264.75 361.602c-2.761 0-5-2.238-5-5v-.15c0-2.762 2.239-5 5-5s5 2.238 5 5v.15c0 2.761-2.239 5-5 5z"/><path d="m264.75 389.386c-2.761 0-5-2.238-5-5v-.15c0-2.762 2.239-5 5-5s5 2.238 5 5v.15c0 2.762-2.239 5-5 5z"/></g><g><path d="m252.779 368.511c-.85 0-1.711-.217-2.501-.674l-.13-.075c-2.39-1.384-3.206-4.442-1.822-6.832 1.383-2.391 4.441-3.207 6.833-1.822l.13.075c2.39 1.384 3.205 4.442 1.822 6.832-.926 1.601-2.606 2.496-4.332 2.496z"/><path d="m276.841 382.403c-.85 0-1.711-.217-2.5-.674l-.13-.075c-2.39-1.384-3.206-4.442-1.822-6.832 1.383-2.391 4.441-3.208 6.832-1.822l.13.075c2.39 1.384 3.206 4.442 1.822 6.832-.927 1.602-2.606 2.496-4.332 2.496z"/></g><g><path d="m252.659 382.403c-1.726 0-3.405-.895-4.332-2.496-1.384-2.39-.568-5.448 1.822-6.832l.13-.075c2.391-1.386 5.449-.568 6.833 1.822s.568 5.448-1.822 6.832l-.13.075c-.789.458-1.651.674-2.501.674z"/><path d="m276.721 368.511c-1.726 0-3.405-.895-4.332-2.496-1.384-2.39-.568-5.448 1.822-6.832l.13-.075c2.391-1.385 5.449-.568 6.833 1.822s.568 5.448-1.822 6.832l-.13.075c-.79.457-1.651.674-2.501.674z"/></g></g></g></g></svg>