<svg id="Capa_1" enable-background="new 0 0 512 512" height="512" viewBox="0 0 512 512" width="512" xmlns="http://www.w3.org/2000/svg" xmlns:xlink="http://www.w3.org/1999/xlink"><linearGradient id="SVGID_1_" gradientUnits="userSpaceOnUse" x1="48.606" x2="438.791" y1="463.622" y2="-1.382"><stop offset="0" stop-color="#fff3ee" stop-opacity="0"/><stop offset=".2938" stop-color="#ffeade" stop-opacity=".373"/><stop offset=".7874" stop-color="#ffd6bb"/></linearGradient><linearGradient id="SVGID_2_" gradientUnits="userSpaceOnUse" x1="169.654" x2="169.654" y1="318.82" y2="116.789"><stop offset="0" stop-color="#ff4d4d" stop-opacity=".4"/><stop offset="1" stop-color="#ff4d4d" stop-opacity="0"/></linearGradient><g><g><path d="m418.32 2.5c-55.666-9.521-178.298 12.183-200.004 105.017-14.431 61.722-14.007 112.075-50.427 113.02-21.67.562-32.97-44.31-62.889-48.001-39.047-4.817-66.145 27.695-83.057 57.138-37.205 64.772-25.571 174.918 23.354 228.632 118.488 130.086 259.197-5.951 319.358-112.309 38.585-68.213 125.637-123.352 143.767-200.248 15.178-64.376-18.503-131.003-90.102-143.249z" fill="url(#SVGID_1_)"/></g><g><g><path d="m382.912 251.07h38.855v66.649h-38.855z" fill="#ebebff"/><path d="m382.912 251.07h38.855v33.881h-38.855z" fill="#d9d9ff"/><g><path d="m463.151 367.067-12.244-51.443c-1.072-4.505-5.097-7.685-9.728-7.685h-83.689c-3.452 0-6.66 1.78-8.486 4.71l-33.923 54.418z" fill="#fff"/><path d="m470.18 390.939h-162.128c-7.186 0-13.302-5.232-14.416-12.331l-1.255-8.005c-.951-6.066 3.739-11.549 9.879-11.549h173.711c6.141 0 10.831 5.483 9.879 11.549l-1.255 8.005c-1.113 7.099-7.229 12.331-14.415 12.331z" fill="#ebebff"/></g><path d="m438.823 265.43h-72.966c-2.761 0-5-2.239-5-5v-22.098c0-2.761 2.239-5 5-5h72.966c2.761 0 5 2.239 5 5v22.098c0 2.761-2.239 5-5 5z" fill="#b3b3ff"/><path d="m259.495 202.277h125.388v31.055h-125.388z" fill="#9494ff"/><path d="m437.816 233.332h-70.953l8.178-34.538c1.068-4.511 5.096-7.696 9.731-7.696h35.136c4.635 0 8.663 3.185 9.731 7.696z" fill="#ebebff"/><g><g><g><path d="m294.329 161.22c-7.156 0-14.204-1.742-20.536-5.076l-64.128-33.767v190.855l64.128-33.767c6.332-3.334 13.38-5.076 20.536-5.076h8.95c5.523 0 10-4.477 10-10v-93.169c0-5.523-4.477-10-10-10z" fill="#8383ff"/><path d="m313.276 171.224v93.16c0 5.53-4.47 10-10 10h-8.95c-3.4 0-6.79.4-10.08 1.18v-115.52c3.29.78 6.68 1.18 10.08 1.18h8.95c5.53 0 10 4.47 10 10z" fill="#ffab66"/></g><g><path d="m44.979 161.22c7.156 0 14.204-1.742 20.536-5.076l64.128-33.767v190.855l-64.128-33.767c-6.332-3.334-13.38-5.076-20.536-5.076h-8.95c-5.523 0-10-4.477-10-10v-93.169c0-5.523 4.477-10 10-10z" fill="#8383ff"/></g><path d="m55.066 160.044v115.52c-3.29-.78-6.68-1.18-10.09-1.18h-8.95c-5.52 0-10-4.47-10-10v-93.16c0-5.53 4.48-10 10-10h8.95c3.41 0 6.8-.4 10.09-1.18z" fill="#ffab66"/></g><path d="m203.789 116.789h-68.27c-5.523 0-10 4.477-10 10v182.03c0 5.523 4.477 10 10 10h68.27c5.523 0 10-4.477 10-10v-182.03c0-5.523-4.477-10-10-10z" fill="#b3b3ff"/><path d="m173.288 152.937h-47.768v42.337h47.768c2.761 0 5-2.239 5-5v-32.337c0-2.761-2.239-5-5-5z" fill="#d9d9ff"/></g></g><g fill="#ff9d33"><g><path d="m97.167 358.25c-2.761 0-5-2.238-5-5v-.149c0-2.762 2.239-5 5-5s5 2.238 5 5v.149c0 2.762-2.239 5-5 5z"/><path d="m97.167 386.034c-2.761 0-5-2.238-5-5v-.149c0-2.762 2.239-5 5-5s5 2.238 5 5v.149c0 2.762-2.239 5-5 5z"/></g><g><path d="m85.196 365.16c-.848 0-1.706-.216-2.493-.67l-.13-.075c-2.392-1.38-3.213-4.438-1.833-6.829 1.38-2.392 4.436-3.213 6.829-1.833l.13.075c2.392 1.38 3.213 4.438 1.833 6.829-.926 1.606-2.607 2.503-4.336 2.503z"/><path d="m109.258 379.052c-.85 0-1.711-.217-2.501-.674l-.13-.075c-2.39-1.384-3.205-4.442-1.822-6.832 1.384-2.39 4.441-3.207 6.833-1.822l.13.075c2.39 1.384 3.205 4.442 1.822 6.832-.927 1.601-2.606 2.496-4.332 2.496z"/></g><g><path d="m85.076 379.052c-1.729 0-3.41-.897-4.336-2.503-1.38-2.392-.559-5.449 1.833-6.829l.13-.075c2.392-1.383 5.449-.56 6.829 1.833 1.38 2.392.559 5.449-1.833 6.829l-.13.075c-.787.454-1.646.67-2.493.67z"/><path d="m109.138 365.16c-1.726 0-3.405-.895-4.332-2.496-1.384-2.39-.568-5.448 1.822-6.832l.13-.075c2.392-1.385 5.449-.567 6.833 1.822 1.384 2.39.568 5.448-1.822 6.832l-.13.075c-.79.457-1.651.674-2.501.674z"/></g></g><g fill="#6c6cff"><g><path d="m315.081 101.211c-2.762 0-5-2.238-5-5v-.15c0-2.762 2.238-5 5-5s5 2.238 5 5v.15c0 2.762-2.238 5-5 5z"/><path d="m315.081 128.995c-2.762 0-5-2.238-5-5v-.15c0-2.762 2.238-5 5-5s5 2.238 5 5v.15c0 2.762-2.238 5-5 5z"/></g><g><path d="m303.11 108.12c-.851 0-1.712-.217-2.5-.674l-.13-.075c-2.39-1.384-3.206-4.442-1.822-6.832 1.384-2.391 4.445-3.206 6.832-1.822l.13.075c2.39 1.384 3.206 4.442 1.822 6.832-.926 1.602-2.606 2.496-4.332 2.496z"/><path d="m327.173 122.013c-.845 0-1.701-.215-2.486-.666l-.131-.075c-2.395-1.376-3.22-4.432-1.844-6.826 1.376-2.395 4.432-3.22 6.826-1.844l.131.075c2.395 1.376 3.22 4.432 1.844 6.826-.925 1.609-2.609 2.51-4.34 2.51z"/></g><g><path d="m302.99 122.013c-1.727 0-3.405-.895-4.332-2.496-1.384-2.39-.567-5.448 1.822-6.832l.13-.075c2.389-1.387 5.449-.568 6.832 1.822 1.384 2.39.567 5.448-1.822 6.832l-.13.075c-.788.457-1.65.674-2.5.674z"/><path d="m327.052 108.12c-1.732 0-3.415-.9-4.34-2.51-1.376-2.395-.551-5.45 1.844-6.826l.131-.075c2.396-1.377 5.45-.551 6.826 1.844s.551 5.45-1.844 6.826l-.131.075c-.785.451-1.641.666-2.486.666z"/></g></g><path d="m146.696 407.273c-2.761 0-5-2.238-5-5 0-3.492-2.841-6.333-6.334-6.333-2.761 0-5-2.238-5-5s2.239-5 5-5c3.492 0 6.334-2.841 6.334-6.333 0-2.762 2.239-5 5-5s5 2.238 5 5c0 3.492 2.841 6.333 6.333 6.333 2.761 0 5 2.238 5 5s-2.239 5-5 5c-3.492 0-6.333 2.841-6.333 6.333 0 2.761-2.239 5-5 5z" fill="#6c6cff"/><path d="m360.856 152.801c-2.762 0-5-2.238-5-5 0-3.492-2.842-6.334-6.334-6.334-2.762 0-5-2.238-5-5s2.238-5 5-5c3.492 0 6.334-2.841 6.334-6.333 0-2.762 2.238-5 5-5s5 2.238 5 5c0 3.492 2.841 6.333 6.333 6.333 2.762 0 5 2.238 5 5s-2.238 5-5 5c-3.492 0-6.333 2.842-6.333 6.334 0 2.762-2.238 5-5 5z" fill="#ff4d4d"/><path d="m271.324 353.837c-2.762 0-5-2.238-5-5 0-3.492-2.841-6.333-6.333-6.333-2.762 0-5-2.238-5-5s2.238-5 5-5c3.492 0 6.333-2.842 6.333-6.334 0-2.762 2.238-5 5-5s5 2.238 5 5c0 3.492 2.841 6.334 6.333 6.334 2.762 0 5 2.238 5 5s-2.238 5-5 5c-3.492 0-6.333 2.841-6.333 6.333 0 2.762-2.238 5-5 5z" fill="#ff9d33"/></g><path d="m303.279 161.22h-8.95c-7.156 0-14.204-1.742-20.536-5.076l-60.306-31.754c-1.077-4.362-5.004-7.6-9.698-7.6h-68.27c-4.694 0-8.621 3.239-9.698 7.6l-60.306 31.755c-6.332 3.334-13.38 5.076-20.536 5.076h-8.95c-5.523 0-10 4.477-10 10v93.168c0 5.523 4.477 10 10 10h8.95c7.156 0 14.204 1.742 20.536 5.076l60.306 31.755c1.076 4.361 5.004 7.6 9.698 7.6h68.27c4.694 0 8.621-3.238 9.698-7.6l60.306-31.754c6.332-3.334 13.38-5.076 20.536-5.076h8.95c5.523 0 10-4.477 10-10v-93.17c0-5.523-4.477-10-10-10z" fill="url(#SVGID_2_)"/></g></svg>