<?xml version="1.0" encoding="UTF-8"?><!DOCTYPE svg PUBLIC "-//W3C//DTD SVG 1.1//EN" "http://www.w3.org/Graphics/SVG/1.1/DTD/svg11.dtd"><svg xmlns="http://www.w3.org/2000/svg" xmlns:xlink="http://www.w3.org/1999/xlink" version="1.1" id="delivery-girl" x="0px" y="0px" viewBox="0 0 1010.0006 840.5948" xml:space="preserve"><path fill="#DFDFE1" d="M62.69 491.396h453.834v338.288H62.689z"/><path fill="#4D4D4D" d="M516.524 839.935H62.689a10.245 10.245 0 0 1-10.25-10.251V491.396a10.246 10.246 0 0 1 10.25-10.252h453.834a10.246 10.246 0 0 1 10.251 10.252v338.288a10.245 10.245 0 0 1-10.25 10.25zM72.94 819.433h433.332V501.647H72.94v317.786z"/><path fill="#4D4D4D" d="M425.985 669.71H140.173a10.266 10.266 0 0 1-9.39-6.127L60.146 503.008c-2.282-5.176.08-11.233 5.266-13.505a10.274 10.274 0 0 1 13.515 5.256l67.934 154.448h272.837l80.668-158.183c2.562-5.075 8.77-7.027 13.795-4.474 5.025 2.572 7.048 8.74 4.465 13.785l-83.511 163.778a10.25 10.25 0 0 1-9.13 5.597z"/><path fill="#4D4D4D" d="M62.69 839.935c-1.422 0-2.864-.29-4.246-.921-5.145-2.343-7.428-8.429-5.085-13.575l77.484-170.225c2.363-5.147 8.45-7.408 13.575-5.086 5.146 2.343 7.428 8.43 5.086 13.574L72.019 833.93a10.261 10.261 0 0 1-9.33 6.006z"/><g><path fill="#4D4D4D" d="M516.524 839.935a10.24 10.24 0 0 1-9.05-5.436l-90.54-170.226c-2.662-4.995-.76-11.211 4.245-13.865 4.906-2.653 11.173-.79 13.856 4.236l90.538 170.224c2.663 4.996.761 11.213-4.244 13.865a10.066 10.066 0 0 1-4.805 1.202z"/></g><g><path fill="#FFF" d="M672.994 442.682l34.477 1.562c-29.552 37.78-54.779 48.532-69.155 51.236 15.296-24.948 28.792-44.509 34.678-52.798z"/><path fill="#5FD4AF" d="M832.848 638.976l-.08 180.457H610.805l.402-162.457c0-2.864-1.242-5.647-3.365-7.588-1.36-1.262-33.035-31.295-7.728-84.393 8.01-16.838 16.86-33.156 25.629-48.373 1.281.1 2.362.26 4.084.26 17.659 0 57.662-8.328 102.351-71.497l57.223 2.603c44.969 37.02 43.807 152.586 43.447 190.988z"/><path fill="#4D4D4D" d="M843.02 829.684H600.534l.42-172.739c-1.661-1.5-38.542-36.67-10.091-96.364 7.269-15.268 15.777-31.324 25.988-49.074l3.244-5.606 9.73.73c13.975 0 51.097-6.546 93.983-67.162l3.244-4.575 66.232 3.013 2.623 2.162c43.628 35.92 47.832 130.662 47.191 198.807l-.08 190.808zM621.076 809.18h201.44l.08-170.205c.9-96.105-11.633-156.83-37.26-180.907l-48.093-2.193c-44.148 60.195-84.372 70.717-105.696 71.238-8.588 15.157-15.877 29.041-22.184 42.285-22.024 46.242 4.305 71.418 5.446 72.47a20.56 20.56 0 0 1 6.648 15.107l-.381 152.205z"/><path fill="#4D4D4D" d="M843.02 839.935H600.513a10.27 10.27 0 0 1-7.267-3.024 10.208 10.208 0 0 1-2.983-7.277l.44-168.404c-15.116-16.418-32.936-55.01-9.09-105.044 32.115-67.524 76.223-127.559 78.086-130.082 2.04-2.753 5.325-4.275 8.709-4.154l125.176 5.706c2.022.09 3.984.78 5.626 1.982 55.78 41.075 54.58 163.469 54.12 209.549l-.06 8.118v182.379c0 5.666-4.586 10.25-10.252 10.25zm-232.215-20.502h221.963l.06-180.448c.38-38.41 1.522-153.987-43.427-190.997l-116.387-5.306c-10.732 15.096-46.49 66.823-72.9 122.313-25.287 53.098 6.367 83.14 7.728 84.393 2.123 1.941 3.365 4.724 3.365 7.588l-.402 162.457z"/><path fill="#4D4D4D" d="M629.827 516.883c-5.626 0-9.01-.821-9.53-.972-5.466-1.451-8.73-7.077-7.27-12.543 1.442-5.406 6.929-8.56 12.396-7.308.98.2 43.146 8.109 94.943-69.556 3.163-4.725 9.53-5.966 14.215-2.843 4.705 3.144 5.986 9.5 2.844 14.216-46.792 70.196-89.239 79.006-107.598 79.006z"/><path fill="#FF9554" d="M999.75 351.903c0-59.955-53.138-76.153-53.138-76.153l-2.162-47.07C933.758 102.311 837.132 10.25 719.204 10.25c-117.969 0-212.992 89.948-222.202 218.428-2.082 30.003-4.245 57.743-4.245 57.743s-49.093 13.965-53.938 67.603c-2.123 23.556 10.711 74.962 70.677 74.962H933.397s66.353-6.467 66.353-77.084z"/><path fill="#4D4D4D" d="M933.397 439.238H509.496c-24.867 0-45.65-8.339-60.066-24.116-17.739-19.411-22.304-45.54-20.823-62.018 4.325-47.782 39.263-67.603 54.44-74.01.76-9.95 2.262-29.973 3.724-51.126C496.241 95.864 593.988 0 719.204 0 842.458 0 943.669 97.937 954.66 227.818l1.882 40.714c21.624 9.42 53.458 35.409 53.458 83.371 0 63.22-49.454 84.743-75.602 87.286-.34.03-.661.05-1.002.05zM719.204 20.502c-114.145 0-203.301 87.856-211.971 208.908-2.082 30.023-4.265 57.813-4.265 57.813a10.22 10.22 0 0 1-7.407 9.06c-1.682.5-42.407 12.964-46.531 58.663-.901 9.921 1.361 30.844 15.537 46.341 10.571 11.583 25.688 17.449 44.929 17.449h423.321c5.727-.72 56.682-8.79 56.682-66.833 0-51.766-45.41-66.212-45.87-66.352-4.145-1.261-7.068-4.995-7.248-9.33l-2.163-47.072C923.987 108.418 833.548 20.502 719.204 20.502z"/><path fill="#FFF" d="M857.475 404.08c-36.24 30.593-82.21 49.874-135.107 49.874-50.415 0-92.661-19.941-129.903-45.53-14.855-10.21-34.757-37.08-34.757-37.08V198.997h328.598v174.68s-14.176 18.02-28.83 30.403z"/><path fill="#4D4D4D" d="M722.368 464.206c-45.59 0-88.717-15.037-135.708-47.332-16.077-11.052-36.34-38.272-37.18-39.433a10.156 10.156 0 0 1-2.022-6.097V198.997c0-5.666 4.584-10.251 10.25-10.251h328.598c5.666 0 10.251 4.585 10.251 10.25v174.68c0 2.304-.781 4.536-2.203 6.338-.6.77-14.996 18.99-30.272 31.895-40.525 34.217-89.517 52.297-141.714 52.297zM567.96 367.9c6.587 8.55 20.482 25.318 30.312 32.076 43.428 29.832 82.85 43.727 124.096 43.727 47.29 0 91.72-16.407 128.5-47.451 10.41-8.8 20.782-20.893 25.187-26.22V209.249H567.96V367.9z"/><path fill="#4D4D4D" d="M652.33 271.085c0 10.682-8.648 19.361-19.38 19.361-10.692 0-19.341-8.68-19.341-19.361 0-10.671 8.65-19.38 19.34-19.38 10.733 0 19.382 8.709 19.382 19.38z"/><path fill="#4D4D4D" d="M836.612 271.085c0 10.682-8.69 19.361-19.38 19.361-10.692 0-19.382-8.68-19.382-19.361 0-10.671 8.69-19.38 19.381-19.38 10.692 0 19.38 8.709 19.38 19.38z"/><g><path fill="#4D4D4D" d="M724.41 371.584c-20.883 0-39.564-12.543-47.632-31.944-2.162-5.236.32-11.232 5.546-13.405 5.206-2.132 11.212.3 13.395 5.537 4.865 11.732 16.137 19.31 28.69 19.31 12.595 0 23.846-7.558 28.633-19.26 2.162-5.256 8.228-7.71 13.374-5.607 5.245 2.153 7.748 8.14 5.606 13.375-7.969 19.44-26.65 31.995-47.612 31.995z"/></g><g><path fill="#5FD4AF" d="M784.355 164.95V92.16l62.067 25.668v21.444z"/><path fill="#4D4D4D" d="M784.355 175.2a10.24 10.24 0 0 1-10.251-10.25V92.16a10.24 10.24 0 0 1 4.545-8.519c2.843-1.922 6.447-2.272 9.63-.951l62.067 25.668a10.256 10.256 0 0 1 6.328 9.47v21.444c0 4.144-2.503 7.888-6.328 9.47L788.28 174.42a10.32 10.32 0 0 1-3.925.78zm10.251-67.703v42.116l41.565-17.199v-7.728l-41.565-17.189z"/><path fill="#5FD4AF" d="M929.954 164.95V92.16l-62.108 25.668v21.444z"/><path fill="#4D4D4D" d="M929.954 175.2c-1.322 0-2.663-.26-3.924-.78l-62.108-25.678a10.255 10.255 0 0 1-6.328-9.47v-21.444c0-4.144 2.503-7.888 6.328-9.47L926.03 82.69c3.184-1.301 6.767-.971 9.63.951a10.242 10.242 0 0 1 4.545 8.52v72.789a10.242 10.242 0 0 1-10.251 10.25zm-51.857-42.786l41.605 17.21v-42.137l-41.605 17.199v7.728z"/><g><path fill="#FFF" d="M878.538 128.54c0 10.622-8.57 19.231-19.262 19.231-10.611 0-19.26-8.61-19.26-19.23 0-10.633 8.649-19.302 19.26-19.302 10.692 0 19.262 8.67 19.262 19.301z"/><path fill="#4D4D4D" d="M859.276 158.022c-16.277 0-29.512-13.224-29.512-29.482 0-16.298 13.235-29.552 29.512-29.552 16.278 0 29.513 13.254 29.513 29.552 0 16.258-13.235 29.482-29.513 29.482zm0-38.532c-4.965 0-9.01 4.065-9.01 9.05 0 4.955 4.045 8.98 9.01 8.98 4.966 0 9.01-4.025 9.01-8.98 0-4.985-4.044-9.05-9.01-9.05z"/></g></g><g><path fill="#FFF" d="M584.417 795.046c0 19.5-15.817 35.299-35.358 35.299-19.461 0-35.319-15.798-35.319-35.3 0-19.54 15.858-35.317 35.32-35.317 19.54 0 35.357 15.777 35.357 35.318z"/><path fill="#4D4D4D" d="M549.06 840.595c-25.129 0-45.57-20.432-45.57-45.55 0-25.126 20.441-45.57 45.57-45.57 25.146 0 45.609 20.444 45.609 45.57 0 25.118-20.463 45.55-45.61 45.55zm0-70.616c-13.816 0-25.069 11.242-25.069 25.067 0 13.814 11.253 25.047 25.068 25.047 13.834 0 25.108-11.233 25.108-25.047 0-13.825-11.274-25.067-25.108-25.067z"/></g><g><path fill="#5FD4AF" d="M740.668 506.411c-29.953 0-38.523 17.1-38.523 40.705v211.91H556.548v70.658h218.397V547.116c0-25.728-8.61-40.705-34.277-40.705z"/><path fill="#4D4D4D" d="M774.945 839.935H556.547a10.246 10.246 0 0 1-10.252-10.251v-70.658a10.246 10.246 0 0 1 10.253-10.25h135.346v-201.66c0-42.116 26.53-50.956 48.774-50.956 29.551 0 44.528 17.15 44.528 50.956v282.568a10.245 10.245 0 0 1-10.251 10.25zm-208.148-20.502h197.897V547.116c0-25.468-8.81-30.453-24.026-30.453-20.603 0-28.27 8.248-28.27 30.453v211.91a10.247 10.247 0 0 1-10.253 10.252H566.798v50.155z"/></g></g><g><path fill="#CCC" d="M201.2 442.182s-3.224-178.015-148.882-197.415l-42.086 32.345s129.481-35.559 190.968 165.07z"/><path fill="#4D4D4D" d="M201.2 452.433c-4.445 0-8.47-2.884-9.81-7.248C148.662 305.743 74.001 284.93 33.296 284.93c-12.414 0-20.322 2.053-20.382 2.083a10.193 10.193 0 0 1-11.853-5.376c-2.163-4.385-.941-9.68 2.923-12.654l42.086-32.345c2.162-1.652 4.825-2.403 7.608-2.033 152.626 20.333 157.732 205.524 157.772 207.386.1 5.116-3.584 9.51-8.65 10.312-.54.09-1.08.13-1.601.13zM43.128 264.768c34.297 2.363 83.57 18.15 124.695 79.507-18.6-40.014-52.156-79.156-112.702-88.737l-11.993 9.23z"/><path fill="#CCC" d="M249.773 442.182s3.223-178.015 148.862-197.415l42.106 32.345s-129.501-35.559-190.968 165.07z"/><path fill="#4D4D4D" d="M249.773 452.433a9.81 9.81 0 0 1-1.602-.13c-5.045-.802-8.75-5.196-8.65-10.312.04-1.862 5.146-187.054 157.752-207.386 2.803-.38 5.446.371 7.609 2.033l42.105 32.345a10.251 10.251 0 0 1 2.924 12.694c-2.182 4.394-7.088 6.587-11.893 5.316-.02-.01-7.929-2.063-20.342-2.063-40.705 0-115.386 20.813-158.092 160.255a10.266 10.266 0 0 1-9.81 7.248zm146.059-196.895c-60.526 9.58-94.062 48.703-112.683 88.717 41.125-61.347 90.379-77.124 124.696-79.487l-12.013-9.23z"/><g><path fill="#FFF" d="M124.116 182.489h21.663"/><path fill="#4D4D4D" d="M145.78 192.74h-21.664a10.245 10.245 0 0 1-10.251-10.251 10.245 10.245 0 0 1 10.25-10.252h21.664a10.245 10.245 0 0 1 10.252 10.252 10.245 10.245 0 0 1-10.252 10.25z"/><path fill="#FFF" d="M179.516 182.489H201.2"/><path fill="#4D4D4D" d="M201.2 192.74h-21.684a10.245 10.245 0 0 1-10.25-10.251 10.245 10.245 0 0 1 10.25-10.252H201.2a10.245 10.245 0 0 1 10.251 10.252 10.245 10.245 0 0 1-10.251 10.25z"/><g><path fill="#FFF" d="M162.678 146.35v21.673"/><path fill="#4D4D4D" d="M162.678 178.274a10.245 10.245 0 0 1-10.251-10.251v-21.674a10.245 10.245 0 0 1 10.25-10.25 10.245 10.245 0 0 1 10.252 10.25v21.674a10.245 10.245 0 0 1-10.251 10.251z"/></g><g><path fill="#FFF" d="M162.678 201.77v21.683"/><path fill="#4D4D4D" d="M162.678 233.705a10.245 10.245 0 0 1-10.251-10.252V201.77a10.245 10.245 0 0 1 10.25-10.251 10.245 10.245 0 0 1 10.252 10.25v21.684a10.245 10.245 0 0 1-10.251 10.252z"/></g></g><g><path fill="#FFF" d="M295.402 62.618h21.664"/><path fill="#4D4D4D" d="M317.066 72.87h-21.663c-5.667 0-10.252-4.586-10.252-10.252s4.585-10.25 10.251-10.25h21.664c5.666 0 10.252 4.584 10.252 10.25s-4.586 10.251-10.252 10.251z"/><path fill="#FFF" d="M350.803 62.618h21.663"/><path fill="#4D4D4D" d="M372.466 72.87h-21.663c-5.666 0-10.251-4.586-10.251-10.252s4.585-10.25 10.25-10.25h21.664c5.666 0 10.251 4.584 10.251 10.25s-4.585 10.251-10.25 10.251z"/><g><path fill="#FFF" d="M333.904 26.489v21.694"/><path fill="#4D4D4D" d="M333.904 58.434a10.245 10.245 0 0 1-10.25-10.251V26.489a10.245 10.245 0 0 1 10.25-10.251 10.245 10.245 0 0 1 10.251 10.25v21.695c0 5.666-4.585 10.25-10.25 10.25z"/></g><g><path fill="#FFF" d="M333.904 81.859v21.674"/><path fill="#4D4D4D" d="M333.904 113.784a10.245 10.245 0 0 1-10.25-10.251V81.859c0-5.666 4.584-10.251 10.25-10.251a10.245 10.245 0 0 1 10.251 10.25v21.675c0 5.666-4.585 10.25-10.25 10.25z"/></g></g></g><metadata><rdf:RDF xmlns:rdf="http://www.w3.org/1999/02/22-rdf-syntax-ns#" xmlns:rdfs="http://www.w3.org/2000/01/rdf-schema#" xmlns:dc="http://purl.org/dc/elements/1.1/"><rdf:Description about="https://iconscout.com/legal#licenses" dc:title="delivery,girl" dc:description="delivery,girl" dc:publisher="Iconscout" dc:date="2017-09-21" dc:format="image/svg+xml" dc:language="en"><dc:creator><rdf:Bag><rdf:li>Vecteezy</rdf:li></rdf:Bag></dc:creator></rdf:Description></rdf:RDF></metadata></svg>