<svg id="Capa_1" enable-background="new 0 0 510 510" height="512" viewBox="0 0 510 510" width="512" xmlns="http://www.w3.org/2000/svg" xmlns:xlink="http://www.w3.org/1999/xlink"><linearGradient id="lg1"><stop offset="0" stop-color="#edf5ff"/><stop offset="1" stop-color="#d5e8fe"/></linearGradient><linearGradient id="SVGID_1_" gradientUnits="userSpaceOnUse" x1="255" x2="255" xlink:href="#lg1" y1="438.815" y2="512.495"/><linearGradient id="lg2"><stop offset="0" stop-color="#07485e" stop-opacity="0"/><stop offset=".2708" stop-color="#074459" stop-opacity=".271"/><stop offset=".597" stop-color="#05394a" stop-opacity=".597"/><stop offset=".9505" stop-color="#032632" stop-opacity=".951"/><stop offset="1" stop-color="#03232e"/></linearGradient><linearGradient id="SVGID_2_" gradientUnits="userSpaceOnUse" x1="339.16" x2="246.494" xlink:href="#lg2" y1="521.107" y2="259.774"/><linearGradient id="SVGID_3_" gradientUnits="userSpaceOnUse" x1="304.842" x2="158.842" xlink:href="#lg2" y1="440.504" y2="324.504"/><linearGradient id="SVGID_4_" gradientUnits="userSpaceOnUse" x1="255" x2="255" y1="352.01" y2="469.891"><stop offset="0" stop-color="#cbd0e4"/><stop offset="1" stop-color="#6a7d83"/></linearGradient><linearGradient id="lg3"><stop offset="0" stop-color="#9ae1d3"/><stop offset="1" stop-color="#80d1c1"/></linearGradient><linearGradient id="SVGID_5_" gradientUnits="userSpaceOnUse" x1="235.282" x2="271.007" xlink:href="#lg3" y1="464.458" y2="509.198"/><linearGradient id="lg4"><stop offset="0" stop-color="#0b799d" stop-opacity="0"/><stop offset=".1739" stop-color="#117d9e" stop-opacity=".174"/><stop offset=".414" stop-color="#2389a0" stop-opacity=".414"/><stop offset=".6928" stop-color="#409ca3" stop-opacity=".693"/><stop offset=".9986" stop-color="#69b7a8" stop-opacity=".999"/><stop offset="1" stop-color="#69b7a8"/></linearGradient><linearGradient id="SVGID_6_" gradientUnits="userSpaceOnUse" x1="278.614" x2="246.117" xlink:href="#lg4" y1="500.238" y2="467.74"/><linearGradient id="SVGID_7_" gradientUnits="userSpaceOnUse" x1="254.997" x2="254.997" xlink:href="#lg3" y1="436.465" y2="486.435"/><linearGradient id="SVGID_8_" gradientUnits="userSpaceOnUse" x1="253.031" x2="348.321" xlink:href="#lg4" y1="448.607" y2="547.443"/><linearGradient id="lg5"><stop offset="0" stop-color="#fce9cb"/><stop offset="1" stop-color="#ffbd95"/></linearGradient><linearGradient id="SVGID_9_" gradientUnits="userSpaceOnUse" x1="255" x2="255" xlink:href="#lg5" y1="375.795" y2="405.142"/><linearGradient id="SVGID_10_" gradientUnits="userSpaceOnUse" x1="199.847" x2="219.982" xlink:href="#lg1" y1="390.224" y2="423.388"/><linearGradient id="SVGID_11_" gradientUnits="userSpaceOnUse" x1="301.697" x2="339.74" xlink:href="#lg1" y1="381.981" y2="416.049"/><linearGradient id="SVGID_12_" gradientUnits="userSpaceOnUse" x1="119.783" x2="146.574" xlink:href="#lg5" y1="215.815" y2="242.606"/><linearGradient id="SVGID_13_" gradientUnits="userSpaceOnUse" x1="376.813" x2="403.604" xlink:href="#lg5" y1="215.815" y2="242.606"/><linearGradient id="SVGID_14_" gradientUnits="userSpaceOnUse" x1="191.689" x2="305.316" xlink:href="#lg5" y1="124.07" y2="303.52"/><linearGradient id="lg6"><stop offset="0" stop-color="#faa68e" stop-opacity="0"/><stop offset="1" stop-color="#c9766e"/></linearGradient><linearGradient id="SVGID_15_" gradientUnits="userSpaceOnUse" x1="275.627" x2="236.897" xlink:href="#lg6" y1="334.868" y2="60.076"/><linearGradient id="SVGID_16_" gradientUnits="userSpaceOnUse" x1="255" x2="255" xlink:href="#lg6" y1="218.601" y2="385.917"/><linearGradient id="lg7"><stop offset="0" stop-color="#8a7889"/><stop offset="1" stop-color="#6e566e"/></linearGradient><linearGradient id="SVGID_17_" gradientUnits="userSpaceOnUse" x1="189.567" x2="213.996" xlink:href="#lg7" y1="196.598" y2="221.027"/><linearGradient id="lg8"><stop offset="0" stop-color="#6e566e" stop-opacity="0"/><stop offset=".0471" stop-color="#6e566e" stop-opacity=".047"/><stop offset="1" stop-color="#6e566e"/></linearGradient><linearGradient id="SVGID_18_" gradientUnits="userSpaceOnUse" x1="197.279" x2="223.205" xlink:href="#lg8" y1="210.884" y2="162.664"/><linearGradient id="SVGID_19_" gradientUnits="userSpaceOnUse" x1="306.319" x2="330.748" xlink:href="#lg7" y1="196.598" y2="221.027"/><linearGradient id="SVGID_20_" gradientUnits="userSpaceOnUse" x1="314.031" x2="339.958" xlink:href="#lg8" y1="210.884" y2="162.664"/><linearGradient id="SVGID_21_" gradientUnits="userSpaceOnUse" x1="220.767" x2="322.639" xlink:href="#lg7" y1="113.057" y2="199.778"/><linearGradient id="SVGID_22_" gradientUnits="userSpaceOnUse" x1="195.211" x2="254.767" y1="72.648" y2="173.475"><stop offset="0" stop-color="#6e566e" stop-opacity="0"/><stop offset=".2944" stop-color="#674d66" stop-opacity=".294"/><stop offset="1" stop-color="#593b56"/></linearGradient><linearGradient id="SVGID_23_" gradientUnits="userSpaceOnUse" x1="125.064" x2="125.064" xlink:href="#lg7" y1="180.992" y2="189.699"/><linearGradient id="SVGID_24_" gradientTransform="matrix(-1 0 0 1 795.389 0)" gradientUnits="userSpaceOnUse" x1="410.453" x2="410.453" xlink:href="#lg7" y1="180.992" y2="189.699"/><linearGradient id="SVGID_25_" gradientUnits="userSpaceOnUse" x1="255" x2="255" xlink:href="#lg7" y1="184.613" y2="194.122"/><linearGradient id="lg9"><stop offset="0" stop-color="#fff" stop-opacity="0"/><stop offset="1" stop-color="#fff"/></linearGradient><linearGradient id="SVGID_26_" gradientUnits="userSpaceOnUse" x1="201.546" x2="178.493" xlink:href="#lg9" y1="230.026" y2="167.783"/><linearGradient id="SVGID_27_" gradientUnits="userSpaceOnUse" x1="166.9" x2="220.176" xlink:href="#lg7" y1="180.407" y2="233.683"/><linearGradient id="SVGID_28_" gradientUnits="userSpaceOnUse" x1="326.069" x2="303.016" xlink:href="#lg9" y1="230.026" y2="167.783"/><linearGradient id="SVGID_29_" gradientUnits="userSpaceOnUse" x1="291.422" x2="344.698" xlink:href="#lg7" y1="180.407" y2="233.683"/><linearGradient id="SVGID_30_" gradientTransform="matrix(-1 0 0 -1 -26.371 676.979)" gradientUnits="userSpaceOnUse" x1="-281.371" x2="-281.371" y1="325.916" y2="355.742"><stop offset="0" stop-color="#ff9690"/><stop offset="1" stop-color="#f9545b"/></linearGradient><g><g><path d="m468.705 467.149c11.808 13.293 3.388 34.349-14.327 35.868-50.744 4.349-117.931 6.983-191.641 6.983-81.592 0-155.187-3.229-207.33-8.425-17.5-1.744-25.895-22.649-14.124-35.716.089-.098.177-.197.266-.295 52.399-58.217 128.356-94.813 212.854-94.813 83.59 0 158.764 35.772 211.121 92.874 1.07 1.166 2.13 2.34 3.181 3.524z" fill="url(#SVGID_1_)"/><path d="m454.381 503.02c-50.744 4.343-117.93 6.98-191.645 6.98-12.421 0-24.648-.074-36.645-.221l-48.255-48.255c-4.362-3.32-6.206-8.345-5.376-13.103-15.648-15.427-25.128-35.28-25.257-56.923 32.643-13.196 68.265-20.536 105.574-20.739.544-.009 1.079-.009 1.623-.009 31.564 0 61.921 5.099 90.303 14.523 46.798 15.529 88.229 42.805 120.816 78.353 1.07 1.162 2.13 2.342 3.181 3.523 11.814 13.297 3.395 34.349-14.319 35.871z" fill="url(#SVGID_2_)"/><path d="m465.524 463.625c-52.233-56.966-127.175-92.7-210.527-92.87v139.235c2.572.006 5.151.01 7.74.01 73.71 0 140.897-2.634 191.642-6.984 17.715-1.518 26.134-22.575 14.327-35.868-1.052-1.183-2.112-2.357-3.182-3.523z" fill="url(#SVGID_3_)"/><g><path d="m255 480.358c-59.442 0-107.802-40.074-107.802-89.332 0-28.338 16.466-55.273 44.048-72.051 4.087-2.487 9.622-1.49 12.359 2.23 2.735 3.72 1.637 8.752-2.453 11.24-22.965 13.97-36.136 35.321-36.136 58.581 0 40.322 40.367 73.127 89.983 73.127s89.983-32.804 89.983-73.127c0-23.26-13.171-44.611-36.135-58.581-4.09-2.488-5.188-7.52-2.453-11.24s8.269-4.719 12.359-2.23c27.581 16.777 44.048 43.712 44.048 72.051.001 49.258-48.359 89.332-107.801 89.332z" fill="url(#SVGID_4_)"/><path d="m254.997 460.101c-7.38 0-13.358 5.443-13.358 12.154v37.745h26.722v-37.744c0-6.712-5.978-12.155-13.364-12.155z" fill="url(#SVGID_5_)"/><path d="m268.364 472.255c0-6.712-5.983-12.154-13.364-12.154s-13.364 5.442-13.364 12.154v13.437l26.728 24.308z" fill="url(#SVGID_6_)"/><path d="m254.997 486.435c-28.637 0-56.04-8.848-77.161-24.913-6.605-5.024-7.481-13.967-1.957-19.974 5.524-6.008 15.358-6.804 21.963-1.78 15.52 11.805 35.818 18.307 57.155 18.307s41.635-6.502 57.155-18.307c6.604-5.024 16.437-4.228 21.962 1.78 5.524 6.007 4.648 14.95-1.957 19.974-21.119 16.065-48.522 24.913-77.16 24.913z" fill="url(#SVGID_7_)"/><path d="m334.115 441.548c-.994-1.081-2.131-1.986-3.36-2.726.523 4.537-1.365 9.222-5.502 12.369-21.12 16.065-48.523 24.913-77.161 24.913-27.996 0-54.809-8.46-75.729-23.849.438 3.488 2.279 6.837 5.473 9.267 21.12 16.065 48.523 24.913 77.161 24.913s56.04-8.848 77.161-24.913c6.605-5.024 7.481-13.967 1.957-19.974z" fill="url(#SVGID_8_)"/></g><ellipse cx="255" cy="388.278" fill="url(#SVGID_9_)" rx="43.75" ry="27.122"/><g><path d="m159.818 350.696v20.42c0 3.753.825 7.448 2.403 10.763l27.333 57.434c3.571 7.504 12.021 10.195 18.607 5.924l46.839-30.369z" fill="url(#SVGID_10_)"/><path d="m350.182 350.696v20.42c0 3.753-.825 7.448-2.403 10.763l-27.333 57.434c-3.571 7.504-12.021 10.195-18.607 5.924l-46.839-30.369z" fill="url(#SVGID_11_)"/></g></g><g><g><g><path d="m126.485 259.045c-15.55 0-28.156-12.606-28.156-28.156v-16.745c0-15.55 12.606-28.156 28.156-28.156 15.55 0 28.156 12.606 28.156 28.156v16.745c0 15.55-12.606 28.156-28.156 28.156z" fill="url(#SVGID_12_)"/><path d="m383.515 259.045c-15.55 0-28.156-12.606-28.156-28.156v-16.745c0-15.55 12.606-28.156 28.156-28.156 15.55 0 28.156 12.606 28.156 28.156v16.745c0 15.55-12.606 28.156-28.156 28.156z" fill="url(#SVGID_13_)"/></g><path d="m255 395.206c70.35 0 128.223-55.62 130.765-125.924 1.09-30.143 1.09-60.307 0-90.45-2.542-70.305-60.415-125.925-130.765-125.925-70.35 0-128.223 55.62-130.765 125.924-1.09 30.143-1.09 60.307 0 90.45 2.542 70.305 60.415 125.925 130.765 125.925z" fill="url(#SVGID_14_)"/><path d="m367.225 178.2c-.381-.311-3.561-3.788-5.135-4.802-1.825-2.835-4.691-4.906-8.064-5.683-24.416-5.62-49.114-5.62-73.529 0-4.543 1.046-8.172 4.438-9.566 8.887-.926 2.957-1.696 5.92-2.344 8.885-3.936-2.48-8.59-3.924-13.586-3.924-2.673 0-5.243.425-7.662 1.189l-9.771-9.354c-1.824-2.835-4.691-4.906-8.064-5.683-24.416-5.62-49.114-5.62-73.529 0-4.543 1.046-8.173 4.438-9.566 8.887-.167.532-.311 1.065-.469 1.598h-21.674c-.009.211-.023.42-.031.631-.001.04-.002.079-.004.119-.105 2.907-.191 5.815-.276 8.723-.07 2.519-.135 5.038-.193 7.558 0 .01 0 .019-.001.028l18.147 15.748c.414 8.31 1.91 16.614 4.5 24.881.936 2.989 2.885 5.497 5.439 7.141l145.248 145.248c50.033-16.98 86.66-63.391 88.67-118.996 1.09-30.143 1.09-60.307 0-90.45-.008-.211-.022-.42-.031-.631z" fill="url(#SVGID_15_)"/><path d="m263.068 290.776h-16.136c-12.931 0-23.006-9.534-21.623-20.462l8.436-66.659h42.508l8.436 66.659c1.385 10.928-8.69 20.462-21.621 20.462z" fill="url(#SVGID_16_)"/><g><g><path d="m215.485 203.655c0 10.417-8.445 18.862-18.862 18.862s-18.861-8.445-18.861-18.862 8.445-18.862 18.861-18.862c10.418 0 18.862 8.445 18.862 18.862z" fill="url(#SVGID_17_)"/><path d="m205.061 186.782c1.272 2.539 1.989 5.404 1.989 8.437 0 10.417-8.445 18.862-18.862 18.862-3.033 0-5.899-.717-8.437-1.989 3.097 6.181 9.488 10.424 16.872 10.424 10.417 0 18.862-8.445 18.862-18.862 0-7.383-4.243-13.775-10.424-16.872z" fill="url(#SVGID_18_)"/></g><g><path d="m332.237 203.655c0 10.417-8.445 18.862-18.862 18.862s-18.861-8.445-18.861-18.862 8.444-18.862 18.861-18.862c10.418 0 18.862 8.445 18.862 18.862z" fill="url(#SVGID_19_)"/><path d="m321.813 186.782c1.272 2.539 1.989 5.404 1.989 8.437 0 10.417-8.445 18.862-18.862 18.862-3.033 0-5.899-.717-8.437-1.989 3.097 6.181 9.488 10.424 16.872 10.424 10.417 0 18.862-8.445 18.862-18.862 0-7.383-4.243-13.775-10.424-16.872z" fill="url(#SVGID_20_)"/></g></g><g><path d="m124.603 222.597 2.423-36.142c1.297-19.341 12.4-36.893 29.055-46.34 8.258-4.684 17.478-7.144 26.743-7.144h70.698c25.688 0 50.08-10.113 67.55-27.849l17.027 27.224c4.078 6.521 9.802 11.957 16.588 15.736 13.901 7.739 23.143 22.327 24.135 38.38l1.593 25.768c.298 4.822 4.315 8.749 8.971 8.749 3.876 0 7.061-2.752 7.716-6.656l11.548-68.824c3.31-19.727 4.131-39.555 2.521-59.042-2.403-29.081-30.967-50.453-59.795-45.409-36.916-33.367-87.446-47.426-136.064-38.346l-42.268 7.894c-38.32 7.157-67.71 39.855-68.888 78.201l-1.256 40.886c-.568 18.502.332 37.262 2.737 56.109l4.889 38.322c.436 3.419 3.147 5.873 6.497 5.873 3.913.001 7.307-3.315 7.58-7.39z" fill="url(#SVGID_21_)"/><path d="m351.377 41.048c-36.917-33.367-87.447-47.426-136.065-38.346l-42.268 7.894c-38.32 7.157-67.71 39.855-68.888 78.201l-1.256 40.886c-.568 18.502.332 37.262 2.737 56.109l4.889 38.322c.436 3.419 3.147 5.873 6.498 5.873 3.913 0 7.307-3.316 7.58-7.391l2.423-36.142c1.297-19.341 12.4-36.893 29.055-46.34 8.258-4.684 17.478-7.144 26.743-7.144h70.698c25.688 0 50.08-10.113 67.55-27.849-.002.002-10.846-44.905 30.304-64.073z" fill="url(#SVGID_22_)"/></g></g><g><g><path d="m150.768 195.259h-42.879c-4.711 0-8.53-3.819-8.53-8.53 0-4.711 3.819-8.53 8.53-8.53h42.879z" fill="url(#SVGID_23_)"/><path d="m359.232 195.259h42.879c4.711 0 8.53-3.819 8.53-8.53 0-4.711-3.819-8.53-8.53-8.53h-42.879z" fill="url(#SVGID_24_)"/></g><path d="m242.981 200.195c2.399-4.155 6.877-6.958 12.019-6.958s9.62 2.803 12.019 6.958h12.578c-3.02-10.748-12.885-18.631-24.598-18.631s-21.578 7.883-24.598 18.631z" fill="url(#SVGID_25_)"/><g><g><path d="m232.374 231.605c-1.192 3.806-4.297 6.708-8.183 7.603-20.888 4.808-42.016 4.808-62.904 0-3.887-.895-6.992-3.797-8.184-7.603-5.276-16.847-5.277-33.871 0-50.719 1.192-3.806 4.297-6.708 8.183-7.603 20.887-4.808 42.016-4.808 62.904 0 3.887.895 6.992 3.797 8.184 7.603 5.277 16.849 5.276 33.873 0 50.719z" fill="url(#SVGID_26_)"/><path d="m239.069 176.602c-1.393-4.449-5.023-7.841-9.566-8.887-24.416-5.62-49.114-5.62-73.529 0-4.543 1.046-8.172 4.438-9.566 8.887-6.168 19.694-6.167 39.594 0 59.287 1.393 4.449 5.023 7.841 9.566 8.887 24.416 5.62 49.113 5.62 73.529 0 4.543-1.046 8.172-4.438 9.566-8.887 6.168-19.692 6.168-39.592 0-59.287zm-12.72 51.148c-1.011 3.227-3.644 5.688-6.939 6.447-17.713 4.077-35.629 4.077-53.341 0-3.296-.759-5.929-3.219-6.94-6.447-4.474-14.286-4.475-28.722 0-43.009 1.011-3.227 3.644-5.688 6.939-6.447 17.712-4.077 35.629-4.077 53.341 0 3.296.759 5.929 3.219 6.94 6.447 4.475 14.287 4.474 28.723 0 43.009z" fill="url(#SVGID_27_)"/></g><g><path d="m356.896 231.605c-1.192 3.806-4.297 6.708-8.183 7.603-20.888 4.808-42.016 4.808-62.904 0-3.887-.895-6.992-3.797-8.184-7.603-5.276-16.847-5.277-33.871 0-50.719 1.192-3.806 4.297-6.708 8.183-7.603 20.887-4.808 42.016-4.808 62.904 0 3.887.895 6.992 3.797 8.184 7.603 5.277 16.849 5.277 33.873 0 50.719z" fill="url(#SVGID_28_)"/><path d="m363.592 176.602c-1.393-4.449-5.023-7.841-9.566-8.887-24.416-5.62-49.114-5.62-73.529 0-4.543 1.046-8.172 4.438-9.566 8.887-6.168 19.694-6.167 39.594 0 59.287 1.393 4.449 5.023 7.841 9.566 8.887 24.416 5.62 49.113 5.62 73.529 0 4.543-1.046 8.172-4.438 9.566-8.887 6.167-19.692 6.168-39.592 0-59.287zm-12.721 51.148c-1.011 3.227-3.644 5.688-6.939 6.447-17.713 4.077-35.629 4.077-53.341 0-3.296-.759-5.929-3.219-6.94-6.447-4.474-14.286-4.475-28.722 0-43.009 1.011-3.227 3.644-5.688 6.939-6.447 17.712-4.077 35.629-4.077 53.341 0 3.296.759 5.929 3.219 6.94 6.447 4.475 14.287 4.474 28.723 0 43.009z" fill="url(#SVGID_29_)"/></g></g></g></g></g><path d="m290.97 322.639c-.027-.004-.054-.007-.081-.011-2.141-.289-4.28.467-5.828 1.973-8.445 8.216-18.782 13.057-29.953 13.057-11.312 0-21.766-4.956-30.268-13.357-1.517-1.499-3.618-2.266-5.737-2.019-.011.001-.022.003-.034.004-3.192.373-4.71 5.54-2.582 8.802.189.29.381.579.573.865 9.436 14.013 22.983 22.792 38.047 22.792 15.228 0 28.917-8.981 38.36-23.268.016-.024.032-.048.048-.072 2.122-3.208.609-8.338-2.545-8.766z" fill="url(#SVGID_30_)"/></svg>