<?xml version="1.0" encoding="UTF-8" standalone="no"?><svg xmlns="http://www.w3.org/2000/svg" xmlns:xlink="http://www.w3.org/1999/xlink" version="1.1" id="Layer_1" x="0px" y="0px" viewBox="0 0 40 40" xml:space="preserve" width="40" height="40"><path d="M4.511 38.5c.263-6.11 5.316-11 11.489-11h8c6.173 0 11.227 4.89 11.489 11H4.511z" fill="#FFF"/><path d="M24 28c5.729 0 10.448 4.401 10.955 10H5.045C5.552 32.401 10.271 28 16 28h8m0-1h-8C9.373 27 4 32.373 4 39h32c0-6.627-5.373-12-12-12z" fill="#788B9C"/><path d="M20 30.5c-3.219 0-4.309-2.102-4.5-2.537V22.5h9v5.464c-.188.43-1.278 2.536-4.5 2.536z" fill="#DEB974"/><path d="M24 23v4.854c-.241.489-1.262 2.146-4 2.146-2.73 0-3.756-1.657-4-2.147V23h8m1-1H15v6.062S16.066 31 20 31s5-2.938 5-2.938V22z" fill="#967A44"/><path d="M27.143 19.214c-1.3 0-2.357-1.057-2.357-2.356s1.058-2.357 2.357-2.357c1.963 0 2.357.537 2.357 1.404 0 1.413-1.165 3.309-2.357 3.309z" fill="#DEB974"/><path d="M27.143 15C29 15 29 15.481 29 15.905c0 1.234-1.041 2.81-1.857 2.81a1.859 1.859 0 0 1-1.857-1.857A1.86 1.86 0 0 1 27.143 15m0-1a2.857 2.857 0 1 0 0 5.714c1.578 0 2.857-2.232 2.857-3.81C30 14.327 28.721 14 27.143 14z" fill="#967A44"/><path d="M12.857 19.214c-1.192 0-2.357-1.896-2.357-3.31 0-.867.394-1.404 2.357-1.404 1.3 0 2.357 1.058 2.357 2.357s-1.057 2.357-2.357 2.357z" fill="#DEB974"/><path d="M12.857 15c1.024 0 1.857.833 1.857 1.857a1.859 1.859 0 0 1-1.857 1.857c-.816 0-1.857-1.575-1.857-2.81 0-.423 0-.904 1.857-.904m0-1C11.279 14 10 14.327 10 15.905s1.279 3.81 2.857 3.81a2.857 2.857 0 1 0 0-5.715z" fill="#967A44"/><g><path d="M20 26.5a2.457 2.457 0 0 1-1.641-.631l-.09-.079-.117-.029A7.487 7.487 0 0 1 12.5 18.5V9.201a3.317 3.317 0 0 1 3.313-3.313h8.375a3.316 3.316 0 0 1 3.313 3.313V18.5a7.487 7.487 0 0 1-5.652 7.261l-.117.029-.09.079A2.462 2.462 0 0 1 20 26.5z" fill="#F5CE85"/><path d="M24.187 6.389A2.816 2.816 0 0 1 27 9.202V18.5a6.988 6.988 0 0 1-5.275 6.776l-.233.059-.181.159c-.263.231-.703.506-1.311.506s-1.048-.275-1.311-.506l-.181-.159-.233-.059A6.988 6.988 0 0 1 13 18.5V9.202a2.816 2.816 0 0 1 2.813-2.813h8.374m0-1h-8.375A3.813 3.813 0 0 0 12 9.202V18.5c0 3.737 2.566 6.866 6.029 7.745.528.464 1.213.755 1.971.755s1.443-.291 1.971-.755C25.434 25.366 28 22.237 28 18.5V9.202a3.813 3.813 0 0 0-3.813-3.813z" fill="#967A44"/></g><g><path d="M27.5 17.5V14c0-3.635-3.034-5.582-3.163-5.663l-.398-.25-.275.384c-.084.118-2.119 2.886-6.514 2.886-1.15 0-4.65 0-4.65 3.644v2.5h-.212c-.356-.632-1.307-2.436-1.76-4.43.479-.885 1.182-1.604 1.753-2.188C12.962 10.185 13.5 9.634 13.5 9c0-5.123 0-6.5 5.5-6.5 3.975 0 5.608 1.812 5.624 1.829l.149.171H25c.214 0 .416-.005.606-.01.16-.004.312-.008.454-.008.958 0 1.44 0 1.44 3.518 0 .915.722 2.553 1.972 5.062-.469 1.933-1.413 3.784-1.766 4.438H27.5z" fill="#A6714E"/><path d="M19 3c3.678 0 5.193 1.6 5.248 1.659l.299.341H25c.219 0 .425-.005.619-.01.156-.004.303-.008.441-.008.538 0 .574.061.614.131C26.89 5.487 27 6.459 27 8c0 .997.681 2.581 1.942 5.119A17.49 17.49 0 0 1 28 15.76V14c0-3.909-3.258-5.999-3.397-6.087l-.801-.503-.547.772c-.019.027-1.941 2.674-6.105 2.674C13.733 10.857 12 12.251 12 15v.82a15.72 15.72 0 0 1-.941-2.675c.438-.747 1.041-1.363 1.579-1.914C13.369 10.483 14 9.837 14 9c0-5.084 0-6 5-6m0-1c-5.819 0-6 1.67-6 7 0 .882-2 2-3 4 .562 2.66 2 5 2 5h1v-3c0-2.668 2.024-3.143 4.15-3.143 4.73 0 6.922-3.097 6.922-3.097S27 10.599 27 14v4h1s1.417-2.436 2-5c-1-2-2-4.082-2-5 0-3.675-.58-4.018-1.94-4.018-.312 0-.664.018-1.06.018 0 0-1.753-2-6-2z" fill="#7A4F34"/></g><g><path d="M29.497 12.398c-1.489-.261-5.514-.898-9.497-.898s-8.008.637-9.497.898c.056-4.881.771-8.345.944-9.115C11.944 2.924 14.275 1.5 20 1.5c5.718 0 8.049 1.42 8.553 1.783.173.773.888 4.236.944 9.115z" fill="#FFF"/><path d="M20 2c5.148 0 7.449 1.166 8.106 1.583.21.983.784 4.022.88 8.22C27.181 11.503 23.615 11 20 11s-7.181.503-8.986.803c.096-4.194.669-7.232.879-8.217C12.568 3.158 14.871 2 20 2m0-1c-6.874 0-9 2-9 2s-1 4-1 10c0 0 5-1 10-1s10 1 10 1c0-6-1-10-1-10s-2.125-2-9-2z" fill="#788B9C"/><g><path fill="#C74343" d="M19 4h2v6h-2z"/><path fill="#C74343" d="M17 6h6v2h-6z"/></g></g><metadata><rdf:RDF xmlns:rdf="http://www.w3.org/1999/02/22-rdf-syntax-ns#" xmlns:rdfs="http://www.w3.org/2000/01/rdf-schema#" xmlns:dc="http://purl.org/dc/elements/1.1/"><rdf:Description about="https://iconscout.com/legal#licenses" dc:title="medical,doctor" dc:description="medical,doctor" dc:publisher="Iconscout" dc:date="2017-10-29" dc:format="image/svg+xml" dc:language="en"><dc:creator><rdf:Bag><rdf:li>Icons8</rdf:li></rdf:Bag></dc:creator></rdf:Description></rdf:RDF></metadata></svg>