<svg id="Capa_1" enable-background="new 0 0 510 510" height="512" viewBox="0 0 510 510" width="512" xmlns="http://www.w3.org/2000/svg" xmlns:xlink="http://www.w3.org/1999/xlink"><linearGradient id="lg1"><stop offset="0" stop-color="#cbd0e4"/><stop offset="1" stop-color="#6a7d83"/></linearGradient><linearGradient id="SVGID_1_" gradientUnits="userSpaceOnUse" x1="193.373" x2="193.373" xlink:href="#lg1" y1="190.14" y2="344.841"/><linearGradient id="lg2"><stop offset="0" stop-color="#edf5ff"/><stop offset="1" stop-color="#d5e8fe"/></linearGradient><linearGradient id="SVGID_2_" gradientUnits="userSpaceOnUse" x1="284.582" x2="353.645" xlink:href="#lg2" y1="95.849" y2="231.849"/><linearGradient id="SVGID_3_" gradientUnits="userSpaceOnUse" x1="241.192" x2="241.192" xlink:href="#lg2" y1="200.2" y2="185.854"/><linearGradient id="SVGID_4_" gradientUnits="userSpaceOnUse" x1="241.192" x2="241.192" xlink:href="#lg2" y1="172.575" y2="158.228"/><linearGradient id="SVGID_5_" gradientUnits="userSpaceOnUse" x1="241.192" x2="241.192" xlink:href="#lg2" y1="144.949" y2="130.603"/><linearGradient id="lg3"><stop offset="0" stop-color="#07485e" stop-opacity="0"/><stop offset=".2708" stop-color="#074459" stop-opacity=".271"/><stop offset=".597" stop-color="#05394a" stop-opacity=".597"/><stop offset=".9505" stop-color="#032632" stop-opacity=".951"/><stop offset="1" stop-color="#03232e"/></linearGradient><linearGradient id="SVGID_6_" gradientUnits="userSpaceOnUse" x1="333.842" x2="454.961" xlink:href="#lg3" y1="222.125" y2="-211.353"/><linearGradient id="SVGID_7_" gradientUnits="userSpaceOnUse" x1="351.183" x2="441.693" xlink:href="#lg3" y1="269.159" y2="-54.771"/><linearGradient id="SVGID_8_" gradientUnits="userSpaceOnUse" x1="349.726" x2="411.696" xlink:href="#lg3" y1="308.088" y2="86.303"/><linearGradient id="lg4"><stop offset="0" stop-color="#ff637b"/><stop offset="1" stop-color="#e63950"/></linearGradient><linearGradient id="SVGID_9_" gradientUnits="userSpaceOnUse" x1="129.979" x2="129.979" xlink:href="#lg4" y1="149.352" y2="161.748"/><linearGradient id="SVGID_10_" gradientUnits="userSpaceOnUse" x1="60.054" x2="180.136" xlink:href="#lg2" y1="218.651" y2="338.732"/><linearGradient id="lg5"><stop offset="0" stop-color="#9ae1d3"/><stop offset="1" stop-color="#80d1c1"/></linearGradient><linearGradient id="SVGID_11_" gradientUnits="userSpaceOnUse" x1="138.844" x2="182.281" xlink:href="#lg5" y1="206.833" y2="51.374"/><linearGradient id="SVGID_12_" gradientUnits="userSpaceOnUse" x1="64.602" x2="64.605" xlink:href="#lg5" y1="241.417" y2="241.408"/><linearGradient id="SVGID_13_" gradientUnits="userSpaceOnUse" x1="36.771" x2="65.725" xlink:href="#lg3" y1="260.64" y2="313.765"/><linearGradient id="lg6"><stop offset="0" stop-color="#ffda2d"/><stop offset="1" stop-color="#fdbf00"/></linearGradient><linearGradient id="SVGID_14_" gradientUnits="userSpaceOnUse" x1="7.326" x2="21.445" xlink:href="#lg6" y1="299.801" y2="313.919"/><linearGradient id="SVGID_15_" gradientUnits="userSpaceOnUse" x1="471.792" x2="479.157" xlink:href="#lg6" y1="309.708" y2="317.072"/><linearGradient id="SVGID_16_" gradientUnits="userSpaceOnUse" x1="485.715" x2="495.594" xlink:href="#lg4" y1="300.156" y2="310.035"/><linearGradient id="lg7"><stop offset="0" stop-color="#8a7889"/><stop offset="1" stop-color="#6e566e"/></linearGradient><linearGradient id="SVGID_17_" gradientUnits="userSpaceOnUse" x1="255" x2="255" xlink:href="#lg7" y1="320.142" y2="356.378"/><linearGradient id="SVGID_18_" gradientUnits="userSpaceOnUse" x1="79.582" x2="147.293" xlink:href="#lg1" y1="312.493" y2="380.204"/><linearGradient id="SVGID_19_" gradientUnits="userSpaceOnUse" x1="85.062" x2="143.025" xlink:href="#lg7" y1="339.318" y2="397.281"/><linearGradient id="SVGID_20_" gradientTransform="matrix(-1 0 0 -1 256.667 786)" gradientUnits="userSpaceOnUse" x1="115.764" x2="157.138" xlink:href="#lg7" y1="390.841" y2="432.215"/><linearGradient id="lg8"><stop offset="0" stop-color="#6e566e" stop-opacity="0"/><stop offset=".2944" stop-color="#674d66" stop-opacity=".294"/><stop offset="1" stop-color="#593b56"/></linearGradient><linearGradient id="SVGID_21_" gradientUnits="userSpaceOnUse" x1="151.468" x2="111.826" xlink:href="#lg8" y1="405.724" y2="366.082"/><linearGradient id="SVGID_22_" gradientUnits="userSpaceOnUse" x1="109.765" x2="126.971" xlink:href="#lg2" y1="364.021" y2="381.227"/><linearGradient id="SVGID_23_" gradientUnits="userSpaceOnUse" x1="349.457" x2="417.168" xlink:href="#lg1" y1="312.493" y2="380.204"/><linearGradient id="SVGID_24_" gradientUnits="userSpaceOnUse" x1="354.937" x2="412.9" xlink:href="#lg7" y1="339.318" y2="397.281"/><linearGradient id="SVGID_25_" gradientTransform="matrix(-1 0 0 -1 256.667 786)" gradientUnits="userSpaceOnUse" x1="-154.111" x2="-112.737" xlink:href="#lg7" y1="390.841" y2="432.215"/><linearGradient id="SVGID_26_" gradientUnits="userSpaceOnUse" x1="421.343" x2="381.701" xlink:href="#lg8" y1="405.724" y2="366.082"/><linearGradient id="SVGID_27_" gradientUnits="userSpaceOnUse" x1="379.64" x2="396.846" xlink:href="#lg2" y1="364.021" y2="381.227"/><linearGradient id="SVGID_28_" gradientUnits="userSpaceOnUse" x1="96.362" x2="34.029" xlink:href="#lg3" y1="268.008" y2="235.779"/><linearGradient id="SVGID_29_" gradientUnits="userSpaceOnUse" x1="69.228" x2="87.924" xlink:href="#lg1" y1="225.207" y2="243.902"/><linearGradient id="SVGID_30_" gradientUnits="userSpaceOnUse" x1="159.192" x2="159.192" xlink:href="#lg2" y1="280.799" y2="266.452"/><linearGradient id="SVGID_31_" gradientUnits="userSpaceOnUse" x1="170.628" x2="155.399" xlink:href="#lg3" y1="289.19" y2="247.752"/><linearGradient id="SVGID_32_" gradientTransform="matrix(1 0 0 -1 0 585.594)" gradientUnits="userSpaceOnUse" x1="159.192" x2="159.192" xlink:href="#lg7" y1="318.681" y2="310.988"/><linearGradient id="SVGID_33_" gradientUnits="userSpaceOnUse" x1="295.744" x2="355.947" xlink:href="#lg4" y1="189.066" y2="249.27"/><linearGradient id="SVGID_34_" gradientUnits="userSpaceOnUse" x1="504.109" x2="336.131" xlink:href="#lg3" y1="220.869" y2="52.891"/><linearGradient id="SVGID_35_" gradientUnits="userSpaceOnUse" x1="405.615" x2="468.636" xlink:href="#lg4" y1="122.661" y2="185.681"/><linearGradient id="lg9"><stop offset="0" stop-color="#e63950" stop-opacity="0"/><stop offset=".0467" stop-color="#e4354b" stop-opacity=".047"/><stop offset=".4669" stop-color="#d31822" stop-opacity=".467"/><stop offset=".7991" stop-color="#c90709" stop-opacity=".799"/><stop offset="1" stop-color="#c50000"/></linearGradient><linearGradient id="SVGID_36_" gradientUnits="userSpaceOnUse" x1="439.43" x2="386.022" xlink:href="#lg9" y1="149.918" y2="170.95"/><linearGradient id="SVGID_37_" gradientUnits="userSpaceOnUse" x1="432.763" x2="435.126" xlink:href="#lg9" y1="142.516" y2="168.983"/><g><path d="m181.686 187.33h23.375v169.134h-23.375z" fill="url(#SVGID_1_)"/><g><path d="m150.335 110.099v23.621c0 12.898 10.456 23.354 23.354 23.354 12.898 0 23.354 10.456 23.354 23.354v152.682c0 12.898 10.456 23.354 23.354 23.354h256.089c12.898 0 23.354-10.456 23.354-23.354v-223.011c0-12.898-10.456-23.354-23.354-23.354h-302.797c-12.898 0-23.354 10.456-23.354 23.354z" fill="url(#SVGID_2_)"/><g><path d="m252.065 200.997h-21.746c-5.043 0-9.132-4.088-9.132-9.132v-1.407c0-5.043 4.088-9.132 9.132-9.132h21.746c5.043 0 9.132 4.088 9.132 9.132v1.407c0 5.043-4.089 9.132-9.132 9.132z" fill="url(#SVGID_3_)"/><path d="m252.065 173.371h-21.746c-5.043 0-9.132-4.088-9.132-9.132v-1.407c0-5.043 4.088-9.132 9.132-9.132h21.746c5.043 0 9.132 4.088 9.132 9.132v1.407c0 5.044-4.089 9.132-9.132 9.132z" fill="url(#SVGID_4_)"/><path d="m252.065 145.746h-21.746c-5.043 0-9.132-4.088-9.132-9.132v-1.407c0-5.043 4.088-9.132 9.132-9.132h21.746c5.043 0 9.132 4.088 9.132 9.132v1.407c0 5.044-4.089 9.132-9.132 9.132z" fill="url(#SVGID_5_)"/></g><path d="m156.284 149.287c4.276 4.778 10.488 7.788 17.405 7.788 12.898 0 23.354 10.456 23.354 23.354v152.681c0 12.898 10.456 23.354 23.354 23.354h256.089c12.898 0 23.354-10.456 23.354-23.354v-183.823z" fill="url(#SVGID_6_)"/><path d="m197.044 221.604v111.506c0 12.898 10.456 23.354 23.354 23.354h256.089c12.898 0 23.354-10.456 23.354-23.354v-111.506z" fill="url(#SVGID_7_)"/><path d="m197.044 289.034v44.076c0 12.898 10.456 23.354 23.354 23.354h256.089c12.898 0 23.354-10.456 23.354-23.354v-44.076z" fill="url(#SVGID_8_)"/></g><path d="m148.042 169.54h-36.125v-16.02c0-4.544 3.684-8.228 8.228-8.228h19.67c4.544 0 8.228 3.684 8.228 8.228v16.02z" fill="url(#SVGID_9_)"/><path d="m94.309 174.543-29.037 65.502c-3.6 8.12-11.647 13.356-20.53 13.356-19.233 0-34.825 15.592-34.825 34.825v45.781c0 12.402 10.054 22.457 22.457 22.457h135.712c12.402 0 22.457-10.054 22.457-22.457v-150.363c0-12.402-10.054-22.457-22.457-22.457h-53.246c-8.884 0-16.932 5.236-20.531 13.356z" fill="url(#SVGID_10_)"/><path d="m167.225 252.968h-75.853c-8.658 0-14.453-8.908-10.944-16.823l25.072-56.557c1.919-4.329 6.209-7.12 10.944-7.12h50.781c6.612 0 11.971 5.36 11.971 11.971v56.557c.001 6.613-5.359 11.972-11.971 11.972z" fill="url(#SVGID_11_)"/><g><path d="m64.603 241.415-.002.005z" fill="url(#SVGID_12_)"/><path d="m35.656 282.247c4.643 0 8.903-2.577 11.058-6.69l17.791-33.953c-3.894 7.225-11.463 11.798-19.763 11.798-17.193 0-31.466 12.463-34.303 28.845z" fill="url(#SVGID_13_)"/></g><path d="m29.219 327.58h-20.542v-34.089c0-2.201 1.784-3.984 3.984-3.984h6.729c5.428 0 9.828 4.4 9.828 9.828v28.245z" fill="url(#SVGID_14_)"/><path d="m467.258 327.58h20.542v-22.903c0-1.826-1.48-3.306-3.306-3.306h-9.082c-4.503 0-8.154 3.651-8.154 8.154z" fill="url(#SVGID_15_)"/><path d="m483.195 327.58h20.542v-37.617c0-2.305-1.869-4.174-4.174-4.174h-6.07c-5.687 0-10.297 4.61-10.297 10.297v31.494z" fill="url(#SVGID_16_)"/><path d="m494.442 359.1h-478.884c-8.592 0-15.558-6.966-15.558-15.558v-8.5c0-8.593 6.966-15.558 15.558-15.558h478.883c8.593 0 15.558 6.966 15.558 15.558v8.5c.001 8.592-6.965 15.558-15.557 15.558z" fill="url(#SVGID_17_)"/><g><path d="m174.493 371.901h-113.696c-10.616 0-18.315-10.138-15.443-20.358 8.874-31.576 37.879-54.726 72.291-54.726s63.417 23.15 72.291 54.726c2.872 10.22-4.827 20.358-15.443 20.358z" fill="url(#SVGID_18_)"/><g><circle cx="117.645" cy="371.901" fill="url(#SVGID_19_)" r="51.354"/><circle cx="117.645" cy="371.901" fill="url(#SVGID_20_)" r="36.656"/><path d="m167.339 384.886-30.639-30.639c-4.745-5.12-11.524-8.327-19.055-8.327-14.349 0-25.981 11.632-25.981 25.981 0 7.531 3.207 14.31 8.327 19.055l30.639 30.639c17.926-4.671 32.038-18.783 36.709-36.709z" fill="url(#SVGID_21_)"/><circle cx="117.645" cy="371.901" fill="url(#SVGID_22_)" r="25.981"/></g></g><g><path d="m444.368 371.901h-113.696c-10.616 0-18.315-10.138-15.443-20.358 8.874-31.576 37.879-54.726 72.291-54.726s63.417 23.15 72.291 54.726c2.872 10.22-4.827 20.358-15.443 20.358z" fill="url(#SVGID_23_)"/><g><circle cx="387.52" cy="371.901" fill="url(#SVGID_24_)" r="51.354"/><circle cx="387.52" cy="371.901" fill="url(#SVGID_25_)" r="36.656"/><path d="m437.214 384.886-30.639-30.639c-4.745-5.12-11.524-8.327-19.055-8.327-14.349 0-25.981 11.632-25.981 25.981 0 7.531 3.207 14.31 8.327 19.055l30.639 30.639c17.926-4.671 32.038-18.783 36.709-36.709z" fill="url(#SVGID_26_)"/><circle cx="387.52" cy="371.901" fill="url(#SVGID_27_)" r="25.981"/></g></g><path d="m86.669 216.034c-.98-1.964-3.003-3.315-5.347-3.315-1.43 0-2.816.178-4.153.486l-11.898 26.84c-.493 1.112-1.077 2.165-1.728 3.163 1.039 3.733 3.217 6.99 6.142 9.37l103.326 103.326c10.029-2.248 17.529-11.19 17.529-21.897v-14.101z" fill="url(#SVGID_28_)"/><path d="m81.322 256.715c-10.193 0-18.457-8.263-18.457-18.457v-7.083c0-10.193 8.263-18.457 18.457-18.457 3.302 0 5.978 2.677 5.978 5.978v32.04c.001 3.302-2.676 5.979-5.978 5.979z" fill="url(#SVGID_29_)"/><path d="m170.065 281.595h-21.746c-5.043 0-9.132-4.088-9.132-9.132v-1.407c0-5.043 4.088-9.132 9.132-9.132h21.746c5.043 0 9.132 4.088 9.132 9.132v1.407c0 5.044-4.089 9.132-9.132 9.132z" fill="url(#SVGID_30_)"/><path d="m190.542 284.952-16.218-16.218c-.954-1.356-2.525-2.248-4.309-2.248h-21.645c-2.913 0-5.274 2.361-5.274 5.274 0 1.784.892 3.355 2.248 4.309l45.198 45.198z" fill="url(#SVGID_31_)"/><path d="m170.015 266.486h-21.645c-2.913 0-5.274 2.361-5.274 5.274 0 2.913 2.361 5.274 5.274 5.274h21.645c2.913 0 5.274-2.361 5.274-5.274 0-2.913-2.362-5.274-5.274-5.274z" fill="url(#SVGID_32_)"/><path d="m197.044 221.604h302.797v40.321h-302.797z" fill="url(#SVGID_33_)"/><g><path d="m444.676 101.093h-23.53c-3.622 0-6.022 2.4-6.022 6.022v25.03h-25.03c-3.622 0-6.022 2.4-6.022 6.022v23.53c0 2.481.843 4.639 2.874 5.753l112.895 112.002v-126.888l-49.412-48.597c-1.114-2.032-3.272-2.874-5.753-2.874z" fill="url(#SVGID_34_)"/><g><path d="m475.704 168.255h-24.495v24.495c0 3.622-2.936 6.558-6.558 6.558h-23.53c-3.622 0-6.558-2.936-6.558-6.558v-24.495h-24.495c-3.622 0-6.558-2.936-6.558-6.558v-23.53c0-3.622 2.936-6.558 6.558-6.558h24.495v-24.495c0-3.622 2.936-6.558 6.558-6.558h23.53c3.622 0 6.558 2.936 6.558 6.558v24.495h24.495c3.622 0 6.558 2.936 6.558 6.558v23.53c-.001 3.622-2.937 6.558-6.558 6.558z" fill="url(#SVGID_35_)"/><path d="m444.652 199.307h-11.765v-98.75h11.765c3.622 0 6.558 2.936 6.558 6.558v85.635c-.001 3.621-2.937 6.557-6.558 6.557z" fill="url(#SVGID_36_)"/><path d="m482.261 138.167v11.765h-98.75v-11.765c0-3.622 2.936-6.558 6.558-6.558h85.635c3.621 0 6.557 2.936 6.557 6.558z" fill="url(#SVGID_37_)"/></g></g></g></svg>