<svg xmlns="http://www.w3.org/2000/svg" data-name="Layer 1" viewBox="0 0 168 168"><path fill="#2d4356" d="M27.43408 52.61475L31 54.03223V69.36145l.00018-.00006A8.00039 8.00039 0 1 0 35 69.36163h0V55.62219l12 4.77V84.11578a6.88935 6.88935 0 0 0 5.49017 6.4541 181.00727 181.00727 0 0 0 30.82526 2.5293c15.90729 0 26.43658-1.35944 32.22369-2.418A7.00657 7.00657 0 0 0 121 84.11578V60.39166l19.56592-7.77692c4.08887-1.625 4.10651-4.32806.03906-6.00677L91.0415 26.15094a22.21855 22.21855 0 0 0-14.77783.0293L27.38281 46.57867C23.32227 48.27295 23.34521 50.98975 27.43408 52.61475zM37 77.09918a4 4 0 1 1-4-4A4.00423 4.00423 0 0 1 37 77.09918zm-5.08368-7.91809c.03284-.0047.06512-.01068.09808-.015C31.98145 69.17023 31.94916 69.17657 31.91632 69.18109zm2.06854-.015c.03363.00439.06659.01044.1001.01526C34.05145 69.17676 34.01855 69.17023 33.98486 69.16608zM117 84.11578a3.07289 3.07289 0 0 1-2.18073 2.63086c-5.86755 1.07324-16.09619 2.35254-31.50385 2.35254a176.27043 176.27043 0 0 1-30.13135-2.46869A2.93193 2.93193 0 0 1 51 84.11578V61.98224L76.564 72.144a23.28114 23.28114 0 0 0 14.8681 0L117 61.98151zM77.8042 29.87164a18.35869 18.35869 0 0 1 11.71143-.0235l47.83057 19.74225L89.95508 68.42725a19.43051 19.43051 0 0 1-11.91357 0L30.60211 49.56989zM140 9a3 3 0 1 0-3-3A3.00344 3.00344 0 0 0 140 9zm0-4.5A1.5 1.5 0 1 1 138.5 6 1.50148 1.50148 0 0 1 140 4.5zM69 8a3 3 0 1 0-3-3A3.00344 3.00344 0 0 0 69 8zm0-4.5A1.5 1.5 0 1 1 67.5 5 1.50148 1.50148 0 0 1 69 3.5zM158 41a2 2 0 1 0-2-2A2.00229 2.00229 0 0 0 158 41zm0-3a1 1 0 1 1-1 1A1.001 1.001 0 0 1 158 38zM120 33a2 2 0 1 0-2-2A2.00229 2.00229 0 0 0 120 33zm0-3a1 1 0 1 1-1 1A1.001 1.001 0 0 1 120 30zM45 36a2 2 0 1 0-2-2A2.00229 2.00229 0 0 0 45 36zm0-3a1 1 0 1 1-1 1A1.001 1.001 0 0 1 45 33z"/><circle cx="2" cy="141" r="2" fill="#2d4356"/><path fill="#2d4356" d="M11 139H8a2 2 0 0 0 0 4h3a2 2 0 0 0 0-4zM160 139h-3a2 2 0 0 0 0 4h3a2 2 0 0 0 0-4z"/><circle cx="166" cy="141" r="2" fill="#2d4356"/><path fill="#2d4356" d="M150.72131,139H110.78662l1.61279-3.94672s2.8042-.09772,6.26318-.21973c3.45953-.12109,4.37842-3.16119,2.05273-6.7901l-2.507-3.91156,21.83105,2.17438q.39761.03964.78552.03931a7.09768,7.09768,0,0,0,7.175-7.2464v-16a7.042,7.042,0,0,0-7.1228-7.20233,7.91882,7.91882,0,0,0-.83276.04431l-46.29016,4.899A8.00555,8.00555,0,0,0,87,97.09918H79a8.00735,8.00735,0,0,0-6.65808,3.58307l-44.387-4.73456a7.91146,7.91146,0,0,0-.83911-.045A7.03511,7.03511,0,0,0,20,103.09918v16A7.09044,7.09044,0,0,0,27.16846,126.34q.39056,0,.79156-.03992l44.60474-4.47754a7.7525,7.7525,0,0,1-.58813-.93933,8.15977,8.15977,0,0,0,.58813.93933l-1.06458.10687L61.209,137.98676q-.02737.04276-.05438.08368l-1.85126-4.53021-.97839-2.39441-2.585-.09009-5.46027-.19159a6.18993,6.18993,0,0,1,.37274-.66229l4.23291-6.60455-5.0777.5097-2.52289,3.93646c-2.32574,3.62891-1.4068,6.669,2.05267,6.7901,3.459.122,6.26318.21973,6.26318.21973L57.21338,139H17.27869a2.017,2.017,0,1,0,0,4H59.98395a2.27267,2.27267,0,0,0,.64038.099,2.66487,2.66487,0,0,0,.66559-.099h45.42017a2.66487,2.66487,0,0,0,.66559.099,2.27267,2.27267,0,0,0,.64038-.099h42.70526a2.017,2.017,0,1,0,0-4ZM27.56061,122.32007c-.13177.01324-.26373.02-.39221.02A3.10009,3.10009,0,0,1,24,119.09918v-16a3.05331,3.05331,0,0,1,3.11578-3.19647,3.92381,3.92381,0,0,1,.41486.02246l43.49658,4.63947h0c-.0119.17749-.02722.35413-.02722.53455v12a7.76659,7.76659,0,0,0,.07043.85345l-.00006-.00018Zm44.30927-20.82062c-.02594.051-.04987.10291-.07471.15448C71.81995,101.60223,71.844,101.55054,71.86987,101.49945Zm-.413.96747c-.00787.02228-.01678.04413-.02441.06653C71.44006,102.511,71.449,102.48926,71.45685,102.46692Zm.085,17.45294c.0484.12592.10437.24774.15887.37054C71.64722,120.16693,71.58917,120.04639,71.54181,119.91986Zm-.29846-.98071q.01785.07416.03711.14771C71.26794,119.0376,71.255,118.98877,71.24335,118.93915Zm46.10419,11.26263a6.18706,6.18706,0,0,1,.3728.66235l-5.46021.19159-2.58508.09009-.97839,2.39441-1.85126,4.53021q-.027-.04092-.05438-.08374L96.5274,121.97247l16.606,1.654v-.00006Zm23.11792-30.28284a3.92934,3.92934,0,0,1,.41248-.02209A3.05936,3.05936,0,0,1,144,103.09918v16a3.106,3.106,0,0,1-3.175,3.2464c-.12744,0-.25842-.00659-.3891-.01959l-45.49091-4.53088-.00006.00031c.02057-.23163.05511-.45941.05511-.69623v-12c0-.12372-.01306-.2442-.01868-.36658Zm-46.22131,1.81622-.00818-.01685Zm-.14453,19.01355a7.69116,7.69116,0,0,1-.5542.92676A8.11156,8.11156,0,0,0,94.09961,120.74872Zm.6875-1.92627c-.00513.02368-.0116.04681-.017.07043C94.77563,118.86932,94.7818,118.84607,94.78711,118.82245Zm-.2793.97632c-.03491.09857-.07983.19183-.11847.28857C94.42877,119.99109,94.472,119.89685,94.50781,119.79877ZM75,105.09918a4.0045,4.0045,0,0,1,4-4h8a4.0045,4.0045,0,0,1,4,4v12a3.97207,3.97207,0,0,1-.71326,2.27026c-.06366-.00439-.123-.00946-.18744-.01367l.08685.1355A3.98344,3.98344,0,0,1,87,121.09918H79a4.0045,4.0045,0,0,1-4-4Zm-.05969,18.87573A7.92126,7.92126,0,0,0,79,125.09918h8a7.95837,7.95837,0,0,0,5.41254-2.134L102.68939,139H65.31061Z"/><polygon fill="#0bceb2" points="11.583 25.011 13.07 23.056 12.131 22.524 11.177 24.714 11.145 24.714 10.175 22.539 9.22 23.087 10.691 24.996 10.691 25.027 8.391 24.73 8.391 25.794 10.707 25.497 10.707 25.528 9.22 27.436 10.112 28 11.13 25.794 11.16 25.794 12.099 27.984 13.085 27.421 11.583 25.543 11.583 25.512 13.945 25.794 13.945 24.73 11.583 25.042 11.583 25.011"/><polygon fill="#0bceb2" points="61.281 19.075 61.281 19.057 62.641 19.22 62.641 18.607 61.281 18.787 61.281 18.769 62.137 17.643 61.597 17.337 61.047 18.598 61.029 18.598 60.471 17.345 59.92 17.661 60.768 18.76 60.768 18.778 59.443 18.607 59.443 19.22 60.777 19.049 60.777 19.067 59.92 20.166 60.434 20.49 61.02 19.22 61.038 19.22 61.578 20.481 62.146 20.157 61.281 19.075"/><polygon fill="#0bceb2" points="31.281 8.769 32.137 7.643 31.597 7.337 31.047 8.598 31.029 8.598 30.471 7.345 29.92 7.661 30.768 8.76 30.768 8.778 29.443 8.607 29.443 9.22 30.777 9.049 30.777 9.067 29.92 10.166 30.434 10.49 31.02 9.22 31.038 9.22 31.578 10.481 32.146 10.157 31.281 9.075 31.281 9.057 32.641 9.22 32.641 8.607 31.281 8.787 31.281 8.769"/><polygon fill="#0bceb2" points="149 25.713 149 24.67 146.683 24.977 146.683 24.946 148.142 23.028 147.221 22.506 146.285 24.654 146.253 24.654 145.302 22.521 144.365 23.059 145.808 24.931 145.808 24.962 143.552 24.67 143.552 25.713 145.823 25.422 145.823 25.453 144.365 27.325 145.24 27.878 146.238 25.713 146.268 25.713 147.189 27.862 148.156 27.31 146.683 25.468 146.683 25.437 149 25.713"/><polygon fill="#0bceb2" points="107.444 13.638 108.198 14.115 109.06 12.248 109.085 12.248 109.88 14.101 110.714 13.625 109.443 12.036 109.443 12.009 111.442 12.248 111.442 11.348 109.443 11.612 109.443 11.586 110.701 9.931 109.907 9.481 109.099 11.334 109.073 11.334 108.252 9.494 107.444 9.958 108.689 11.573 108.689 11.599 106.742 11.348 106.742 12.248 108.702 11.996 108.702 12.023 107.444 13.638"/><path fill="#0bceb2" d="M118.15387 148h-8.30774a2.00641 2.00641 0 0 0 0 4h8.30774a2.00641 2.00641 0 0 0 0-4zM58.15387 148H49.84613a2.00641 2.00641 0 0 0 0 4h8.30774a2.00641 2.00641 0 0 0 0-4zM104 148H64a2 2 0 0 0 0 4H79.94v2H72a2 2 0 0 0 0 4H97a2 2 0 0 0 0-4H88.06v-2H104a2 2 0 0 0 0-4z"/></svg>