<svg xmlns="http://www.w3.org/2000/svg" enable-background="new 0 0 468 468" viewBox="0 0 468 468"><rect width="280" height="418.493" x="94" y="5" fill="#e0e0e0"/><rect width="20" height="418.493" x="94" y="5" fill="#c9c9c9"/><rect width="458" height="39.507" x="5" y="423.493" fill="#ed4848"/><rect width="20" height="39.507" x="5" y="423.493" fill="#cc4040"/><rect width="144.254" height="278.18" x="5" y="145.312" fill="#e0e0e0"/><rect width="18" height="278.18" x="5" y="145.313" fill="#c9c9c9"/><rect width="26.667" height="30.403" x="35.127" y="214" fill="#e0e0e0"/><path fill="#333" d="M61.794,249.402H35.127c-2.762,0-5-2.238-5-5V214c0-2.762,2.238-5,5-5h26.667
						c2.762,0,5,2.238,5,5v30.402C66.794,247.164,64.556,249.402,61.794,249.402z M40.127,239.402h16.667V219H40.127V239.402z"/><rect width="26.667" height="30.403" x="92.46" y="214" fill="#e0e0e0"/><path fill="#333" d="M119.127,249.402H92.461c-2.762,0-5-2.238-5-5V214c0-2.762,2.238-5,5-5h26.666
						c2.762,0,5,2.238,5,5v30.402C124.127,247.164,121.889,249.402,119.127,249.402z M97.461,239.402h16.666V219H97.461V239.402z"/><rect width="26.667" height="30.403" x="92.46" y="274" fill="#e0e0e0"/><path fill="#333" d="M119.127,309.402H92.461c-2.762,0-5-2.238-5-5V274c0-2.762,2.238-5,5-5h26.666
						c2.762,0,5,2.238,5,5v30.402C124.127,307.164,121.889,309.402,119.127,309.402z M97.461,299.402h16.666V279H97.461V299.402z"/><rect width="26.667" height="30.403" x="35.127" y="274" fill="#e0e0e0"/><path fill="#333" d="M61.794,309.402H35.127c-2.762,0-5-2.238-5-5V274c0-2.762,2.238-5,5-5h26.667
						c2.762,0,5,2.238,5,5v30.402C66.794,307.164,64.556,309.402,61.794,309.402z M40.127,299.402h16.667V279H40.127V299.402z"/><rect width="144.254" height="37.857" x="5" y="145.312" fill="#ed4848"/><rect width="18" height="37.857" x="5" y="145.313" fill="#cc4040"/><g><rect width="30" height="67.612" x="47.127" y="355.881" fill="#00aae5"/><rect width="30" height="67.612" x="77.127" y="355.881" fill="#29b6f6"/></g><g><rect width="144.254" height="278.18" x="318.746" y="145.312" fill="#e0e0e0"/><rect width="18" height="278.18" x="318.746" y="145.313" fill="#c9c9c9"/><rect width="26.667" height="30.403" x="348.873" y="214" fill="#e0e0e0"/><path fill="#333" d="M375.539,249.402h-26.666c-2.762,0-5-2.238-5-5V214c0-2.762,2.238-5,5-5h26.666
						c2.762,0,5,2.238,5,5v30.402C380.539,247.164,378.301,249.402,375.539,249.402z M353.873,239.402h16.666V219h-16.666V239.402z"/><rect width="26.667" height="30.403" x="406.206" y="214" fill="#e0e0e0"/><path fill="#333" d="M432.873,249.402h-26.667c-2.762,0-5-2.238-5-5V214c0-2.762,2.238-5,5-5h26.667
						c2.762,0,5,2.238,5,5v30.402C437.873,247.164,435.635,249.402,432.873,249.402z M411.206,239.402h16.667V219h-16.667V239.402z"/><g><rect width="26.667" height="30.403" x="406.206" y="274" fill="#e0e0e0"/><path fill="#333" d="M432.873,309.402h-26.667c-2.762,0-5-2.238-5-5V274c0-2.762,2.238-5,5-5h26.667
						c2.762,0,5,2.238,5,5v30.402C437.873,307.164,435.635,309.402,432.873,309.402z M411.206,299.402h16.667V279h-16.667V299.402z"/></g><g><rect width="26.667" height="30.403" x="348.873" y="274" fill="#e0e0e0"/><path fill="#333" d="M375.539,309.402h-26.666c-2.762,0-5-2.238-5-5V274c0-2.762,2.238-5,5-5h26.666
						c2.762,0,5,2.238,5,5v30.402C380.539,307.164,378.301,309.402,375.539,309.402z M353.873,299.402h16.666V279h-16.666V299.402z"/></g><g><rect width="144.254" height="37.857" x="318.746" y="145.312" fill="#ed4848"/></g><g><rect width="18" height="37.857" x="318.746" y="145.313" fill="#cc4040"/></g><g><rect width="30" height="67.612" x="360.873" y="355.881" fill="#00aae5"/><rect width="30" height="67.612" x="390.873" y="355.881" fill="#29b6f6"/></g></g><g><rect width="280" height="39.508" x="94" y="5" fill="#ed4848"/><rect width="20" height="39.509" x="94" y="5" fill="#cc4040"/></g><g><rect width="79.661" height="114.9" x="194.169" y="308.593" fill="#29b6f6"/><rect width="39.831" height="114.9" x="194.169" y="308.593" fill="#00aae5"/></g><g><ellipse cx="234" cy="131.612" fill="#ed4848" rx="52.585" ry="52.612"/><path fill="#cc4040" d="M198.415,131.612c0-26.16,19.087-47.851,44.085-51.918C239.732,79.244,236.895,79,234,79
				c-29.042,0-52.585,23.555-52.585,52.612s23.543,52.612,52.585,52.612c2.895,0,5.732-0.244,8.5-0.694
				C217.501,179.463,198.415,157.772,198.415,131.612z"/><path fill="#333" d="M234,189.224c-31.753,0-57.585-25.845-57.585-57.612C176.415,99.845,202.247,74,234,74
				s57.585,25.845,57.585,57.611C291.585,163.379,265.753,189.224,234,189.224z M234,84c-26.238,0-47.585,21.358-47.585,47.611
				c0,26.254,21.347,47.612,47.585,47.612s47.585-21.358,47.585-47.612C281.585,105.358,260.238,84,234,84z"/><path fill="#333" d="M259,126.611l-20,0V106.6c0-2.762-2.238-5-5-5s-5,2.238-5,5v20.012l-20,0c-2.762,0-5,2.238-5,5
			s2.238,5,5,5l20,0v20.012c0,2.762,2.238,5,5,5s5-2.238,5-5v-20.012l20,0c2.762,0,5-2.238,5-5S261.762,126.611,259,126.611z"/></g><path fill="#333" d="M463,140.313h-84V5c0-2.762-2.238-5-5-5H94c-2.762,0-5,2.238-5,5v135.313H5c-2.762,0-5,2.238-5,5
		v278.181V463c0,2.762,2.238,5,5,5h458c2.762,0,5-2.238,5-5v-39.507V145.313C468,142.551,465.762,140.313,463,140.313z M99,10h270
		v29.509H99V10z M99,49.509h270v90.804h-50.254c-2.762,0-5,2.238-5,5v273.181H278.83v-109.9c0-2.762-2.238-5-5-5h-79.66
		c-2.762,0-5,2.238-5,5v109.9h-34.916V145.313c0-2.762-2.238-5-5-5H99V49.509z M268.83,313.593v104.9H239v-104.9H268.83z
		 M229,313.594v104.899h-29.83V313.594H229z M10,150.313h134.254v27.857H10V150.313z M10,188.17h134.254v230.323h-32.127v-62.612
		c0-2.762-2.238-5-5-5h-60c-2.762,0-5,2.238-5,5v62.612H10V188.17z M82.127,360.881h20v57.612h-20V360.881z M72.127,418.493h-20
		v-57.612h20V418.493z M458,458H10v-29.507h448V458z M365.873,418.493v-57.612h20v57.612H365.873z M395.873,418.493v-57.612h20
		v57.612H395.873z M458,418.493h-32.127v-62.612c0-2.762-2.238-5-5-5h-60c-2.762,0-5,2.238-5,5v62.612h-32.127V188.17H458V418.493z
		 M458,178.17H323.746v-27.857H458V178.17z"/></svg>