<svg xmlns="http://www.w3.org/2000/svg" data-name="Layer 1" viewBox="0 0 512 512"><g data-name="&lt;Group&gt;"><g data-name="&lt;Group&gt;"><path fill="#fdc75b" d="M461.13,75.64V367.82c0,17.8-15.07,32.23-33.66,32.23H398.63l.24-24.25-.05-.03a57.319,57.319,0,0,0,9.39-31.44c0-32.83-27.79-59.44-62.07-59.44s-62.06,26.61-62.06,59.44a57.265,57.265,0,0,0,9.22,31.18l-.44.29.36,24.25H170.03c-18.59,0-33.66-14.43-33.66-32.23V64.89a40.874,40.874,0,0,0-12.83-29.6A44.3,44.3,0,0,0,99.63,23.54H406.72C436.45,23.54,461.13,46.64,461.13,75.64ZM369,179V139H320V90H280v49H231v40h49v49h40V179Z" data-name="&lt;Group&gt;"/><path fill="#ed664c" d="M408.21,344.33a57.319,57.319,0,0,1-9.39,31.44,63.556,63.556,0,0,1-105.52-.26,57.265,57.265,0,0,1-9.22-31.18c0-32.83,27.79-59.44,62.06-59.44S408.21,311.5,408.21,344.33Z" data-name="&lt;Group&gt;"/><path fill="#fdc75b" d="M293.22,400.05l-.36-24.25.44-.29a63.556,63.556,0,0,0,105.52.26l.05.03-.24,24.25L397.75,489l-51.61-27.06L294.54,489Z" data-name="&lt;Group&gt;"/><polygon fill="#ed664c" points="369 139 369 179 320 179 320 228 280 228 280 179 231 179 231 139 280 139 280 90 320 90 320 139 369 139" data-name="&lt;Group&gt;"/><path fill="#ed664c" d="M99.63,23.54a44.3,44.3,0,0,1,23.91,11.75,40.874,40.874,0,0,1,12.83,29.6v94.1H82.53c-18.59,0-33.66-14.42-33.66-32.22V64.89C48.87,41.8,68.5,23,92.62,23A44.915,44.915,0,0,1,99.63,23.54Z" data-name="&lt;Group&gt;"/></g><g data-name="&lt;Group&gt;"><path d="M82.53,169H126V367.82c0,23.285,19.956,42.18,44.03,42.18H283.367l1.174,79.124a10.006,10.006,0,0,0,14.644,8.726l46.955-24.622,46.966,24.627a10,10,0,0,0,14.644-8.781L408.531,410H427.47c24.074,0,43.53-18.895,43.53-42.18V75.64C471,41.4,442.235,14,406.72,14H100.3c-2.508-1-5.019-.77-7.614-.77C63.047,13.23,39,36.278,39,64.89v61.88C39,150.05,58.456,169,82.53,169ZM390.443,370.309c-9.574,14.684-26.135,23.451-44.3,23.451-18.267,0-34.878-8.849-44.436-23.67l0,0a47.391,47.391,0,0,1-7.621-25.755c0-27.261,23.354-49.44,52.06-49.44s52.07,22.179,52.07,49.44A47.46,47.46,0,0,1,390.443,370.309Zm-39.66,82.774a10,10,0,0,0-9.288,0l-37.2,19.507-1.075-72.43a74.54,74.54,0,0,0,85.4.31l-.714,72.08ZM451,75.64V367.82c0,12.258-10.484,22.18-23.53,22.18H408.729l.114-11.463a67.276,67.276,0,0,0,9.367-34.219c0-38.29-32.331-69.434-72.07-69.434s-72.06,31.153-72.06,69.443a67.188,67.188,0,0,0,8.806,33.239L283.07,390H170.03c-13.046,0-24.03-9.922-24.03-22.18V64.89A48.7,48.7,0,0,0,135.427,34H406.72C431.208,34,451,52.426,451,75.64ZM59,64.89C59,47.306,74,33,93,33v1h5.711a32.015,32.015,0,0,1,17.73,8.744A30.119,30.119,0,0,1,126,64.89V149H82.53C69.484,149,59,139.022,59,126.77Z" data-name="&lt;Compound Path&gt;"/><path d="M231,189h39v39a10,10,0,0,0,10,10h40a10,10,0,0,0,10-10V189h39a10,10,0,0,0,10-10V139a10,10,0,0,0-10-10H330V90a10,10,0,0,0-10-10H280a10,10,0,0,0-10,10v39H231a10,10,0,0,0-10,10v40A10,10,0,0,0,231,189Zm10-40h39a10,10,0,0,0,10-10V100h20v39a10,10,0,0,0,10,10h39v20H320a10,10,0,0,0-10,10v39H290V179a10,10,0,0,0-10-10H241Z" data-name="&lt;Compound Path&gt;"/></g></g></svg>