<svg xmlns="http://www.w3.org/2000/svg" data-name="Layer 1" viewBox="0 0 512 512"><polygon fill="#fedb41" points="334 180 334 224 279 224 279 279 235 279 235 224 180 224 180 180 235 180 235 125 279 125 279 180 334 180" data-name="&lt;Group&gt;"/><g data-name="&lt;Group&gt;"><path fill="#00acea" d="M422.04,53H87.96C61.75,53,40,74.83,40,102.31V312.07C40,339.54,61.75,362,87.96,362H111v97.44L202.79,362H422.04c26.21,0,46.96-22.46,46.96-49.93V102.31C469,74.83,448.25,53,422.04,53ZM334,224H279v55H235V224H180V180h55V125h44v55h55Z" data-name="&lt;Compound Path&gt;"/></g></svg>