<svg width="306" height="111" viewBox="0 0 306 111" fill="none" xmlns="http://www.w3.org/2000/svg">
<rect y="40" width="72" height="61" rx="9" fill="#2CC1E1"/>
<path d="M39.2812 70.5938H51.9688V76.0625H39.2812V90.4375H33.4688V76.0625H20.7812V70.5938H33.4688V57.3125H39.2812V70.5938Z" fill="#2CC1E1"/>
<path d="M39.2812 70.5938H34.2812V75.5938H39.2812V70.5938ZM51.9688 70.5938H56.9688V65.5938H51.9688V70.5938ZM51.9688 76.0625V81.0625H56.9688V76.0625H51.9688ZM39.2812 76.0625V71.0625H34.2812V76.0625H39.2812ZM39.2812 90.4375V95.4375H44.2812V90.4375H39.2812ZM33.4688 90.4375H28.4688V95.4375H33.4688V90.4375ZM33.4688 76.0625H38.4688V71.0625H33.4688V76.0625ZM20.7812 76.0625H15.7812V81.0625H20.7812V76.0625ZM20.7812 70.5938V65.5938H15.7812V70.5938H20.7812ZM33.4688 70.5938V75.5938H38.4688V70.5938H33.4688ZM33.4688 57.3125V52.3125H28.4688V57.3125H33.4688ZM39.2812 57.3125H44.2812V52.3125H39.2812V57.3125ZM39.2812 75.5938H51.9688V65.5938H39.2812V75.5938ZM46.9688 70.5938V76.0625H56.9688V70.5938H46.9688ZM51.9688 71.0625H39.2812V81.0625H51.9688V71.0625ZM34.2812 76.0625V90.4375H44.2812V76.0625H34.2812ZM39.2812 85.4375H33.4688V95.4375H39.2812V85.4375ZM38.4688 90.4375V76.0625H28.4688V90.4375H38.4688ZM33.4688 71.0625H20.7812V81.0625H33.4688V71.0625ZM25.7812 76.0625V70.5938H15.7812V76.0625H25.7812ZM20.7812 75.5938H33.4688V65.5938H20.7812V75.5938ZM38.4688 70.5938V57.3125H28.4688V70.5938H38.4688ZM33.4688 62.3125H39.2812V52.3125H33.4688V62.3125ZM34.2812 57.3125V70.5938H44.2812V57.3125H34.2812Z" fill="white"/>
<path d="M102.25 49.5L113.938 82.5L125.562 49.5H137.875V95H128.469V82.5625L129.406 61.0938L117.125 95H110.688L98.4375 61.125L99.375 82.5625V95H90V49.5H102.25ZM161.031 95.625C156.073 95.625 152.031 94.1042 148.906 91.0625C145.802 88.0208 144.25 83.9688 144.25 78.9062V78.0312C144.25 74.6354 144.906 71.6042 146.219 68.9375C147.531 66.25 149.385 64.1875 151.781 62.75C154.198 61.2917 156.948 60.5625 160.031 60.5625C164.656 60.5625 168.292 62.0208 170.938 64.9375C173.604 67.8542 174.938 71.9896 174.938 77.3438V81.0312H153.406C153.698 83.2396 154.573 85.0104 156.031 86.3438C157.51 87.6771 159.375 88.3438 161.625 88.3438C165.104 88.3438 167.823 87.0833 169.781 84.5625L174.219 89.5312C172.865 91.4479 171.031 92.9479 168.719 94.0312C166.406 95.0938 163.844 95.625 161.031 95.625ZM160 67.875C158.208 67.875 156.75 68.4792 155.625 69.6875C154.521 70.8958 153.812 72.625 153.5 74.875H166.062V74.1562C166.021 72.1562 165.479 70.6146 164.438 69.5312C163.396 68.4271 161.917 67.875 160 67.875ZM178.688 77.8438C178.688 72.5729 179.865 68.375 182.219 65.25C184.594 62.125 187.833 60.5625 191.938 60.5625C195.229 60.5625 197.948 61.7917 200.094 64.25V47H209.156V95H201L200.562 91.4062C198.312 94.2188 195.417 95.625 191.875 95.625C187.896 95.625 184.698 94.0625 182.281 90.9375C179.885 87.7917 178.688 83.4271 178.688 77.8438ZM187.719 78.5C187.719 81.6667 188.271 84.0938 189.375 85.7812C190.479 87.4688 192.083 88.3125 194.188 88.3125C196.979 88.3125 198.948 87.1354 200.094 84.7812V71.4375C198.969 69.0833 197.021 67.9062 194.25 67.9062C189.896 67.9062 187.719 71.4375 187.719 78.5ZM216.625 90.5625C216.625 89.125 217.104 87.9583 218.062 87.0625C219.042 86.1667 220.26 85.7188 221.719 85.7188C223.198 85.7188 224.417 86.1667 225.375 87.0625C226.354 87.9583 226.844 89.125 226.844 90.5625C226.844 91.9792 226.365 93.1354 225.406 94.0312C224.448 94.9062 223.219 95.3438 221.719 95.3438C220.24 95.3438 219.021 94.9062 218.062 94.0312C217.104 93.1354 216.625 91.9792 216.625 90.5625ZM245.344 95H235.969V49.5H245.344V95ZM252.062 77.8438C252.062 72.5729 253.24 68.375 255.594 65.25C257.969 62.125 261.208 60.5625 265.312 60.5625C268.604 60.5625 271.323 61.7917 273.469 64.25V47H282.531V95H274.375L273.938 91.4062C271.688 94.2188 268.792 95.625 265.25 95.625C261.271 95.625 258.073 94.0625 255.656 90.9375C253.26 87.7917 252.062 83.4271 252.062 77.8438ZM261.094 78.5C261.094 81.6667 261.646 84.0938 262.75 85.7812C263.854 87.4688 265.458 88.3125 267.562 88.3125C270.354 88.3125 272.323 87.1354 273.469 84.7812V71.4375C272.344 69.0833 270.396 67.9062 267.625 67.9062C263.271 67.9062 261.094 71.4375 261.094 78.5Z" fill="#2CC1E1"/>
</svg>
