<svg xmlns="http://www.w3.org/2000/svg" width="32" height="32" viewBox="0 0 32 32"><g transform="translate(199 -1028.503)"><rect width="19" height="22" x="-192.5" y="1035.9" fill="#cdd7e0"/><path fill="#ff5855" stroke="#373449" stroke-linecap="round" stroke-linejoin="round" d="m -184,1040.9002 0,2.5 -2.5,0 0,2 2.5,0 0,2.5 2,0 0,-2.5 2.5,0 0,-2 -2.5,0 0,-2.5 z"/><path fill="none" stroke="#f4f4f4" d="M-187.5 1050.9002l9 0M-187.5 1052.9002l9 0 0 0M-187.5 1054.9002l9 0"/><path fill="#f4f4f4" d="m -192.5,1035.8935 0,22 1.5,0 0,-22 -1.5,0 z"/><path fill="#a1b4c5" d="m -175,1035.8935 0,22 1.5,0 0,-22 -1.5,0 z"/><rect width="19" height="22" x="-192.5" y="1035.9" fill="none" stroke="#373449" stroke-linecap="round" stroke-linejoin="round"/><path fill="#5bdadd" d="m -183.25231,1031.1184 c -0.29783,0.03 -0.58714,0.1207 -0.86504,0.2625 -0.99652,0.5077 -1.41696,1.5786 -1.04527,2.5258 l -3.34016,0 0,3.9935 11.00556,0 0,-3.9935 -3.34016,0 c 0.21986,-0.5645 0.18346,-1.2061 -0.14418,-1.7386 -0.4668,-0.7588 -1.37725,-1.1399 -2.27075,-1.0497 z"/><path fill="#66f3f6" d="m -181,1033.8935 c 0,-1.0538 0.35889,-1.1863 0.0312,-1.7188 -0.4668,-0.7588 -1.38775,-1.1527 -2.28125,-1.0625 -0.29783,0.03 -0.5971,0.1395 -0.875,0.2813 -0.99652,0.5077 -1.40294,1.5528 -1.03125,2.5 l -3.36566,0 c 0,0.5972 -0.42219,1.3387 0,1.3323 3.24751,0.3795 3.96101,-0.7828 4.65639,-1.8718 0.47019,-0.7364 2.37293,-1.2991 2.86557,0.5395 z"/><path fill="#43bdbd" d="m -188.5,1037.8935 11,0 -0.5,-3.5313 c -1,4 -7.79336,3.4994 -10.5,3.5313 z"/><rect width="12" height="1.442" x="-189.016" y="1037.423" fill="#a1b4c5" rx=".328" ry=".328"/><path fill="none" stroke="#373449" stroke-linecap="round" stroke-linejoin="round" d="m -183.25231,1031.1184 c -0.29783,0.03 -0.58714,0.1207 -0.86504,0.2625 -0.99652,0.5077 -1.41696,1.5786 -1.04527,2.5258 l -3.34016,0 0,3.9935 11.00556,0 0,-3.9935 -3.34016,0 c 0.21986,-0.5645 0.18346,-1.2061 -0.14418,-1.7386 -0.4668,-0.7588 -1.37725,-1.1399 -2.27075,-1.0497 z"/></g></svg>