<svg id="Capa_1" enable-background="new 0 0 510 510" height="512" viewBox="0 0 510 510" width="512" xmlns="http://www.w3.org/2000/svg" xmlns:xlink="http://www.w3.org/1999/xlink"><linearGradient id="lg1"><stop offset="0" stop-color="#edf5ff"/><stop offset="1" stop-color="#d5e8fe"/></linearGradient><linearGradient id="SVGID_1_" gradientUnits="userSpaceOnUse" x1=".19" x2="327.041" xlink:href="#lg1" y1="291.735" y2="291.735"/><linearGradient id="lg2"><stop offset="0" stop-color="#07485e" stop-opacity="0"/><stop offset=".2708" stop-color="#074459" stop-opacity=".271"/><stop offset=".597" stop-color="#05394a" stop-opacity=".597"/><stop offset=".9505" stop-color="#032632" stop-opacity=".951"/><stop offset="1" stop-color="#03232e"/></linearGradient><linearGradient id="SVGID_2_" gradientUnits="userSpaceOnUse" x1="122.219" x2="-265.37" xlink:href="#lg2" y1="274.275" y2="-14.588"/><linearGradient id="SVGID_3_" gradientTransform="matrix(-.707 .707 -.707 -.707 -3110.365 1534.56)" gradientUnits="userSpaceOnUse" x1="-3067.546" x2="-3035.191" xlink:href="#lg1" y1="-1466.992" y2="-1466.992"/><linearGradient id="lg3"><stop offset="0" stop-color="#9ae1d3"/><stop offset="1" stop-color="#80d1c1"/></linearGradient><linearGradient id="SVGID_4_" gradientTransform="matrix(-.707 .707 -.707 -.707 -3110.365 1534.56)" gradientUnits="userSpaceOnUse" x1="-3072.017" x2="-3042.716" xlink:href="#lg3" y1="-1501.847" y2="-1501.847"/><linearGradient id="SVGID_5_" gradientTransform="matrix(-.948 -.32 .32 -.948 -2203.066 -2180.816)" gradientUnits="userSpaceOnUse" x1="-3176.038" x2="-3143.684" xlink:href="#lg1" y1="-1663.939" y2="-1663.939"/><linearGradient id="SVGID_6_" gradientTransform="matrix(-.948 -.32 .32 -.948 -2203.066 -2180.816)" gradientUnits="userSpaceOnUse" x1="-3180.51" x2="-3151.209" xlink:href="#lg3" y1="-1698.794" y2="-1698.794"/><linearGradient id="lg4"><stop offset="0" stop-color="#0b799d" stop-opacity="0"/><stop offset=".1739" stop-color="#117d9e" stop-opacity=".174"/><stop offset=".414" stop-color="#2389a0" stop-opacity=".414"/><stop offset=".6928" stop-color="#409ca3" stop-opacity=".693"/><stop offset=".9986" stop-color="#69b7a8" stop-opacity=".999"/><stop offset="1" stop-color="#69b7a8"/></linearGradient><linearGradient id="SVGID_7_" gradientUnits="userSpaceOnUse" x1="253.489" x2="209.611" xlink:href="#lg4" y1="436.741" y2="407.489"/><linearGradient id="SVGID_8_" gradientTransform="matrix(.354 .935 -.935 .354 -93.435 3954.246)" gradientUnits="userSpaceOnUse" x1="-3232.155" x2="-3199.801" xlink:href="#lg1" y1="-1504.243" y2="-1504.243"/><linearGradient id="SVGID_9_" gradientTransform="matrix(.354 .935 -.935 .354 -93.435 3954.246)" gradientUnits="userSpaceOnUse" x1="-3236.627" x2="-3207.325" xlink:href="#lg3" y1="-1539.098" y2="-1539.098"/><linearGradient id="SVGID_10_" gradientTransform="matrix(.707 -.707 .707 .707 3624.582 -857.439)" gradientUnits="userSpaceOnUse" x1="-3271.593" x2="-3239.239" xlink:href="#lg1" y1="-1572.005" y2="-1572.005"/><linearGradient id="SVGID_11_" gradientTransform="matrix(.707 -.707 .707 .707 3624.582 -857.439)" gradientUnits="userSpaceOnUse" x1="-3276.064" x2="-3246.763" xlink:href="#lg3" y1="-1606.861" y2="-1606.861"/><linearGradient id="SVGID_12_" gradientTransform="matrix(-.519 .855 -.855 -.519 -2838.843 2178.71)" gradientUnits="userSpaceOnUse" x1="-3233.859" x2="-3201.504" xlink:href="#lg1" y1="-1485.412" y2="-1485.412"/><linearGradient id="SVGID_13_" gradientTransform="matrix(-.519 .855 -.855 -.519 -2838.843 2178.71)" gradientUnits="userSpaceOnUse" x1="-3238.33" x2="-3209.029" xlink:href="#lg3" y1="-1520.267" y2="-1520.267"/><linearGradient id="SVGID_14_" gradientTransform="matrix(.948 .32 -.32 .948 2717.283 2857.937)" gradientUnits="userSpaceOnUse" x1="-3202.476" x2="-3170.121" xlink:href="#lg1" y1="-1714.309" y2="-1714.309"/><linearGradient id="SVGID_15_" gradientTransform="matrix(.948 .32 -.32 .948 2717.283 2857.937)" gradientUnits="userSpaceOnUse" x1="-3206.947" x2="-3177.646" xlink:href="#lg3" y1="-1749.165" y2="-1749.165"/><linearGradient id="SVGID_16_" gradientTransform="matrix(-1 0 0 -1 514.217 677.121)" gradientUnits="userSpaceOnUse" x1="262.444" x2="218.566" xlink:href="#lg4" y1="492.919" y2="463.667"/><linearGradient id="SVGID_17_" gradientTransform="matrix(-.354 -.935 .935 -.354 607.653 -3277.126)" gradientUnits="userSpaceOnUse" x1="-3224.199" x2="-3191.845" xlink:href="#lg1" y1="-1740.142" y2="-1740.142"/><linearGradient id="SVGID_18_" gradientTransform="matrix(-.354 -.935 .935 -.354 607.653 -3277.126)" gradientUnits="userSpaceOnUse" x1="-3228.671" x2="-3199.37" xlink:href="#lg3" y1="-1774.997" y2="-1774.997"/><linearGradient id="SVGID_19_" gradientUnits="userSpaceOnUse" x1="163.616" x2="163.616" xlink:href="#lg2" y1="450.522" y2="534.93"/><linearGradient id="SVGID_20_" gradientUnits="userSpaceOnUse" x1="290.655" x2="-48.606" xlink:href="#lg2" y1="401.332" y2="62.071"/><linearGradient id="SVGID_21_" gradientUnits="userSpaceOnUse" x1="96.153" x2="252.051" y1="207.817" y2="363.715"><stop offset="0" stop-color="#ff637b"/><stop offset="1" stop-color="#e63950"/></linearGradient><linearGradient id="lg5"><stop offset="0" stop-color="#e63950" stop-opacity="0"/><stop offset=".0467" stop-color="#e4354b" stop-opacity=".047"/><stop offset=".4669" stop-color="#d31822" stop-opacity=".467"/><stop offset=".7991" stop-color="#c90709" stop-opacity=".799"/><stop offset="1" stop-color="#c50000"/></linearGradient><linearGradient id="SVGID_22_" gradientUnits="userSpaceOnUse" x1="179.802" x2="47.685" xlink:href="#lg5" y1="275.244" y2="327.272"/><linearGradient id="SVGID_23_" gradientUnits="userSpaceOnUse" x1="163.31" x2="169.156" xlink:href="#lg5" y1="256.934" y2="322.408"/><linearGradient id="SVGID_24_" gradientUnits="userSpaceOnUse" x1="135.599" x2="-38.378" y1="267.099" y2="151.396"><stop offset="0" stop-color="#fff" stop-opacity="0"/><stop offset="1" stop-color="#fff"/></linearGradient><linearGradient id="SVGID_25_" gradientUnits="userSpaceOnUse" x1="178.933" x2="178.933" xlink:href="#lg2" y1="244.295" y2="-128.069"/><linearGradient id="SVGID_26_" gradientUnits="userSpaceOnUse" x1="163.615" x2="163.615" xlink:href="#lg3" y1="11.911" y2="81.94"/><linearGradient id="SVGID_27_" gradientUnits="userSpaceOnUse" x1="154.3" x2="185.338" xlink:href="#lg4" y1=".42" y2="135.276"/><linearGradient id="SVGID_28_" gradientTransform="matrix(-1 0 0 1 -2939.926 1320.256)" gradientUnits="userSpaceOnUse" x1="-3111.089" x2="-3085.941" xlink:href="#lg4" y1="-1312.155" y2="-1202.892"/><linearGradient id="SVGID_29_" gradientUnits="userSpaceOnUse" x1="163.615" x2="163.615" xlink:href="#lg4" y1="50.303" y2="81.877"/><linearGradient id="SVGID_30_" gradientTransform="matrix(-.145 .989 -.989 -.145 -639.527 365.277)" gradientUnits="userSpaceOnUse" x1="-97.951" x2="-52.672" xlink:href="#lg1" y1="-1054.374" y2="-1054.374"/><linearGradient id="SVGID_31_" gradientUnits="userSpaceOnUse" x1="469.542" x2="459.182" xlink:href="#lg3" y1="412.62" y2="455.888"/><linearGradient id="SVGID_32_" gradientUnits="userSpaceOnUse" x1="437.354" x2="305.11" xlink:href="#lg2" y1="501.455" y2="362.508"/><linearGradient id="SVGID_33_" gradientTransform="matrix(.768 .64 -.64 .768 -174.66 1274.904)" gradientUnits="userSpaceOnUse" x1="-189.209" x2="-143.93" xlink:href="#lg1" y1="-971.841" y2="-971.841"/><linearGradient id="SVGID_34_" gradientUnits="userSpaceOnUse" x1="323.102" x2="370.594" xlink:href="#lg3" y1="359.961" y2="407.452"/><g><g><g><g><g><path d="m293.746 510h-260.261c-18.388 0-33.295-14.907-33.295-33.295v-369.94c0-18.388 14.907-33.295 33.295-33.295h260.261c18.388 0 33.295 14.907 33.295 33.295v369.94c0 18.388-14.907 33.295-33.295 33.295z" fill="url(#SVGID_1_)"/><path d="m278.865 510h-230.498c-16.822 0-30.458-13.637-30.458-30.458v-348.828c0-16.822 13.637-30.458 30.458-30.458h230.498c16.822 0 30.458 13.637 30.458 30.458v348.828c0 16.821-13.637 30.458-30.458 30.458z" fill="url(#SVGID_2_)"/><g><g><g><path d="m35.531 366.53c16.643-16.643 43.627-16.643 60.27 0l36.505 36.505c16.643 16.643 16.643 43.627 0 60.27-16.643 16.643-43.627 16.643-60.27 0l-36.505-36.505c-16.643-16.644-16.643-43.627 0-60.27z" fill="url(#SVGID_3_)"/><path d="m72.037 463.307-17.347-17.347c10.433-8.294 21.183-17.863 31.796-28.476s20.182-21.362 28.476-31.796l17.347 17.347c16.641 16.641 16.636 43.626-.005 60.266-8.32 8.32-19.228 12.483-30.136 12.483-10.908.001-21.811-4.156-30.131-12.477z" fill="url(#SVGID_4_)"/></g><g><path d="m280.313 340.516c22.303 7.522 34.285 31.699 26.763 54.002l-16.498 48.918c-7.522 22.303-31.699 34.285-54.002 26.763-22.303-7.522-34.285-31.699-26.763-54.002l16.498-48.918c7.522-22.302 31.7-34.285 54.002-26.763z" fill="url(#SVGID_5_)"/><path d="m209.811 416.2 7.84-23.246c12.065 5.665 25.412 11.048 39.634 15.844s28.103 8.597 41.134 11.395l-7.84 23.246c-7.521 22.3-31.701 34.278-54.001 26.757-11.15-3.76-19.723-11.685-24.567-21.458s-5.96-21.388-2.2-32.538z" fill="url(#SVGID_6_)"/><path d="m209.811 416.2 7.84-23.246c12.065 5.665 25.412 11.048 39.634 15.844s28.103 8.597 41.134 11.395l-7.84 23.246c-7.521 22.3-31.701 34.278-54.001 26.757-11.15-3.76-19.723-11.685-24.567-21.458s-5.96-21.388-2.2-32.538z" fill="url(#SVGID_7_)"/></g><g><path d="m111.307 439.141c-8.332-22.013 2.759-46.612 24.771-54.944l48.282-18.275c22.013-8.332 46.612 2.759 54.944 24.771 8.332 22.013-2.759 46.612-24.771 54.944l-48.282 18.275c-22.013 8.333-46.612-2.758-54.944-24.771z" fill="url(#SVGID_8_)"/><path d="m214.537 445.638-22.944 8.684c-3.273-12.92-7.578-26.653-12.891-40.69s-11.18-27.179-17.282-39.028l22.944-8.684c22.01-8.331 46.608 2.765 54.939 24.775 4.165 11.005 3.477 22.66-1.006 32.604-4.484 9.943-12.755 18.173-23.76 22.339z" fill="url(#SVGID_9_)"/></g></g><g><g><path d="m260.147 380.618c-16.643 16.643-43.627 16.643-60.27 0l-36.505-36.505c-16.643-16.643-16.643-43.627 0-60.27 16.643-16.643 43.627-16.643 60.27 0l36.505 36.505c16.643 16.643 16.643 43.627 0 60.27z" fill="url(#SVGID_10_)"/><path d="m223.641 283.841 17.347 17.347c-10.433 8.294-21.183 17.863-31.796 28.476s-20.182 21.362-28.476 31.796l-17.347-17.347c-16.641-16.641-16.636-43.626.005-60.266 8.32-8.32 19.228-12.483 30.136-12.483 10.909-.001 21.811 4.156 30.131 12.477z" fill="url(#SVGID_11_)"/></g><g><path d="m41.236 163.7c12.21-20.122 38.42-26.537 58.542-14.327l44.136 26.78c20.122 12.21 26.537 38.42 14.327 58.542-12.21 20.122-38.42 26.537-58.542 14.327l-44.136-26.78c-20.123-12.209-26.537-38.42-14.327-58.542z" fill="url(#SVGID_12_)"/><path d="m99.701 249.025-20.973-12.726c8.163-10.537 16.329-22.387 24.115-35.218s14.525-25.547 20.101-37.654l20.973 12.726c20.12 12.208 26.529 38.421 14.321 58.54-6.104 10.06-15.709 16.696-26.305 19.289-10.594 2.594-22.172 1.148-32.232-4.957z" fill="url(#SVGID_13_)"/></g><g><path d="m224.95 280.427c-22.303-7.522-34.285-31.699-26.763-54.002l16.498-48.918c7.522-22.303 31.699-34.285 54.002-26.763 22.303 7.522 34.285 31.699 26.763 54.002l-16.498 48.918c-7.522 22.302-31.7 34.284-54.002 26.763z" fill="url(#SVGID_14_)"/><path d="m295.452 204.743-7.84 23.246c-12.065-5.665-25.412-11.048-39.634-15.844s-28.102-8.597-41.134-11.395l7.84-23.246c7.521-22.3 31.701-34.278 54.001-26.757 11.15 3.76 19.723 11.685 24.567 21.458s5.96 21.388 2.2 32.538z" fill="url(#SVGID_15_)"/><path d="m295.452 204.743-7.84 23.246c-12.065-5.665-25.412-11.048-39.634-15.844s-28.102-8.597-41.134-11.395l7.84-23.246c7.521-22.3 31.701-34.278 54.001-26.757 11.15 3.76 19.723 11.685 24.567 21.458s5.96 21.388 2.2 32.538z" fill="url(#SVGID_16_)"/></g><g><path d="m179.47 314.045c8.332 22.013-2.759 46.612-24.771 54.944l-48.282 18.275c-22.013 8.332-46.612-2.759-54.944-24.771-8.332-22.013 2.759-46.612 24.771-54.944l48.282-18.275c22.013-8.332 46.612 2.759 54.944 24.771z" fill="url(#SVGID_17_)"/><path d="m76.24 307.549 22.944-8.684c3.273 12.92 7.578 26.653 12.891 40.69s11.18 27.179 17.282 39.028l-22.944 8.684c-22.01 8.331-46.608-2.765-54.939-24.775-4.165-11.005-3.477-22.66 1.006-32.604 4.484-9.943 12.755-18.174 23.76-22.339z" fill="url(#SVGID_18_)"/></g></g></g><path d="m.19 414.917v61.788c0 18.388 14.907 33.295 33.295 33.295h260.261c18.388 0 33.295-14.907 33.295-33.295v-61.788z" fill="url(#SVGID_19_)"/></g></g><path d="m206.951 161.573c-2.756-5.026-8.095-7.111-14.232-7.111h-58.208c-8.959 0-14.897 5.938-14.897 14.897v61.918h-61.918c-8.959 0-14.897 5.938-14.897 14.897v58.208c0 6.137 2.084 11.475 7.111 14.231l195.163 191.387h48.674c18.388 0 33.295-14.906 33.295-33.295v-197.74z" fill="url(#SVGID_20_)"/><g><path d="m269.535 320.605h-60.594v60.594c0 8.959-7.263 16.222-16.222 16.222h-58.208c-8.959 0-16.222-7.263-16.222-16.222v-60.594h-60.593c-8.959 0-16.222-7.263-16.222-16.222v-58.208c0-8.959 7.263-16.222 16.222-16.222h60.594v-60.594c0-8.959 7.263-16.222 16.222-16.222h58.208c8.959 0 16.222 7.263 16.222 16.222v60.594h60.594c8.959 0 16.222 7.263 16.222 16.222v58.208c-.001 8.959-7.263 16.222-16.223 16.222z" fill="url(#SVGID_21_)"/><path d="m192.72 397.421h-29.104v-244.284h29.104c8.959 0 16.222 7.263 16.222 16.222v211.84c0 8.959-7.263 16.222-16.222 16.222z" fill="url(#SVGID_22_)"/><path d="m285.757 246.175v29.104h-244.283v-29.104c0-8.959 7.263-16.222 16.222-16.222h211.84c8.959 0 16.221 7.263 16.221 16.222z" fill="url(#SVGID_23_)"/></g><path d="m293.746 73.471h-185.431c-36.915 0-66.841 29.926-66.841 66.841v369.688h252.272c18.388 0 33.295-14.907 33.295-33.295v-369.94c0-18.388-14.907-33.294-33.295-33.294z" fill="url(#SVGID_24_)"/></g><path d="m293.746 73.471h-260.261c-.897 0-1.782.046-2.66.115l296.216 296.216v-263.036c0-18.389-14.906-33.295-33.295-33.295z" fill="url(#SVGID_25_)"/><g><path d="m278.608 81.786h-229.985c-13.412 0-24.285-10.873-24.285-24.285v-33.216c0-13.412 10.873-24.285 24.285-24.285h229.984c13.412 0 24.285 10.873 24.285 24.285v33.216c.001 13.412-10.872 24.285-24.284 24.285z" fill="url(#SVGID_26_)"/><path d="m238.787 81.786h-150.343c-11.092 0-20.084-8.992-20.084-20.084v-41.618c0-11.092 8.992-20.084 20.084-20.084h150.343c11.092 0 20.084 8.992 20.084 20.084v41.618c0 11.092-8.992 20.084-20.084 20.084z" fill="url(#SVGID_27_)"/><path d="m136.068 81.786h55.095c7.248 0 13.123-5.876 13.123-13.123v-55.54c.001-7.247-5.875-13.123-13.123-13.123h-55.095c-7.248 0-13.123 5.876-13.123 13.123v55.539c0 7.249 5.875 13.124 13.123 13.124z" fill="url(#SVGID_28_)"/><path d="m24.338 40.893v16.608c0 13.412 10.873 24.285 24.285 24.285h229.984c13.412 0 24.285-10.873 24.285-24.285v-16.608z" fill="url(#SVGID_29_)"/></g></g><g><path d="m319.667 431.209c4.78-32.591 35.075-55.135 67.665-50.355l71.483 10.485c32.59 4.78 55.135 35.075 50.355 67.665-4.78 32.59-35.075 55.135-67.665 50.355l-71.483-10.485c-32.591-4.78-55.135-35.075-50.355-67.665z" fill="url(#SVGID_30_)"/><path d="m441.509 509.361-33.969-4.982c4.784-18.029 8.858-37.754 11.906-58.535 3.048-20.782 4.81-40.845 5.405-59.489l33.969 4.982c32.586 4.779 55.126 35.08 50.346 67.666-2.39 16.293-11.158 30.08-23.404 39.193-12.246 9.114-27.96 13.555-44.253 11.165z" fill="url(#SVGID_31_)"/></g><path d="m500.921 481.672-98.574-98.574-.06-.051-14.955-2.193c-32.59-4.78-62.885 17.764-67.665 50.355-4.78 32.59 17.765 62.885 50.355 67.665l71.483 10.485c24.285 3.561 47.287-8.054 59.416-27.687z" fill="url(#SVGID_32_)"/><g><path d="m259.368 496.17c-25.302-21.091-28.716-58.699-7.625-84.001l46.26-55.496c21.091-25.302 58.699-28.715 84-7.625 25.302 21.091 28.715 58.699 7.625 84l-46.26 55.496c-21.09 25.302-58.698 28.716-84 7.626z" fill="url(#SVGID_33_)"/><path d="m389.633 433.046-21.983 26.372c-12.88-13.492-27.577-27.264-43.711-40.712-16.134-13.449-32.327-25.426-47.918-35.666l21.983-26.372c21.088-25.298 58.698-28.705 83.996-7.617 12.649 10.544 19.831 25.22 21.211 40.422 1.381 15.203-3.034 30.924-13.578 43.573z" fill="url(#SVGID_34_)"/></g></g></svg>