<svg xmlns="http://www.w3.org/2000/svg" enable-background="new 0 0 64 64" viewBox="0 0 64 64"><path fill="#759acc" d="M58,18H48c-2.209,0-4,1.791-4,4v15h16v-7.381l0.593-0.182C61.43,29.177,62,28.403,62,27.526V22
		C62,19.791,60.209,18,58,18z"/><rect width="26" height="18" x="21" y="44" fill="#526273"/><path fill="#ffdbac" d="M26.81,53.255l-1.629-0.543c-0.121-0.04-0.238-0.09-0.35-0.15L21,50.529V44h15l-10.445-5.642
	c-0.993-0.451-2.128-0.478-3.141-0.072l-7.699,3.08c-0.472,0.189-0.977,0.286-1.485,0.286H7v12h7l7,2l5.26,1
	c0.961,0,1.74-0.779,1.74-1.74v-0.006C28,54.157,27.521,53.492,26.81,53.255z"/><rect width="6" height="14" x="2" y="41" fill="#759acc"/><path fill="#ffdbac" d="M59,12c0,3.31-2.69,6-6,6s-6-2.69-6-6c0-0.1,0-0.2,0.01-0.3C47.17,8.53,49.79,6,53,6
		s5.83,2.53,5.99,5.7C59,11.8,59,11.9,59,12z"/><path fill="#526273" d="M53,6c-3.21,0-5.83,2.53-5.99,5.7C48.47,10.04,50.61,9,53,9s4.53,1.04,5.99,2.7
		C58.83,8.53,56.21,6,53,6z"/><polygon fill="#ff8088" points="43 5 40 5 40 2 36 2 36 5 33 5 33 9 36 9 36 12 40 12 40 9 43 9"/><path fill="#ffe38f" d="M34,52c-0.551,0-1-0.449-1-1s0.449-1,1-1s1,0.449,1,1h2c0-1.302-0.839-2.402-2-2.816V47h-2v1.184
	c-1.161,0.414-2,1.514-2,2.816c0,1.654,1.346,3,3,3c0.551,0,1,0.449,1,1s-0.449,1-1,1s-1-0.449-1-1h-2c0,1.302,0.839,2.402,2,2.816
	V59h2v-1.184c1.161-0.414,2-1.514,2-2.816C37,53.346,35.654,52,34,52z"/><polygon fill="#eaeaea" points="52 18 49 18 53 32 59.794 29.876"/><polygon fill="#557196" points="57.457 26.307 56.926 25.436 59.131 24.826 59.395 25.791"/><path fill="#557196" d="M50.866,32.501c-0.423,0-0.841-0.107-1.223-0.317c-0.609-0.335-1.045-0.889-1.228-1.56l-0.03-0.109
		c-0.325-1.29,0.415-2.607,1.681-3.009l1.457-0.491l0.319,0.948l-1.465,0.493c-0.772,0.245-1.219,1.036-1.025,1.804l0.028,0.1
		c0.111,0.408,0.375,0.744,0.745,0.948c0.37,0.203,0.795,0.247,1.199,0.123l1.369-0.421l0.294,0.956l-1.369,0.421
		C51.37,32.463,51.117,32.501,50.866,32.501z"/></svg>