<svg id="Capa_1" enable-background="new 0 0 510 510" height="512" viewBox="0 0 510 510" width="512" xmlns="http://www.w3.org/2000/svg" xmlns:xlink="http://www.w3.org/1999/xlink"><linearGradient id="lg1"><stop offset="0" stop-color="#ffdcbd"/><stop offset="1" stop-color="#ffa9b1"/></linearGradient><linearGradient id="SVGID_1_" gradientUnits="userSpaceOnUse" x1="215.597" x2="349.023" xlink:href="#lg1" y1="420.186" y2="500.862"/><linearGradient id="lg2"><stop offset="0" stop-color="#ffa9b1" stop-opacity="0"/><stop offset="1" stop-color="#f89580"/></linearGradient><linearGradient id="SVGID_2_" gradientUnits="userSpaceOnUse" x1="278.829" x2="278.829" xlink:href="#lg2" y1="504.784" y2="439.294"/><linearGradient id="SVGID_3_" gradientUnits="userSpaceOnUse" x1="305.12" x2="404.804" xlink:href="#lg1" y1="293.773" y2="354.047"/><linearGradient id="SVGID_4_" gradientUnits="userSpaceOnUse" x1="430.866" x2="401.5" xlink:href="#lg2" y1="358.799" y2="358.799"/><linearGradient id="lg3"><stop offset="0" stop-color="#537983"/><stop offset="1" stop-color="#3e5959"/></linearGradient><linearGradient id="SVGID_5_" gradientUnits="userSpaceOnUse" x1="108.314" x2="405.814" xlink:href="#lg3" y1="104.764" y2="402.263"/><linearGradient id="SVGID_6_" gradientUnits="userSpaceOnUse" x1="390.297" x2="-34.673" xlink:href="#lg3" y1="386.747" y2="-38.224"/><linearGradient id="SVGID_7_" gradientUnits="userSpaceOnUse" x1="158.474" x2="397.263" y1="154.924" y2="393.713"><stop offset="0" stop-color="#eef5f6"/><stop offset="1" stop-color="#cbe5e8"/></linearGradient><linearGradient id="lg4"><stop offset="0" stop-color="#3e5959" stop-opacity="0"/><stop offset="1" stop-color="#384949"/></linearGradient><linearGradient id="SVGID_8_" gradientUnits="userSpaceOnUse" x1="390.005" x2="72.005" xlink:href="#lg4" y1="292.385" y2="109.385"/><linearGradient id="SVGID_9_" gradientUnits="userSpaceOnUse" x1="284.678" x2="250.678" xlink:href="#lg4" y1="422.825" y2="335.325"/><linearGradient id="SVGID_10_" gradientUnits="userSpaceOnUse" x1="236.521" x2="236.521" y1="337.333" y2="404.667"><stop offset="0" stop-color="#c1e9af"/><stop offset="1" stop-color="#4fc123"/></linearGradient><linearGradient id="SVGID_11_" gradientUnits="userSpaceOnUse" x1="188.725" x2="266.15" y1="57.123" y2="134.547"><stop offset="0" stop-color="#fe99a0"/><stop offset="1" stop-color="#fd4755"/></linearGradient><linearGradient id="lg5"><stop offset="0" stop-color="#ffe177"/><stop offset="1" stop-color="#fe9738"/></linearGradient><linearGradient id="SVGID_12_" gradientUnits="userSpaceOnUse" x1="186.521" x2="298.593" xlink:href="#lg5" y1="178.386" y2="290.457"/><linearGradient id="SVGID_13_" gradientTransform="matrix(-1 0 0 -1 -554 -812)" gradientUnits="userSpaceOnUse" x1="-829.41" x2="-742.243" xlink:href="#lg5" y1="-1079.274" y2="-992.108"/><linearGradient id="SVGID_14_" gradientUnits="userSpaceOnUse" x1="299.714" x2="209.214" y1="270.764" y2="227.764"><stop offset="0" stop-color="#fe9738" stop-opacity="0"/><stop offset="1" stop-color="#f46700"/></linearGradient><linearGradient id="SVGID_15_" gradientUnits="userSpaceOnUse" x1="216.91" x2="262.707" y1="207.563" y2="253.36"><stop offset="0" stop-color="#fe9738"/><stop offset="1" stop-color="#f46700"/></linearGradient><linearGradient id="SVGID_16_" gradientUnits="userSpaceOnUse" x1="236.521" x2="236.521" xlink:href="#lg4" y1="418.43" y2="468.272"/><linearGradient id="SVGID_17_" gradientUnits="userSpaceOnUse" x1="365.903" x2="365.903" xlink:href="#lg4" y1="327.246" y2="262.312"/><linearGradient id="SVGID_18_" gradientUnits="userSpaceOnUse" x1="346.349" x2="446.033" xlink:href="#lg1" y1="225.586" y2="285.86"/><linearGradient id="SVGID_19_" gradientUnits="userSpaceOnUse" x1="278.829" x2="278.829" xlink:href="#lg2" y1="485.659" y2="504.784"/><g><g><path d="m363.444 510h-169.231c-13.764 0-24.921-11.158-24.921-24.921v-53.319c0-13.764 11.158-24.921 24.921-24.921h169.231c13.763 0 24.921 11.158 24.921 24.921v53.319c0 13.763-11.157 24.921-24.921 24.921z" fill="url(#SVGID_1_)"/><path d="m169.292 451.465v14.199l44.336 44.336h149.816c13.764 0 24.921-11.158 24.921-24.921v-33.614z" fill="url(#SVGID_2_)"/><path d="m437.776 250.358v114.025c0 45.853-37.171 83.025-83.025 83.025v-197.05z" fill="url(#SVGID_3_)"/><path d="m400.729 279.336h-8.114v158.927c26.807-13.767 45.16-41.671 45.16-73.88v-48.001z" fill="url(#SVGID_4_)"/><g><g><path d="m372.117 465.942h-271.192c-15.851 0-28.701-12.85-28.701-28.701v-408.54c0-15.851 12.85-28.701 28.701-28.701h271.192c15.851 0 28.701 12.85 28.701 28.701v408.541c0 15.85-12.85 28.7-28.701 28.7z" fill="url(#SVGID_5_)"/><path d="m361.609 452.044h-250.176c-14.777 0-26.756-11.979-26.756-26.756v-384.634c0-14.777 11.979-26.756 26.756-26.756h250.177c14.777 0 26.756 11.979 26.756 26.756v384.635c-.001 14.776-11.98 26.755-26.757 26.755z" fill="url(#SVGID_6_)"/><path d="m350.482 27.807h-67.016c-2.027 0-3.671 1.643-3.671 3.671 0 5.655-4.584 10.239-10.239 10.239h-66.07c-5.655 0-10.239-4.584-10.239-10.239 0-2.027-1.643-3.671-3.671-3.671h-67.016c-13.668 0-24.747 11.08-24.747 24.747v360.833c0 13.668 11.08 24.747 24.747 24.747h227.921c13.668 0 24.747-11.08 24.747-24.747v-360.833c.001-13.667-11.079-24.747-24.746-24.747z" fill="url(#SVGID_7_)"/><path d="m400.818 437.241v-277.738l-150.926-151.614c-5.622-8.518-18.12-8.518-23.743 0l-55.505 84.099c-5.129 7.772-1.459 17.662 6.299 20.942l23.975 25.148c-36.292 14.681-61.898 50.253-61.898 91.808 0 29.244 12.683 55.522 32.845 73.645l162.411 162.411h37.84c15.852 0 28.702-12.85 28.702-28.701z" fill="url(#SVGID_8_)"/><path d="m400.196 443.191-87.141-87.141c-1.965-3.366-5.606-5.634-9.785-5.634h-130c-6.259 0-11.333 5.074-11.333 11.333v20c0 4.179 2.268 7.82 5.634 9.785l74.407 74.407h130.139c13.811.001 25.339-9.755 28.079-22.75z" fill="url(#SVGID_9_)"/><path d="m301.521 391.333h-130c-6.259 0-11.333-5.074-11.333-11.333v-20c0-6.259 5.074-11.333 11.333-11.333h130c6.259 0 11.333 5.074 11.333 11.333v20c0 6.259-5.074 11.333-11.333 11.333z" fill="url(#SVGID_10_)"/><g><path d="m224.65 6.389-55.505 84.099c-6.241 9.457.541 22.059 11.871 22.059h25.952v67.969c0 7.563 6.131 13.693 13.693 13.693h31.721c7.563 0 13.693-6.131 13.693-13.693v-67.969h25.952c11.331 0 18.113-12.602 11.871-22.059l-55.506-84.099c-5.622-8.519-18.12-8.519-23.742 0z" fill="url(#SVGID_11_)"/><g><circle cx="236.521" cy="228.385" fill="url(#SVGID_12_)" r="99"/><circle cx="236.521" cy="228.385" fill="url(#SVGID_13_)" r="77"/><path d="m333.134 250.061-64.724-64.724c-3.326-4.997-12.234-7.043-19.468-7.782-.521-.676-5.415-5.365-5.707-5.725-.988-1.216-2.874-2.109-4.763-2.109-3.171 0-5.478 1.874-5.478 3.892v4.036c-15.28 2.162-28.83 10.955-28.83 29.262 0 8.744 3.499 14.733 8.589 19.155 0 0 20.069 20.115 20.241 20.303v13.589c-10.667-1.874-15.568-10.379-21.623-10.379-5.478 0-9.802 7.207-9.802 12.108 0 3.585 2.14 7.124 5.763 10.148l52.726 52.726c36.386-8.873 64.889-37.85 73.076-74.5z" fill="url(#SVGID_14_)"/><path d="m243.512 216.854v-21.046c9.37.721 12.109 5.334 16.865 5.334 6.343 0 8.937-7.928 8.937-11.82 0-9.946-16.866-12.253-25.803-12.541v-3.604c0-2.018-2.739-3.892-5.478-3.892-3.171 0-5.478 1.874-5.478 3.892v4.036c-15.28 2.162-28.83 10.955-28.83 29.262 0 18.451 15.568 24.649 28.83 29.695v23.352c-10.667-1.874-15.568-10.379-21.623-10.379-5.478 0-9.802 7.207-9.802 12.108 0 9.226 14.127 18.163 31.425 18.739v3.604c0 2.018 2.306 3.892 5.478 3.892 2.739 0 5.478-1.874 5.478-3.892v-4.18c16.865-2.739 28.398-13.55 28.398-31.424.001-19.461-15.28-26.236-28.397-31.136zm-9.514-3.46c-5.478-2.306-9.226-4.901-9.226-9.081 0-3.46 2.739-6.775 9.226-8.072zm8.073 45.983v-19.316c5.189 2.45 8.792 5.478 8.792 10.235.001 5.189-3.892 7.928-8.792 9.081z" fill="url(#SVGID_15_)"/></g></g><path d="m72.224 390.611v46.63c0 15.851 12.85 28.701 28.701 28.701h271.192c15.851 0 28.701-12.85 28.701-28.701v-46.63z" fill="url(#SVGID_16_)"/></g></g><path d="m400.818 339.505v-69.829h-69.829z" fill="url(#SVGID_17_)"/><path d="m437.776 279.336h-79.718c-23.353 0-42.285-18.932-42.285-42.285v-.693c0-15.314 12.414-27.728 27.728-27.728h51.99c23.353 0 42.285 18.932 42.285 42.285z" fill="url(#SVGID_18_)"/><path d="m169.292 472.329v12.75c0 13.764 11.158 24.921 24.921 24.921h169.231c13.764 0 24.921-11.158 24.921-24.921v-12.75z" fill="url(#SVGID_19_)"/></g></g></svg>