<svg id="Capa_1" enable-background="new 0 0 512 512" height="512" viewBox="0 0 512 512" width="512" xmlns="http://www.w3.org/2000/svg" xmlns:xlink="http://www.w3.org/1999/xlink"><linearGradient id="SVGID_1_" gradientUnits="userSpaceOnUse" x1="0" x2="512" y1="256" y2="256"><stop offset="0" stop-color="#ffd9d9" stop-opacity="0"/><stop offset=".9981" stop-color="#ffb3b3"/></linearGradient><linearGradient id="lg1"><stop offset="0" stop-color="#ff4d4d" stop-opacity=".4"/><stop offset="1" stop-color="#ff4d4d" stop-opacity="0"/></linearGradient><linearGradient id="SVGID_2_" gradientUnits="userSpaceOnUse" x1="262.647" x2="262.647" xlink:href="#lg1" y1="449.742" y2="150.883"/><linearGradient id="SVGID_3_" gradientUnits="userSpaceOnUse" x1="373.438" x2="373.438" xlink:href="#lg1" y1="276.209" y2="147.358"/><g><g><path d="m20.337 133.512c-23.967 39.398-26.493 107.613-8.937 150.256 15.377 37.351 45.966 72.409 86.12 76.801 14.766 1.615 29.858-1.024 44.472 1.638 50.258 9.152 68.952 71.09 108.01 104.014 27.183 22.913 64.898 31.021 100.174 26.607s68.302-20.363 97.376-40.824c22.957-16.157 44.436-36.022 55.764-61.707 23.744-53.839-4.19-118.501-47.587-158.239-13.516-12.377-28.581-23.294-39.875-37.727-11.293-14.434-18.48-33.695-13.099-51.214 4.293-13.977 15.849-24.812 20.227-38.763 5.958-18.984-3.035-40.28-17.802-53.616-14.767-13.335-34.308-20.039-53.666-24.64-81.103-19.281-258.823-11.524-331.177 107.414z" fill="url(#SVGID_1_)"/></g><g><g><path d="m454.281 351.648h-113.459c-5.523 0-10-4.477-10-10v-63.83c0-5.523 4.477-10 10-10h113.459c5.523 0 10 4.477 10 10v63.83c0 5.523-4.477 10-10 10z" fill="#ff4d4d"/><path d="m423.1 267.82c-11.82 14.29-29.67 23.39-49.66 23.39-16.19 0-30.99-5.97-42.31-15.84 1.09-4.34 5.01-7.55 9.69-7.55z" fill="#ff2c2c"/><g><g><path d="m435.104 294.789h-18.583c-2.762 0-5-2.239-5-5s2.238-5 5-5h18.583c2.762 0 5 2.239 5 5s-2.238 5-5 5z" fill="#fff"/></g><g><path d="m435.104 313.17h-58.583c-2.762 0-5-2.239-5-5s2.238-5 5-5h58.583c2.762 0 5 2.239 5 5s-2.238 5-5 5z" fill="#fff"/></g><g><path d="m435.104 331.552h-58.583c-2.762 0-5-2.239-5-5s2.238-5 5-5h58.583c2.762 0 5 2.239 5 5s-2.238 5-5 5z" fill="#fff"/></g></g></g><g><path d="m207.248 51.089-22.034-8.625 4.233 12.682 14.391 5.343c6.248 2.267 10.447 8.255 10.447 14.901v75.489h10v-75.488c0-10.839-6.847-20.606-17.037-24.302z" fill="#9494ff"/><path d="m116.962 42.884-20.79 8.204c-10.19 3.696-17.037 13.463-17.037 24.302v75.489h10v-75.488c0-6.646 4.198-12.635 10.446-14.901l13.843-5.643z" fill="#9494ff"/><g fill="#b3b3ff"><path d="m129.442 59.506h-8.733c-4.823 0-8.733-3.91-8.733-8.733 0-4.823 3.91-8.733 8.733-8.733h8.733z"/><path d="m173.79 59.506h8.733c4.823 0 8.733-3.91 8.733-8.733 0-4.823-3.91-8.733-8.733-8.733h-8.733z"/></g><g><path d="m94.136 155.879v69.964c0 10.205 5.944 19.475 15.217 23.735l22.817 10.48c17.945 8.243 29.541 26.329 29.541 46.076v15.233c0 5.326-4.02 9.977-9.335 10.321-5.824.377-10.665-4.236-10.665-9.978v-15.575c0-11.958-7.021-22.91-17.889-27.902l-22.817-10.48c-16.374-7.521-26.869-23.889-26.869-41.908v-69.964c0-2.761 2.239-5 5-5h10c2.761-.002 5 2.237 5 4.998z" fill="#ff8b00"/></g><g><path d="m383.582 234.313v167.29c0 25.93-20.51 47.64-46.43 48.13-26.52.5-48.26-20.93-48.26-47.34v-59.26c0-16.21-12.69-29.94-28.9-30.42-16.85-.5-30.71 13.06-30.71 29.79v62.68c0 24.5-20.05 44.97-44.54 44.55-23.8-.41-43.03-19.89-43.03-43.78v-99.82c0-19.75 11.59-37.83 29.54-46.07l22.82-10.49c9.24-4.24 15.21-13.56 15.21-23.73v-69.96c0-2.76 2.24-5 5-5h10c2.76 0 5 2.24 5 5v69.96c0 17.96-10.54 34.41-26.87 41.91l-22.81 10.48c-10.87 4.99-17.89 15.94-17.89 27.9v99.28c0 13.31 10.89 24.55 24.19 24.33 12.93-.22 23.38-10.81 23.38-23.79v-62.61c0-27.28 21.58-50.12 48.84-50.63 27.9-.53 50.77 22.01 50.77 49.79v59.31c0 14.88 11.64 27.47 26.52 27.92 15.45.46 28.17-11.98 28.17-27.34v-167.74c0-5.33 4.02-9.98 9.33-10.32 5.83-.38 10.67 4.23 10.67 9.98z" fill="#ff9d33"/></g><g><path d="m383.582 234.313v167.29c0 25.93-20.51 47.64-46.43 48.13-26.52.5-48.26-20.93-48.26-47.34v-59.26c0-16.21-12.69-29.94-28.9-30.42-16.85-.5-30.71 13.06-30.71 29.79v62.68c0 24.5-20.05 44.97-44.54 44.55-23.8-.41-43.03-19.89-43.03-43.78v-99.82c0-19.75 11.59-37.83 29.54-46.07l22.82-10.49c9.24-4.24 15.21-13.56 15.21-23.73v-69.96c0-2.76 2.24-5 5-5h10c2.76 0 5 2.24 5 5v69.96c0 17.96-10.54 34.41-26.87 41.91l-22.81 10.48c-10.87 4.99-17.89 15.94-17.89 27.9v99.28c0 13.31 10.89 24.55 24.19 24.33 12.93-.22 23.38-10.81 23.38-23.79v-62.61c0-27.28 21.58-50.12 48.84-50.63 27.9-.53 50.77 22.01 50.77 49.79v59.31c0 14.88 11.64 27.47 26.52 27.92 15.45.46 28.17-11.98 28.17-27.34v-167.74c0-5.33 4.02-9.98 9.33-10.32 5.83-.38 10.67 4.23 10.67 9.98z" fill="url(#SVGID_2_)"/></g><path d="m383.582 234.313v56.25c-3.32.43-6.7.65-10.14.65-3.34 0-6.63-.21-9.86-.61v-55.95c0-5.33 4.02-9.98 9.33-10.32 5.83-.38 10.67 4.23 10.67 9.98z" fill="#ff8b00"/><g><ellipse cx="373.438" cy="211.783" fill="#ebebff" rx="64.426" ry="64.426" transform="matrix(.23 -.973 .973 .23 81.522 526.574)"/><circle cx="373.438" cy="211.783" fill="#d9d9ff" r="31.239"/><circle cx="373.438" cy="211.783" fill="#b3b3ff" r="23.696"/></g></g><g><path d="m178.768 37.04c-.117-2.658-2.291-4.782-4.978-4.782-2.761 0-5 2.238-5 5v27.03c0 2.762 2.239 5 5 5 2.687 0 4.862-2.124 4.978-4.782z" fill="#9494ff"/><path d="m129.442 32.258c-2.687 0-4.862 2.124-4.978 4.782v27.466c.116 2.658 2.291 4.782 4.978 4.782 2.761 0 5-2.238 5-5v-27.03c0-2.762-2.238-5-5-5z" fill="#9494ff"/><g fill="#2c27ff"><path d="m248.432 99.586h18.583c2.761 0 5-2.238 5-5s-2.239-5-5-5h-18.583c-2.761 0-5 2.238-5 5s2.238 5 5 5z"/><path d="m248.432 117.968h58.583c2.761 0 5-2.238 5-5s-2.239-5-5-5h-58.583c-2.761 0-5 2.238-5 5 0 2.761 2.238 5 5 5z"/><path d="m248.432 136.35h58.583c2.761 0 5-2.238 5-5s-2.239-5-5-5h-58.583c-2.761 0-5 2.238-5 5s2.238 5 5 5z"/></g></g><path d="m383.582 121.156c-2.761 0-5-2.238-5-5 0-3.492-2.841-6.333-6.333-6.333-2.761 0-5-2.238-5-5s2.239-5 5-5c3.492 0 6.333-2.841 6.333-6.333 0-2.762 2.239-5 5-5s5 2.238 5 5c0 3.492 2.841 6.333 6.333 6.333 2.761 0 5 2.238 5 5s-2.239 5-5 5c-3.492 0-6.333 2.841-6.333 6.333 0 2.762-2.239 5-5 5z" fill="#6c6cff"/><path d="m93.604 379.314c-2.761 0-5-2.238-5-5 0-3.492-2.841-6.333-6.333-6.333-2.761 0-5-2.238-5-5s2.239-5 5-5c3.492 0 6.333-2.841 6.333-6.333 0-2.762 2.239-5 5-5s5 2.238 5 5c0 3.492 2.841 6.333 6.334 6.333 2.761 0 5 2.238 5 5s-2.239 5-5 5c-3.492 0-6.334 2.841-6.334 6.333 0 2.762-2.239 5-5 5z" fill="#ff9d33"/><g fill="#ff4d4d"><path d="m421.521 98.19c-2.761 0-5-2.238-5-5 0-3.492-2.841-6.333-6.333-6.333-2.761 0-5-2.238-5-5s2.239-5 5-5c3.492 0 6.333-2.842 6.333-6.334 0-2.762 2.239-5 5-5s5 2.238 5 5c0 3.492 2.841 6.334 6.333 6.334 2.761 0 5 2.238 5 5s-2.239 5-5 5c-3.492 0-6.333 2.841-6.333 6.333 0 2.762-2.238 5-5 5z"/><g><g><path d="m448.666 129.15c-2.761 0-5-2.238-5-5v-.149c0-2.762 2.239-5 5-5s5 2.238 5 5v.149c0 2.762-2.238 5-5 5z"/><path d="m448.666 156.935c-2.761 0-5-2.238-5-5v-.149c0-2.762 2.239-5 5-5s5 2.238 5 5v.149c0 2.761-2.238 5-5 5z"/></g><g><path d="m436.696 136.06c-.85 0-1.711-.217-2.5-.674l-.13-.075c-2.39-1.384-3.206-4.442-1.822-6.832s4.441-3.207 6.832-1.822l.13.075c2.39 1.384 3.206 4.442 1.822 6.832-.927 1.602-2.606 2.496-4.332 2.496z"/><path d="m460.758 149.952c-.85 0-1.711-.217-2.5-.674l-.13-.075c-2.39-1.384-3.206-4.442-1.822-6.832 1.383-2.39 4.441-3.207 6.832-1.822l.13.075c2.39 1.384 3.206 4.442 1.822 6.832-.927 1.602-2.606 2.496-4.332 2.496z"/></g><g><path d="m436.576 149.952c-1.726 0-3.405-.894-4.332-2.496-1.384-2.39-.568-5.448 1.822-6.832l.13-.075c2.391-1.385 5.449-.567 6.832 1.822 1.384 2.39.568 5.448-1.822 6.832l-.13.075c-.789.457-1.65.674-2.5.674z"/><path d="m460.638 136.06c-1.726 0-3.405-.895-4.332-2.496-1.384-2.39-.568-5.448 1.822-6.832l.13-.075c2.392-1.385 5.45-.567 6.832 1.822 1.384 2.39.568 5.448-1.822 6.832l-.13.075c-.789.458-1.65.674-2.5.674z"/></g></g><g><g><path d="m161.71 122.167c-2.761 0-5-2.238-5-5v-.15c0-2.762 2.239-5 5-5s5 2.238 5 5v.15c0 2.762-2.238 5-5 5z"/><path d="m161.71 149.951c-2.761 0-5-2.238-5-5v-.15c0-2.762 2.239-5 5-5s5 2.238 5 5v.15c0 2.762-2.238 5-5 5z"/></g><g><path d="m149.74 129.077c-.848 0-1.706-.216-2.493-.67l-.13-.075c-2.392-1.38-3.213-4.438-1.833-6.829 1.38-2.392 4.436-3.213 6.829-1.833l.13.075c2.392 1.38 3.213 4.438 1.833 6.829-.926 1.606-2.607 2.503-4.336 2.503z"/><path d="m173.801 142.969c-.85 0-1.712-.217-2.501-.674l-.13-.075c-2.39-1.384-3.206-4.442-1.822-6.832 1.383-2.391 4.44-3.208 6.832-1.822l.13.075c2.39 1.384 3.206 4.442 1.822 6.832-.926 1.601-2.605 2.496-4.331 2.496z"/></g><g><path d="m149.619 142.969c-1.729 0-3.41-.898-4.336-2.503-1.38-2.392-.559-5.449 1.833-6.829l.13-.075c2.392-1.383 5.45-.559 6.829 1.833 1.38 2.392.559 5.449-1.833 6.829l-.13.075c-.786.454-1.646.67-2.493.67z"/><path d="m173.681 129.077c-1.726 0-3.405-.894-4.332-2.496-1.384-2.39-.568-5.448 1.822-6.832l.13-.075c2.391-1.386 5.45-.568 6.833 1.822 1.384 2.39.568 5.448-1.822 6.832l-.13.075c-.789.457-1.651.674-2.501.674z"/></g></g></g></g><circle cx="373.438" cy="211.783" fill="url(#SVGID_3_)" r="64.426"/></g></svg>