<svg id="Capa_1" enable-background="new 0 0 512 512" height="512" viewBox="0 0 512 512" width="512" xmlns="http://www.w3.org/2000/svg" xmlns:xlink="http://www.w3.org/1999/xlink"><linearGradient id="SVGID_1_" gradientUnits="userSpaceOnUse" x1="0" x2="512" y1="256" y2="256"><stop offset="0" stop-color="#ffd9d9" stop-opacity="0"/><stop offset=".9981" stop-color="#ffb3b3"/></linearGradient><linearGradient id="SVGID_2_" gradientUnits="userSpaceOnUse" x1="290.042" x2="290.042" y1="387.512" y2="60.428"><stop offset="0" stop-color="#ff4d4d" stop-opacity=".4"/><stop offset="1" stop-color="#ff4d4d" stop-opacity="0"/></linearGradient><g><g><path d="m418.32 2.5c-55.666-9.521-178.298 12.183-200.004 105.016-14.432 61.722-14.007 112.075-50.427 113.02-21.67.562-32.97-44.31-62.889-48.001-39.047-4.817-66.145 27.695-83.057 57.138-37.205 64.772-25.571 174.918 23.354 228.632 118.488 130.086 259.197-5.952 319.358-112.309 38.585-68.213 125.637-123.352 143.767-200.248 15.177-64.375-18.503-131.002-90.102-143.248z" fill="url(#SVGID_1_)"/></g><g><g><path d="m450.452 90.332-26.772-26.772c-4.176-4.176-10.947-4.176-15.123 0l-231.525 231.525c-4.163 4.163-5.711 10.273-4.032 15.916 1.473 4.95.115 10.31-3.537 13.962l-42.962 42.962 19.587 19.587 42.962-42.962c3.652-3.652 9.011-5.01 13.962-3.537 5.643 1.679 11.753.131 15.916-4.032l231.525-231.525c4.175-4.177 4.175-10.948-.001-15.124z" fill="#9494ff"/><path d="m281.98 215.3c0 38.38-31.11 69.5-69.49 69.5-7.58 0-14.88-1.21-21.71-3.46l87.74-87.74c2.25 6.83 3.46 14.12 3.46 21.7z" fill="#8383ff"/><path d="m441.62 114.287 8.832-8.832c4.176-4.176 4.176-10.947 0-15.123l-26.772-26.772c-4.176-4.176-10.947-4.176-15.123 0l-8.832 8.832z" fill="#4d4dff"/><path d="m307.21 97.089h59.248v160.179h-59.248z" fill="#ebebff" transform="matrix(.707 .707 -.707 .707 223.941 -186.283)"/><path d="m281.98 215.3c0 6.2-.81 12.22-2.35 17.94l-20.37-20.37 19.26-19.27c2.25 6.83 3.46 14.12 3.46 21.7z" fill="#ebebff"/><path d="m335.951 134.888h59.248v27.098h-59.248z" fill="#9494ff" transform="matrix(.707 .707 -.707 .707 212.036 -215.025)"/><path d="m320.571 155.615h59.248v16.404h-59.248z" fill="#b3b3ff" transform="matrix(.707 .707 -.707 .707 218.406 -199.644)"/><path d="m127.884 343.565h57.425v27.7h-57.425z" fill="#6c6cff" transform="matrix(.707 -.707 .707 .707 -206.865 215.415)"/><path d="m450.452 90.332-26.772-26.772c-4.176-4.176-10.947-4.176-15.123 0l-231.525 231.525c-4.163 4.163-5.711 10.273-4.032 15.916 1.473 4.95.115 10.31-3.537 13.962l-42.962 42.962 19.587 19.587 42.962-42.962c3.652-3.652 9.011-5.01 13.962-3.537 5.643 1.679 11.753.131 15.916-4.032l231.525-231.525c4.175-4.177 4.175-10.948-.001-15.124z" fill="url(#SVGID_2_)"/><g><path d="m60.625 430.233c-3.049-3.049-2.926-8.029.269-10.924l70.79-64.135c2.113-1.914 5.355-1.834 7.371.182l19.601 19.6c2.016 2.016 2.096 5.258.182 7.371l-42.15 46.524c-14.858 16.4-40.415 17.03-56.063 1.382z" fill="#ebebff"/><path d="m116.687 428.852 42.15-46.524c1.914-2.113 1.834-5.355-.182-7.371l-8.842-8.842-77.476 72.155c14.797 6.541 32.804 3.326 44.35-9.418z" fill="#d9d9ff"/></g></g><g><circle cx="212.488" cy="192.778" fill="#ff4d4d" r="69.494"/><path d="m244.825 178.137h-17.695v-17.695c0-5.523-4.477-10-10-10h-9.282c-5.523 0-10 4.477-10 10v17.695h-17.695c-5.523 0-10 4.477-10 10v9.282c0 5.523 4.477 10 10 10h17.695v17.695c0 5.523 4.477 10 10 10h9.282c5.523 0 10-4.477 10-10v-17.695h17.695c5.523 0 10-4.477 10-10v-9.282c0-5.523-4.478-10-10-10z" fill="#fff"/></g><g fill="#2c27ff"><path d="m186.693 384.3h18.583c2.761 0 5-2.239 5-5s-2.239-5-5-5h-18.583c-2.761 0-5 2.239-5 5s2.239 5 5 5z"/><path d="m245.276 392.681h-58.583c-2.761 0-5 2.239-5 5s2.239 5 5 5h58.583c2.761 0 5-2.239 5-5s-2.238-5-5-5z"/><path d="m245.276 411.063h-58.583c-2.761 0-5 2.239-5 5s2.239 5 5 5h58.583c2.761 0 5-2.239 5-5s-2.238-5-5-5z"/></g><g fill="#6c6cff"><g><path d="m383.5 253.455c-2.761 0-5-2.239-5-5v-.15c0-2.761 2.239-5 5-5s5 2.239 5 5v.15c0 2.761-2.239 5-5 5z"/><path d="m383.5 281.238c-2.761 0-5-2.239-5-5v-.15c0-2.761 2.239-5 5-5s5 2.239 5 5v.15c0 2.762-2.239 5-5 5z"/></g><g><path d="m371.529 260.364c-.85 0-1.711-.217-2.5-.674l-.13-.075c-2.39-1.384-3.206-4.442-1.822-6.833 1.383-2.389 4.442-3.206 6.833-1.822l.13.075c2.39 1.384 3.206 4.442 1.822 6.833-.928 1.601-2.607 2.496-4.333 2.496z"/><path d="m395.59 274.256c-.85 0-1.711-.217-2.5-.674l-.13-.075c-2.39-1.384-3.206-4.442-1.822-6.832 1.383-2.389 4.442-3.205 6.832-1.822l.13.075c2.39 1.384 3.206 4.442 1.822 6.833-.926 1.6-2.606 2.495-4.332 2.495z"/></g><g><path d="m371.409 274.256c-1.726 0-3.405-.895-4.332-2.496-1.384-2.39-.568-5.449 1.822-6.833l.13-.075c2.391-1.383 5.45-.568 6.832 1.822 1.384 2.39.568 5.449-1.822 6.832l-.13.075c-.789.458-1.65.675-2.5.675z"/><path d="m395.47 260.364c-1.726 0-3.405-.895-4.332-2.496-1.384-2.39-.568-5.449 1.822-6.833l.13-.075c2.391-1.384 5.449-.567 6.833 1.822 1.384 2.39.568 5.449-1.822 6.833l-.13.075c-.789.457-1.651.674-2.501.674z"/></g></g><g fill="#ff9d33"><g><path d="m342.735 284.55c-2.761 0-5-2.239-5-5v-.15c0-2.761 2.239-5 5-5s5 2.239 5 5v.15c0 2.761-2.238 5-5 5z"/><path d="m342.735 312.335c-2.761 0-5-2.239-5-5v-.15c0-2.761 2.239-5 5-5s5 2.239 5 5v.15c0 2.761-2.238 5-5 5z"/></g><g><path d="m330.764 291.46c-.85 0-1.712-.217-2.501-.674l-.13-.075c-2.39-1.384-3.206-4.442-1.822-6.832 1.383-2.389 4.441-3.206 6.832-1.822l.13.075c2.39 1.384 3.206 4.442 1.822 6.833-.926 1.6-2.605 2.495-4.331 2.495z"/><path d="m354.826 305.352c-.85 0-1.711-.217-2.5-.674l-.13-.075c-2.39-1.384-3.206-4.442-1.822-6.832 1.383-2.389 4.442-3.205 6.833-1.822l.13.075c2.39 1.384 3.206 4.442 1.822 6.833-.928 1.6-2.607 2.495-4.333 2.495z"/></g><g><path d="m330.644 305.352c-1.726 0-3.405-.895-4.332-2.496-1.384-2.39-.568-5.449 1.822-6.833l.13-.075c2.392-1.383 5.449-.568 6.833 1.822s.568 5.449-1.822 6.832l-.13.075c-.789.458-1.651.675-2.501.675z"/><path d="m354.706 291.46c-1.726 0-3.405-.895-4.332-2.496-1.384-2.39-.568-5.449 1.822-6.833l.13-.075c2.391-1.384 5.449-.567 6.833 1.822 1.384 2.39.568 5.449-1.822 6.832l-.13.075c-.79.458-1.651.675-2.501.675z"/></g></g><g fill="#ff9d33"><g><path d="m104.8 219.603c-2.761 0-5-2.239-5-5v-.15c0-2.761 2.239-5 5-5s5 2.239 5 5v.15c0 2.761-2.239 5-5 5z"/><path d="m104.8 247.387c-2.761 0-5-2.239-5-5v-.15c0-2.761 2.239-5 5-5s5 2.239 5 5v.15c0 2.761-2.239 5-5 5z"/></g><g><path d="m92.829 226.513c-.85 0-1.711-.217-2.501-.674l-.13-.075c-2.39-1.384-3.205-4.442-1.822-6.832 1.383-2.389 4.441-3.206 6.833-1.822l.13.075c2.39 1.384 3.205 4.442 1.822 6.833-.927 1.6-2.606 2.495-4.332 2.495z"/><path d="m116.891 240.404c-.843 0-1.697-.213-2.481-.663l-.13-.075c-2.396-1.373-3.225-4.428-1.853-6.824 1.373-2.395 4.427-3.225 6.824-1.853l.13.075c2.396 1.373 3.225 4.428 1.853 6.824-.923 1.613-2.609 2.516-4.343 2.516z"/></g><g><path d="m92.709 240.404c-1.731 0-3.414-.9-4.339-2.508-1.377-2.394-.553-5.451 1.841-6.827l.13-.075c2.395-1.377 5.451-.552 6.827 1.841 1.377 2.394.553 5.451-1.841 6.827l-.13.075c-.785.452-1.643.667-2.488.667z"/><path d="m116.771 226.513c-1.729 0-3.41-.898-4.336-2.503-1.38-2.392-.559-5.45 1.833-6.829l.13-.075c2.392-1.382 5.449-.559 6.829 1.833s.559 5.45-1.833 6.829l-.13.075c-.787.454-1.646.67-2.493.67z"/></g></g><path d="m104.8 299.25c-2.761 0-5-2.239-5-5 0-3.492-2.841-6.333-6.333-6.333-2.761 0-5-2.239-5-5s2.239-5 5-5c3.492 0 6.333-2.841 6.333-6.333 0-2.761 2.239-5 5-5s5 2.239 5 5c0 3.492 2.841 6.333 6.334 6.333 2.761 0 5 2.239 5 5s-2.239 5-5 5c-3.492 0-6.334 2.841-6.334 6.333 0 2.761-2.239 5-5 5z" fill="#ff4d4d"/><path d="m300.042 134.617c-2.761 0-5-2.239-5-5 0-3.492-2.841-6.333-6.333-6.333-2.761 0-5-2.239-5-5s2.239-5 5-5c3.492 0 6.333-2.841 6.333-6.334 0-2.761 2.239-5 5-5s5 2.239 5 5c0 3.492 2.841 6.334 6.333 6.334 2.761 0 5 2.239 5 5s-2.239 5-5 5c-3.492 0-6.333 2.841-6.333 6.333 0 2.761-2.239 5-5 5z" fill="#ff9d33"/></g></g></svg>