<svg id="Capa_1" enable-background="new 0 0 512 512" height="512" viewBox="0 0 512 512" width="512" xmlns="http://www.w3.org/2000/svg" xmlns:xlink="http://www.w3.org/1999/xlink"><linearGradient id="SVGID_1_" gradientUnits="userSpaceOnUse" x1="8.753" x2="524.203" y1="401.161" y2="103.566"><stop offset="0" stop-color="#fff" stop-opacity="0"/><stop offset=".2532" stop-color="#eef" stop-opacity=".403"/><stop offset=".629" stop-color="#d9d9ff"/></linearGradient><linearGradient id="SVGID_2_" gradientUnits="userSpaceOnUse" x1="256" x2="256" y1="419.141" y2="92.86"><stop offset="0" stop-color="#ff4d4d" stop-opacity=".4"/><stop offset="1" stop-color="#ff4d4d" stop-opacity="0"/></linearGradient><g><g><path d="m418.32 2.5c-55.666-9.521-178.298 12.183-200.004 105.017-14.432 61.722-14.007 112.075-50.427 113.02-21.67.562-32.97-44.31-62.889-48.001-39.047-4.817-66.145 27.695-83.057 57.138-37.205 64.772-25.571 174.918 23.354 228.632 118.488 130.086 259.197-5.952 319.358-112.309 38.585-68.213 125.637-123.352 143.767-200.248 15.177-64.376-18.503-131.003-90.102-143.249z" fill="url(#SVGID_1_)"/></g><g><g><path d="m457.504 256c0 61.948-9.41 115.746-56.555 142.824-7.346 4.219-15.697 6.381-24.168 6.381h-241.562c-8.471 0-16.822-2.162-24.168-6.381-47.145-27.078-56.555-80.876-56.555-142.824s9.41-115.746 56.555-142.824c7.346-4.219 15.697-6.381 24.168-6.381h241.562c8.471 0 16.822 2.162 24.168 6.381 47.145 27.078 56.555 80.876 56.555 142.824z" fill="#ff9d33"/><path d="m432.588 256c0 67.733-10.288 126.557-61.837 156.164-8.032 4.613-17.163 6.977-26.425 6.977h-176.652c-9.262 0-18.393-2.364-26.425-6.977-51.549-29.607-61.837-88.431-61.837-156.164s10.288-126.557 61.837-156.164c8.032-4.613 17.163-6.977 26.425-6.977h176.651c9.262 0 18.393 2.364 26.425 6.977 51.55 29.607 61.838 88.431 61.838 156.164z" fill="#b3b3ff"/><circle cx="256" cy="256" fill="#d9d9ff" r="142.167"/><path d="m409.73 278.45v2.01c0 2.77-2.24 5-5 5h-9.62c.84-3.94 1.5-7.95 2-12.01h7.62c2.76 0 5 2.24 5 5z" fill="#9494ff"/><path d="m397.11 273.45c-.5 4.06-1.16 8.07-2 12.01h-40.82c-2.76 0-5-2.23-5-5v-2.01c0-2.76 2.24-5 5-5z" fill="#b3b3ff"/><path d="m116.89 285.46h-9.62c-2.76 0-5-2.23-5-5v-2.01c0-2.76 2.24-5 5-5h7.62c.5 4.06 1.16 8.07 2 12.01z" fill="#9494ff"/><path d="m162.71 278.45v2.01c0 2.77-2.24 5-5 5h-40.82c-.84-3.94-1.5-7.95-2-12.01h42.82c2.76 0 5 2.24 5 5z" fill="#b3b3ff"/><path d="m293.234 175.21h-74.468c-2.761 0-5-2.239-5-5v-41.419c0-2.761 2.239-5 5-5h74.468c2.761 0 5 2.239 5 5v41.419c0 2.761-2.239 5-5 5z" fill="#b3b3ff"/><circle cx="256" cy="256" fill="#8383ff" r="99.302"/><path d="m298.23 166.11v4.1c0 2.76-2.23 5-5 5h-74.46c-2.77 0-5-2.24-5-5v-4.1c12.81-6.04 27.13-9.41 42.23-9.41s29.42 3.37 42.23 9.41z" fill="#6c6cff"/><circle cx="256" cy="256" fill="#d9d9ff" r="85.787"/><circle cx="256" cy="256" fill="#6c6cff" r="69.244"/><path d="m293.234 165.251h-74.468c-2.761 0-5-2.239-5-5v-41.419c0-2.761 2.239-5 5-5h74.468c2.761 0 5 2.239 5 5v41.419c0 2.762-2.239 5-5 5z" fill="#ff9d33"/><g><g><path d="m238.477 301.232h35.046v61.947h-35.046z" fill="#b3b3ff"/><path d="m238.477 301.232h35.046v21.868h-35.046z" fill="#9494ff"/><path d="m280.163 379.975h-48.325v-17.149c0-2.761 2.239-5 5-5h38.325c2.761 0 5 2.239 5 5z" fill="#9494ff"/><path d="m226.112 387.858v24.067c0 3.985 3.23 7.215 7.215 7.215h45.347c3.984 0 7.215-3.23 7.215-7.215v-24.067z" fill="#4d4dff"/><path d="m287.865 392.802h-63.731c-2.762 0-5-2.239-5-5v-5.015c0-2.761 2.238-5 5-5h63.731c2.762 0 5 2.239 5 5v5.015c0 2.761-2.238 5-5 5z" fill="#8383ff"/></g><g fill="#2c27ff"><path d="m289.079 419.141c-3.058 0-5.537-2.479-5.537-5.537v-6.129c0-3.058 2.479-5.537 5.537-5.537 3.058 0 5.537 2.479 5.537 5.537v6.129c0 3.057-2.479 5.537-5.537 5.537z"/><path d="m222.921 419.141c-3.058 0-5.537-2.479-5.537-5.537v-6.129c0-3.058 2.479-5.537 5.537-5.537 3.058 0 5.537 2.479 5.537 5.537v6.129c.001 3.057-2.478 5.537-5.537 5.537z"/></g><g><g><path d="m274.262 327.255h-36.524c-2.762 0-5-2.238-5-5s2.238-5 5-5h36.524c2.762 0 5 2.238 5 5s-2.238 5-5 5z" fill="#ebebff"/></g><g><path d="m274.262 346.593h-36.524c-2.762 0-5-2.238-5-5s2.238-5 5-5h36.524c2.762 0 5 2.238 5 5s-2.238 5-5 5z" fill="#ebebff"/></g></g><path d="m250.139 377.787h-7.79v-4.992c0-2.151 1.744-3.895 3.895-3.895 2.151 0 3.895 1.744 3.895 3.895z" fill="#ff6c6c"/><path d="m261.402 377.787h-7.79v-4.992c0-2.151 1.744-3.895 3.895-3.895 2.151 0 3.895 1.744 3.895 3.895z" fill="#ffab66"/></g><g><path d="m277.322 283.727-2.247-5.406c-.775-1.866-2.597-3.081-4.617-3.081h-28.916c-2.02 0-3.842 1.216-4.617 3.081l-2.247 5.406h-23.435c-3.562 0-5.982 3.618-4.621 6.91l3.593 8.691c2.149 5.199 7.22 8.59 12.846 8.59h65.877c5.626 0 10.697-3.391 12.846-8.59l3.593-8.691c1.361-3.292-1.059-6.91-4.621-6.91z" fill="#fff"/><path d="m210.228 299.355c2.156 5.183 7.218 8.563 12.834 8.563h65.877c5.616 0 10.678-3.38 12.834-8.563z" fill="#ebebff"/></g><g><g><path d="m404.1 268.946h-49.179v-22.781c0-2.762 2.239-5 5-5h39.179c2.761 0 5 2.238 5 5z" fill="#ff9d33"/><path d="m404.732 277.581h-50.442c-2.761 0-5-2.239-5-5v-2.013c0-2.761 2.239-5 5-5h50.441c2.761 0 5 2.239 5 5v2.013c.001 2.761-2.238 5-4.999 5z" fill="#fff"/></g><g><path d="m157.079 268.946h-49.179v-22.781c0-2.762 2.239-5 5-5h39.179c2.761 0 5 2.238 5 5z" fill="#ff9d33"/><path d="m157.71 277.581h-50.441c-2.761 0-5-2.239-5-5v-2.013c0-2.761 2.239-5 5-5h50.441c2.761 0 5 2.239 5 5v2.013c0 2.761-2.239 5-5 5z" fill="#fff"/></g></g><g fill="#6c6cff"><ellipse cx="375.381" cy="139.542" rx="8.296" ry="8.296" transform="matrix(.924 -.383 .383 .924 -24.826 154.274)"/><ellipse cx="136.619" cy="139.542" rx="8.296" ry="8.296" transform="matrix(.924 -.383 .383 .924 -43.001 62.904)"/></g><path d="m283.755 153.695h-22.755c-2.761 0-5-2.239-5-5v-5.767c0-2.761 2.239-5 5-5h22.755c2.762 0 5 2.239 5 5v5.767c0 2.761-2.238 5-5 5z" fill="#ffe8dc"/><g><g><path d="m239.107 133.261h-8.166c-2.762 0-5-2.238-5-5s2.238-5 5-5h8.166c2.762 0 5 2.238 5 5s-2.238 5-5 5z" fill="#ff4d4d"/></g><g><path d="m239.107 147.927h-8.166c-2.762 0-5-2.238-5-5s2.238-5 5-5h8.166c2.762 0 5 2.238 5 5s-2.238 5-5 5z" fill="#ff4d4d"/></g></g><path d="m284.91 175.21h-57.82c9.03-3.24 18.77-5 28.91-5s19.88 1.76 28.91 5z" fill="#b3b3ff"/></g><path d="m202.433 68.835c-2.762 0-5-2.238-5-5 0-3.492-2.841-6.333-6.333-6.333-2.762 0-5-2.238-5-5s2.238-5 5-5c3.492 0 6.333-2.842 6.333-6.334 0-2.762 2.238-5 5-5s5 2.238 5 5c0 3.492 2.841 6.334 6.333 6.334 2.762 0 5 2.238 5 5s-2.238 5-5 5c-3.492 0-6.333 2.841-6.333 6.333 0 2.762-2.239 5-5 5z" fill="#ff4d4d"/><path d="m383.678 461.167c-2.762 0-5-2.238-5-5 0-3.492-2.841-6.334-6.333-6.334-2.762 0-5-2.238-5-5s2.238-5 5-5c3.492 0 6.333-2.841 6.333-6.333 0-2.762 2.238-5 5-5s5 2.238 5 5c0 3.492 2.841 6.333 6.333 6.333 2.762 0 5 2.238 5 5s-2.238 5-5 5c-3.492 0-6.333 2.842-6.333 6.334 0 2.762-2.238 5-5 5z" fill="#ff4d4d"/><path d="m261.401 68.835c-2.762 0-5-2.238-5-5 0-3.492-2.841-6.333-6.333-6.333-2.762 0-5-2.238-5-5s2.238-5 5-5c3.492 0 6.333-2.842 6.333-6.334 0-2.762 2.238-5 5-5s5 2.238 5 5c0 3.492 2.842 6.334 6.334 6.334 2.762 0 5 2.238 5 5s-2.238 5-5 5c-3.492 0-6.334 2.841-6.334 6.333 0 2.762-2.238 5-5 5z" fill="#6c6cff"/><g fill="#ff9d33"><g><g><path d="m439.87 427.671c-2.762 0-5-2.238-5-5v-.15c0-2.762 2.238-5 5-5s5 2.238 5 5v.15c0 2.762-2.238 5-5 5z"/><path d="m439.87 455.455c-2.762 0-5-2.238-5-5v-.15c0-2.762 2.238-5 5-5s5 2.238 5 5v.15c0 2.762-2.238 5-5 5z"/></g><g><path d="m427.899 434.58c-.841 0-1.693-.213-2.476-.66l-.13-.074c-2.397-1.37-3.23-4.424-1.86-6.821 1.369-2.397 4.422-3.231 6.821-1.86l.13.074c2.397 1.37 3.23 4.424 1.86 6.821-.922 1.615-2.608 2.52-4.345 2.52z"/><path d="m451.961 448.473c-.85 0-1.712-.217-2.5-.674l-.13-.075c-2.39-1.384-3.206-4.442-1.822-6.832 1.383-2.391 4.445-3.206 6.832-1.822l.13.075c2.39 1.384 3.206 4.442 1.822 6.832-.927 1.601-2.606 2.496-4.332 2.496z"/></g><g><path d="m427.779 448.473c-1.727 0-3.405-.895-4.332-2.496-1.384-2.39-.567-5.448 1.822-6.832l.13-.075c2.389-1.386 5.449-.566 6.832 1.822 1.384 2.39.567 5.448-1.822 6.832l-.13.075c-.788.457-1.65.674-2.5.674z"/><path d="m451.841 434.58c-1.736 0-3.423-.905-4.346-2.521-1.37-2.397-.537-5.451 1.86-6.821l.13-.074c2.398-1.37 5.452-.536 6.821 1.86 1.37 2.397.537 5.451-1.86 6.821l-.13.074c-.782.448-1.634.661-2.475.661z"/></g></g><g><g><path d="m91.508 61.694c-2.762 0-5-2.238-5-5v-.149c0-2.762 2.238-5 5-5s5 2.238 5 5v.149c0 2.762-2.238 5-5 5z"/><path d="m91.508 89.479c-2.762 0-5-2.238-5-5v-.149c0-2.762 2.238-5 5-5s5 2.238 5 5v.149c0 2.761-2.238 5-5 5z"/></g><g><path d="m79.537 68.605c-.851 0-1.712-.217-2.5-.674l-.13-.075c-2.39-1.384-3.206-4.442-1.822-6.832 1.383-2.392 4.444-3.207 6.832-1.822l.13.075c2.39 1.384 3.206 4.442 1.822 6.832-.927 1.601-2.606 2.496-4.332 2.496z"/><path d="m103.599 82.496c-.851 0-1.712-.217-2.5-.674l-.13-.075c-2.39-1.384-3.206-4.442-1.822-6.832 1.384-2.392 4.445-3.206 6.832-1.822l.13.075c2.39 1.384 3.206 4.442 1.822 6.832-.927 1.602-2.607 2.496-4.332 2.496z"/></g><g><path d="m79.417 82.496c-1.727 0-3.405-.895-4.332-2.496-1.384-2.39-.567-5.448 1.822-6.832l.13-.075c2.39-1.386 5.45-.567 6.832 1.822 1.384 2.39.567 5.448-1.822 6.832l-.13.075c-.788.457-1.65.674-2.5.674z"/><path d="m103.479 68.605c-1.727 0-3.405-.895-4.332-2.496-1.384-2.39-.567-5.448 1.822-6.832l.13-.075c2.39-1.386 5.449-.567 6.832 1.822 1.384 2.39.567 5.448-1.822 6.832l-.13.075c-.789.457-1.651.674-2.5.674z"/></g></g></g></g><path d="m432.588 256c0 67.733-10.288 126.557-61.837 156.164-8.032 4.613-17.163 6.977-26.425 6.977h-176.652c-9.262 0-18.393-2.364-26.425-6.977-51.549-29.607-61.837-88.431-61.837-156.164s10.288-126.557 61.837-156.164c8.032-4.613 17.163-6.977 26.425-6.977h176.651c9.262 0 18.393 2.364 26.425 6.977 51.55 29.607 61.838 88.431 61.838 156.164z" fill="url(#SVGID_2_)"/></g></svg>