<svg id="Capa_1" enable-background="new 0 0 512 512" height="512" viewBox="0 0 512 512" width="512" xmlns="http://www.w3.org/2000/svg" xmlns:xlink="http://www.w3.org/1999/xlink"><linearGradient id="SVGID_1_" gradientUnits="userSpaceOnUse" x1="4.722" x2="389.966" y1="449.152" y2="-9.964"><stop offset="0" stop-color="#fff3ee" stop-opacity="0"/><stop offset=".2938" stop-color="#ffeade" stop-opacity=".373"/><stop offset=".7874" stop-color="#ffd6bb"/></linearGradient><linearGradient id="SVGID_2_" gradientUnits="userSpaceOnUse" x1="273.824" x2="273.824" y1="416.217" y2="110.134"><stop offset="0" stop-color="#ff4d4d" stop-opacity=".4"/><stop offset="1" stop-color="#ff4d4d" stop-opacity="0"/></linearGradient><g><g><path d="m451.798 43.963c-160.556-97.87-410.51-8.612-439.594 61.949-38.908 94.394 26.578 110.528 38.743 187.874 9.761 62.061-51.182 121.495-16.394 176.282 37.882 59.663 163.465 44.681 211.198 16.447 87.376-51.682 43.309-112.012 84.684-187.299 39.408-71.707 116.244-42.625 160.961-99.99 42.5-54.521 14.311-122.402-39.598-155.263z" fill="url(#SVGID_1_)"/></g><g><g><g><g><path d="m94.216 416.217-31.186 31.186c-5.95 5.95-15.598 5.95-21.548 0-5.95-5.95-5.95-15.598 0-21.548l31.186-31.186z" fill="#d9d9ff"/><path d="m471.925 180.591-99.375-68.915c-3.188-2.211-7.454-2.028-10.44.448-39.524 32.778-142.624 125.172-182.601 165.149-41.832 41.832-78.584 82.497-106.841 117.395l21.548 21.548c34.898-28.257 75.563-65.009 117.395-106.841 37.072-37.072 119.212-128.418 157.094-173.018l95.573 56.192c2.789 1.64 6.335 1.188 8.623-1.101 3.131-3.129 2.664-8.333-.976-10.857z" fill="#9494ff"/><path d="m337.131 134.402c0 41.063-33.296 74.348-74.358 74.348-3.253 0-6.462-.214-9.608-.62 29.208-26.566 60.182-54.116 83.956-74.712.01.32.01.652.01.984z" fill="#8383ff"/><path d="m211.608 309.373c-8.45 8.45-16.845 16.689-25.162 24.693l-31.628-31.628c8.005-8.317 16.243-16.712 24.693-25.162 18.602-18.602 50.855-48.543 84.037-78.555l26.622 26.622c-30.011 33.168-59.96 65.428-78.562 84.03z" fill="#d9d9ff"/><path d="m272.894 208.065c-3.306.449-6.687.685-10.121.685-3.253 0-6.452-.214-9.597-.62 1.38-1.252 2.771-2.514 4.173-3.788 1.027-.952 2.065-1.883 3.092-2.803 1.038-.942 2.076-1.872 3.113-2.814z" fill="#b3b3ff"/><path d="m196.168 261.046c-6.296 6.02-11.921 11.495-16.657 16.231-2.595 2.595-5.163 5.183-7.718 7.768l32.047 32.047c2.584-2.555 5.172-5.123 7.768-7.718 4.736-4.736 10.21-10.361 16.231-16.657z" fill="#9494ff"/><path d="m177.929 278.867c-3.24 3.251-6.446 6.492-9.624 9.726l31.986 31.986c3.233-3.178 6.475-6.384 9.726-9.624z" fill="#b3b3ff"/></g><g><circle cx="262.333" cy="120.501" fill="#ff4d4d" r="69.494"/><path d="m294.67 105.86h-17.695v-17.696c0-5.523-4.477-10-10-10h-9.282c-5.523 0-10 4.477-10 10v17.695h-17.695c-5.523 0-10 4.477-10 10v9.282c0 5.523 4.477 10 10 10h17.695v17.695c0 5.523 4.477 10 10 10h9.282c5.523 0 10-4.477 10-10v-17.695h17.695c5.523 0 10-4.477 10-10v-9.282c0-5.522-4.477-9.999-10-9.999z" fill="#fff"/></g><g fill="#2c27ff"><path d="m400.41 195.201h-18.583c-2.762 0-5 2.239-5 5s2.238 5 5 5h18.583c2.762 0 5-2.239 5-5s-2.238-5-5-5z"/><path d="m400.41 213.582h-58.583c-2.762 0-5 2.239-5 5s2.238 5 5 5h58.583c2.762 0 5-2.239 5-5s-2.238-5-5-5z"/><path d="m400.41 231.964h-58.583c-2.762 0-5 2.239-5 5s2.238 5 5 5h58.583c2.762 0 5-2.239 5-5s-2.238-5-5-5z"/></g></g><path d="m307.454 293.463c-2.762 0-5-2.239-5-5 0-3.492-2.842-6.333-6.334-6.333-2.762 0-5-2.239-5-5s2.238-5 5-5c3.492 0 6.334-2.841 6.334-6.333 0-2.761 2.238-5 5-5s5 2.239 5 5c0 3.492 2.841 6.333 6.333 6.333 2.762 0 5 2.239 5 5s-2.238 5-5 5c-3.492 0-6.333 2.841-6.333 6.333 0 2.761-2.238 5-5 5z" fill="#ff4d4d"/><path d="m360.494 87.121c-2.762 0-5-2.239-5-5 0-3.492-2.842-6.333-6.334-6.333-2.762 0-5-2.239-5-5s2.238-5 5-5c3.492 0 6.334-2.841 6.334-6.334 0-2.761 2.238-5 5-5s5 2.239 5 5c0 3.492 2.841 6.334 6.333 6.334 2.762 0 5 2.239 5 5s-2.238 5-5 5c-3.492 0-6.333 2.841-6.333 6.333 0 2.761-2.238 5-5 5z" fill="#ff4d4d"/><path d="m365.494 315.584c-2.762 0-5-2.239-5-5 0-3.492-2.842-6.333-6.334-6.333-2.762 0-5-2.239-5-5s2.238-5 5-5c3.492 0 6.334-2.841 6.334-6.333 0-2.761 2.238-5 5-5s5 2.239 5 5c0 3.492 2.841 6.333 6.333 6.333 2.762 0 5 2.239 5 5s-2.238 5-5 5c-3.492 0-6.333 2.841-6.333 6.333 0 2.761-2.238 5-5 5z" fill="#6c6cff"/><g fill="#ff9d33"><g><path d="m186.244 208.415c-2.762 0-5-2.239-5-5v-.15c0-2.761 2.238-5 5-5s5 2.239 5 5v.15c0 2.761-2.238 5-5 5z"/><path d="m186.244 236.199c-2.762 0-5-2.239-5-5v-.15c0-2.761 2.238-5 5-5s5 2.239 5 5v.15c0 2.761-2.238 5-5 5z"/></g><g><path d="m174.273 215.324c-.846 0-1.702-.215-2.488-.667l-.13-.075c-2.394-1.376-3.218-4.433-1.841-6.827 1.376-2.393 4.433-3.219 6.827-1.841l.13.075c2.394 1.376 3.218 4.433 1.841 6.827-.924 1.608-2.607 2.508-4.339 2.508z"/><path d="m198.336 229.216c-.84 0-1.691-.212-2.474-.659l-.131-.075c-2.398-1.369-3.232-4.423-1.863-6.821 1.368-2.397 4.421-3.232 6.82-1.863l.131.075c2.398 1.369 3.232 4.423 1.863 6.821-.921 1.616-2.61 2.522-4.346 2.522z"/></g><g><path d="m174.153 229.216c-1.731 0-3.414-.9-4.339-2.508-1.377-2.394-.553-5.451 1.841-6.827l.13-.075c2.396-1.378 5.45-.552 6.827 1.841 1.377 2.394.553 5.451-1.841 6.827l-.13.075c-.786.452-1.642.667-2.488.667z"/><path d="m198.215 215.324c-1.736 0-3.425-.906-4.347-2.522-1.369-2.398-.535-5.452 1.863-6.821l.131-.075c2.397-1.368 5.453-.535 6.82 1.863 1.369 2.398.535 5.452-1.863 6.821l-.131.075c-.781.446-1.633.659-2.473.659z"/></g></g><g fill="#6c6cff"><g><path d="m307.454 324.058c-2.762 0-5-2.239-5-5v-.15c0-2.761 2.238-5 5-5s5 2.239 5 5v.15c0 2.761-2.238 5-5 5z"/><path d="m307.454 351.842c-2.762 0-5-2.239-5-5v-.15c0-2.761 2.238-5 5-5s5 2.239 5 5v.15c0 2.761-2.238 5-5 5z"/></g><g><path d="m295.483 330.967c-.845 0-1.701-.214-2.486-.665l-.131-.075c-2.395-1.376-3.22-4.432-1.844-6.827 1.376-2.393 4.432-3.221 6.826-1.844l.131.075c2.395 1.376 3.22 4.432 1.844 6.827-.925 1.608-2.608 2.509-4.34 2.509z"/><path d="m319.545 344.859c-.851 0-1.712-.217-2.5-.674l-.13-.075c-2.39-1.384-3.206-4.442-1.822-6.833 1.384-2.39 4.445-3.205 6.832-1.822l.13.075c2.39 1.384 3.206 4.442 1.822 6.833-.927 1.601-2.606 2.496-4.332 2.496z"/></g><g><path d="m295.362 344.859c-1.732 0-3.415-.9-4.34-2.51-1.376-2.395-.551-5.451 1.844-6.827l.131-.075c2.396-1.375 5.45-.55 6.826 1.844 1.376 2.395.551 5.451-1.844 6.827l-.131.075c-.784.452-1.641.666-2.486.666z"/><path d="m319.425 330.967c-1.727 0-3.405-.895-4.332-2.496-1.384-2.39-.567-5.449 1.822-6.832l.13-.075c2.389-1.384 5.449-.567 6.832 1.822 1.384 2.39.567 5.449-1.822 6.833l-.13.075c-.788.456-1.651.673-2.5.673z"/></g></g></g></g><path d="m471.925 180.591-99.375-68.915c-3.188-2.211-7.454-2.028-10.44.448-39.524 32.778-142.624 125.172-182.601 165.149-41.832 41.832-78.584 82.497-106.841 117.395l21.548 21.548c34.898-28.257 75.563-65.009 117.395-106.841 37.072-37.072 119.212-128.418 157.094-173.018l95.573 56.192c2.789 1.64 6.335 1.188 8.623-1.101 3.131-3.129 2.664-8.333-.976-10.857z" fill="url(#SVGID_2_)"/></g></svg>