<svg id="Capa_1" enable-background="new 0 0 512 512" height="512" viewBox="0 0 512 512" width="512" xmlns="http://www.w3.org/2000/svg" xmlns:xlink="http://www.w3.org/1999/xlink"><linearGradient id="SVGID_1_" gradientUnits="userSpaceOnUse" x1="23.821" x2="459.531" y1="343.269" y2="91.711"><stop offset="0" stop-color="#fff" stop-opacity="0"/><stop offset=".2532" stop-color="#eef" stop-opacity=".403"/><stop offset=".629" stop-color="#d9d9ff"/></linearGradient><linearGradient id="SVGID_2_" gradientUnits="userSpaceOnUse" x1="256" x2="256" y1="444.511" y2="67.489"><stop offset="0" stop-color="#ff4d4d" stop-opacity=".4"/><stop offset="1" stop-color="#ff4d4d" stop-opacity="0"/></linearGradient><g><g><path d="m16.074 302.88c18.727 64.003 72.707 194.564 163.922 182.844 91.486-11.754 55.758-129.724 139.508-145.893 36.867-7.118 61.857 56.689 98.806 54.704 47.588-2.557 71.81-49.663 85.108-89.264 28.197-83.968-14.029-226.352-112.858-251.011-86.245-21.519-96.332 83.855-171.322 53.248-42.149-17.203-37.938-68.576-89.272-78.942-155.299-31.36-138.811 189.15-113.892 274.314z" fill="url(#SVGID_1_)"/></g><g><g><g><g><path d="m335.271 99.721-60.693-28.135c-11.784-5.463-25.374-5.463-37.157 0l-60.685 28.132c-41.295 19.143-74.195 53.104-90.821 95.475-8.33 21.229-12.8 44.397-12.545 68.64 1.054 100.391 82.234 180.678 182.631 180.678 100.869-.001 182.639-81.771 182.639-182.64 0-23.733-4.527-46.408-12.765-67.209-16.686-42.134-49.489-75.881-90.604-94.941z" fill="#ffab66"/><g><g><g><path d="m390.047 206.308 5.203-2.856c2.731-1.499 3.73-4.929 2.231-7.66l-24.265-44.203c-1.499-2.731-4.929-3.73-7.66-2.23l-5.203 2.856c-2.731 1.499-3.73 4.929-2.231 7.66l24.265 44.203c1.5 2.731 4.929 3.73 7.66 2.23z" fill="#ff8b00"/></g><g><path d="m358.886 373.53 4.828 3.453c2.534 1.812 6.058 1.227 7.87-1.307l29.333-41.015c1.812-2.534 1.227-6.058-1.307-7.87l-4.828-3.453c-2.534-1.812-6.058-1.227-7.87 1.307l-29.333 41.015c-1.812 2.534-1.227 6.058 1.307 7.87z" fill="#ff8b00"/></g></g><g><g><path d="m121.953 206.308-5.203-2.856c-2.731-1.499-3.73-4.929-2.231-7.66l24.265-44.203c1.499-2.731 4.929-3.73 7.66-2.23l5.203 2.856c2.731 1.499 3.73 4.929 2.231 7.66l-24.265 44.203c-1.499 2.731-4.929 3.73-7.66 2.23z" fill="#ff8b00"/></g><g><path d="m153.114 373.53-4.827 3.453c-2.534 1.812-6.058 1.227-7.87-1.307l-29.333-41.015c-1.812-2.534-1.227-6.058 1.307-7.87l4.828-3.453c2.534-1.812 6.058-1.227 7.87 1.307l29.333 41.015c1.811 2.534 1.226 6.058-1.308 7.87z" fill="#ff8b00"/></g></g></g><g><path d="m320.827 328.181h-129.654c-5.514 0-10-4.486-10-10v-25.36c0-5.514 4.486-10 10-10h129.654c5.514 0 10 4.486 10 10v25.36c0 5.513-4.486 10-10 10zm-129.654-35.361v25.36h129.66l-.006-25.36z" fill="#ff7300"/></g><g><g><path d="m315.292 358.9h-118.583c-2.762 0-5-2.238-5-5s2.238-5 5-5h118.583c2.762 0 5 2.238 5 5s-2.239 5-5 5z" fill="#ff7300"/></g><g><path d="m295.292 379.62h-55.944c-2.762 0-5-2.238-5-5s2.238-5 5-5h55.944c2.762 0 5 2.238 5 5 0 2.761-2.239 5-5 5z" fill="#ff7300"/></g><g><path d="m315.292 400.339h-73.444c-2.762 0-5-2.238-5-5s2.238-5 5-5h73.444c2.762 0 5 2.238 5 5s-2.239 5-5 5z" fill="#ff7300"/></g></g><g><path d="m323.438 134.441c-.73 0-1.47-.16-2.171-.499l-51.635-24.937c-8.662-4.184-18.601-4.184-27.263 0l-51.628 24.934c-2.49 1.204-5.477.157-6.677-2.327-1.201-2.487-.159-5.477 2.327-6.677l51.628-24.934c11.428-5.52 24.534-5.52 35.962 0l51.635 24.936c2.486 1.201 3.528 4.19 2.327 6.678-.862 1.785-2.647 2.826-4.505 2.826z" fill="#9494ff"/></g></g><path d="m223.446 394.456-11.092-20.788c-1.506-2.823-5.552-2.823-7.058 0l-11.092 20.788c-1.422 2.664.509 5.883 3.529 5.883h22.184c3.02 0 4.95-3.218 3.529-5.883z" fill="#ff4d4d"/><g><path d="m315.292 379.694c-2.762 0-5-2.238-5-5v-.149c0-2.762 2.238-5 5-5s5 2.238 5 5v.149c0 2.762-2.239 5-5 5z" fill="#ff7300"/></g></g><g><g><path d="m212.452 159.47c-2.762 0-5-2.239-5-5v-.115c0-2.761 2.238-5 5-5s5 2.239 5 5v.115c0 2.761-2.238 5-5 5z" fill="#6c6cff"/></g><g><path d="m212.452 178.616c-2.762 0-5-2.239-5-5v-.116c0-2.761 2.238-5 5-5s5 2.239 5 5v.115c0 2.762-2.238 5.001-5 5.001z" fill="#6c6cff"/></g><g><path d="m234.226 149.897c-2.762 0-5-2.239-5-5v-.115c0-2.761 2.238-5 5-5s5 2.239 5 5v.115c0 2.761-2.238 5-5 5z" fill="#6c6cff"/></g><g><path d="m234.226 169.043c-2.762 0-5-2.239-5-5v-.115c0-2.761 2.238-5 5-5s5 2.239 5 5v.115c0 2.761-2.238 5-5 5z" fill="#6c6cff"/></g><g><path d="m256 140.324c-2.762 0-5-2.239-5-5v-.115c0-2.761 2.238-5 5-5s5 2.239 5 5v.115c0 2.761-2.238 5-5 5z" fill="#6c6cff"/></g><g><path d="m256 159.47c-2.762 0-5-2.239-5-5v-.115c0-2.761 2.238-5 5-5s5 2.239 5 5v.115c0 2.761-2.238 5-5 5z" fill="#6c6cff"/></g><g><path d="m256 178.616c-2.762 0-5-2.239-5-5v-.116c0-2.761 2.238-5 5-5s5 2.239 5 5v.115c0 2.762-2.238 5.001-5 5.001z" fill="#6c6cff"/></g><g><path d="m277.774 149.897c-2.762 0-5-2.239-5-5v-.115c0-2.761 2.238-5 5-5s5 2.239 5 5v.115c0 2.761-2.238 5-5 5z" fill="#6c6cff"/></g><g><path d="m277.774 169.043c-2.762 0-5-2.239-5-5v-.115c0-2.761 2.238-5 5-5s5 2.239 5 5v.115c0 2.761-2.238 5-5 5z" fill="#6c6cff"/></g><g><path d="m299.548 159.47c-2.762 0-5-2.239-5-5v-.115c0-2.761 2.238-5 5-5s5 2.239 5 5v.115c0 2.761-2.238 5-5 5z" fill="#6c6cff"/></g><g><path d="m299.548 178.616c-2.762 0-5-2.239-5-5v-.116c0-2.761 2.238-5 5-5s5 2.239 5 5v.115c0 2.762-2.238 5.001-5 5.001z" fill="#6c6cff"/></g><g><path d="m212.452 197.762c-2.762 0-5-2.239-5-5v-.115c0-2.761 2.238-5 5-5s5 2.239 5 5v.115c0 2.761-2.238 5-5 5z" fill="#6c6cff"/></g><g><path d="m234.226 188.189c-2.762 0-5-2.239-5-5v-.115c0-2.761 2.238-5 5-5s5 2.239 5 5v.115c0 2.761-2.238 5-5 5z" fill="#6c6cff"/></g><g><path d="m234.226 207.335c-2.762 0-5-2.239-5-5v-.115c0-2.761 2.238-5 5-5s5 2.239 5 5v.115c0 2.761-2.238 5-5 5z" fill="#6c6cff"/></g><g><path d="m256 197.762c-2.762 0-5-2.239-5-5v-.115c0-2.761 2.238-5 5-5s5 2.239 5 5v.115c0 2.761-2.238 5-5 5z" fill="#6c6cff"/></g><g><path d="m256 216.908c-2.762 0-5-2.239-5-5v-.115c0-2.761 2.238-5 5-5s5 2.239 5 5v.115c0 2.761-2.238 5-5 5z" fill="#6c6cff"/></g><g><path d="m277.774 188.189c-2.762 0-5-2.239-5-5v-.115c0-2.761 2.238-5 5-5s5 2.239 5 5v.115c0 2.761-2.238 5-5 5z" fill="#6c6cff"/></g><g><path d="m277.774 207.335c-2.762 0-5-2.239-5-5v-.115c0-2.761 2.238-5 5-5s5 2.239 5 5v.115c0 2.761-2.238 5-5 5z" fill="#6c6cff"/></g><g><path d="m299.548 197.762c-2.762 0-5-2.239-5-5v-.115c0-2.761 2.238-5 5-5s5 2.239 5 5v.115c0 2.761-2.238 5-5 5z" fill="#6c6cff"/></g></g><path d="m335.271 99.721-60.693-28.135c-11.784-5.463-25.374-5.463-37.157 0l-60.685 28.132c-41.295 19.143-74.195 53.104-90.821 95.475-8.33 21.229-12.8 44.397-12.545 68.64 1.054 100.391 82.234 180.678 182.631 180.678 100.869-.001 182.639-81.771 182.639-182.64 0-23.733-4.527-46.408-12.765-67.209-16.686-42.134-49.489-75.881-90.604-94.941z" fill="url(#SVGID_2_)"/><g fill="#fff"><path d="m428.254 168.484-45.315 24.875c-2.731 1.499-6.161.501-7.66-2.231l-10.047-18.303c-1.499-2.731-.501-6.161 2.231-7.66l45.315-24.875c2.731-1.499 6.161-.501 7.66 2.231l10.048 18.303c1.497 2.731.499 6.16-2.232 7.66z"/><path d="m409.527 391.585-42.047-30.071c-2.534-1.812-3.119-5.336-1.307-7.87l12.146-16.983c1.812-2.534 5.336-3.119 7.87-1.307l42.047 30.071c2.534 1.812 3.119 5.336 1.307 7.87l-12.146 16.983c-1.812 2.534-5.336 3.119-7.87 1.307z"/><path d="m83.747 168.484 45.315 24.875c2.731 1.499 6.161.501 7.66-2.231l10.047-18.303c1.499-2.731.501-6.161-2.231-7.66l-45.315-24.875c-2.731-1.499-6.161-.501-7.66 2.231l-10.048 18.303c-1.498 2.731-.5 6.16 2.232 7.66z"/><path d="m102.473 391.585 42.047-30.071c2.534-1.812 3.119-5.336 1.307-7.87l-12.146-16.983c-1.812-2.534-5.336-3.119-7.87-1.307l-42.047 30.071c-2.534 1.812-3.119 5.336-1.307 7.87l12.146 16.983c1.813 2.534 5.336 3.119 7.87 1.307z"/></g><g fill="#6c6cff"><g><path d="m397.857 435.693c-2.762 0-5-2.238-5-5v-.15c0-2.762 2.238-5 5-5s5 2.238 5 5v.15c0 2.762-2.238 5-5 5z"/><path d="m397.857 463.478c-2.762 0-5-2.238-5-5v-.149c0-2.762 2.238-5 5-5s5 2.238 5 5v.149c0 2.761-2.238 5-5 5z"/></g><g><path d="m385.887 442.604c-.851 0-1.712-.217-2.5-.674l-.13-.075c-2.39-1.384-3.206-4.442-1.822-6.832 1.384-2.392 4.445-3.206 6.832-1.822l.13.075c2.39 1.384 3.206 4.442 1.822 6.832-.927 1.601-2.607 2.496-4.332 2.496z"/><path d="m409.948 456.495c-.85 0-1.712-.217-2.5-.674l-.13-.075c-2.39-1.384-3.206-4.442-1.822-6.832 1.383-2.391 4.445-3.206 6.832-1.822l.13.075c2.39 1.384 3.206 4.442 1.822 6.832-.926 1.602-2.606 2.496-4.332 2.496z"/></g><g><path d="m385.767 456.495c-1.727 0-3.405-.895-4.332-2.496-1.384-2.39-.567-5.448 1.822-6.832l.13-.075c2.39-1.386 5.449-.567 6.832 1.822 1.384 2.39.567 5.448-1.822 6.832l-.13.075c-.788.457-1.651.674-2.5.674z"/><path d="m409.828 442.604c-1.727 0-3.405-.895-4.332-2.496-1.384-2.39-.567-5.448 1.822-6.832l.13-.075c2.391-1.386 5.449-.567 6.832 1.822 1.384 2.39.567 5.448-1.822 6.832l-.13.075c-.788.457-1.65.674-2.5.674z"/></g></g><g fill="#ff9d33"><g><path d="m45.834 334.989c-2.762 0-5-2.238-5-5v-.15c0-2.762 2.238-5 5-5s5 2.238 5 5v.15c0 2.762-2.238 5-5 5z"/><path d="m45.834 362.773c-2.762 0-5-2.238-5-5v-.15c0-2.762 2.238-5 5-5s5 2.238 5 5v.15c0 2.762-2.238 5-5 5z"/></g><g><path d="m33.863 341.899c-.851 0-1.712-.217-2.5-.674l-.13-.075c-2.39-1.384-3.206-4.442-1.822-6.832 1.384-2.391 4.445-3.206 6.832-1.822l.13.075c2.39 1.384 3.206 4.442 1.822 6.832-.926 1.602-2.606 2.496-4.332 2.496z"/><path d="m57.925 355.791c-.851 0-1.712-.217-2.5-.674l-.13-.075c-2.39-1.384-3.206-4.442-1.822-6.832 1.384-2.392 4.445-3.207 6.832-1.822l.13.075c2.39 1.384 3.206 4.442 1.822 6.832-.927 1.602-2.607 2.496-4.332 2.496z"/></g><g><path d="m33.743 355.791c-1.727 0-3.405-.895-4.332-2.496-1.384-2.39-.567-5.448 1.822-6.832l.13-.075c2.39-1.386 5.449-.567 6.832 1.822 1.384 2.39.567 5.448-1.822 6.832l-.13.075c-.788.457-1.65.674-2.5.674z"/><path d="m57.805 341.899c-1.727 0-3.405-.895-4.332-2.496-1.384-2.39-.567-5.448 1.822-6.832l.13-.075c2.391-1.385 5.449-.567 6.832 1.822 1.384 2.39.567 5.448-1.822 6.832l-.13.075c-.788.458-1.651.674-2.5.674z"/></g></g><path d="m208.825 62.891c-2.762 0-5-2.238-5-5 0-3.492-2.842-6.333-6.334-6.333-2.762 0-5-2.238-5-5s2.238-5 5-5c3.492 0 6.334-2.841 6.334-6.333 0-2.762 2.238-5 5-5s5 2.238 5 5c0 3.492 2.841 6.333 6.333 6.333 2.762 0 5 2.238 5 5s-2.238 5-5 5c-3.492 0-6.333 2.841-6.333 6.333 0 2.761-2.238 5-5 5z" fill="#6c6cff"/><path d="m168.448 80.136c-2.762 0-5-2.238-5-5 0-3.492-2.841-6.333-6.333-6.333-2.762 0-5-2.238-5-5s2.238-5 5-5c3.492 0 6.333-2.842 6.333-6.334 0-2.762 2.238-5 5-5s5 2.238 5 5c0 3.492 2.841 6.334 6.333 6.334 2.762 0 5 2.238 5 5s-2.238 5-5 5c-3.492 0-6.333 2.841-6.333 6.333 0 2.762-2.238 5-5 5z" fill="#ff4d4d"/><path d="m449.974 432.749c-2.762 0-5-2.238-5-5 0-3.492-2.841-6.333-6.333-6.333-2.762 0-5-2.238-5-5s2.238-5 5-5c3.492 0 6.333-2.842 6.333-6.334 0-2.762 2.238-5 5-5s5 2.238 5 5c0 3.492 2.841 6.334 6.333 6.334 2.762 0 5 2.238 5 5s-2.238 5-5 5c-3.492 0-6.333 2.841-6.333 6.333 0 2.762-2.239 5-5 5z" fill="#ff9d33"/></g></g></g></svg>