<svg id="Capa_1" enable-background="new 0 0 512 512" height="512" viewBox="0 0 512 512" width="512" xmlns="http://www.w3.org/2000/svg" xmlns:xlink="http://www.w3.org/1999/xlink"><linearGradient id="SVGID_1_" gradientUnits="userSpaceOnUse" x1="0" x2="512" y1="256" y2="256"><stop offset="0" stop-color="#ffd9d9" stop-opacity="0"/><stop offset=".9981" stop-color="#ffb3b3"/></linearGradient><linearGradient id="lg1"><stop offset="0" stop-color="#ff4d4d" stop-opacity=".4"/><stop offset="1" stop-color="#ff4d4d" stop-opacity="0"/></linearGradient><linearGradient id="SVGID_2_" gradientUnits="userSpaceOnUse" x1="229.226" x2="229.226" xlink:href="#lg1" y1="377.986" y2="269.942"/><linearGradient id="SVGID_3_" gradientUnits="userSpaceOnUse" x1="256" x2="256" xlink:href="#lg1" y1="234.599" y2="95.5"/><g><g><path d="m418.32 2.5c-55.666-9.521-178.298 12.183-200.004 105.017-14.432 61.722-14.007 112.075-50.427 113.02-21.67.562-32.97-44.31-62.889-48.001-39.047-4.817-66.145 27.695-83.057 57.138-37.205 64.772-25.571 174.918 23.354 228.632 118.488 130.086 259.197-5.952 319.358-112.309 38.585-68.213 125.637-123.351 143.767-200.248 15.177-64.376-18.503-131.003-90.102-143.249z" fill="url(#SVGID_1_)"/></g><g><g><g><g><g><g><path d="m446.408 95.5h-380.816c-2.909 0-5.693 1.251-7.579 3.466-15.156 17.804-24.312 40.87-24.312 66.083 0 25.214 9.156 48.28 24.312 66.083 1.886 2.215 4.67 3.466 7.579 3.466h380.815c2.909 0 5.693-1.251 7.579-3.466 15.156-17.803 24.312-40.869 24.312-66.083 0-25.213-9.156-48.279-24.312-66.083-1.885-2.215-4.669-3.466-7.578-3.466z" fill="#ffab66"/><path d="m320.895 206.934h-129.79c-5.523 0-10-4.477-10-10v-63.769c0-5.523 4.477-10 10-10h129.79c5.523 0 10 4.477 10 10v63.769c0 5.522-4.477 10-10 10z" fill="#ff9d33"/><g><g><g><g><path d="m355.17 141.388c-2.762 0-5-2.239-5-5v-.115c0-2.761 2.238-5 5-5s5 2.239 5 5v.115c0 2.761-2.238 5-5 5z" fill="#ff7300"/></g><g><path d="m355.17 160.534c-2.762 0-5-2.239-5-5v-.115c0-2.761 2.238-5 5-5s5 2.239 5 5v.115c0 2.761-2.238 5-5 5z" fill="#ff7300"/></g><g><path d="m355.17 179.68c-2.762 0-5-2.239-5-5v-.115c0-2.761 2.238-5 5-5s5 2.239 5 5v.115c0 2.761-2.238 5-5 5z" fill="#ff7300"/></g><g><path d="m355.17 198.826c-2.762 0-5-2.239-5-5v-.115c0-2.761 2.238-5 5-5s5 2.239 5 5v.115c0 2.761-2.238 5-5 5z" fill="#ff7300"/></g></g><g><g><path d="m376.944 150.961c-2.762 0-5-2.239-5-5v-.115c0-2.761 2.238-5 5-5s5 2.239 5 5v.115c0 2.761-2.238 5-5 5z" fill="#ff7300"/></g><g><path d="m376.944 170.107c-2.762 0-5-2.239-5-5v-.115c0-2.761 2.238-5 5-5s5 2.239 5 5v.115c0 2.761-2.238 5-5 5z" fill="#ff7300"/></g><g><path d="m376.944 189.253c-2.762 0-5-2.239-5-5v-.115c0-2.761 2.238-5 5-5s5 2.239 5 5v.115c0 2.761-2.238 5-5 5z" fill="#ff7300"/></g></g><g><g><path d="m398.718 141.388c-2.762 0-5-2.239-5-5v-.115c0-2.761 2.238-5 5-5s5 2.239 5 5v.115c0 2.761-2.238 5-5 5z" fill="#ff7300"/></g><g><path d="m398.718 160.534c-2.762 0-5-2.239-5-5v-.115c0-2.761 2.238-5 5-5s5 2.239 5 5v.115c0 2.761-2.238 5-5 5z" fill="#ff7300"/></g><g><path d="m398.718 179.68c-2.762 0-5-2.239-5-5v-.115c0-2.761 2.238-5 5-5s5 2.239 5 5v.115c0 2.761-2.238 5-5 5z" fill="#ff7300"/></g><g><path d="m398.718 198.826c-2.762 0-5-2.239-5-5v-.115c0-2.761 2.238-5 5-5s5 2.239 5 5v.115c0 2.761-2.238 5-5 5z" fill="#ff7300"/></g></g><g><g><path d="m420.492 150.961c-2.762 0-5-2.239-5-5v-.115c0-2.761 2.238-5 5-5s5 2.239 5 5v.115c0 2.761-2.238 5-5 5z" fill="#ff7300"/></g><g><path d="m420.492 170.107c-2.762 0-5-2.239-5-5v-.115c0-2.761 2.238-5 5-5s5 2.239 5 5v.115c0 2.761-2.238 5-5 5z" fill="#ff7300"/></g><g><path d="m420.492 189.253c-2.762 0-5-2.239-5-5v-.115c0-2.761 2.238-5 5-5s5 2.239 5 5v.115c0 2.761-2.238 5-5 5z" fill="#ff7300"/></g></g></g><g><g><g><path d="m156.83 141.388c2.762 0 5-2.239 5-5v-.115c0-2.761-2.238-5-5-5s-5 2.239-5 5v.115c0 2.761 2.238 5 5 5z" fill="#ff7300"/></g><g><path d="m156.83 160.534c2.762 0 5-2.239 5-5v-.115c0-2.761-2.238-5-5-5s-5 2.239-5 5v.115c0 2.761 2.238 5 5 5z" fill="#ff7300"/></g><g><path d="m156.83 179.68c2.762 0 5-2.239 5-5v-.115c0-2.761-2.238-5-5-5s-5 2.239-5 5v.115c0 2.761 2.238 5 5 5z" fill="#ff7300"/></g><g><path d="m156.83 198.826c2.762 0 5-2.239 5-5v-.115c0-2.761-2.238-5-5-5s-5 2.239-5 5v.115c0 2.761 2.238 5 5 5z" fill="#ff7300"/></g></g><g><g><path d="m135.056 150.961c2.762 0 5-2.239 5-5v-.115c0-2.761-2.238-5-5-5s-5 2.239-5 5v.115c0 2.761 2.238 5 5 5z" fill="#ff7300"/></g><g><path d="m135.056 170.107c2.762 0 5-2.239 5-5v-.115c0-2.761-2.238-5-5-5s-5 2.239-5 5v.115c0 2.761 2.238 5 5 5z" fill="#ff7300"/></g><g><path d="m135.056 189.253c2.762 0 5-2.239 5-5v-.115c0-2.761-2.238-5-5-5s-5 2.239-5 5v.115c0 2.761 2.238 5 5 5z" fill="#ff7300"/></g></g><g><g><path d="m113.282 141.388c2.762 0 5-2.239 5-5v-.115c0-2.761-2.238-5-5-5s-5 2.239-5 5v.115c0 2.761 2.238 5 5 5z" fill="#ff7300"/></g><g><path d="m113.282 160.534c2.762 0 5-2.239 5-5v-.115c0-2.761-2.238-5-5-5s-5 2.239-5 5v.115c0 2.761 2.238 5 5 5z" fill="#ff7300"/></g><g><path d="m113.282 179.68c2.762 0 5-2.239 5-5v-.115c0-2.761-2.238-5-5-5s-5 2.239-5 5v.115c0 2.761 2.238 5 5 5z" fill="#ff7300"/></g><g><path d="m113.282 198.826c2.762 0 5-2.239 5-5v-.115c0-2.761-2.238-5-5-5s-5 2.239-5 5v.115c0 2.761 2.238 5 5 5z" fill="#ff7300"/></g></g><g><g><path d="m91.508 150.961c2.762 0 5-2.239 5-5v-.115c0-2.761-2.238-5-5-5s-5 2.239-5 5v.115c0 2.761 2.238 5 5 5z" fill="#ff7300"/></g><g><path d="m91.508 170.107c2.762 0 5-2.239 5-5v-.115c0-2.761-2.238-5-5-5s-5 2.239-5 5v.115c0 2.761 2.238 5 5 5z" fill="#ff7300"/></g><g><path d="m91.508 189.253c2.762 0 5-2.239 5-5v-.115c0-2.761-2.238-5-5-5s-5 2.239-5 5v.115c0 2.761 2.238 5 5 5z" fill="#ff7300"/></g></g></g></g></g></g><g><g><path d="m392.667 377.986h-326.882c-5.523 0-10-4.477-10-10v-88.044c0-5.523 4.477-10 10-10h326.882c5.523 0 10 4.477 10 10v88.044c0 5.523-4.477 10-10 10z" fill="#ffab66"/><path d="m287.931 377.986h-117.41c-8.284 0-15-6.716-15-15v-78.044c0-8.284 6.716-15 15-15h117.41c8.284 0 15 6.716 15 15v78.044c0 8.284-6.716 15-15 15z" fill="#ff9d33"/><g><g><g><path d="m185.678 300.302c-2.762 0-5-2.239-5-5v-.115c0-2.761 2.238-5 5-5s5 2.239 5 5v.115c0 2.762-2.238 5-5 5z" fill="#ff7300"/></g><g><path d="m185.678 319.448c-2.762 0-5-2.239-5-5v-.115c0-2.761 2.238-5 5-5s5 2.239 5 5v.115c0 2.762-2.238 5-5 5z" fill="#ff7300"/></g><g><path d="m185.678 338.595c-2.762 0-5-2.239-5-5v-.115c0-2.761 2.238-5 5-5s5 2.239 5 5v.115c0 2.761-2.238 5-5 5z" fill="#ff7300"/></g><g><path d="m185.678 357.741c-2.762 0-5-2.239-5-5v-.115c0-2.761 2.238-5 5-5s5 2.239 5 5v.115c0 2.761-2.238 5-5 5z" fill="#ff7300"/></g></g><g><g><path d="m207.452 309.875c-2.762 0-5-2.239-5-5v-.115c0-2.761 2.238-5 5-5s5 2.239 5 5v.115c0 2.762-2.238 5-5 5z" fill="#ff7300"/></g><g><path d="m207.452 329.021c-2.762 0-5-2.239-5-5v-.115c0-2.761 2.238-5 5-5s5 2.239 5 5v.115c0 2.762-2.238 5-5 5z" fill="#ff7300"/></g><g><path d="m207.452 348.168c-2.762 0-5-2.239-5-5v-.115c0-2.761 2.238-5 5-5s5 2.239 5 5v.115c0 2.761-2.238 5-5 5z" fill="#ff7300"/></g></g><g><g><path d="m229.226 300.302c-2.762 0-5-2.239-5-5v-.115c0-2.761 2.238-5 5-5s5 2.239 5 5v.115c0 2.762-2.238 5-5 5z" fill="#ff7300"/></g><g><path d="m229.226 319.448c-2.762 0-5-2.239-5-5v-.115c0-2.761 2.238-5 5-5s5 2.239 5 5v.115c0 2.762-2.238 5-5 5z" fill="#ff7300"/></g><g><path d="m229.226 338.595c-2.762 0-5-2.239-5-5v-.115c0-2.761 2.238-5 5-5s5 2.239 5 5v.115c0 2.761-2.238 5-5 5z" fill="#ff7300"/></g><g><path d="m229.226 357.741c-2.762 0-5-2.239-5-5v-.115c0-2.761 2.238-5 5-5s5 2.239 5 5v.115c0 2.761-2.238 5-5 5z" fill="#ff7300"/></g></g><g><g><path d="m251 309.875c-2.762 0-5-2.239-5-5v-.115c0-2.761 2.238-5 5-5s5 2.239 5 5v.115c0 2.762-2.238 5-5 5z" fill="#ff7300"/></g><g><path d="m251 329.021c-2.762 0-5-2.239-5-5v-.115c0-2.761 2.238-5 5-5s5 2.239 5 5v.115c0 2.762-2.238 5-5 5z" fill="#ff7300"/></g><g><path d="m251 348.168c-2.762 0-5-2.239-5-5v-.115c0-2.761 2.238-5 5-5s5 2.239 5 5v.115c0 2.761-2.238 5-5 5z" fill="#ff7300"/></g></g><g><g><path d="m272.774 300.302c-2.762 0-5-2.239-5-5v-.115c0-2.761 2.238-5 5-5s5 2.239 5 5v.115c0 2.762-2.238 5-5 5z" fill="#ff7300"/></g><g><path d="m272.774 319.448c-2.762 0-5-2.239-5-5v-.115c0-2.761 2.238-5 5-5s5 2.239 5 5v.115c0 2.762-2.238 5-5 5z" fill="#ff7300"/></g><g><path d="m272.774 338.595c-2.762 0-5-2.239-5-5v-.115c0-2.761 2.238-5 5-5s5 2.239 5 5v.115c0 2.761-2.238 5-5 5z" fill="#ff7300"/></g><g><path d="m272.774 357.741c-2.762 0-5-2.239-5-5v-.115c0-2.761 2.238-5 5-5s5 2.239 5 5v.115c0 2.761-2.238 5-5 5z" fill="#ff7300"/></g></g></g></g><path d="m392.667 377.986h-326.882c-5.523 0-10-4.477-10-10v-88.044c0-5.523 4.477-10 10-10h326.882c5.523 0 10 4.477 10 10v88.044c0 5.523-4.477 10-10 10z" fill="url(#SVGID_2_)"/><g><circle cx="408.805" cy="367.006" fill="#ff4d4d" r="69.494"/><path d="m441.142 352.365h-17.695v-17.695c0-5.523-4.477-10-10-10h-9.282c-5.523 0-10 4.477-10 10v17.695h-17.695c-5.523 0-10 4.477-10 10v9.282c0 5.523 4.477 10 10 10h17.695v17.695c0 5.523 4.477 10 10 10h9.282c5.523 0 10-4.477 10-10v-17.695h17.695c5.523 0 10-4.477 10-10v-9.282c0-5.523-4.477-10-10-10z" fill="#fff"/></g></g></g></g><g fill="#2c27ff"><path d="m322.223 401.01h-18.583c-2.762 0-5 2.239-5 5s2.238 5 5 5h18.583c2.762 0 5-2.239 5-5s-2.239-5-5-5z"/><path d="m322.223 419.392h-58.583c-2.762 0-5 2.239-5 5s2.238 5 5 5h58.583c2.762 0 5-2.239 5-5s-2.239-5-5-5z"/><path d="m322.223 437.773h-58.583c-2.762 0-5 2.239-5 5s2.238 5 5 5h58.583c2.762 0 5-2.239 5-5s-2.239-5-5-5z"/></g><g fill="#ff4d4d"><g><path d="m216.871 427.683c-2.762 0-5-2.239-5-5v-.15c0-2.761 2.238-5 5-5s5 2.239 5 5v.15c0 2.761-2.238 5-5 5z"/><path d="m216.871 455.467c-2.762 0-5-2.239-5-5v-.15c0-2.761 2.238-5 5-5s5 2.239 5 5v.15c0 2.761-2.238 5-5 5z"/></g><g><path d="m204.9 434.592c-.845 0-1.701-.214-2.486-.666l-.131-.075c-2.395-1.376-3.22-4.432-1.844-6.827 1.376-2.394 4.432-3.22 6.826-1.844l.131.075c2.395 1.376 3.22 4.432 1.844 6.827-.925 1.609-2.608 2.51-4.34 2.51z"/><path d="m228.962 448.484c-.851 0-1.712-.217-2.5-.674l-.13-.075c-2.39-1.384-3.206-4.442-1.822-6.833 1.384-2.39 4.445-3.204 6.832-1.822l.13.075c2.39 1.384 3.206 4.442 1.822 6.833-.927 1.601-2.606 2.496-4.332 2.496z"/></g><g><path d="m204.779 448.484c-1.732 0-3.415-.9-4.34-2.51-1.376-2.395-.551-5.451 1.844-6.827l.131-.075c2.396-1.375 5.45-.55 6.826 1.844 1.376 2.395.551 5.451-1.844 6.827l-.131.075c-.784.452-1.641.666-2.486.666z"/><path d="m228.842 434.592c-1.727 0-3.405-.895-4.332-2.496-1.384-2.39-.567-5.449 1.822-6.833l.13-.075c2.391-1.384 5.449-.568 6.832 1.822 1.384 2.39.567 5.449-1.822 6.833l-.13.075c-.788.457-1.651.674-2.5.674z"/></g></g><g fill="#ff9d33"><g><path d="m197.452 46.149c-2.762 0-5-2.239-5-5v-.15c0-2.761 2.238-5 5-5s5 2.239 5 5v.15c0 2.761-2.238 5-5 5z"/><path d="m197.452 73.933c-2.762 0-5-2.239-5-5v-.15c0-2.761 2.238-5 5-5s5 2.239 5 5v.15c0 2.761-2.238 5-5 5z"/></g><g><path d="m185.481 53.058c-.846 0-1.702-.215-2.488-.667l-.13-.075c-2.394-1.376-3.218-4.433-1.841-6.827 1.377-2.393 4.431-3.218 6.827-1.841l.13.075c2.393 1.376 3.218 4.433 1.841 6.827-.924 1.608-2.607 2.508-4.339 2.508z"/><path d="m209.543 66.95c-.846 0-1.702-.215-2.488-.667l-.13-.075c-2.394-1.377-3.218-4.433-1.841-6.827 1.376-2.393 4.432-3.219 6.827-1.841l.13.075c2.394 1.376 3.218 4.433 1.841 6.827-.925 1.608-2.608 2.508-4.339 2.508z"/></g><g><path d="m185.361 66.95c-1.731 0-3.414-.9-4.339-2.508-1.377-2.394-.553-5.451 1.841-6.827l.13-.075c2.396-1.377 5.451-.552 6.827 1.841 1.377 2.394.553 5.451-1.841 6.827l-.13.075c-.785.452-1.642.667-2.488.667z"/><path d="m209.423 53.058c-1.731 0-3.414-.9-4.339-2.508-1.377-2.394-.553-5.451 1.841-6.827l.13-.075c2.396-1.377 5.451-.552 6.827 1.841 1.377 2.394.553 5.451-1.841 6.827l-.13.075c-.786.452-1.642.667-2.488.667z"/></g></g><g fill="#6c6cff"><g><path d="m463.237 265.803c-2.762 0-5-2.239-5-5v-.15c0-2.761 2.238-5 5-5s5 2.239 5 5v.15c0 2.761-2.238 5-5 5z"/><path d="m463.237 293.587c-2.762 0-5-2.239-5-5v-.15c0-2.761 2.238-5 5-5s5 2.239 5 5v.15c0 2.761-2.238 5-5 5z"/></g><g><path d="m451.267 272.712c-.851 0-1.712-.217-2.5-.674l-.13-.075c-2.39-1.384-3.206-4.442-1.822-6.833 1.384-2.39 4.446-3.205 6.832-1.822l.13.075c2.39 1.384 3.206 4.442 1.822 6.832-.927 1.602-2.607 2.497-4.332 2.497z"/><path d="m475.329 286.604c-.845 0-1.701-.214-2.486-.665l-.131-.075c-2.395-1.376-3.22-4.432-1.844-6.827 1.376-2.393 4.431-3.22 6.826-1.844l.131.075c2.395 1.376 3.22 4.432 1.844 6.827-.925 1.609-2.608 2.509-4.34 2.509z"/></g><g><path d="m451.147 286.604c-1.727 0-3.405-.895-4.332-2.496-1.384-2.39-.567-5.449 1.822-6.833l.13-.075c2.39-1.384 5.449-.567 6.832 1.822 1.384 2.39.567 5.449-1.822 6.833l-.13.075c-.789.457-1.651.674-2.5.674z"/><path d="m475.208 272.712c-1.732 0-3.415-.9-4.34-2.51-1.376-2.395-.551-5.451 1.844-6.827l.131-.075c2.396-1.375 5.45-.55 6.826 1.844 1.376 2.395.551 5.451-1.844 6.827l-.131.075c-.785.452-1.641.666-2.486.666z"/></g></g><path d="m170.261 463.662c-2.762 0-5-2.239-5-5 0-3.492-2.841-6.333-6.333-6.333-2.762 0-5-2.239-5-5s2.238-5 5-5c3.492 0 6.333-2.841 6.333-6.333 0-2.761 2.238-5 5-5s5 2.239 5 5c0 3.492 2.841 6.333 6.333 6.333 2.762 0 5 2.239 5 5s-2.238 5-5 5c-3.492 0-6.333 2.841-6.333 6.333 0 2.761-2.238 5-5 5z" fill="#6c6cff"/><path d="m433.159 73.014c-2.762 0-5-2.239-5-5 0-3.492-2.842-6.333-6.334-6.333-2.762 0-5-2.239-5-5s2.238-5 5-5c3.492 0 6.334-2.841 6.334-6.333 0-2.761 2.238-5 5-5s5 2.239 5 5c0 3.492 2.841 6.333 6.333 6.333 2.762 0 5 2.239 5 5s-2.238 5-5 5c-3.492 0-6.333 2.841-6.333 6.333 0 2.761-2.238 5-5 5z" fill="#ff4d4d"/></g></g><path d="m446.408 95.5h-380.816c-2.909 0-5.693 1.251-7.579 3.466-15.156 17.804-24.312 40.87-24.312 66.083 0 25.214 9.156 48.28 24.312 66.083 1.886 2.215 4.67 3.466 7.579 3.466h380.815c2.909 0 5.693-1.251 7.579-3.466 15.156-17.803 24.312-40.869 24.312-66.083 0-25.213-9.156-48.279-24.312-66.083-1.885-2.215-4.669-3.466-7.578-3.466z" fill="url(#SVGID_3_)"/></g></svg>