<svg id="Capa_1" enable-background="new 0 0 512 512" height="512" viewBox="0 0 512 512" width="512" xmlns="http://www.w3.org/2000/svg" xmlns:xlink="http://www.w3.org/1999/xlink"><linearGradient id="SVGID_1_" gradientUnits="userSpaceOnUse" x1="0" x2="512" y1="256" y2="256"><stop offset="0" stop-color="#ffd9d9" stop-opacity="0"/><stop offset=".9981" stop-color="#ffb3b3"/></linearGradient><linearGradient id="SVGID_2_" gradientUnits="userSpaceOnUse" x1="250.274" x2="250.274" y1="326.076" y2="137.483"><stop offset="0" stop-color="#ff4d4d" stop-opacity=".4"/><stop offset="1" stop-color="#ff4d4d" stop-opacity="0"/></linearGradient><g><g><path d="m20.337 133.512c-23.967 39.398-26.493 107.613-8.937 150.256 15.377 37.351 45.966 72.409 86.12 76.801 14.766 1.615 29.858-1.024 44.472 1.638 50.258 9.152 68.952 71.09 108.01 104.014 27.183 22.913 64.898 31.022 100.174 26.607 35.276-4.414 68.302-20.363 97.376-40.824 22.957-16.157 44.436-36.022 55.764-61.707 23.744-53.839-4.19-118.501-47.587-158.239-13.516-12.377-28.581-23.294-39.875-37.727-11.293-14.434-18.48-33.695-13.099-51.214 4.293-13.977 15.849-24.812 20.227-38.763 5.958-18.984-3.035-40.281-17.802-53.616s-34.308-20.039-53.666-24.64c-81.103-19.281-258.823-11.524-331.177 107.414z" fill="url(#SVGID_1_)"/></g><g><g><g><path d="m292.652 56.92h30.43v234.533h-30.43z" fill="#b3b3ff" transform="matrix(.707 .707 -.707 .707 213.341 -166.677)"/><path d="m368.196 85.409h26.467v30.43h-26.467z" fill="#9494ff" transform="matrix(.707 -.707 .707 .707 40.567 299.184)"/><g><path d="m160.547 333.863-12.357-12.357c-3.905-3.905-3.905-10.237 0-14.142l24.393-24.393 26.499 26.499-24.393 24.393c-3.905 3.905-10.237 3.905-14.142 0z" fill="#ebebff"/><path d="m161.185 287.692h28.877v37.475h-28.877z" fill="#d9d9ff" transform="matrix(.707 -.707 .707 .707 -165.24 213.935)"/></g><g><path d="m344.57 189.053-134.08 134.09c-3.91 3.91-10.24 3.91-14.15 0l-37.43-37.43c-3.91-3.91-3.91-10.24 0-14.15l8.49-8.48 125.6-125.6z" fill="#ebebff"/><path d="m301.821 133.827h19.873v72.939h-19.873z" fill="#d9d9ff" transform="matrix(.707 -.707 .707 .707 -29.106 270.325)"/><path d="m196.343 323.144-37.434-37.434c-3.905-3.905-3.905-10.237 0-14.142l35.365-35.365 51.576 51.576-35.365 35.365c-3.905 3.905-10.237 3.905-14.142 0z" fill="#ff6c6c"/><path d="m214.166 294.85-26.962-26.962c-6.797-6.797-6.797-17.817 0-24.613 3.905-3.905 10.237-3.905 14.142 0l37.434 37.434c3.905 3.905 3.905 10.237 0 14.142-6.798 6.796-17.818 6.796-24.614-.001z" fill="#ff4d4d"/><path d="m205.861 195.802h130.348v30.434h-130.348z" fill="#9494ff" transform="matrix(.707 -.707 .707 .707 -69.828 253.457)"/><path d="m262.22 198.313v.04c0 26.01-14.28 48.68-35.44 60.58l-12.59-12.59z" fill="#8383ff"/><path d="m302.164 155.912h17.525v30.43h-17.525z" fill="#8383ff" transform="matrix(.707 -.707 .707 .707 -29.937 269.98)"/><path d="m248.11 285.523c-3.4 3.4-7.85 5.1-12.31 5.1s-8.91-1.7-12.31-5.1l-26.96-26.96c-6.8-6.8-6.8-17.82 0-24.62 1.95-1.95 4.51-2.93 7.07-2.93s5.12.98 7.07 2.93l21.57 21.57 15.87 15.87c3.9 3.9 3.9 10.24 0 14.14z" fill="#6c6cff"/><path d="m232.24 255.513c-8.08 5.61-17.41 9.53-27.48 11.28l-8.23-8.23c-6.8-6.8-6.8-17.82 0-24.62 1.95-1.95 4.51-2.93 7.07-2.93s5.12.98 7.07 2.93z" fill="#4d4dff"/></g><path d="m344.57 189.053-134.08 134.09c-3.91 3.91-10.24 3.91-14.15 0l-37.43-37.43c-3.91-3.91-3.91-10.24 0-14.15l8.49-8.48 125.6-125.6z" fill="url(#SVGID_2_)"/><g fill="#ebebff"><path d="m350.371 198.179-66.497-66.497c-3.629-3.628-3.629-9.511 0-13.14 3.629-3.629 9.512-3.629 13.14 0l66.497 66.497c3.629 3.629 3.629 9.512 0 13.14-3.628 3.629-9.511 3.629-13.14 0z"/><path d="m416.145 127.204-61.296-61.297c-4.309-4.309-4.309-11.296 0-15.606 4.309-4.309 11.296-4.309 15.606 0l61.297 61.296c4.309 4.309 4.309 11.296 0 15.606-4.31 4.311-11.297 4.311-15.607.001z"/></g></g><path d="m172.637 419.377c0 11.306-9.166 20.472-20.472 20.472-11.307 0-20.472-9.166-20.472-20.472 0-8.274 10.962-29.542 16.843-40.357 1.565-2.878 5.693-2.878 7.258 0 5.88 10.815 16.843 32.084 16.843 40.357z" fill="#ff4d4d"/><g><g><circle cx="192.728" cy="178.458" fill="#ff9d33" r="69.494"/><g><path d="m150.813 324.17-77.332 77.331c-1.953 1.952-1.953 5.118 0 7.07.976.977 2.256 1.465 3.535 1.465s2.56-.488 3.535-1.465l77.332-77.331z" fill="#2c27ff"/></g></g><g fill="#fff"><path d="m179.716 212.907c-15.301 0-27.748-12.448-27.748-27.749s12.447-27.748 27.748-27.748 27.748 12.447 27.748 27.748-12.447 27.749-27.748 27.749zm0-45.497c-9.786 0-17.748 7.962-17.748 17.748 0 9.787 7.962 17.749 17.748 17.749s17.748-7.962 17.748-17.749c0-9.786-7.962-17.748-17.748-17.748z"/><g><path d="m221.63 176.214c-2.762 0-5-2.238-5-5v-18.703c0-2.762 2.238-5 5-5s5 2.238 5 5v18.703c0 2.762-2.238 5-5 5z"/><path d="m230.981 166.862h-18.703c-2.762 0-5-2.238-5-5s2.238-5 5-5h18.703c2.762 0 5 2.238 5 5s-2.238 5-5 5z"/></g></g></g></g><g fill="#ff4d4d"><g><path d="m277.266 305.207c-2.762 0-5-2.238-5-5v-.15c0-2.762 2.238-5 5-5s5 2.238 5 5v.15c0 2.762-2.239 5-5 5z"/><path d="m277.266 332.991c-2.762 0-5-2.238-5-5v-.15c0-2.762 2.238-5 5-5s5 2.238 5 5v.15c0 2.762-2.239 5-5 5z"/></g><g><path d="m265.295 312.116c-.841 0-1.693-.213-2.476-.66l-.13-.074c-2.397-1.37-3.23-4.424-1.86-6.821 1.369-2.397 4.423-3.231 6.821-1.86l.13.074c2.397 1.37 3.23 4.424 1.86 6.821-.922 1.615-2.609 2.52-4.345 2.52z"/><path d="m289.356 326.009c-.85 0-1.712-.217-2.5-.674l-.13-.075c-2.39-1.384-3.206-4.442-1.822-6.832 1.383-2.391 4.444-3.206 6.832-1.822l.13.075c2.39 1.384 3.206 4.442 1.822 6.832-.926 1.601-2.606 2.496-4.332 2.496z"/></g><g><path d="m265.175 326.009c-1.727 0-3.405-.895-4.332-2.496-1.384-2.39-.567-5.448 1.822-6.832l.13-.075c2.39-1.386 5.449-.567 6.832 1.822 1.384 2.39.567 5.448-1.822 6.832l-.13.075c-.788.457-1.651.674-2.5.674z"/><path d="m289.236 312.116c-1.736 0-3.423-.905-4.346-2.521-1.37-2.397-.537-5.451 1.86-6.821l.13-.074c2.398-1.37 5.452-.536 6.821 1.86 1.37 2.397.537 5.451-1.86 6.821l-.13.074c-.781.448-1.634.661-2.475.661z"/></g></g><g fill="#ff4d4d"><g><path d="m84.112 202.201c-2.762 0-5-2.238-5-5v-.149c0-2.762 2.238-5 5-5s5 2.238 5 5v.149c0 2.762-2.238 5-5 5z"/><path d="m84.112 229.985c-2.762 0-5-2.238-5-5v-.15c0-2.762 2.238-5 5-5s5 2.238 5 5v.15c0 2.762-2.238 5-5 5z"/></g><g><path d="m72.142 209.111c-.851 0-1.712-.217-2.5-.674l-.13-.075c-2.39-1.384-3.206-4.442-1.822-6.832 1.383-2.391 4.444-3.207 6.832-1.822l.13.075c2.39 1.384 3.206 4.442 1.822 6.832-.927 1.602-2.607 2.496-4.332 2.496z"/><path d="m96.203 223.003c-.851 0-1.712-.217-2.5-.674l-.13-.075c-2.39-1.384-3.206-4.442-1.822-6.832 1.384-2.391 4.445-3.206 6.832-1.822l.13.075c2.39 1.384 3.206 4.442 1.822 6.832-.927 1.601-2.606 2.496-4.332 2.496z"/></g><g><path d="m72.021 223.003c-1.727 0-3.405-.895-4.332-2.496-1.384-2.39-.567-5.448 1.822-6.832l.13-.075c2.39-1.386 5.449-.567 6.832 1.822 1.384 2.39.567 5.448-1.822 6.832l-.13.075c-.788.457-1.65.674-2.5.674z"/><path d="m96.083 209.111c-1.727 0-3.405-.895-4.332-2.496-1.384-2.39-.567-5.448 1.822-6.832l.13-.075c2.391-1.386 5.449-.567 6.832 1.822 1.384 2.39.567 5.448-1.822 6.832l-.13.075c-.788.457-1.65.674-2.5.674z"/></g></g><g fill="#6c6cff"><g><path d="m401.546 239.135c-2.762 0-5-2.238-5-5v-.15c0-2.762 2.238-5 5-5s5 2.238 5 5v.15c0 2.761-2.238 5-5 5z"/><path d="m401.546 266.919c-2.762 0-5-2.238-5-5v-.15c0-2.762 2.238-5 5-5s5 2.238 5 5v.15c0 2.762-2.238 5-5 5z"/></g><g><path d="m389.575 246.044c-.851 0-1.712-.217-2.5-.674l-.13-.075c-2.39-1.384-3.206-4.442-1.822-6.832 1.384-2.391 4.445-3.206 6.832-1.822l.13.075c2.39 1.384 3.206 4.442 1.822 6.832-.927 1.601-2.606 2.496-4.332 2.496z"/><path d="m413.637 259.936c-.851 0-1.712-.217-2.5-.674l-.13-.075c-2.39-1.384-3.206-4.442-1.822-6.832 1.383-2.391 4.444-3.207 6.832-1.822l.13.075c2.39 1.384 3.206 4.442 1.822 6.832-.927 1.602-2.607 2.496-4.332 2.496z"/></g><g><path d="m389.455 259.936c-1.727 0-3.405-.895-4.332-2.496-1.384-2.39-.567-5.448 1.822-6.832l.13-.075c2.39-1.385 5.45-.568 6.832 1.822 1.384 2.39.567 5.448-1.822 6.832l-.13.075c-.788.458-1.65.674-2.5.674z"/><path d="m413.517 246.044c-1.727 0-3.405-.895-4.332-2.496-1.384-2.39-.567-5.448 1.822-6.832l.13-.075c2.39-1.386 5.449-.567 6.832 1.822 1.384 2.39.567 5.448-1.822 6.832l-.13.075c-.789.457-1.651.674-2.5.674z"/></g></g><path d="m401.546 194.791c-2.762 0-5-2.238-5-5 0-3.492-2.841-6.333-6.333-6.333-2.762 0-5-2.238-5-5s2.238-5 5-5c3.492 0 6.333-2.842 6.333-6.334 0-2.762 2.238-5 5-5s5 2.238 5 5c0 3.492 2.841 6.334 6.333 6.334 2.762 0 5 2.238 5 5s-2.238 5-5 5c-3.492 0-6.333 2.841-6.333 6.333 0 2.762-2.238 5-5 5z" fill="#ff4d4d"/><path d="m103.042 293.315c-2.762 0-5-2.238-5-5 0-3.492-2.841-6.333-6.333-6.333-2.762 0-5-2.238-5-5s2.238-5 5-5c3.492 0 6.333-2.841 6.333-6.333 0-2.762 2.238-5 5-5s5 2.238 5 5c0 3.492 2.842 6.333 6.334 6.333 2.762 0 5 2.238 5 5s-2.238 5-5 5c-3.492 0-6.334 2.841-6.334 6.333 0 2.762-2.238 5-5 5z" fill="#ff9d33"/></g></g></svg>