<svg id="Capa_1" enable-background="new 0 0 512 512" height="512" viewBox="0 0 512 512" width="512" xmlns="http://www.w3.org/2000/svg" xmlns:xlink="http://www.w3.org/1999/xlink"><linearGradient id="SVGID_1_" gradientUnits="userSpaceOnUse" x1="8.753" x2="524.203" y1="401.161" y2="103.566"><stop offset="0" stop-color="#fff" stop-opacity="0"/><stop offset=".2532" stop-color="#eef" stop-opacity=".403"/><stop offset=".629" stop-color="#d9d9ff"/></linearGradient><linearGradient id="lg1"><stop offset="0" stop-color="#ff4d4d" stop-opacity=".4"/><stop offset="1" stop-color="#ff4d4d" stop-opacity="0"/></linearGradient><linearGradient id="SVGID_2_" gradientUnits="userSpaceOnUse" x1="256" x2="256" xlink:href="#lg1" y1="424.027" y2="200.902"/><linearGradient id="SVGID_3_" gradientUnits="userSpaceOnUse" x1="256" x2="256" xlink:href="#lg1" y1="173.304" y2="84.166"/><g><g><path d="m418.32 2.5c-55.666-9.521-178.298 12.183-200.004 105.016-14.432 61.722-14.007 112.075-50.427 113.02-21.67.562-32.97-44.31-62.889-48.001-39.047-4.817-66.145 27.695-83.057 57.138-37.205 64.772-25.571 174.918 23.354 228.632 118.488 130.086 259.197-5.952 319.358-112.309 38.585-68.213 125.637-123.352 143.767-200.248 15.177-64.375-18.503-131.002-90.102-143.248z" fill="url(#SVGID_1_)"/></g><g><g fill="#2c27ff"><path d="m251 293.881h10v37.167h-10z"/><path d="m251 265.974h10v-176.808h20.247c2.761 0 5-2.239 5-5s-2.239-5-5-5c0 0-21.905 0-25.247 0s-25.247 0-25.247 0c-2.761 0-5 2.239-5 5s2.239 5 5 5h20.247z"/><path d="m261 398.633v-39.64h-10v39.64"/><path d="m251 422.35v18.714h-5.876c-2.761 0-5 2.239-5 5s2.239 5 5 5h5.876v11.488c0 2.761 2.239 5 5 5s5-2.239 5-5v-11.488h5.875c2.761 0 5-2.239 5-5s-2.239-5-5-5h-5.875v-18.714"/></g><path d="m272.947 214.843.134.078c.789.455 1.649.672 2.498.672 1.727 0 3.407-.896 4.333-2.498 1.382-2.391.564-5.449-1.826-6.832l-.134-.078c-2.393-1.382-5.449-.564-6.832 1.826-1.381 2.392-.563 5.45 1.827 6.832z" fill="#00c"/><path d="m240.878 213.095c1.382-2.391.564-5.449-1.826-6.832l-.134-.078c-2.392-1.382-5.449-.564-6.832 1.826-1.382 2.391-.564 5.449 1.826 6.831l.134.078c.788.455 1.649.672 2.498.672 1.728.001 3.408-.894 4.334-2.497z" fill="#00c"/></g><g><path d="m330.476 55.001c-2.761 0-5-2.239-5-5 0-3.492-2.841-6.333-6.333-6.333-2.761 0-5-2.239-5-5s2.239-5 5-5c3.492 0 6.333-2.841 6.333-6.333 0-2.761 2.239-5 5-5s5 2.239 5 5c0 3.492 2.841 6.333 6.333 6.333 2.761 0 5 2.239 5 5s-2.239 5-5 5c-3.492 0-6.333 2.841-6.333 6.333 0 2.761-2.239 5-5 5z" fill="#ff4d4d"/><path d="m407.952 189.637c-2.761 0-5-2.239-5-5 0-3.492-2.841-6.333-6.333-6.333-2.761 0-5-2.239-5-5s2.239-5 5-5c3.492 0 6.333-2.841 6.333-6.334 0-2.761 2.239-5 5-5s5 2.239 5 5c0 3.492 2.841 6.334 6.333 6.334 2.761 0 5 2.239 5 5s-2.239 5-5 5c-3.492 0-6.333 2.841-6.333 6.333 0 2.762-2.239 5-5 5z" fill="#6c6cff"/><path d="m123.525 250.187c-2.761 0-5-2.239-5-5 0-3.492-2.841-6.333-6.333-6.333-2.761 0-5-2.239-5-5s2.239-5 5-5c3.492 0 6.333-2.841 6.333-6.333 0-2.761 2.239-5 5-5s5 2.239 5 5c0 3.492 2.841 6.333 6.333 6.333 2.761 0 5 2.239 5 5s-2.239 5-5 5c-3.492 0-6.333 2.841-6.333 6.333 0 2.761-2.239 5-5 5z" fill="#ff4d4d"/><g fill="#6c6cff"><g><path d="m106.623 176.197c-2.761 0-5-2.239-5-5v-.15c0-2.761 2.239-5 5-5s5 2.239 5 5v.15c0 2.761-2.239 5-5 5z"/><path d="m106.623 203.98c-2.761 0-5-2.239-5-5v-.15c0-2.761 2.239-5 5-5s5 2.239 5 5v.15c0 2.761-2.239 5-5 5z"/></g><g><path d="m94.652 183.106c-.85 0-1.711-.217-2.5-.674l-.13-.075c-2.39-1.384-3.206-4.442-1.822-6.833 1.383-2.389 4.441-3.205 6.832-1.822l.13.075c2.39 1.384 3.206 4.442 1.822 6.832-.926 1.602-2.606 2.497-4.332 2.497z"/><path d="m118.714 196.998c-.85 0-1.712-.217-2.501-.674l-.13-.075c-2.39-1.384-3.206-4.442-1.822-6.833 1.383-2.389 4.441-3.206 6.833-1.822l.13.075c2.39 1.384 3.206 4.442 1.822 6.833-.926 1.601-2.606 2.496-4.332 2.496z"/></g><g><path d="m94.532 196.998c-1.726 0-3.405-.895-4.332-2.496-1.384-2.39-.568-5.449 1.822-6.833l.13-.075c2.391-1.384 5.449-.567 6.832 1.822 1.384 2.39.568 5.449-1.822 6.833l-.13.075c-.788.457-1.65.674-2.5.674z"/><path d="m118.594 183.106c-1.726 0-3.405-.895-4.332-2.496-1.384-2.39-.568-5.449 1.822-6.832l.13-.075c2.392-1.383 5.45-.568 6.833 1.822 1.384 2.39.568 5.449-1.822 6.833l-.13.075c-.789.455-1.651.673-2.501.673z"/></g></g><g fill="#ff9d33"><g><path d="m372.427 390.365c-2.761 0-5-2.239-5-5v-.15c0-2.761 2.239-5 5-5s5 2.239 5 5v.15c0 2.762-2.239 5-5 5z"/><path d="m372.427 418.15c-2.761 0-5-2.239-5-5v-.15c0-2.761 2.239-5 5-5s5 2.239 5 5v.15c0 2.761-2.239 5-5 5z"/></g><g><path d="m360.456 397.275c-.85 0-1.711-.217-2.5-.674l-.13-.075c-2.39-1.384-3.206-4.442-1.822-6.833 1.383-2.389 4.44-3.205 6.833-1.822l.13.075c2.39 1.384 3.206 4.442 1.822 6.833-.928 1.601-2.607 2.496-4.333 2.496z"/><path d="m384.518 411.167c-.85 0-1.711-.217-2.5-.674l-.13-.075c-2.39-1.384-3.206-4.442-1.822-6.833 1.383-2.389 4.44-3.205 6.832-1.822l.13.075c2.39 1.384 3.206 4.442 1.822 6.832-.927 1.602-2.606 2.497-4.332 2.497z"/></g><g><path d="m360.336 411.167c-1.726 0-3.405-.895-4.332-2.496-1.384-2.39-.568-5.449 1.822-6.832l.13-.075c2.391-1.383 5.45-.568 6.833 1.822 1.384 2.39.568 5.449-1.822 6.833l-.13.075c-.79.456-1.651.673-2.501.673z"/><path d="m384.398 397.275c-1.726 0-3.405-.895-4.332-2.496-1.384-2.39-.568-5.449 1.822-6.833l.13-.075c2.391-1.383 5.449-.568 6.832 1.822 1.384 2.39.568 5.449-1.822 6.833l-.13.075c-.789.457-1.65.674-2.5.674z"/></g></g><g><g><g><g><path d="m252.164 424.027c-25.634 0-46.49-20.855-46.49-46.49s20.855-46.49 46.49-46.49h44.88c10.247 0 18.583-8.337 18.583-18.583 0-10.247-8.336-18.583-18.583-18.583h-82.088c-25.634 0-46.49-20.855-46.49-46.49s20.855-46.49 46.49-46.49h18.386c7.706 0 13.953 6.247 13.953 13.953s-6.247 13.953-13.953 13.953h-18.386c-10.247 0-18.583 8.336-18.583 18.583s8.337 18.583 18.583 18.583h82.088c25.634 0 46.49 20.855 46.49 46.49 0 25.634-20.855 46.49-46.49 46.49h-44.88c-10.247 0-18.583 8.337-18.583 18.583 0 10.247 8.337 18.583 18.583 18.583 7.706 0 13.953 6.247 13.953 13.953s-6.247 13.955-13.953 13.955z" fill="#ff9d33"/></g><g><path d="m249.13 349.107v10.108c-8.639 1.417-15.292 8.815-15.54 17.795h-18.633c-3.166 0-6.27-.321-9.26-.931.321-10.139 3.89-19.461 9.715-26.972z" fill="#ff8b00"/></g></g><g><g><path d="m259.836 424.027c25.634 0 46.49-20.855 46.49-46.49s-20.855-46.49-46.49-46.49h-44.88c-10.247 0-18.583-8.337-18.583-18.583 0-10.247 8.337-18.583 18.583-18.583h82.088c25.634 0 46.49-20.855 46.49-46.49s-20.855-46.49-46.49-46.49h-18.386c-7.706 0-13.953 6.247-13.953 13.953s6.247 13.953 13.953 13.953h18.386c10.247 0 18.583 8.336 18.583 18.583s-8.336 18.583-18.583 18.583h-82.088c-25.634 0-46.49 20.855-46.49 46.49 0 25.634 20.855 46.49 46.49 46.49h44.88c10.247 0 18.583 8.337 18.583 18.583 0 10.247-8.337 18.583-18.583 18.583-7.706 0-13.953 6.247-13.953 13.953s6.247 13.955 13.953 13.955z" fill="#ffc599"/></g><g><g><path d="m319.142 288.293c-6.58 3.559-14.112 5.587-22.099 5.587h-82.086c-7.522 0-13.998 4.48-16.916 10.915-9.498-2.038-17.919-6.994-24.282-13.864 4.242-8.07 10.781-14.753 18.737-19.161h1.531c3.404 3.766 8.318 6.145 13.791 6.145h82.086c11.071 0 21.241 3.891 29.238 10.378z" fill="#ffab66"/></g></g><g><path d="m259.836 424.027c25.634 0 46.49-20.855 46.49-46.49s-20.855-46.49-46.49-46.49h-44.88c-10.247 0-18.583-8.337-18.583-18.583 0-10.247 8.337-18.583 18.583-18.583h82.088c25.634 0 46.49-20.855 46.49-46.49s-20.855-46.49-46.49-46.49h-18.386c-7.706 0-13.953 6.247-13.953 13.953s6.247 13.953 13.953 13.953h18.386c10.247 0 18.583 8.336 18.583 18.583s-8.336 18.583-18.583 18.583h-82.088c-25.634 0-46.49 20.855-46.49 46.49 0 25.634 20.855 46.49 46.49 46.49h44.88c10.247 0 18.583 8.337 18.583 18.583 0 10.247-8.337 18.583-18.583 18.583-7.706 0-13.953 6.247-13.953 13.953s6.247 13.955 13.953 13.955z" fill="url(#SVGID_2_)"/></g></g><g><ellipse cx="256" cy="61.417" fill="#ff9d33" rx="22.749" ry="22.749" transform="matrix(.924 -.383 .383 .924 -4.016 102.642)"/></g><g><g><path d="m425.49 93.51c0 11.25-9.12 20.37-20.37 20.37h-114.523c8.779-6.023 15.909-14.274 20.578-23.939 1.714-3.548 5.335-5.775 9.275-5.775h95.695c5.161 0 9.345 4.184 9.345 9.344z" fill="#9494ff"/><path d="m381.219 113.88v9.344c0 11.25-9.12 20.37-20.37 20.37h-104.849v-19.006c12.839 0 24.758-3.952 34.597-10.708z" fill="#6c6cff"/><path d="m256 143.591h89.8v9.343c0 11.25-9.12 20.37-20.37 20.37h-69.43z" fill="#4d4dff"/></g><g><path d="m221.403 113.88h-114.523c-11.25 0-20.37-9.12-20.37-20.37 0-5.161 4.184-9.344 9.344-9.344h95.695c3.94 0 7.562 2.227 9.275 5.775 4.669 9.665 11.8 17.917 20.579 23.939z" fill="#9494ff"/><path d="m256 124.588v19.006h-104.849c-11.25 0-20.37-9.12-20.37-20.37v-9.344h90.621c9.84 6.756 21.759 10.708 34.598 10.708z" fill="#6c6cff"/><path d="m256 143.591h-89.8v9.343c0 11.25 9.12 20.37 20.37 20.37h69.43z" fill="#4d4dff"/></g></g><path d="m298.537 228.809h-23.656c-10.428 0-18.881-8.454-18.881-18.882v-2.38c0-5.4 4.377-9.777 9.777-9.777h27.757c2.763 0 5.003 2.24 5.003 5.003z" fill="#ff6c6c"/><path d="m213.463 228.809h23.656c10.428 0 18.882-8.454 18.882-18.882v-2.38c0-5.4-4.377-9.777-9.777-9.777h-27.757c-2.763 0-5.003 2.24-5.003 5.003v26.036z" fill="#ff4d4d"/></g><g><g><path d="m312.471 302.159h29.895c-4.702-20.689-23.23-36.184-45.322-36.184h-82.088c-5.469 0-10.388-2.38-13.791-6.152h-30.993c5.451 19.616 23.456 34.059 44.785 34.059h82.088c6.431 0 12.092 3.296 15.426 8.277z" fill="#ff9d33"/></g></g></g></g><path d="m416.146 84.166h-95.695c-3.94 0-7.562 2.227-9.275 5.775-4.668 9.665-11.799 17.916-20.578 23.939-9.839 6.756-21.758 10.708-34.597 10.708-12.84 0-24.758-3.952-34.597-10.708-8.779-6.023-15.909-14.274-20.578-23.939-1.714-3.548-5.335-5.775-9.275-5.775h-95.697c-5.161 0-9.344 4.184-9.344 9.344 0 11.25 9.12 20.37 20.37 20.37h23.901v9.344c0 11.25 9.12 20.37 20.37 20.37h15.049v9.34c0 11.25 9.12 20.37 20.37 20.37h69.43 69.43c11.25 0 20.37-9.12 20.37-20.37v-9.34h15.049c11.25 0 20.37-9.12 20.37-20.37v-9.344h23.901c11.25 0 20.37-9.12 20.37-20.37 0-5.16-4.184-9.344-9.344-9.344z" fill="url(#SVGID_3_)"/></g></svg>