<svg id="Capa_1" enable-background="new 0 0 512 512" height="512" viewBox="0 0 512 512" width="512" xmlns="http://www.w3.org/2000/svg" xmlns:xlink="http://www.w3.org/1999/xlink"><linearGradient id="SVGID_1_" gradientUnits="userSpaceOnUse" x1="68.572" x2="395.005" y1="430.558" y2="41.53"><stop offset="0" stop-color="#fff3ee" stop-opacity="0"/><stop offset=".2938" stop-color="#ffeade" stop-opacity=".373"/><stop offset=".7874" stop-color="#ffd6bb"/></linearGradient><linearGradient id="SVGID_2_" gradientUnits="userSpaceOnUse" x1="276" x2="276" y1="464.501" y2="47.499"><stop offset="0" stop-color="#ff4d4d" stop-opacity=".4"/><stop offset="1" stop-color="#ff4d4d" stop-opacity="0"/></linearGradient><g><g><path d="m16.074 302.88c18.727 64.003 72.707 194.564 163.922 182.845 91.486-11.755 55.758-129.725 139.508-145.894 36.867-7.118 61.857 56.689 98.806 54.704 47.588-2.557 71.81-49.663 85.108-89.264 28.197-83.968-14.029-226.352-112.858-251.011-86.245-21.519-96.333 83.855-171.322 53.248-42.149-17.203-37.938-68.576-89.272-78.942-155.299-31.36-138.811 189.15-113.892 274.314z" fill="url(#SVGID_1_)"/></g><g><g><g><path d="m298.249 212.936c8.831-6.272 14.599-16.575 14.599-28.231 0-6.4-1.738-12.393-4.767-17.534-7.379-12.524-11.341-26.764-11.873-41.291l-2.233-61.051c-.354-9.672-8.297-17.33-17.975-17.33-9.678 0-17.622 7.658-17.975 17.33l-2.233 61.051c-.531 14.526-4.494 28.767-11.873 41.291-3.029 5.141-4.767 11.134-4.767 17.534 0 11.656 5.768 21.959 14.599 28.231l-19.447 10.708c-5.71 3.145-9.258 9.147-9.258 15.666v207.307c0 9.877 8.007 17.884 17.884 17.884h66.138c9.877 0 17.884-8.007 17.884-17.884v-207.307c0-6.519-3.547-12.521-9.258-15.666z" fill="#b3b3ff"/><path d="m298.249 212.936c8.831-6.272 14.599-16.575 14.599-28.231 0-6.4-1.738-12.393-4.767-17.534-7.379-12.524-11.341-26.764-11.873-41.291l-2.233-61.051c-.354-9.672-8.297-17.33-17.975-17.33-9.678 0-17.622 7.658-17.975 17.33l-2.233 61.051c-.531 14.526-4.494 28.767-11.873 41.291-3.029 5.141-4.767 11.134-4.767 17.534 0 11.656 5.768 21.959 14.599 28.231z" fill="#d9d9ff"/><path d="m225.047 258.669h101.906v162.819h-101.906z" fill="#fff"/><path d="m225.047 258.669h101.906v39.512h-101.906z" fill="#ff6c6c"/><g><path d="m326.953 283.034h-71.193c-2.762 0-5-2.239-5-5s2.238-5 5-5h71.193z" fill="#fff"/></g><g><path d="m326.953 332.578h-71.193c-2.762 0-5-2.239-5-5s2.238-5 5-5h71.193z" fill="#6c6cff"/></g><g><path d="m326.953 351.349h-46.193c-2.762 0-5-2.239-5-5s2.238-5 5-5h46.193z" fill="#6c6cff"/></g><g><path d="m326.953 370.119h-46.193c-2.762 0-5-2.239-5-5s2.238-5 5-5h46.193z" fill="#6c6cff"/></g><g><g><path d="m249.926 410.157c-1.28 0-2.559-.488-3.536-1.465-1.953-1.953-1.953-5.118.001-7.071l5.834-5.833c1.953-1.952 5.119-1.951 7.071 0l5.833 5.833c1.953 1.953 1.953 5.119 0 7.071s-5.118 1.952-7.071 0l-2.298-2.298-2.299 2.298c-.976.977-2.255 1.465-3.535 1.465z" fill="#b3b3ff"/></g></g></g><g fill="#ff9d33"><g><path d="m174.069 341.725c-2.761 0-5-2.239-5-5v-.15c0-2.761 2.239-5 5-5s5 2.239 5 5v.15c0 2.761-2.239 5-5 5z"/><path d="m174.069 369.509c-2.761 0-5-2.239-5-5v-.15c0-2.761 2.239-5 5-5s5 2.239 5 5v.15c0 2.762-2.239 5-5 5z"/></g><g><path d="m162.098 348.634c-.846 0-1.702-.215-2.488-.667l-.13-.075c-2.394-1.376-3.218-4.433-1.841-6.827 1.376-2.394 4.432-3.218 6.827-1.841l.13.075c2.394 1.376 3.218 4.433 1.841 6.827-.925 1.608-2.608 2.508-4.339 2.508z"/><path d="m186.16 362.526c-.848 0-1.706-.216-2.493-.67l-.13-.075c-2.392-1.379-3.213-4.437-1.833-6.829 1.379-2.392 4.436-3.213 6.829-1.833l.13.075c2.392 1.379 3.213 4.437 1.833 6.829-.926 1.605-2.607 2.503-4.336 2.503z"/></g><g><path d="m161.978 362.526c-1.726 0-3.405-.895-4.332-2.496-1.384-2.39-.568-5.449 1.822-6.833l.13-.075c2.392-1.384 5.449-.567 6.832 1.822 1.384 2.39.568 5.449-1.822 6.832l-.13.075c-.788.458-1.65.675-2.5.675z"/><path d="m186.04 348.634c-1.734 0-3.419-.903-4.343-2.515-1.373-2.396-.543-5.451 1.853-6.824l.13-.075c2.395-1.374 5.451-.544 6.824 1.853 1.373 2.396.543 5.451-1.853 6.824l-.13.075c-.784.449-1.639.662-2.481.662z"/></g></g><g fill="#ff4d4d"><g><path d="m392.278 408.415c-2.762 0-5-2.239-5-5v-.15c0-2.761 2.238-5 5-5s5 2.239 5 5v.15c0 2.761-2.238 5-5 5z"/><path d="m392.278 436.199c-2.762 0-5-2.239-5-5v-.15c0-2.761 2.238-5 5-5s5 2.239 5 5v.15c0 2.761-2.238 5-5 5z"/></g><g><path d="m380.308 415.324c-.851 0-1.712-.217-2.5-.674l-.13-.075c-2.39-1.384-3.206-4.442-1.822-6.832s4.446-3.205 6.832-1.822l.13.075c2.39 1.384 3.206 4.442 1.822 6.833-.927 1.6-2.607 2.495-4.332 2.495z"/><path d="m404.369 429.216c-.85 0-1.712-.217-2.5-.674l-.13-.075c-2.39-1.384-3.206-4.442-1.822-6.833 1.384-2.389 4.445-3.204 6.832-1.822l.13.075c2.39 1.384 3.206 4.442 1.822 6.832-.927 1.602-2.606 2.497-4.332 2.497z"/></g><g><path d="m380.188 429.216c-1.727 0-3.405-.895-4.332-2.496-1.384-2.39-.567-5.449 1.822-6.832l.13-.075c2.39-1.384 5.449-.567 6.832 1.822 1.384 2.39.567 5.449-1.822 6.833l-.13.075c-.789.456-1.651.673-2.5.673z"/><path d="m404.249 415.324c-1.727 0-3.405-.895-4.332-2.496-1.384-2.39-.567-5.449 1.822-6.833l.13-.075c2.391-1.384 5.449-.567 6.832 1.822 1.384 2.39.567 5.449-1.822 6.832l-.13.075c-.788.457-1.65.675-2.5.675z"/></g></g><path d="m134.439 406.867c-2.761 0-5-2.239-5-5 0-3.492-2.841-6.333-6.334-6.333-2.761 0-5-2.239-5-5s2.239-5 5-5c3.492 0 6.334-2.841 6.334-6.333 0-2.761 2.239-5 5-5s5 2.239 5 5c0 3.492 2.841 6.333 6.333 6.333 2.761 0 5 2.239 5 5s-2.239 5-5 5c-3.492 0-6.333 2.841-6.333 6.333 0 2.761-2.239 5-5 5z" fill="#6c6cff"/><path d="m350.677 151.044c-2.762 0-5-2.239-5-5 0-3.492-2.841-6.333-6.333-6.333-2.762 0-5-2.239-5-5s2.238-5 5-5c3.492 0 6.333-2.841 6.333-6.334 0-2.761 2.238-5 5-5s5 2.239 5 5c0 3.492 2.841 6.334 6.333 6.334 2.762 0 5 2.239 5 5s-2.238 5-5 5c-3.492 0-6.333 2.841-6.333 6.333 0 2.762-2.238 5-5 5z" fill="#ff4d4d"/><path d="m373.344 371.232c-2.762 0-5-2.239-5-5 0-3.492-2.842-6.333-6.334-6.333-2.762 0-5-2.239-5-5s2.238-5 5-5c3.492 0 6.334-2.841 6.334-6.333 0-2.761 2.238-5 5-5s5 2.239 5 5c0 3.492 2.841 6.333 6.333 6.333 2.762 0 5 2.239 5 5s-2.238 5-5 5c-3.492 0-6.333 2.841-6.333 6.333 0 2.762-2.238 5-5 5z" fill="#ff9d33"/></g><g><circle cx="192.599" cy="133.683" fill="#ff4d4d" r="69.494"/><path d="m224.936 119.042h-17.695v-17.696c0-5.523-4.477-10-10-10h-9.282c-5.523 0-10 4.477-10 10v17.696h-17.695c-5.523 0-10 4.477-10 10v9.282c0 5.523 4.477 10 10 10h17.695v17.695c0 5.523 4.477 10 10 10h9.282c5.523 0 10-4.477 10-10v-17.695h17.695c5.523 0 10-4.477 10-10v-9.282c0-5.523-4.477-10-10-10z" fill="#fff"/></g><g fill="#2c27ff"><path d="m196.453 228.427h-18.583c-2.761 0-5 2.239-5 5s2.239 5 5 5h18.583c2.761 0 5-2.239 5-5s-2.239-5-5-5z"/><path d="m196.453 246.809h-58.583c-2.761 0-5 2.239-5 5s2.239 5 5 5h58.583c2.761 0 5-2.239 5-5s-2.239-5-5-5z"/><path d="m196.453 265.19h-58.583c-2.761 0-5 2.239-5 5s2.239 5 5 5h58.583c2.761 0 5-2.239 5-5s-2.239-5-5-5z"/></g></g><path d="m298.249 212.936c8.831-6.272 14.599-16.575 14.599-28.231 0-6.4-1.738-12.393-4.767-17.534-7.379-12.524-11.341-26.764-11.873-41.291l-2.233-61.051c-.354-9.672-8.297-17.33-17.975-17.33-9.678 0-17.622 7.658-17.975 17.33l-2.233 61.051c-.531 14.526-4.494 28.767-11.873 41.291-3.029 5.141-4.767 11.134-4.767 17.534 0 11.656 5.768 21.959 14.599 28.231l-19.447 10.708c-5.71 3.145-9.258 9.147-9.258 15.666v207.307c0 9.877 8.007 17.884 17.884 17.884h66.138c9.877 0 17.884-8.007 17.884-17.884v-207.307c0-6.519-3.547-12.521-9.258-15.666z" fill="url(#SVGID_2_)"/></g></svg>