<svg id="Capa_1" enable-background="new 0 0 512 512" height="512" viewBox="0 0 512 512" width="512" xmlns="http://www.w3.org/2000/svg" xmlns:xlink="http://www.w3.org/1999/xlink"><linearGradient id="SVGID_1_" gradientUnits="userSpaceOnUse" x1="8.753" x2="524.203" y1="401.161" y2="103.566"><stop offset="0" stop-color="#fff" stop-opacity="0"/><stop offset=".2532" stop-color="#eef" stop-opacity=".403"/><stop offset=".629" stop-color="#d9d9ff"/></linearGradient><linearGradient id="SVGID_2_" gradientUnits="userSpaceOnUse" x1="184.99" x2="184.99" y1="305.56" y2="55.53"><stop offset="0" stop-color="#ff4d4d" stop-opacity=".4"/><stop offset="1" stop-color="#ff4d4d" stop-opacity="0"/></linearGradient><g><g><path d="m418.32 2.5c-55.666-9.521-178.298 12.183-200.004 105.017-14.431 61.722-14.007 112.075-50.427 113.02-21.67.562-32.97-44.31-62.889-48.001-39.047-4.817-66.145 27.695-83.057 57.138-37.205 64.772-25.571 174.918 23.354 228.632 118.488 130.086 259.197-5.952 319.358-112.309 38.584-68.213 125.637-123.351 143.767-200.248 15.177-64.376-18.503-131.003-90.102-143.249z" fill="url(#SVGID_1_)"/></g><g><g><g><g><g fill="#2c27ff"><path d="m405.237 262.253h10v102.855h-10z"/><path d="m405.335 412.638v42.473c0 2.762 2.239 5 5 5s5-2.238 5-5v-42.473z"/><path d="m362.893 115.932c4.129-6.261 11.223-10.402 19.269-10.402 12.724 0 23.075 10.351 23.075 23.074v47.635h10v-47.635c0-18.237-14.837-33.074-33.075-33.074-13.749 0-25.557 8.436-30.539 20.402 0 0-2.432 7.194-2.624 13.527s10.087 4.489 10.087-.192c.001-4.681 3.807-13.335 3.807-13.335z"/><path d="m349.087 149.032v140.911c0 15.316-8.508 29.091-22.203 35.949-17.103 8.562-27.727 25.764-27.727 44.89v80.763c0 12.664-10.304 22.968-22.968 22.968-12.665 0-22.968-10.304-22.968-22.968v-58.001c0-16.005-13.021-29.026-29.026-29.026s-29.026 13.021-29.026 29.026v56.8c0 13.327-10.842 24.169-24.17 24.169-13.327 0-24.169-10.842-24.169-24.169v-103.696h-10v103.696c0 18.841 15.328 34.169 34.169 34.169s34.169-15.328 34.169-34.169v-56.8c0-10.491 8.535-19.026 19.026-19.026s19.026 8.535 19.026 19.026v58.001c0 18.179 14.79 32.968 32.969 32.968s32.968-14.789 32.968-32.968v-80.763c0-15.316 8.508-29.091 22.204-35.948 17.102-8.564 27.726-25.765 27.726-44.891v-140.911z"/></g><g><path d="m149.5 346.648h-15.34c-5.523 0-10-4.477-10-10v-41.088h35.34v41.088c0 5.523-4.477 10-10 10z" fill="#ebebff"/><path d="m124.159 295.56h35.34v26.28h-35.34z" fill="#d9d9ff"/></g><g><path d="m218.448 346.648h-5.34c-5.523 0-10-4.477-10-10v-41.088h25.34v41.088c0 5.523-4.478 10-10 10z" fill="#ebebff"/><path d="m203.107 295.56h25.34v26.28h-25.34z" fill="#d9d9ff"/></g><path d="m287.03 79.37v202.35c0 13.17-10.67 23.84-23.84 23.84h-156.4c-13.17 0-23.84-10.67-23.84-23.84v-202.35c0-13.17 10.67-23.84 23.84-23.84h156.4c13.17 0 23.84 10.67 23.84 23.84z" fill="#ebebff"/><path d="m287.03 111v170.72c0 13.17-10.67 23.84-23.84 23.84h-156.4c-13.17 0-23.84-10.67-23.84-23.84v-146.2c23.88 6.55 63.5 11.49 105.53-8.52 36.65-17.44 73-18.59 98.55-16z" fill="#b3b3ff"/><path d="m248.192 264.361h-126.405c-2.761 0-5-2.239-5-5v-70.099c0-2.762 2.239-5 5-5h126.405c2.762 0 5 2.238 5 5v70.099c0 2.761-2.238 5-5 5z" fill="#fff"/><path d="m253.192 208.303v-19.042c0-2.761-2.239-5-5-5h-126.405c-2.761 0-5 2.239-5 5v19.042z" fill="#ff4d4d"/><g><ellipse cx="184.99" cy="124.586" fill="#ff4d4d" rx="30.718" ry="30.718" transform="matrix(.227 -.974 .974 .227 21.7 276.504)"/><path d="m199.283 118.114h-7.822v-7.822c0-2.441-1.979-4.42-4.42-4.42h-4.103c-2.441 0-4.42 1.979-4.42 4.42v7.822h-7.822c-2.441 0-4.42 1.979-4.42 4.42v4.103c0 2.441 1.979 4.42 4.42 4.42h7.822v7.822c0 2.441 1.979 4.42 4.42 4.42h4.103c2.441 0 4.42-1.979 4.42-4.42v-7.822h7.822c2.441 0 4.42-1.979 4.42-4.42v-4.103c.001-2.441-1.978-4.42-4.42-4.42z" fill="#fff"/></g><g><path d="m232.841 229.369c2.761 0 5-2.239 5-5v-.115c0-2.761-2.239-5-5-5s-5 2.239-5 5v.115c0 2.761 2.239 5 5 5z" fill="#ff4d4d"/></g><path d="m419.131 262.253h-17.787c-4.418 0-8-3.582-8-8v-69.998c0-4.418 3.582-8 8-8h17.787c4.418 0 8 3.582 8 8v69.998c0 4.418-3.582 8-8 8z" fill="#ebebff"/><g><path d="m415.237 176.24v7.951c0 2.762-2.239 5-5 5s-5-2.238-5-5v-7.951z" fill="#6c6cff"/></g><path d="m393.344 224.352v29.901c0 4.418 3.582 8 8 8h17.787c4.418 0 8-3.582 8-8v-29.901z" fill="#b3b3ff"/><ellipse cx="354.087" cy="137.512" fill="#ebebff" rx="13.139" ry="13.139" transform="matrix(.231 -.973 .973 .231 138.484 450.246)"/><g fill="#b3b3ff"><path d="m414.388 198.799c0 2.292-1.858 4.151-4.151 4.151-2.292 0-4.151-1.858-4.151-4.151 0-2.292 1.858-4.151 4.151-4.151s4.151 1.859 4.151 4.151z"/><path d="m414.388 212.558c0 2.292-1.858 4.151-4.151 4.151-2.292 0-4.151-1.858-4.151-4.151 0-2.292 1.858-4.151 4.151-4.151 2.293.001 4.151 1.859 4.151 4.151z"/><path d="m407.057 363.135h6.361c5.9 0 10.517 5.081 9.954 10.954l-3.084 32.182c-.492 5.13-4.801 9.046-9.954 9.046h-.194c-5.153 0-9.463-3.916-9.954-9.046l-3.084-32.182c-.562-5.873 4.055-10.954 9.955-10.954z"/></g><path d="m398.894 392.793 1.292 13.479c.491 5.13 4.801 9.046 9.954 9.046h.194c5.153 0 9.463-3.916 9.954-9.046l1.292-13.479z" fill="#6c6cff"/><path d="m415.335 397.793h13.716c2.761 0 5-2.238 5-5s-2.239-5-5-5h-13.716c-2.761 0-5 2.238-5 5s2.238 5 5 5z" fill="#2c27ff"/></g><path d="m94.284 370.013c-2.761 0-5-2.238-5-5 0-3.492-2.841-6.333-6.333-6.333-2.761 0-5-2.238-5-5s2.239-5 5-5c3.492 0 6.333-2.842 6.333-6.334 0-2.762 2.239-5 5-5s5 2.238 5 5c0 3.492 2.841 6.334 6.334 6.334 2.761 0 5 2.238 5 5s-2.239 5-5 5c-3.492 0-6.334 2.841-6.334 6.333 0 2.761-2.239 5-5 5z" fill="#ff9d33"/><path d="m365.421 454.742c-2.761 0-5-2.238-5-5 0-3.492-2.841-6.334-6.333-6.334-2.761 0-5-2.238-5-5s2.239-5 5-5c3.492 0 6.333-2.841 6.333-6.333 0-2.762 2.239-5 5-5s5 2.238 5 5c0 3.492 2.841 6.333 6.333 6.333 2.761 0 5 2.238 5 5s-2.239 5-5 5c-3.492 0-6.333 2.842-6.333 6.334 0 2.762-2.239 5-5 5z" fill="#ff9d33"/><path d="m352.281 80.621c-2.761 0-5-2.238-5-5 0-3.492-2.841-6.333-6.333-6.333-2.761 0-5-2.238-5-5s2.239-5 5-5c3.492 0 6.333-2.842 6.333-6.334 0-2.762 2.239-5 5-5s5 2.238 5 5c0 3.492 2.841 6.334 6.333 6.334 2.761 0 5 2.238 5 5s-2.239 5-5 5c-3.492 0-6.333 2.841-6.333 6.333 0 2.762-2.238 5-5 5z" fill="#6c6cff"/><g fill="#ff4d4d"><g><g><path d="m63.822 380.409c-2.761 0-5-2.238-5-5v-.15c0-2.762 2.239-5 5-5s5 2.238 5 5v.15c0 2.762-2.238 5-5 5z"/><path d="m63.822 408.193c-2.761 0-5-2.238-5-5v-.15c0-2.762 2.239-5 5-5s5 2.238 5 5v.15c0 2.762-2.238 5-5 5z"/></g><g><path d="m51.852 387.318c-.841 0-1.694-.213-2.476-.66l-.13-.074c-2.398-1.37-3.231-4.424-1.861-6.821 1.37-2.398 4.427-3.229 6.822-1.86l.13.074c2.398 1.37 3.231 4.424 1.861 6.821-.923 1.615-2.611 2.52-4.346 2.52z"/><path d="m75.914 401.211c-.848 0-1.706-.216-2.493-.67l-.13-.075c-2.392-1.38-3.213-4.438-1.833-6.829 1.379-2.393 4.436-3.214 6.829-1.833l.13.075c2.392 1.38 3.213 4.438 1.833 6.829-.926 1.606-2.607 2.503-4.336 2.503z"/></g><g><path d="m51.731 401.211c-1.726 0-3.405-.895-4.332-2.496-1.384-2.39-.568-5.448 1.822-6.832l.13-.075c2.392-1.385 5.449-.568 6.833 1.822s.568 5.448-1.822 6.832l-.13.075c-.789.457-1.65.674-2.501.674z"/><path d="m75.793 387.318c-1.738 0-3.428-.908-4.35-2.527-1.366-2.399-.528-5.453 1.872-6.819l.13-.074c2.399-1.367 5.452-.529 6.819 1.872 1.366 2.399.528 5.453-1.872 6.819l-.13.074c-.781.444-1.631.655-2.469.655z"/></g></g><g><g><path d="m398.895 44.138c-2.761 0-5-2.238-5-5v-.15c0-2.762 2.239-5 5-5s5 2.238 5 5v.15c0 2.761-2.239 5-5 5z"/><path d="m398.895 71.922c-2.761 0-5-2.238-5-5v-.15c0-2.762 2.239-5 5-5s5 2.238 5 5v.15c0 2.762-2.239 5-5 5z"/></g><g><path d="m386.924 51.047c-.848 0-1.706-.216-2.493-.67l-.13-.075c-2.392-1.38-3.213-4.438-1.833-6.829 1.38-2.393 4.437-3.214 6.829-1.833l.13.075c2.392 1.38 3.213 4.438 1.833 6.829-.926 1.605-2.607 2.503-4.336 2.503z"/><path d="m410.985 64.939c-.85 0-1.712-.217-2.501-.674l-.13-.075c-2.39-1.384-3.206-4.442-1.822-6.832 1.384-2.391 4.441-3.207 6.832-1.822l.13.075c2.39 1.384 3.206 4.442 1.822 6.832-.925 1.602-2.605 2.496-4.331 2.496z"/></g><g><path d="m386.803 64.939c-1.729 0-3.41-.897-4.336-2.503-1.38-2.392-.559-5.449 1.833-6.829l.13-.075c2.392-1.382 5.449-.559 6.829 1.833s.559 5.449-1.833 6.829l-.13.075c-.786.455-1.646.67-2.493.67z"/><path d="m410.865 51.047c-1.726 0-3.405-.895-4.332-2.496-1.384-2.39-.568-5.448 1.822-6.832l.13-.075c2.391-1.385 5.449-.568 6.833 1.822s.568 5.448-1.822 6.832l-.13.075c-.789.457-1.651.674-2.501.674z"/></g></g></g></g><g><g><path d="m229.865 240.376h-89.965c-2.761 0-5 2.239-5 5 0 2.762 2.239 5 5 5h90.18c2.924 0 5.261-2.51 4.977-5.492-.249-2.599-2.581-4.508-5.192-4.508z" fill="#ff9d33"/></g><g><path d="m174.865 220.426h-34.965c-2.761 0-5 2.238-5 5 0 2.761 2.239 5 5 5h35.18c2.924 0 5.261-2.51 4.977-5.492-.249-2.599-2.581-4.508-5.192-4.508z" fill="#ff9d33"/></g></g></g><g><path d="m120.858 105.53h-8.142c-2.761 0-5-2.238-5-5s2.239-5 5-5h8.142c2.761 0 5 2.238 5 5s-2.239 5-5 5z" fill="#6c6cff"/></g><g><path d="m120.858 124.586h-8.142c-2.761 0-5-2.238-5-5s2.239-5 5-5h8.142c2.761 0 5 2.238 5 5s-2.239 5-5 5z" fill="#6c6cff"/></g><g><path d="m120.858 143.642h-8.142c-2.761 0-5-2.238-5-5s2.239-5 5-5h8.142c2.761 0 5 2.238 5 5s-2.239 5-5 5z" fill="#6c6cff"/></g><g><path d="m120.858 162.698h-8.142c-2.761 0-5-2.238-5-5s2.239-5 5-5h8.142c2.761 0 5 2.238 5 5s-2.239 5-5 5z" fill="#6c6cff"/></g></g><path d="m287.03 79.37v202.35c0 13.17-10.67 23.84-23.84 23.84h-156.4c-13.17 0-23.84-10.67-23.84-23.84v-202.35c0-13.17 10.67-23.84 23.84-23.84h156.4c13.17 0 23.84 10.67 23.84 23.84z" fill="url(#SVGID_2_)"/></g></svg>