<svg id="Capa_1" enable-background="new 0 0 512 512" height="512" viewBox="0 0 512 512" width="512" xmlns="http://www.w3.org/2000/svg" xmlns:xlink="http://www.w3.org/1999/xlink"><linearGradient id="SVGID_1_" gradientUnits="userSpaceOnUse" x1="-21.409" x2="490.399" y1="373.272" y2="77.779"><stop offset="0" stop-color="#fff" stop-opacity="0"/><stop offset=".2532" stop-color="#eef" stop-opacity=".403"/><stop offset=".629" stop-color="#d9d9ff"/></linearGradient><linearGradient id="SVGID_2_" gradientUnits="userSpaceOnUse" x1="249.416" x2="249.416" y1="463.282" y2="58.446"><stop offset="0" stop-color="#ff4d4d" stop-opacity=".4"/><stop offset="1" stop-color="#ff4d4d" stop-opacity="0"/></linearGradient><g><g><path d="m451.798 43.963c-160.556-97.869-410.51-8.611-439.594 61.949-38.908 94.393 26.578 110.528 38.743 187.874 9.761 62.061-51.182 121.495-16.394 176.282 37.882 59.663 163.465 44.681 211.198 16.447 87.376-51.682 43.309-112.012 84.684-187.299 39.408-71.707 116.244-42.625 160.961-99.99 42.5-54.521 14.311-122.402-39.598-155.263z" fill="url(#SVGID_1_)"/></g><g><g><g><g><g><path d="m342.255 58.446v357.311c0 13.234-41.566 23.967-92.839 23.967s-92.839-10.732-92.839-23.967v-357.311z" fill="#ffab66"/><g fill="#ff9d33"><path d="m301.423 208.286h40.832v-59.767h-40.832c-2.474 0-4.477 2.004-4.477 4.468v5.888l-12.755 3.311c-4.769 1.242-10.347 1.9-16.132 1.9s-11.363-.658-16.132-1.9l-12.755-3.311v-5.888c0-2.464-2.003-4.468-4.477-4.468h-44.463c-2.474 0-4.477 2.004-4.477 4.468v13.009c-7.911-3.405-16.63-5.296-25.792-5.296-1.138 0-2.267.028-3.386.085v130.567c1.119.056 2.248.085 3.386.085 9.161 0 17.881-1.9 25.792-5.305v15.116c0 2.474 2.003 4.477 4.477 4.477h44.463c2.474 0 4.477-2.004 4.477-4.477v-3.029l.376.094c8.889 2.304 18.483 3.471 28.51 3.471s19.621-1.166 28.51-3.471l.376-.094v3.029c0 2.474 2.004 4.477 4.477 4.477h40.832v-59.776h-40.832c-2.474 0-4.477 2.003-4.477 4.477v5.888l-12.755 3.311c-4.769 1.242-10.347 1.891-16.132 1.891s-11.363-.649-16.132-1.891l-12.755-3.311v-5.888c0-2.474-2.003-4.477-4.477-4.477h-12.454c1.994-6.274 3.085-12.952 3.085-19.885 0-6.161-.875-12.115-2.464-17.778h11.833c2.474 0 4.477-2.003 4.477-4.468v-3.038l.376.104c8.889 2.295 18.483 3.471 28.51 3.471s19.621-1.176 28.51-3.471l.376-.104v3.038c.004 2.464 2.007 4.468 4.481 4.468zm18.822-45.375h15.435v30.984h-15.435zm0 97.438h15.435v30.974h-15.435zm-104.371 30.974h-15.436v-13.959c6.001-4.731 11.146-10.488 15.182-17.016h.254zm0-99.131c-4.064-6.697-9.312-12.595-15.436-17.43v-11.852h15.436z"/><path d="m215.877 388.757h-15.436v-30.979h15.436zm119.801 0h-15.436v-30.979h15.436zm-34.255-45.38c-2.474 0-4.477 2.003-4.477 4.477v5.888l-12.755 3.311c-4.769 1.242-10.347 1.9-16.132 1.9s-11.363-.659-16.132-1.9l-12.755-3.311v-5.888c0-2.474-2.003-4.477-4.477-4.477h-44.463c-2.474 0-4.477 2.003-4.477 4.477v50.831c0 2.464 2.003 4.468 4.477 4.468h44.463c2.474 0 4.477-2.003 4.477-4.468v-3.038l.376.103c8.889 2.295 18.483 3.471 28.51 3.471s19.621-1.176 28.51-3.471l.376-.103v3.038c0 2.464 2.004 4.468 4.477 4.468h40.832v-59.776z"/></g></g><g><path d="m157.007 60.757-.428-1.153s.124.415.428 1.153z" fill="#ffc599"/><path d="m259.114 110.932v343.4c0 5.06-4.214 9.115-9.274 8.945-81.551-2.803-93.262-42.375-93.262-42.375v-360.142c2.69 6.537 20.092 38.857 93.826 41.227 4.844.16 8.71 4.101 8.71 8.945z" fill="#ffc599"/><g><g><path d="m251.928 357.053-12.755-3.311v-5.888c0-2.474-2.003-4.477-4.477-4.477h-44.463c-2.474 0-4.477 2.003-4.477 4.477v50.831c0 2.464 2.003 4.468 4.477 4.468h44.463c2.474 0 4.477-2.003 4.477-4.468v-3.038l.376.103c6.208 1.599 12.764 2.662 19.565 3.151v-40.493c-2.54-.31-4.947-.771-7.186-1.355zm-36.054 31.709h-15.436v-30.984h15.436z" fill="#ffab66"/></g><path d="m239.173 203.818v-3.038l.376.104c6.208 1.599 12.764 2.662 19.565 3.151v-40.503c-2.54-.31-4.948-.762-7.186-1.345l-12.755-3.311v-5.888c0-2.464-2.003-4.468-4.477-4.468h-44.463c-2.474 0-4.477 2.004-4.477 4.468v13.009c-7.911-3.405-16.63-5.296-25.792-5.296-1.138 0-2.267.028-3.386.085v130.567c1.119.056 2.248.085 3.386.085 9.161 0 17.881-1.9 25.792-5.305v15.116c0 2.474 2.003 4.477 4.477 4.477h44.463c2.474 0 4.477-2.004 4.477-4.477v-3.029l.376.094c6.208 1.608 12.764 2.662 19.565 3.151v-40.495c-2.54-.31-4.948-.762-7.186-1.345l-12.755-3.311v-5.888c0-2.474-2.003-4.477-4.477-4.477h-12.454c1.994-6.274 3.085-12.952 3.085-19.885 0-6.161-.875-12.115-2.464-17.778h11.833c2.474 0 4.477-2.004 4.477-4.468zm-23.299 87.505h-15.436v-13.959c6.001-4.731 11.146-10.488 15.182-17.016h.254zm0-99.131c-4.064-6.697-9.312-12.595-15.436-17.43v-11.852h15.436z" fill="#ffab66"/></g><path d="m156.578 58.446v2.314 354.997 5.145s11.711 39.572 93.262 42.375c5.06.169 9.274-3.885 9.274-8.945v-14.738c46.715-1.252 83.141-11.448 83.141-23.837v-357.311z" fill="url(#SVGID_2_)"/></g><ellipse cx="249.416" cy="59.604" fill="#ff8b00" rx="92.836" ry="23.96"/><path d="m296.233 31.385v30.8c-12.331 2.022-28.08 3.481-46.817 3.481-14.926 0-27.954-.922-38.871-2.327 18.747-4.823 60.052-16.975 79.568-34.692 2.352-2.139 6.12-.439 6.12 2.738z" fill="#ffab66"/></g><g><g><path d="m302.994 136.507v41.896l-6.425 1.673c-8.886 2.3-18.478 3.472-28.509 3.472s-19.624-1.172-28.509-3.472l-6.425-1.673v-41.896l18.8 4.877c4.769 1.244 10.353 1.897 16.134 1.897s11.364-.653 16.134-1.897z" fill="#fff"/></g><g fill="#b3b3ff"><path d="m185.757 132.185v50.826c0 2.471 2.003 4.474 4.474 4.474h44.464c2.471 0 4.474-2.003 4.474-4.474v-50.826c0-2.471-2.003-4.474-4.474-4.474h-44.464c-2.471 0-4.474 2.003-4.474 4.474zm30.12 40.902h-15.436v-30.979h15.436z"/><path d="m350.362 183.011v-50.826c0-2.471-2.003-4.474-4.474-4.474h-44.464c-2.471 0-4.474 2.003-4.474 4.474v50.826c0 2.471 2.003 4.474 4.474 4.474h44.464c2.471 0 4.474-2.003 4.474-4.474zm-30.12-40.902h15.436v30.979h-15.436z"/></g></g><g><g><path d="m302.994 233.939v41.896l-6.425 1.673c-8.886 2.3-18.478 3.472-28.509 3.472s-19.624-1.172-28.509-3.472l-6.425-1.673v-41.896l18.8 4.877c4.769 1.244 10.353 1.897 16.134 1.897s11.364-.653 16.134-1.897z" fill="#fff"/></g><g fill="#b3b3ff"><path d="m185.757 229.617v50.826c0 2.471 2.003 4.474 4.474 4.474h44.464c2.471 0 4.474-2.003 4.474-4.474v-50.826c0-2.471-2.003-4.474-4.474-4.474h-44.464c-2.471 0-4.474 2.003-4.474 4.474zm30.12 40.903h-15.436v-30.979h15.436z"/><path d="m350.362 280.444v-50.826c0-2.471-2.003-4.474-4.474-4.474h-44.464c-2.471 0-4.474 2.003-4.474 4.474v50.826c0 2.471 2.003 4.474 4.474 4.474h44.464c2.471 0 4.474-2.003 4.474-4.474zm-30.12-40.903h15.436v30.979h-15.436z"/></g></g><g><g><path d="m302.994 331.372v41.896l-6.425 1.673c-8.886 2.3-18.478 3.472-28.509 3.472s-19.624-1.172-28.509-3.472l-6.425-1.673v-41.896l18.8 4.877c4.769 1.244 10.353 1.897 16.134 1.897s11.364-.653 16.134-1.897z" fill="#fff"/></g><g fill="#b3b3ff"><path d="m185.757 327.05v50.826c0 2.471 2.003 4.474 4.474 4.474h44.464c2.471 0 4.474-2.003 4.474-4.474v-50.826c0-2.471-2.003-4.474-4.474-4.474h-44.464c-2.471 0-4.474 2.003-4.474 4.474zm30.12 40.903h-15.436v-30.979h15.436z"/><path d="m350.362 377.876v-50.826c0-2.471-2.003-4.474-4.474-4.474h-44.464c-2.471 0-4.474 2.003-4.474 4.474v50.826c0 2.471 2.003 4.474 4.474 4.474h44.464c2.471 0 4.474-2.003 4.474-4.474zm-30.12-40.902h15.436v30.979h-15.436z"/></g></g></g><g><circle cx="159.96" cy="205.261" fill="#ff4d4d" r="65.367"/><path d="m190.376 191.489h-16.645v-16.645c0-5.195-4.211-9.406-9.406-9.406h-8.731c-5.195 0-9.406 4.211-9.406 9.406v16.645h-16.645c-5.195 0-9.406 4.211-9.406 9.406v8.731c0 5.195 4.211 9.406 9.406 9.406h16.645v16.645c0 5.195 4.211 9.406 9.406 9.406h8.731c5.195 0 9.406-4.211 9.406-9.406v-16.645h16.645c5.195 0 9.406-4.211 9.406-9.406v-8.731c0-5.195-4.211-9.406-9.406-9.406z" fill="#fff"/></g><g fill="#2c27ff"><path d="m131.551 287.277h-17.479c-2.761 0-5 2.239-5 5s2.239 5 5 5h17.479c2.761 0 5-2.239 5-5s-2.239-5-5-5z"/><path d="m131.551 304.567h-55.104c-2.761 0-5 2.239-5 5s2.239 5 5 5h55.104c2.761 0 5-2.239 5-5s-2.239-5-5-5z"/><path d="m131.551 321.857h-55.104c-2.761 0-5 2.239-5 5s2.239 5 5 5h55.104c2.761 0 5-2.239 5-5s-2.239-5-5-5z"/></g></g><path d="m394.027 307.334c-2.762 0-5-2.239-5-5 0-3.492-2.841-6.333-6.333-6.333-2.762 0-5-2.239-5-5s2.238-5 5-5c3.492 0 6.333-2.841 6.333-6.333 0-2.761 2.238-5 5-5s5 2.239 5 5c0 3.492 2.842 6.333 6.334 6.333 2.762 0 5 2.239 5 5s-2.238 5-5 5c-3.492 0-6.334 2.841-6.334 6.333 0 2.761-2.238 5-5 5z" fill="#ff9d33"/><g fill="#6c6cff"><g><path d="m110.137 93.489c-2.761 0-5-2.239-5-5v-.15c0-2.761 2.239-5 5-5s5 2.239 5 5v.15c0 2.762-2.239 5-5 5z"/><path d="m110.137 121.273c-2.761 0-5-2.239-5-5v-.15c0-2.761 2.239-5 5-5s5 2.239 5 5v.15c0 2.762-2.239 5-5 5z"/></g><g><path d="m98.167 100.399c-.85 0-1.711-.217-2.5-.674l-.13-.075c-2.39-1.384-3.205-4.442-1.822-6.832 1.383-2.389 4.442-3.206 6.832-1.822l.13.075c2.39 1.384 3.205 4.442 1.822 6.833-.927 1.6-2.606 2.495-4.332 2.495z"/><path d="m122.229 114.291c-.848 0-1.706-.216-2.493-.67l-.13-.075c-2.392-1.379-3.213-4.437-1.833-6.829s4.437-3.213 6.829-1.833l.13.075c2.392 1.379 3.213 4.437 1.833 6.829-.926 1.605-2.608 2.503-4.336 2.503z"/></g><g><path d="m98.046 114.291c-1.726 0-3.405-.895-4.332-2.496-1.384-2.39-.568-5.449 1.822-6.832l.13-.075c2.391-1.383 5.45-.568 6.832 1.822 1.384 2.39.568 5.449-1.822 6.833l-.13.075c-.788.456-1.65.673-2.5.673z"/><path d="m122.108 100.399c-1.729 0-3.41-.898-4.336-2.503-1.38-2.392-.559-5.45 1.833-6.829l.13-.075c2.391-1.382 5.449-.559 6.829 1.833s.559 5.45-1.833 6.829l-.13.075c-.787.454-1.646.67-2.493.67z"/></g></g><g fill="#6c6cff"><g><path d="m397.278 182.129c-2.762 0-5-2.239-5-5v-.15c0-2.761 2.238-5 5-5s5 2.239 5 5v.15c0 2.762-2.238 5-5 5z"/><path d="m397.278 209.914c-2.762 0-5-2.239-5-5v-.15c0-2.761 2.238-5 5-5s5 2.239 5 5v.15c0 2.761-2.238 5-5 5z"/></g><g><path d="m385.308 189.039c-.846 0-1.702-.215-2.488-.667l-.13-.075c-2.394-1.376-3.218-4.433-1.841-6.827 1.376-2.393 4.432-3.219 6.827-1.841l.13.075c2.393 1.376 3.218 4.433 1.841 6.827-.925 1.608-2.608 2.508-4.339 2.508z"/><path d="m409.369 202.931c-.846 0-1.702-.215-2.488-.667l-.13-.075c-2.394-1.376-3.218-4.433-1.841-6.827 1.376-2.394 4.432-3.219 6.827-1.841l.13.075c2.393 1.376 3.218 4.433 1.841 6.827-.925 1.608-2.607 2.508-4.339 2.508z"/></g><g><path d="m385.188 202.931c-1.731 0-3.414-.9-4.339-2.508-1.377-2.394-.553-5.451 1.841-6.827l.13-.075c2.396-1.378 5.451-.552 6.827 1.841 1.377 2.394.553 5.451-1.841 6.827l-.13.075c-.786.452-1.643.667-2.488.667z"/><path d="m409.249 189.039c-1.731 0-3.414-.9-4.339-2.508-1.377-2.394-.553-5.451 1.841-6.827l.13-.075c2.396-1.377 5.451-.552 6.827 1.841 1.377 2.394.553 5.451-1.841 6.827l-.13.075c-.786.452-1.642.667-2.488.667z"/></g></g><g fill="#ff4d4d"><path d="m415.577 267.208c-2.762 0-5-2.239-5-5 0-3.492-2.841-6.333-6.333-6.333-2.762 0-5-2.239-5-5s2.238-5 5-5c3.492 0 6.333-2.841 6.333-6.333 0-2.761 2.238-5 5-5s5 2.239 5 5c0 3.492 2.841 6.333 6.333 6.333 2.762 0 5 2.239 5 5s-2.238 5-5 5c-3.492 0-6.333 2.841-6.333 6.333 0 2.761-2.238 5-5 5z"/><path d="m114.072 408.356c-2.761 0-5-2.239-5-5 0-3.492-2.841-6.333-6.333-6.333-2.761 0-5-2.239-5-5s2.239-5 5-5c3.492 0 6.333-2.841 6.333-6.333 0-2.761 2.239-5 5-5s5 2.239 5 5c0 3.492 2.841 6.333 6.333 6.333 2.761 0 5 2.239 5 5s-2.239 5-5 5c-3.492 0-6.333 2.841-6.333 6.333 0 2.761-2.239 5-5 5z"/></g></g></g></svg>