<svg id="Capa_1" enable-background="new 0 0 512 512" height="512" viewBox="0 0 512 512" width="512" xmlns="http://www.w3.org/2000/svg" xmlns:xlink="http://www.w3.org/1999/xlink"><linearGradient id="SVGID_1_" gradientUnits="userSpaceOnUse" x1="23.821" x2="459.531" y1="343.269" y2="91.711"><stop offset="0" stop-color="#fff" stop-opacity="0"/><stop offset=".2532" stop-color="#eef" stop-opacity=".403"/><stop offset=".629" stop-color="#d9d9ff"/></linearGradient><linearGradient id="SVGID_2_" gradientUnits="userSpaceOnUse" x1="256" x2="256" y1="377.666" y2="126.593"><stop offset="0" stop-color="#ff4d4d" stop-opacity=".4"/><stop offset="1" stop-color="#ff4d4d" stop-opacity="0"/></linearGradient><g><g><path d="m16.074 302.88c18.727 64.003 72.707 194.564 163.922 182.844 91.486-11.754 55.758-129.724 139.508-145.893 36.867-7.118 61.857 56.689 98.806 54.704 47.588-2.557 71.81-49.663 85.108-89.264 28.197-83.968-14.029-226.352-112.858-251.011-86.245-21.519-96.332 83.855-171.322 53.248-42.149-17.203-37.938-68.576-89.272-78.942-155.299-31.36-138.811 189.15-113.892 274.314z" fill="url(#SVGID_1_)"/></g><g><g><g opacity=".1"><g><circle cx="355.596" cy="174.145" fill="#2626bc" r="69.494"/></g></g><g><g><path d="m372.548 377.666c33.039.003 65.607-15.297 86.468-44.101 34.554-47.707 23.891-114.392-23.815-148.946-52.411-37.961-114.378-58.026-179.201-58.026-64.825 0-126.794 20.065-179.203 58.027-47.706 34.556-58.367 101.241-23.812 148.947 34.554 47.708 101.244 58.366 148.945 23.812 15.779-11.428 34.477-17.47 54.07-17.47 19.592 0 38.29 6.041 54.07 17.471 18.904 13.692 40.796 20.284 62.478 20.286z" fill="#b3b3ff"/><path d="m425.08 177.59c-.69 37.79-31.53 68.21-69.48 68.21-38.38 0-69.5-31.12-69.5-69.5 0-17.66 6.59-33.79 17.45-46.05 43.38 6.76 84.62 22.78 121.53 47.34z" fill="#9494ff"/><path d="m78.171 332.383c-3.246-3.247-6.27-6.795-8.988-10.548-13.579-18.747-19.045-41.66-15.391-64.516s15.991-42.923 34.737-56.502c48.975-35.474 106.885-54.225 167.471-54.225 60.582 0 118.492 18.75 167.469 54.224 3.753 2.719 7.301 5.742 10.546 8.987 14.394 14.394 23.266 33.571 24.98 53.998 1.731 20.63-4.014 41.238-16.177 58.031-16.252 22.44-42.521 35.835-70.268 35.833-18.313-.001-35.862-5.7-50.748-16.482-19.212-13.917-41.967-21.274-65.801-21.274-23.837 0-46.591 7.356-65.803 21.273-16.793 12.163-37.401 17.91-58.03 16.181-20.424-1.713-39.602-10.585-53.995-24.977-.001-.002-.001-.001-.002-.003z" fill="#9494ff"/><path d="m421.22 199.21c-9.46 27.13-35.27 46.59-65.62 46.59-38.38 0-69.5-31.12-69.5-69.5 0-9.77 2.02-19.07 5.66-27.5 46.59 5.79 90.75 22.92 129.46 50.41z" fill="#8383ff"/></g><g><path d="m203.834 297.717-27.114 27.114c-4.4 4.401-11.299 5.04-16.452 1.551-7.354-4.98-14.768-11.083-21.857-18.172s-13.192-14.503-18.172-21.857c-3.49-5.153-2.85-12.051 1.551-16.451l27.114-27.114c4.401-4.4 11.299-5.04 16.452-1.551 7.354 4.98 14.768 11.084 21.857 18.172 7.088 7.088 13.192 14.503 18.172 21.857 3.49 5.152 2.85 12.05-1.551 16.451z" fill="#fff3ee"/><path d="m193.962 266.581-48.374 48.374c-2.426-2.138-4.817-4.391-7.179-6.754-2.357-2.357-4.61-4.748-6.742-7.168l48.374-48.374c2.42 2.132 4.811 4.386 7.168 6.742 2.362 2.363 4.615 4.754 6.753 7.18z" fill="#ffab66"/></g><g><path d="m159.19 327.28c0 8.98-.84 17.55-2.34 25.37-.24 1.25-.67 2.42-1.27 3.48-7.66 1.46-15.53 1.89-23.41 1.23-11.77-.99-23.12-4.35-33.38-9.78-.96-6.4-1.48-13.22-1.48-20.3 0-8.99.84-17.56 2.34-25.38 1.05-5.48 5.83-9.44 11.41-9.44h34.38c5.58 0 10.36 3.96 11.41 9.44 1.5 7.82 2.34 16.39 2.34 25.38z" fill="#fff"/><path d="m158.918 336.101h-61.33c-.182-2.893-.27-5.837-.27-8.832 0-2.988.087-5.932.27-8.818h61.33c.182 2.886.27 5.83.27 8.818 0 2.995-.088 5.939-.27 8.832z" fill="#ffc599"/></g><path d="m455.376 296.753c-.021-.318-.042-.636-.071-.947-1.711-20.421-10.578-39.598-24.975-53.995-3.246-3.245-6.795-6.272-10.543-8.987-48.981-35.476-106.893-54.228-167.471-54.221-60.585 0-118.497 18.753-167.471 54.221-15.373 11.144-26.446 26.644-31.94 44.47-.474-6.583-.191-13.287.884-19.976 3.663-22.854 15.995-42.921 34.74-56.505 48.974-35.468 106.886-54.221 167.471-54.221s118.497 18.753 167.471 54.221c3.755 2.722 7.297 5.742 10.543 8.987 14.397 14.397 23.264 33.573 24.982 54.002.941 11.193-.325 22.372-3.62 32.951z" fill="#8383ff"/><path d="m421.22 199.21c-3.21 9.2-8.29 17.51-14.8 24.48-36.48-23.43-77.34-38.06-120.19-43.11-.09-1.42-.13-2.84-.13-4.28 0-9.77 2.02-19.07 5.66-27.5 46.59 5.79 90.75 22.92 129.46 50.41z" fill="#6c6cff"/></g><path d="m158.05 345.11c-.33 2.58-.73 5.1-1.2 7.54-.24 1.25-.67 2.42-1.27 3.48-7.66 1.46-15.53 1.89-23.41 1.23-11.77-.99-23.12-4.35-33.38-9.78-.54-3.59-.94-7.31-1.18-11.14 10.57 5.8 22.34 9.39 34.56 10.41 8.73.73 17.45.13 25.88-1.74z" fill="#fff3ee"/><path d="m372.548 377.666c33.039.003 65.607-15.297 86.468-44.101 34.554-47.707 23.891-114.392-23.815-148.946-52.411-37.961-114.378-58.026-179.201-58.026-64.825 0-126.794 20.065-179.203 58.027-47.706 34.556-58.367 101.241-23.812 148.947 34.554 47.708 101.244 58.366 148.945 23.812 15.779-11.428 34.477-17.47 54.07-17.47 19.592 0 38.29 6.041 54.07 17.471 18.904 13.692 40.796 20.284 62.478 20.286z" fill="url(#SVGID_2_)"/><g><circle cx="355.596" cy="149.145" fill="#ff4d4d" r="69.494"/><path d="m387.932 134.504h-17.695v-17.696c0-5.523-4.477-10-10-10h-9.282c-5.523 0-10 4.477-10 10v17.696h-17.695c-5.523 0-10 4.477-10 10v9.282c0 5.523 4.477 10 10 10h17.695v17.695c0 5.523 4.477 10 10 10h9.282c5.523 0 10-4.477 10-10v-17.695h17.695c5.523 0 10-4.477 10-10v-9.282c0-5.523-4.477-10-10-10z" fill="#fff"/></g><g fill="#2c27ff"><path d="m266.783 385.918h18.583c2.762 0 5-2.239 5-5s-2.238-5-5-5h-18.583c-2.762 0-5 2.239-5 5s2.239 5 5 5z"/><path d="m325.366 394.3h-58.583c-2.762 0-5 2.239-5 5s2.238 5 5 5h58.583c2.762 0 5-2.239 5-5s-2.238-5-5-5z"/><path d="m325.366 412.681h-58.583c-2.762 0-5 2.239-5 5s2.238 5 5 5h58.583c2.762 0 5-2.239 5-5s-2.238-5-5-5z"/></g></g><path d="m365.596 444.015c-2.762 0-5-2.239-5-5 0-3.492-2.841-6.333-6.333-6.333-2.762 0-5-2.239-5-5s2.238-5 5-5c3.492 0 6.333-2.841 6.333-6.333 0-2.761 2.238-5 5-5s5 2.239 5 5c0 3.492 2.841 6.333 6.333 6.333 2.762 0 5 2.239 5 5s-2.238 5-5 5c-3.492 0-6.333 2.841-6.333 6.333 0 2.761-2.239 5-5 5z" fill="#ff4d4d"/><path d="m239.586 83.306c-2.762 0-5-2.239-5-5 0-3.492-2.841-6.333-6.333-6.333-2.762 0-5-2.239-5-5s2.238-5 5-5c3.492 0 6.333-2.841 6.333-6.333 0-2.761 2.238-5 5-5s5 2.239 5 5c0 3.492 2.842 6.333 6.334 6.333 2.762 0 5 2.239 5 5s-2.238 5-5 5c-3.492 0-6.334 2.841-6.334 6.333 0 2.761-2.238 5-5 5z" fill="#ff4d4d"/><path d="m227.365 408.585c-2.762 0-5-2.239-5-5 0-3.492-2.841-6.333-6.333-6.333-2.762 0-5-2.239-5-5s2.238-5 5-5c3.492 0 6.333-2.841 6.333-6.334 0-2.761 2.238-5 5-5s5 2.239 5 5c0 3.492 2.841 6.334 6.333 6.334 2.762 0 5 2.239 5 5s-2.238 5-5 5c-3.492 0-6.333 2.841-6.333 6.333 0 2.761-2.238 5-5 5z" fill="#ff9d33"/><g fill="#ff9d33"><g><path d="m199.67 84.483c-2.762 0-5-2.239-5-5v-.15c0-2.761 2.238-5 5-5s5 2.239 5 5v.15c0 2.762-2.238 5-5 5z"/><path d="m199.67 112.268c-2.762 0-5-2.239-5-5v-.15c0-2.761 2.238-5 5-5s5 2.239 5 5v.15c0 2.761-2.238 5-5 5z"/></g><g><path d="m187.699 91.393c-.851 0-1.712-.217-2.5-.674l-.13-.075c-2.39-1.384-3.206-4.442-1.822-6.832s4.445-3.205 6.832-1.822l.13.075c2.39 1.384 3.206 4.442 1.822 6.833-.926 1.6-2.606 2.495-4.332 2.495z"/><path d="m211.761 105.285c-.851 0-1.712-.217-2.5-.674l-.13-.075c-2.39-1.384-3.206-4.442-1.822-6.832 1.383-2.39 4.444-3.205 6.832-1.822l.13.075c2.39 1.384 3.206 4.442 1.822 6.833-.927 1.6-2.607 2.495-4.332 2.495z"/></g><g><path d="m187.579 105.285c-1.727 0-3.405-.895-4.332-2.496-1.384-2.39-.567-5.449 1.822-6.833l.13-.075c2.39-1.384 5.449-.567 6.832 1.822 1.384 2.39.567 5.449-1.822 6.832l-.13.075c-.788.458-1.65.675-2.5.675z"/><path d="m211.641 91.393c-1.727 0-3.405-.895-4.332-2.496-1.384-2.39-.567-5.449 1.822-6.833l.13-.075c2.391-1.384 5.449-.567 6.832 1.822 1.384 2.39.567 5.449-1.822 6.832l-.13.075c-.788.458-1.651.675-2.5.675z"/></g></g><g fill="#6c6cff"><g><path d="m148.286 61.699c-2.762 0-5-2.239-5-5v-.15c0-2.761 2.238-5 5-5s5 2.239 5 5v.15c0 2.761-2.238 5-5 5z"/><path d="m148.286 89.483c-2.762 0-5-2.239-5-5v-.15c0-2.761 2.238-5 5-5s5 2.239 5 5v.15c0 2.762-2.238 5-5 5z"/></g><g><path d="m136.315 68.609c-.851 0-1.712-.217-2.5-.674l-.13-.075c-2.39-1.384-3.206-4.442-1.822-6.833 1.384-2.389 4.444-3.204 6.832-1.822l.13.075c2.39 1.384 3.206 4.442 1.822 6.832-.926 1.602-2.606 2.497-4.332 2.497z"/><path d="m160.377 82.501c-.851 0-1.712-.217-2.5-.674l-.13-.075c-2.39-1.384-3.206-4.442-1.822-6.833 1.384-2.39 4.445-3.205 6.832-1.822l.13.075c2.39 1.384 3.206 4.442 1.822 6.833-.927 1.601-2.606 2.496-4.332 2.496z"/></g><g><path d="m136.195 82.501c-1.727 0-3.405-.895-4.332-2.496-1.384-2.39-.567-5.449 1.822-6.833l.13-.075c2.39-1.384 5.449-.567 6.832 1.822 1.384 2.39.567 5.449-1.822 6.833l-.13.075c-.788.457-1.65.674-2.5.674z"/><path d="m160.257 68.609c-1.727 0-3.405-.895-4.332-2.496-1.384-2.39-.567-5.449 1.822-6.832l.13-.075c2.39-1.384 5.449-.567 6.832 1.822 1.384 2.39.567 5.449-1.822 6.833l-.13.075c-.788.456-1.651.673-2.5.673z"/></g></g></g></g></svg>