<svg id="Capa_1" enable-background="new 0 0 512 512" height="512" viewBox="0 0 512 512" width="512" xmlns="http://www.w3.org/2000/svg" xmlns:xlink="http://www.w3.org/1999/xlink"><linearGradient id="SVGID_1_" gradientUnits="userSpaceOnUse" x1="23.821" x2="459.531" y1="347.057" y2="95.5"><stop offset="0" stop-color="#fff" stop-opacity="0"/><stop offset=".2532" stop-color="#eef" stop-opacity=".403"/><stop offset=".629" stop-color="#d9d9ff"/></linearGradient><linearGradient id="SVGID_2_" gradientUnits="userSpaceOnUse" x1="256" x2="256" y1="460.43" y2="69.147"><stop offset="0" stop-color="#ff4d4d" stop-opacity=".4"/><stop offset="1" stop-color="#ff4d4d" stop-opacity="0"/></linearGradient><g><g><path d="m16.074 306.669c18.727 64.003 72.707 194.564 163.922 182.845 91.486-11.755 55.758-129.725 139.508-145.894 36.867-7.118 61.857 56.689 98.806 54.704 47.588-2.557 71.81-49.663 85.108-89.264 28.197-83.968-14.029-226.352-112.858-251.012-86.245-21.519-96.332 83.855-171.322 53.248-42.149-17.203-37.938-68.576-89.272-78.942-155.299-31.359-138.811 189.15-113.892 274.315z" fill="url(#SVGID_1_)"/></g><g><g><g><path d="m392.471 460.43h-272.942c-8.284 0-15-6.716-15-15v-361.283c0-8.284 6.716-15 15-15h272.943c8.284 0 15 6.716 15 15v361.283c-.001 8.284-6.716 15-15.001 15z" fill="#8383ff"/></g><g><g><path d="m145.671 433.551h-6.52c-2.762 0-5-2.239-5-5s2.238-5 5-5h6.52c2.762 0 5 2.239 5 5s-2.238 5-5 5z" fill="#fff"/></g><g><path d="m245.671 415.523h-106.52c-2.762 0-5-2.239-5-5s2.238-5 5-5h106.52c2.762 0 5 2.239 5 5s-2.238 5-5 5z" fill="#fff"/></g><g><path d="m179.271 433.551h-6.52c-2.762 0-5-2.239-5-5s2.238-5 5-5h6.52c2.762 0 5 2.239 5 5s-2.238 5-5 5z" fill="#fff"/></g><g><path d="m212.872 433.551h-6.52c-2.762 0-5-2.239-5-5s2.238-5 5-5h6.52c2.762 0 5 2.239 5 5s-2.239 5-5 5z" fill="#fff"/></g><g><path d="m274.815 415.523h-6.52c-2.762 0-5-2.239-5-5s2.238-5 5-5h6.52c2.762 0 5 2.239 5 5s-2.239 5-5 5z" fill="#fff"/></g><g><g><path d="m372.848 433.609c-2.761 0-5-2.239-5-5v-.115c0-2.761 2.239-5 5-5s5 2.239 5 5v.115c0 2.761-2.238 5-5 5z" fill="#fff"/></g><g><path d="m372.848 415.58c-2.761 0-5-2.239-5-5v-.115c0-2.761 2.239-5 5-5s5 2.239 5 5v.115c0 2.762-2.238 5-5 5z" fill="#fff"/></g><g><path d="m372.848 397.552c-2.761 0-5-2.239-5-5v-.115c0-2.761 2.239-5 5-5s5 2.239 5 5v.115c0 2.761-2.238 5-5 5z" fill="#fff"/></g><g><path d="m372.848 379.524c-2.761 0-5-2.239-5-5v-.115c0-2.761 2.239-5 5-5s5 2.239 5 5v.115c0 2.761-2.238 5-5 5z" fill="#fff"/></g></g><g><g><path d="m142.412 160.169c-2.761 0-5-2.239-5-5v-.115c0-2.761 2.239-5 5-5s5 2.239 5 5v.115c0 2.761-2.239 5-5 5z" fill="#fff"/></g><g><path d="m142.412 142.14c-2.761 0-5-2.239-5-5v-.115c0-2.761 2.239-5 5-5s5 2.239 5 5v.115c0 2.762-2.239 5-5 5z" fill="#fff"/></g><g><path d="m142.412 124.112c-2.761 0-5-2.239-5-5v-.115c0-2.761 2.239-5 5-5s5 2.239 5 5v.115c0 2.761-2.239 5-5 5z" fill="#fff"/></g><g><path d="m142.412 106.084c-2.761 0-5-2.239-5-5v-.115c0-2.761 2.239-5 5-5s5 2.239 5 5v.115c0 2.761-2.239 5-5 5z" fill="#fff"/></g></g></g><g fill="#d9d9ff"><path d="m359.056 234.637c-3.537-1.838-7.892-.461-9.729 3.075-1.838 3.536-.461 7.892 3.075 9.729.928.482 1.618.908 2.125 1.262-2.75 1.894-9.946 5.173-25.116 8.018-16.643 3.122-38.073 4.841-60.345 4.841v-22.623c25.517 0 49.579-2.115 67.754-5.955 22.63-4.782 33.17-11.474 33.17-21.061 0-3.075-1.243-7.603-7.166-11.707-3.275-2.269-7.771-1.454-10.04 1.821-2.223 3.208-1.487 7.585 1.62 9.896-2.869 1.883-10.11 5.062-25.056 7.818-16.636 3.068-38.044 4.758-60.282 4.758v-15.406c20.891 0 40.61-1.868 55.522-5.26 11.999-2.729 27.95-7.699 27.95-19.3 0-5.239-3.349-9.675-9.953-13.185-3.518-1.868-7.888-.533-9.758 2.986s-.533 7.887 2.986 9.758c.329.175.619.34.876.493-6.743 4.073-29.894 10.077-67.623 10.077v-13.675c24.706-.034 66.188-5.166 66.188-24.23 0-4.32-2.268-10.519-13.074-15.513-3.618-1.673-7.905-.095-9.577 3.522s-.095 7.905 3.522 9.577c2.196 1.016 3.439 1.873 4.118 2.448-3.988 3.436-21.192 9.73-51.177 9.765v-3.245c0-4.793-3.886-8.679-8.679-8.679h-8.774c-4.793 0-8.679 3.886-8.679 8.679v3.245c-29.985-.035-47.189-6.33-51.177-9.765.679-.574 1.922-1.432 4.118-2.448 3.617-1.672 5.194-5.96 3.522-9.577-1.672-3.618-5.962-5.194-9.577-3.522-10.806 4.995-13.074 11.193-13.074 15.513 0 19.064 41.482 24.196 66.188 24.23v13.675c-37.729 0-60.88-6.004-67.623-10.077.257-.154.547-.319.876-.493 3.519-1.87 4.856-6.239 2.986-9.758-1.871-3.519-6.239-4.855-9.758-2.986-6.605 3.51-9.953 7.946-9.953 13.185 0 11.601 15.952 16.571 27.95 19.3 14.913 3.392 34.631 5.26 55.522 5.26v15.406c-22.238 0-43.646-1.69-60.282-4.758-14.946-2.756-22.187-5.935-25.056-7.818 3.107-2.311 3.843-6.688 1.62-9.896-2.27-3.275-6.764-4.092-10.04-1.821-5.923 4.104-7.166 8.632-7.166 11.707 0 9.587 10.54 16.279 33.17 21.061 18.175 3.841 42.237 5.955 67.754 5.955v22.623c-22.272 0-43.702-1.719-60.345-4.841-15.169-2.845-22.365-6.125-25.116-8.018.507-.354 1.197-.78 2.125-1.262 3.536-1.837 4.913-6.194 3.075-9.729-1.837-3.536-6.192-4.914-9.729-3.075-7.255 3.77-10.934 8.498-10.934 14.05 0 9.657 10.534 16.412 33.15 21.261 18.182 3.898 42.251 6.045 67.775 6.045v20.134c-20.849 0-41.028-1.252-56.822-3.525-10.43-1.501-16.849-3.127-20.725-4.43 3.419-1.496 5.163-5.397 3.915-8.981-1.311-3.763-5.425-5.753-9.187-4.441-3.419 1.191-13.824 4.814-13.824 13.433 0 8.673 9.631 14.006 32.202 17.833 17.277 2.929 40.162 4.542 64.441 4.542v.189c0 4.793 3.886 8.679 8.679 8.679h8.774c4.793 0 8.679-3.886 8.679-8.679v-.189c24.278 0 47.164-1.613 64.441-4.542 22.571-3.826 32.202-9.159 32.202-17.833 0-8.619-10.405-12.243-13.824-13.433-3.763-1.309-7.876.678-9.187 4.441-1.248 3.584.496 7.485 3.915 8.981-3.876 1.304-10.296 2.929-20.725 4.43-15.793 2.273-35.973 3.525-56.822 3.525v-20.134c25.524 0 49.593-2.147 67.775-6.045 22.616-4.849 33.15-11.605 33.15-21.261-.001-5.553-3.68-10.28-10.936-14.05z"/><path d="m241.594 146.266h28.813c5.059 0 9.16-4.101 9.16-9.16v-3.835c0-5.059-4.101-9.16-9.16-9.16h-28.813c-5.059 0-9.16 4.101-9.16 9.16v3.835c0 5.059 4.101 9.16 9.16 9.16z"/><path d="m265.596 327.8h-19.192c-5.059 0-9.16 4.101-9.16 9.16v3.835c0 5.059 4.101 9.16 9.16 9.16h19.192c5.059 0 9.159-4.101 9.159-9.16v-3.835c.001-5.059-4.1-9.16-9.159-9.16z"/><path d="m265.596 358.329h-19.192c-5.059 0-9.16 4.101-9.16 9.16v3.835c0 5.059 4.101 9.16 9.16 9.16h19.192c5.059 0 9.159-4.101 9.159-9.16v-3.835c.001-5.059-4.1-9.16-9.159-9.16z"/></g></g><path d="m64.423 158.474c-2.761 0-5-2.238-5-5 0-3.492-2.841-6.334-6.333-6.334-2.761 0-5-2.238-5-5s2.239-5 5-5c3.492 0 6.333-2.841 6.333-6.333 0-2.762 2.239-5 5-5s5 2.238 5 5c0 3.492 2.841 6.333 6.333 6.333 2.761 0 5 2.238 5 5s-2.239 5-5 5c-3.492 0-6.333 2.842-6.333 6.334 0 2.762-2.238 5-5 5z" fill="#ff9d33"/><path d="m453.399 410.468c-2.761 0-5-2.238-5-5 0-3.492-2.841-6.333-6.333-6.333-2.761 0-5-2.238-5-5s2.239-5 5-5c3.492 0 6.333-2.842 6.333-6.334 0-2.762 2.239-5 5-5s5 2.238 5 5c0 3.492 2.841 6.334 6.333 6.334 2.761 0 5 2.238 5 5s-2.239 5-5 5c-3.492 0-6.333 2.841-6.333 6.333 0 2.762-2.238 5-5 5z" fill="#ff4d4d"/><path d="m300.103 54.415c-2.761 0-5-2.238-5-5 0-3.492-2.841-6.334-6.333-6.334-2.761 0-5-2.238-5-5s2.239-5 5-5c3.492 0 6.333-2.841 6.333-6.333 0-2.762 2.239-5 5-5s5 2.238 5 5c0 3.492 2.841 6.333 6.334 6.333 2.761 0 5 2.238 5 5s-2.239 5-5 5c-3.492 0-6.334 2.842-6.334 6.334 0 2.761-2.239 5-5 5z" fill="#6c6cff"/><g fill="#ff9d33"><g><path d="m448.399 436.613c-2.761 0-5-2.238-5-5v-.149c0-2.762 2.239-5 5-5s5 2.238 5 5v.149c0 2.761-2.238 5-5 5z"/><path d="m448.399 464.397c-2.761 0-5-2.238-5-5v-.149c0-2.762 2.239-5 5-5s5 2.238 5 5v.149c0 2.762-2.238 5-5 5z"/></g><g><path d="m436.429 443.523c-.85 0-1.711-.217-2.5-.674l-.13-.075c-2.39-1.384-3.205-4.442-1.822-6.832s4.44-3.207 6.832-1.822l.13.075c2.39 1.384 3.206 4.442 1.822 6.832-.927 1.601-2.606 2.496-4.332 2.496z"/><path d="m460.491 457.415c-.85 0-1.711-.217-2.5-.674l-.13-.075c-2.39-1.384-3.206-4.442-1.822-6.832 1.383-2.39 4.441-3.207 6.832-1.822l.13.075c2.39 1.384 3.206 4.442 1.822 6.832-.927 1.601-2.606 2.496-4.332 2.496z"/></g><g><path d="m436.309 457.415c-1.726 0-3.405-.895-4.332-2.496-1.384-2.39-.568-5.448 1.822-6.832l.13-.075c2.391-1.385 5.449-.567 6.832 1.822 1.384 2.39.568 5.448-1.822 6.832l-.13.075c-.789.457-1.65.674-2.5.674z"/><path d="m460.371 443.523c-1.726 0-3.405-.895-4.332-2.496-1.384-2.39-.568-5.448 1.822-6.832l.13-.075c2.391-1.385 5.449-.567 6.833 1.822 1.384 2.39.568 5.448-1.822 6.832l-.13.075c-.79.457-1.651.674-2.501.674z"/></g></g><g fill="#6c6cff"><g><path d="m64.423 188.007c-2.761 0-5-2.238-5-5v-.149c0-2.762 2.239-5 5-5s5 2.238 5 5v.149c0 2.762-2.238 5-5 5z"/><path d="m64.423 215.791c-2.761 0-5-2.238-5-5v-.149c0-2.762 2.239-5 5-5s5 2.238 5 5v.149c0 2.762-2.238 5-5 5z"/></g><g><path d="m52.452 194.917c-.85 0-1.711-.217-2.5-.674l-.13-.075c-2.39-1.384-3.206-4.442-1.822-6.832 1.383-2.39 4.442-3.207 6.833-1.822l.13.075c2.39 1.384 3.206 4.442 1.822 6.832-.928 1.602-2.607 2.496-4.333 2.496z"/><path d="m76.514 208.809c-.85 0-1.712-.217-2.5-.674l-.13-.075c-2.39-1.384-3.206-4.442-1.822-6.832s4.441-3.207 6.833-1.822l.13.075c2.39 1.384 3.206 4.442 1.822 6.832-.928 1.602-2.607 2.496-4.333 2.496z"/></g><g><path d="m52.332 208.809c-1.726 0-3.405-.895-4.332-2.496-1.384-2.39-.568-5.448 1.822-6.832l.13-.075c2.391-1.385 5.45-.567 6.833 1.822 1.384 2.39.568 5.448-1.822 6.832l-.13.075c-.789.457-1.651.674-2.501.674z"/><path d="m76.394 194.917c-1.726 0-3.405-.894-4.332-2.496-1.384-2.39-.568-5.448 1.822-6.832l.13-.075c2.391-1.385 5.449-.567 6.832 1.822 1.384 2.39.568 5.448-1.822 6.832l-.13.075c-.788.458-1.65.674-2.5.674z"/></g></g></g><path d="m392.471 460.43h-272.942c-8.284 0-15-6.716-15-15v-361.283c0-8.284 6.716-15 15-15h272.943c8.284 0 15 6.716 15 15v361.283c-.001 8.284-6.716 15-15.001 15z" fill="url(#SVGID_2_)"/></g></svg>