<svg id="Capa_1" enable-background="new 0 0 512 512" height="512" viewBox="0 0 512 512" width="512" xmlns="http://www.w3.org/2000/svg" xmlns:xlink="http://www.w3.org/1999/xlink"><linearGradient id="SVGID_1_" gradientUnits="userSpaceOnUse" x1="96.524" x2="444.685" y1="453.699" y2="38.776"><stop offset="0" stop-color="#fff3ee" stop-opacity="0"/><stop offset=".2938" stop-color="#ffeade" stop-opacity=".373"/><stop offset=".7874" stop-color="#ffd6bb"/></linearGradient><linearGradient id="lg1"><stop offset="0" stop-color="#ff4d4d" stop-opacity=".4"/><stop offset="1" stop-color="#ff4d4d" stop-opacity="0"/></linearGradient><linearGradient id="SVGID_2_" gradientUnits="userSpaceOnUse" x1="265.083" x2="265.083" xlink:href="#lg1" y1="305.601" y2="43.522"/><linearGradient id="SVGID_3_" gradientUnits="userSpaceOnUse" x1="246.918" x2="246.918" xlink:href="#lg1" y1="471.719" y2="209.639"/><g><g><path d="m4.896 324.259c17.448 172.871 292.417 167.142 420.803 136.265 82.47-19.834 87.596-59.472 86.106-144.001-.628-35.613 1.036-109.569-7.634-169.208-4.595-31.606-12.092-59.19-24.37-74.915-54.448-69.733-103.228-25.998-170.656-3.235-86.488 29.197-120.189-22.932-202.476-21.38-120.641 2.278-110.778 187.252-101.773 276.474z" fill="url(#SVGID_1_)"/></g><g><g><g><g><path d="m406.353 194.221 64.701-64.701c4.234-4.234 4.234-11.098 0-15.332-4.234-4.234-11.098-4.234-15.332 0l-64.701 64.701z" fill="#ebebff"/><path d="m339.847 222.681 51.173-43.793 15.333 15.333-18.206 31.146z" fill="#9494ff"/><path d="m114.366 462.614c12.14 12.139 31.821 12.139 43.961 0l227.312-227.312c5.293-5.293 3.108-14.312-4.021-16.595l-25.341-8.115c-6.836-2.189-14.32-.547-19.612 4.302l-221.32 202.822c-13.049 11.958-13.494 32.383-.979 44.898z" fill="#9494ff"/><path d="m309.64 239.66-67.735 62.074 38.651 38.651 64.904-64.904z" fill="#d9d9ff"/><path d="m278.266 268.412-15.86 14.535 37.794 37.794 15.197-15.197z" fill="#b3b3ff"/><path d="m269.331 276.6-11.22 10.282 37.974 37.974 10.751-10.751z" fill="#9494ff"/><g><path d="m231.769 357.592-41.424 41.424c-1.953 1.953-5.119 1.952-7.071 0-1.952-1.953-1.953-5.118 0-7.071l41.424-41.424c1.953-1.953 5.119-1.952 7.071 0 1.953 1.952 1.953 5.118 0 7.071z" fill="#6c6cff"/></g><circle cx="140.779" cy="441.511" fill="#6c6cff" r="6.712"/></g><g><path d="m105.647 321.019-64.701 64.701c-4.234 4.234-4.234 11.098 0 15.332 4.234 4.234 11.098 4.234 15.332 0l64.701-64.701z" fill="#ebebff"/><path d="m172.153 292.558-51.173 43.793-15.333-15.332 18.206-31.146z" fill="#9494ff"/><path d="m397.633 52.626c-12.139-12.14-31.821-12.14-43.961 0l-227.312 227.312c-5.293 5.293-3.108 14.312 4.021 16.595l25.342 8.115c6.836 2.189 14.32.547 19.612-4.302l221.32-202.822c13.049-11.958 13.494-32.383.978-44.898z" fill="#9494ff"/><path d="m202.36 275.58 67.735-62.074-38.651-38.651-64.905 64.904z" fill="#d9d9ff"/><path d="m233.734 246.828 15.86-14.535-37.794-37.794-15.198 15.197z" fill="#b3b3ff"/><path d="m242.669 238.64 11.219-10.282-37.974-37.974-10.751 10.751z" fill="#9494ff"/><g><path d="m280.231 157.648 41.424-41.424c1.953-1.953 5.119-1.952 7.071 0 1.953 1.952 1.953 5.118 0 7.071l-41.424 41.424c-1.953 1.953-5.119 1.952-7.071 0s-1.953-5.118 0-7.071z" fill="#6c6cff"/></g><circle cx="371.22" cy="73.729" fill="#6c6cff" r="6.712"/></g></g><g><g><circle cx="362.249" cy="325.246" fill="#ff4d4d" r="69.494"/><path d="m394.585 310.605h-17.695v-17.695c0-5.523-4.477-10-10-10h-9.282c-5.523 0-10 4.477-10 10v17.695h-17.695c-5.523 0-10 4.477-10 10v9.282c0 5.523 4.477 10 10 10h17.695v17.695c0 5.523 4.477 10 10 10h9.282c5.523 0 10-4.477 10-10v-17.695h17.695c5.523 0 10-4.477 10-10v-9.282c0-5.523-4.477-10-10-10z" fill="#fff"/></g><g fill="#2c27ff"><path d="m308.647 400.919h-18.583c-2.761 0-5 2.239-5 5s2.239 5 5 5h18.583c2.761 0 5-2.239 5-5s-2.238-5-5-5z"/><path d="m308.647 419.301h-58.583c-2.761 0-5 2.239-5 5s2.239 5 5 5h58.583c2.761 0 5-2.239 5-5s-2.238-5-5-5z"/><path d="m308.647 437.683h-58.583c-2.761 0-5 2.239-5 5s2.239 5 5 5h58.583c2.761 0 5-2.239 5-5s-2.238-5-5-5z"/></g></g></g><path d="m209.531 118.95c-2.761 0-5-2.239-5-5 0-3.492-2.841-6.333-6.334-6.333-2.761 0-5-2.239-5-5s2.239-5 5-5c3.492 0 6.334-2.841 6.334-6.333 0-2.761 2.239-5 5-5s5 2.239 5 5c0 3.492 2.841 6.333 6.333 6.333 2.761 0 5 2.239 5 5s-2.239 5-5 5c-3.492 0-6.333 2.841-6.333 6.333 0 2.761-2.239 5-5 5z" fill="#6c6cff"/><path d="m256.905 95.063c-2.761 0-5-2.239-5-5 0-3.492-2.841-6.334-6.333-6.334-2.761 0-5-2.239-5-5s2.239-5 5-5c3.492 0 6.333-2.841 6.333-6.333 0-2.761 2.239-5 5-5s5 2.239 5 5c0 3.492 2.841 6.333 6.333 6.333 2.761 0 5 2.239 5 5s-2.239 5-5 5c-3.492 0-6.333 2.841-6.333 6.334 0 2.761-2.239 5-5 5z" fill="#ff9d33"/><g fill="#ff4d4d"><g><path d="m196.809 139.94c-2.761 0-5-2.239-5-5v-.15c0-2.761 2.239-5 5-5s5 2.239 5 5v.15c0 2.761-2.239 5-5 5z"/><path d="m196.809 167.724c-2.761 0-5-2.239-5-5v-.15c0-2.761 2.239-5 5-5s5 2.239 5 5v.15c0 2.761-2.239 5-5 5z"/></g><g><path d="m184.838 146.849c-.846 0-1.702-.215-2.488-.667l-.13-.075c-2.393-1.376-3.218-4.433-1.841-6.827 1.376-2.393 4.433-3.218 6.827-1.841l.13.075c2.394 1.376 3.218 4.433 1.841 6.827-.925 1.608-2.608 2.508-4.339 2.508z"/><path d="m208.9 160.741c-.848 0-1.706-.216-2.493-.67l-.13-.075c-2.392-1.379-3.213-4.437-1.833-6.829 1.379-2.392 4.437-3.213 6.829-1.833l.13.075c2.392 1.379 3.213 4.437 1.833 6.829-.926 1.605-2.607 2.503-4.336 2.503z"/></g><g><path d="m184.718 160.741c-1.726 0-3.405-.895-4.332-2.496-1.384-2.39-.568-5.449 1.822-6.833l.13-.075c2.391-1.384 5.449-.567 6.833 1.822 1.384 2.39.568 5.449-1.822 6.832l-.13.075c-.789.458-1.651.675-2.501.675z"/><path d="m208.78 146.849c-1.734 0-3.419-.903-4.343-2.515-1.372-2.396-.543-5.451 1.853-6.824l.13-.075c2.396-1.374 5.451-.543 6.824 1.853 1.372 2.396.543 5.451-1.853 6.824l-.13.075c-.784.449-1.638.662-2.481.662z"/></g></g><g fill="#ff4d4d"><g><path d="m453.399 250.81c-2.761 0-5-2.239-5-5v-.15c0-2.761 2.239-5 5-5s5 2.239 5 5v.15c0 2.762-2.238 5-5 5z"/><path d="m453.399 278.595c-2.761 0-5-2.239-5-5v-.15c0-2.761 2.239-5 5-5s5 2.239 5 5v.15c0 2.761-2.238 5-5 5z"/></g><g><path d="m441.429 257.72c-.846 0-1.702-.215-2.488-.667l-.13-.075c-2.393-1.376-3.218-4.433-1.841-6.827 1.376-2.394 4.433-3.218 6.827-1.841l.13.075c2.394 1.377 3.218 4.433 1.841 6.827-.925 1.608-2.608 2.508-4.339 2.508z"/><path d="m465.491 271.612c-.846 0-1.702-.215-2.488-.667l-.13-.075c-2.394-1.376-3.218-4.433-1.841-6.827 1.377-2.393 4.432-3.218 6.827-1.841l.13.075c2.393 1.377 3.218 4.433 1.841 6.827-.925 1.608-2.608 2.508-4.339 2.508z"/></g><g><path d="m441.309 271.612c-1.731 0-3.414-.9-4.339-2.508-1.377-2.394-.553-5.451 1.841-6.827l.13-.075c2.394-1.378 5.451-.552 6.827 1.841 1.377 2.394.553 5.451-1.841 6.827l-.13.075c-.786.452-1.643.667-2.488.667z"/><path d="m465.371 257.72c-1.731 0-3.414-.9-4.339-2.508-1.377-2.394-.553-5.451 1.841-6.827l.13-.075c2.394-1.379 5.451-.553 6.827 1.841 1.377 2.394.553 5.451-1.841 6.827l-.13.075c-.786.452-1.643.667-2.488.667z"/></g></g><g fill="#ff9d33"><g><path d="m359.509 443.866c-2.761 0-5-2.239-5-5v-.15c0-2.761 2.239-5 5-5s5 2.239 5 5v.15c0 2.761-2.239 5-5 5z"/><path d="m359.509 471.65c-2.761 0-5-2.239-5-5v-.15c0-2.761 2.239-5 5-5s5 2.239 5 5v.15c0 2.761-2.239 5-5 5z"/></g><g><path d="m347.538 450.775c-.846 0-1.702-.215-2.488-.667l-.13-.075c-2.393-1.377-3.218-4.433-1.841-6.827 1.376-2.393 4.431-3.218 6.827-1.841l.13.075c2.394 1.376 3.218 4.433 1.841 6.827-.925 1.608-2.608 2.508-4.339 2.508z"/><path d="m371.6 464.667c-.846 0-1.702-.215-2.488-.667l-.13-.075c-2.394-1.376-3.218-4.433-1.841-6.827 1.377-2.393 4.432-3.218 6.827-1.841l.13.075c2.394 1.376 3.218 4.433 1.841 6.827-.925 1.608-2.608 2.508-4.339 2.508z"/></g><g><path d="m347.418 464.667c-1.731 0-3.414-.9-4.339-2.508-1.377-2.394-.553-5.451 1.841-6.827l.13-.075c2.395-1.378 5.451-.552 6.827 1.841 1.377 2.394.553 5.451-1.841 6.827l-.13.075c-.785.452-1.643.667-2.488.667z"/><path d="m371.479 450.775c-1.731 0-3.414-.9-4.339-2.508-1.377-2.394-.553-5.451 1.841-6.827l.13-.075c2.394-1.378 5.451-.552 6.827 1.841 1.377 2.394.553 5.451-1.841 6.827l-.13.075c-.785.452-1.642.667-2.488.667z"/></g></g></g><path d="m397.633 52.626c-12.139-12.14-31.821-12.14-43.961 0l-227.312 227.312c-5.293 5.293-3.108 14.312 4.021 16.595l25.342 8.115c6.836 2.189 14.32.547 19.612-4.302l221.32-202.822c13.049-11.958 13.494-32.383.978-44.898z" fill="url(#SVGID_2_)"/><path d="m114.366 462.614c12.14 12.139 31.821 12.139 43.961 0l227.312-227.312c5.293-5.293 3.108-14.312-4.021-16.595l-25.341-8.115c-6.836-2.189-14.32-.547-19.612 4.302l-221.32 202.822c-13.049 11.958-13.494 32.383-.979 44.898z" fill="url(#SVGID_3_)"/></g></svg>