<svg id="Capa_1" enable-background="new 0 0 512 512" height="512" viewBox="0 0 512 512" width="512" xmlns="http://www.w3.org/2000/svg" xmlns:xlink="http://www.w3.org/1999/xlink"><linearGradient id="SVGID_1_" gradientUnits="userSpaceOnUse" x1="137.201" x2="425.884" y1="412.085" y2="68.046"><stop offset="0" stop-color="#fff3ee" stop-opacity="0"/><stop offset=".2938" stop-color="#ffeade" stop-opacity=".373"/><stop offset=".7874" stop-color="#ffd6bb"/></linearGradient><linearGradient id="SVGID_2_" gradientUnits="userSpaceOnUse" x1="256" x2="256" y1="453.79" y2="61.43"><stop offset="0" stop-color="#ff4d4d" stop-opacity=".4"/><stop offset="1" stop-color="#ff4d4d" stop-opacity="0"/></linearGradient><g><g><path d="m20.337 133.512c-23.967 39.398-26.493 107.613-8.937 150.256 15.377 37.351 45.966 72.409 86.12 76.801 14.766 1.615 29.858-1.024 44.472 1.638 50.258 9.152 68.952 71.09 108.01 104.014 27.183 22.913 64.898 31.022 100.174 26.607 35.276-4.414 68.302-20.363 97.376-40.824 22.957-16.157 44.436-36.022 55.764-61.707 23.744-53.839-4.19-118.501-47.587-158.239-13.516-12.377-28.581-23.294-39.875-37.727-11.293-14.434-18.48-33.695-13.099-51.214 4.293-13.977 15.849-24.812 20.227-38.763 5.958-18.984-3.035-40.281-17.802-53.616s-34.308-20.039-53.666-24.64c-81.103-19.281-258.823-11.524-331.177 107.414z" fill="url(#SVGID_1_)"/></g><g><g><g fill="#6c6cff"><path d="m356.755 150.262h14.759c4.214 0 7.63 3.416 7.63 7.63v65.347c0 4.214-3.416 7.63-7.63 7.63h-14.759z"/><g><path d="m155.245 111.587h-14.759c-4.214 0-7.63 3.416-7.63 7.63v35.347c0 4.214 3.416 7.63 7.63 7.63h14.759z"/><path d="m155.245 180.262h-14.759c-4.214 0-7.63 3.416-7.63 7.63v35.347c0 4.214 3.416 7.63 7.63 7.63h14.759z"/></g></g><g><g><g><path d="m363.38 81.43v352.36c0 11.05-8.95 20-20 20h-174.76c-11.05 0-20-8.95-20-20v-352.36c0-11.04 8.95-20 20-20h174.76c11.05 0 20 8.96 20 20z" fill="#fff"/></g><path d="m363.38 336.09v83.83h-44.21c-5.53 0-10-4.48-10-10v-63.83c0-5.52 4.47-10 10-10z" fill="#ffe8dc"/><path d="m295.406 89.903h-77.472c-4.245 0-8.028-2.681-9.435-6.686l-7.652-21.784h111.645l-7.652 21.784c-1.406 4.005-5.189 6.686-9.434 6.686z" fill="#6c6cff"/><g><ellipse cx="211.762" cy="150.446" fill="#ff4d4d" rx="30.718" ry="30.718" transform="matrix(.924 -.383 .383 .924 -41.454 92.49)"/><path d="m226.056 143.974h-7.822v-7.822c0-2.441-1.979-4.42-4.42-4.42h-4.103c-2.441 0-4.42 1.979-4.42 4.42v7.822h-7.822c-2.441 0-4.42 1.979-4.42 4.42v4.103c0 2.441 1.979 4.42 4.42 4.42h7.822v7.822c0 2.441 1.979 4.42 4.42 4.42h4.103c2.441 0 4.42-1.979 4.42-4.42v-7.822h7.822c2.441 0 4.42-1.979 4.42-4.42v-4.103c0-2.441-1.979-4.42-4.42-4.42z" fill="#fff"/></g><g><path d="m331.811 158.358h-66.52c-2.762 0-5-2.239-5-5s2.238-5 5-5h66.52c2.762 0 5 2.239 5 5 0 2.762-2.238 5-5 5z" fill="#6c6cff"/></g><g><path d="m331.811 176.529h-66.52c-2.762 0-5-2.239-5-5s2.238-5 5-5h66.52c2.762 0 5 2.239 5 5s-2.238 5-5 5z" fill="#6c6cff"/></g><g><path d="m291.811 132.867h-26.52c-2.762 0-5-2.239-5-5s2.238-5 5-5h26.52c2.762 0 5 2.239 5 5s-2.238 5-5 5z" fill="#ff4d4d"/></g><path d="m328.883 253.5h-145.767c-2.761 0-5-2.239-5-5v-35.096c0-2.762 2.239-5 5-5h145.767c2.761 0 5 2.238 5 5v35.096c0 2.761-2.238 5-5 5z" fill="#ffab66"/><path d="m224.498 208.404h-41.381c-2.761 0-5 2.239-5 5v35.096c0 2.761 2.239 5 5 5h41.381z" fill="#ffd6bb"/><g><path d="m306.811 235.952h-61.52c-2.762 0-5-2.239-5-5s2.238-5 5-5h61.52c2.762 0 5 2.239 5 5s-2.238 5-5 5z" fill="#ffd6bb"/></g><g><g><path d="m289.26 303.546h-70.18v10h70.18c2.762 0 5-2.239 5-5s-2.239-5-5-5z" fill="#ff9494"/></g><g><path d="m259.26 283.596h-40.18v10h40.18c2.762 0 5-2.239 5-5 0-2.762-2.239-5-5-5z" fill="#ff9494"/></g><path d="m223.376 288.596c0-9.161-7.453-16.613-16.613-16.613-9.161 0-16.613 7.453-16.613 16.613 0 4.518 1.818 8.615 4.755 11.613-2.936 2.998-4.755 7.095-4.755 11.613 0 2.761 2.239 5 5 5s5-2.239 5-5c0-3.647 2.967-6.613 6.613-6.613 3.647 0 6.613 2.967 6.613 6.613 0 2.761 2.239 5 5 5s5-2.239 5-5c0-4.518-1.818-8.615-4.755-11.613 2.936-2.998 4.755-7.095 4.755-11.613zm-16.614-6.614c3.647 0 6.613 2.967 6.613 6.613 0 3.647-2.967 6.613-6.613 6.613s-6.613-2.967-6.613-6.613 2.967-6.613 6.613-6.613z" fill="#ff4d4d"/><g><g><g><path d="m317.836 347.333h-104.77c-2.762 0-5-2.239-5-5s2.238-5 5-5h104.77c2.762 0 5 2.239 5 5s-2.238 5-5 5z" fill="#6c6cff"/></g><g><path d="m194.164 347.391c2.761 0 5-2.239 5-5v-.115c0-2.761-2.239-5-5-5s-5 2.239-5 5v.115c0 2.761 2.238 5 5 5z" fill="#ff9d33"/></g><g><path d="m329.934 293.653c2.761 0 5-2.239 5-5v-.115c0-2.761-2.239-5-5-5s-5 2.239-5 5v.115c0 2.762 2.239 5 5 5z" fill="#ff9d33"/></g><g><path d="m314.167 293.653c2.761 0 5-2.239 5-5v-.115c0-2.761-2.239-5-5-5s-5 2.239-5 5v.115c0 2.762 2.239 5 5 5z" fill="#ff9d33"/></g></g><g><g><path d="m317.836 366.854h-104.77c-2.762 0-5-2.239-5-5s2.238-5 5-5h104.77c2.762 0 5 2.239 5 5 0 2.762-2.238 5-5 5z" fill="#6c6cff"/></g><g><path d="m194.164 366.912c2.761 0 5-2.239 5-5v-.115c0-2.761-2.239-5-5-5s-5 2.239-5 5v.115c0 2.761 2.238 5 5 5z" fill="#ff9d33"/></g></g><g><g><path d="m317.836 386.376h-104.77c-2.762 0-5-2.239-5-5s2.238-5 5-5h104.77c2.762 0 5 2.239 5 5s-2.238 5-5 5z" fill="#6c6cff"/></g><g><path d="m194.164 386.434c2.761 0 5-2.239 5-5v-.115c0-2.761-2.239-5-5-5s-5 2.239-5 5v.115c0 2.761 2.238 5 5 5z" fill="#ff9d33"/></g></g></g></g></g></g></g><g fill="#ff4d4d"><g><path d="m88.032 308.005c-2.762 0-5-2.238-5-5v-.149c0-2.762 2.238-5 5-5s5 2.238 5 5v.149c0 2.762-2.238 5-5 5z"/><path d="m88.032 335.789c-2.762 0-5-2.238-5-5v-.15c0-2.762 2.238-5 5-5s5 2.238 5 5v.15c0 2.762-2.238 5-5 5z"/></g><g><path d="m76.061 314.915c-.851 0-1.712-.217-2.5-.674l-.13-.075c-2.39-1.384-3.206-4.442-1.822-6.832 1.383-2.391 4.445-3.207 6.832-1.822l.13.075c2.39 1.384 3.206 4.442 1.822 6.832-.926 1.601-2.606 2.496-4.332 2.496z"/><path d="m100.123 328.807c-.851 0-1.712-.217-2.5-.674l-.13-.075c-2.39-1.384-3.206-4.442-1.822-6.832 1.383-2.391 4.444-3.206 6.832-1.822l.13.075c2.39 1.384 3.206 4.442 1.822 6.832-.927 1.601-2.606 2.496-4.332 2.496z"/></g><g><path d="m75.941 328.807c-1.727 0-3.405-.895-4.332-2.496-1.384-2.39-.567-5.448 1.822-6.832l.13-.075c2.39-1.386 5.449-.567 6.832 1.822 1.384 2.39.567 5.448-1.822 6.832l-.13.075c-.788.457-1.65.674-2.5.674z"/><path d="m100.003 314.915c-1.727 0-3.405-.895-4.332-2.496-1.384-2.39-.567-5.448 1.822-6.832l.13-.075c2.389-1.386 5.449-.567 6.832 1.822 1.384 2.39.567 5.448-1.822 6.832l-.13.075c-.788.457-1.651.674-2.5.674z"/></g></g><path d="m418.528 92.001c-2.762 0-5-2.238-5-5 0-3.492-2.841-6.334-6.333-6.334-2.762 0-5-2.238-5-5s2.238-5 5-5c3.492 0 6.333-2.841 6.333-6.333 0-2.762 2.238-5 5-5s5 2.238 5 5c0 3.492 2.842 6.333 6.334 6.333 2.762 0 5 2.238 5 5s-2.238 5-5 5c-3.492 0-6.334 2.842-6.334 6.334 0 2.762-2.238 5-5 5z" fill="#6c6cff"/><path d="m107.829 284.499c-2.762 0-5-2.238-5-5 0-3.492-2.841-6.334-6.333-6.334-2.762 0-5-2.238-5-5s2.238-5 5-5c3.492 0 6.333-2.841 6.333-6.333 0-2.762 2.238-5 5-5s5 2.238 5 5c0 3.492 2.841 6.333 6.333 6.333 2.762 0 5 2.238 5 5s-2.238 5-5 5c-3.492 0-6.333 2.842-6.333 6.334 0 2.762-2.238 5-5 5z" fill="#ff9d33"/><g fill="#ff9d33"><g><path d="m455.984 273.165c-2.762 0-5-2.238-5-5v-.149c0-2.762 2.238-5 5-5s5 2.238 5 5v.149c0 2.762-2.238 5-5 5z"/><path d="m455.984 300.949c-2.762 0-5-2.238-5-5v-.149c0-2.762 2.238-5 5-5s5 2.238 5 5v.149c0 2.762-2.238 5-5 5z"/></g><g><path d="m444.014 280.075c-.851 0-1.712-.217-2.5-.674l-.13-.075c-2.39-1.384-3.206-4.442-1.822-6.832 1.383-2.391 4.444-3.206 6.832-1.822l.13.075c2.39 1.384 3.206 4.442 1.822 6.832-.927 1.602-2.607 2.496-4.332 2.496z"/><path d="m468.075 293.967c-.851 0-1.712-.217-2.5-.674l-.13-.075c-2.39-1.384-3.206-4.442-1.822-6.832 1.384-2.392 4.445-3.207 6.832-1.822l.13.075c2.39 1.384 3.206 4.442 1.822 6.832-.927 1.601-2.606 2.496-4.332 2.496z"/></g><g><path d="m443.894 293.967c-1.727 0-3.405-.894-4.332-2.496-1.384-2.39-.567-5.448 1.822-6.832l.13-.075c2.39-1.386 5.449-.567 6.832 1.822 1.384 2.39.567 5.448-1.822 6.832l-.13.075c-.789.457-1.651.674-2.5.674z"/><path d="m467.955 280.075c-1.727 0-3.405-.895-4.332-2.496-1.384-2.39-.567-5.448 1.822-6.832l.13-.075c2.39-1.385 5.449-.567 6.832 1.822 1.384 2.39.567 5.448-1.822 6.832l-.13.075c-.788.457-1.65.674-2.5.674z"/></g></g><path d="m407.195 283.315c-2.762 0-5-2.238-5-5 0-3.492-2.841-6.333-6.333-6.333-2.762 0-5-2.238-5-5s2.238-5 5-5c3.492 0 6.333-2.841 6.333-6.333 0-2.762 2.238-5 5-5s5 2.238 5 5c0 3.492 2.841 6.333 6.333 6.333 2.762 0 5 2.238 5 5s-2.238 5-5 5c-3.492 0-6.333 2.841-6.333 6.333 0 2.762-2.238 5-5 5z" fill="#ff4d4d"/><g><path d="m308.385 438.303h-104.77c-2.762 0-5-2.239-5-5s2.238-5 5-5h104.77c2.762 0 5 2.239 5 5s-2.238 5-5 5z" fill="#6c6cff"/></g><path d="m363.38 81.43v352.36c0 11.05-8.95 20-20 20h-174.76c-11.05 0-20-8.95-20-20v-352.36c0-11.04 8.95-20 20-20h174.76c11.05 0 20 8.96 20 20z" fill="url(#SVGID_2_)"/><g><g><path d="m432.626 401.066h-113.459c-5.523 0-10-4.477-10-10v-63.83c0-5.523 4.477-10 10-10h113.459c5.523 0 10 4.477 10 10v63.83c0 5.523-4.477 10-10 10z" fill="#ff9d33"/><g><g><path d="m413.449 344.207h-18.583c-2.762 0-5-2.239-5-5s2.238-5 5-5h18.583c2.762 0 5 2.239 5 5s-2.238 5-5 5z" fill="#fff"/></g><g><path d="m413.449 362.589h-58.583c-2.762 0-5-2.239-5-5s2.238-5 5-5h58.583c2.762 0 5 2.239 5 5s-2.238 5-5 5z" fill="#fff"/></g><g><path d="m413.449 380.97h-58.583c-2.762 0-5-2.239-5-5s2.238-5 5-5h58.583c2.762 0 5 2.239 5 5s-2.238 5-5 5z" fill="#fff"/></g></g></g></g></g></g></svg>