<svg id="Capa_1" enable-background="new 0 0 512 512" height="512" viewBox="0 0 512 512" width="512" xmlns="http://www.w3.org/2000/svg" xmlns:xlink="http://www.w3.org/1999/xlink"><linearGradient id="SVGID_1_" gradientUnits="userSpaceOnUse" x1="-11.953" x2="302.189" y1="367.812" y2="186.443"><stop offset="0" stop-color="#fff" stop-opacity="0"/><stop offset=".2532" stop-color="#eef" stop-opacity=".403"/><stop offset=".629" stop-color="#d9d9ff"/></linearGradient><linearGradient id="lg1"><stop offset="0" stop-color="#ff4d4d" stop-opacity=".4"/><stop offset="1" stop-color="#ff4d4d" stop-opacity="0"/></linearGradient><linearGradient id="SVGID_2_" gradientUnits="userSpaceOnUse" x1="342.689" x2="342.689" xlink:href="#lg1" y1="454.804" y2="133.683"/><linearGradient id="SVGID_3_" gradientUnits="userSpaceOnUse" x1="169.311" x2="169.311" xlink:href="#lg1" y1="454.804" y2="233.683"/><g><g><path d="m451.798 43.963c-160.556-97.869-410.51-8.611-439.594 61.949-38.908 94.393 26.578 110.528 38.743 187.874 9.761 62.06-51.182 121.495-16.394 176.282 37.882 59.663 163.465 44.681 211.198 16.447 87.376-51.682 43.309-112.012 84.684-187.299 39.408-71.707 116.244-42.625 160.961-99.99 42.5-54.521 14.31-122.402-39.598-155.263z" fill="url(#SVGID_1_)"/></g><g><g><g><g><g><path d="m421.943 454.804h-158.508c-5.523 0-10-4.477-10-10v-311.121h178.509v311.121c-.001 5.523-4.478 10-10.001 10z" fill="#ff6c6c"/><path d="m253.435 133.683h178.509v32.037h-178.509z" fill="#ff4d4d"/><path d="m431.943 414.264h-134.339c-5.523 0-10-4.477-10-10v-103.73c0-5.523 4.477-10 10-10h134.339z" fill="#fee"/><path d="m431.943 320.782v-30.248h-134.339c-5.523 0-10 4.477-10 10v20.248z" fill="#ff9d33"/><path d="m439.82 144.761h-194.262c-2.761 0-5-2.239-5-5v-35.05c0-2.761 2.239-5 5-5h194.262c2.761 0 5 2.239 5 5v35.05c0 2.761-2.239 5-5 5z" fill="#fff"/><g><path d="m386.848 346.899h-76.52c-2.762 0-5-2.239-5-5s2.238-5 5-5h76.52c2.762 0 5 2.239 5 5s-2.238 5-5 5z" fill="#6c6cff"/></g><g><path d="m386.848 364.899h-76.52c-2.762 0-5-2.239-5-5s2.238-5 5-5h76.52c2.762 0 5 2.239 5 5s-2.238 5-5 5z" fill="#6c6cff"/></g><g><path d="m356.848 382.899h-46.52c-2.762 0-5-2.239-5-5s2.238-5 5-5h46.52c2.762 0 5 2.239 5 5s-2.238 5-5 5z" fill="#6c6cff"/></g><circle cx="408.936" cy="402.113" fill="#ff9d33" r="5"/><circle cx="310.328" cy="305.898" fill="#fff" r="5"/><g fill="#ff9d33"><circle cx="392.981" cy="402.113" r="5"/><circle cx="377.026" cy="402.113" r="5"/></g></g><g><path d="m387.414 182.987h-77.652c-2.761 0-5-2.239-5-5s2.239-5 5-5h77.652c2.761 0 5 2.239 5 5s-2.238 5-5 5z" fill="#ff4d4d"/></g><path d="m421.943 454.804h-158.508c-5.523 0-10-4.477-10-10v-311.121h178.509v311.121c-.001 5.523-4.478 10-10.001 10z" fill="url(#SVGID_2_)"/><g><path d="m248.565 454.804h-158.508c-5.523 0-10-4.477-10-10v-211.121h178.509v211.121c-.001 5.523-4.478 10-10.001 10z" fill="#8383ff"/><path d="m80.057 233.683h178.509v34.243h-178.509z" fill="#6c6cff"/><path d="m258.565 414.264h-134.339c-5.523 0-10-4.477-10-10v-103.73c0-5.523 4.477-10 10-10h134.339z" fill="#ebebff"/><path d="m258.565 320.782v-30.248h-134.339c-5.523 0-10 4.477-10 10v20.248z" fill="#ffab66"/><path d="m266.442 244.761h-194.262c-2.761 0-5-2.239-5-5v-35.05c0-2.761 2.239-5 5-5h194.262c2.761 0 5 2.239 5 5v35.05c0 2.761-2.239 5-5 5z" fill="#fff"/><g fill="#b3b3ff"><path d="m245.119 199.711v27.593c0 2.761 2.239 5 5 5s5-2.239 5-5v-27.593z"/><path d="m129.679 199.711v27.593c0 2.761 2.239 5 5 5s5-2.239 5-5v-27.593z"/><path d="m152.767 199.711v27.593c0 2.761 2.239 5 5 5s5-2.239 5-5v-27.593z"/><path d="m83.503 199.711v27.593c0 2.761 2.239 5 5 5s5-2.239 5-5v-27.593z"/><path d="m106.591 199.711v27.593c0 2.761 2.239 5 5 5s5-2.239 5-5v-27.593z"/><path d="m222.031 199.711v27.593c0 2.761 2.239 5 5 5s5-2.239 5-5v-27.593z"/><path d="m198.943 199.711v27.593c0 2.761 2.239 5 5 5s5-2.239 5-5v-27.593z"/><path d="m175.855 199.711v27.593c0 2.761 2.239 5 5 5s5-2.239 5-5v-27.593z"/><path d="m326.145 99.711v27.593c0 2.761 2.239 5 5 5s5-2.239 5-5v-27.593z"/><path d="m349.233 99.711v27.593c0 2.761 2.239 5 5 5s5-2.239 5-5v-27.593z"/><path d="m279.969 99.711v27.593c0 2.761 2.239 5 5 5s5-2.239 5-5v-27.593z"/><path d="m256.881 99.711v27.593c0 2.761 2.239 5 5 5s5-2.239 5-5v-27.593z"/><path d="m303.057 99.711v27.593c0 2.761 2.239 5 5 5s5-2.239 5-5v-27.593z"/><path d="m418.497 99.711v27.593c0 2.761 2.239 5 5 5s5-2.239 5-5v-27.593z"/><path d="m372.321 99.711v27.593c0 2.761 2.239 5 5 5s5-2.239 5-5v-27.593z"/><path d="m395.409 99.711v27.593c0 2.761 2.239 5 5 5s5-2.239 5-5v-27.593z"/></g><g><path d="m213.47 346.899h-76.52c-2.762 0-5-2.239-5-5s2.238-5 5-5h76.52c2.762 0 5 2.239 5 5s-2.238 5-5 5z" fill="#6c6cff"/></g><g><path d="m213.47 364.899h-76.52c-2.762 0-5-2.239-5-5s2.238-5 5-5h76.52c2.762 0 5 2.239 5 5s-2.238 5-5 5z" fill="#6c6cff"/></g><g><path d="m183.47 382.899h-46.52c-2.762 0-5-2.239-5-5s2.238-5 5-5h46.52c2.762 0 5 2.239 5 5s-2.238 5-5 5z" fill="#6c6cff"/></g><circle cx="235.558" cy="402.113" fill="#ffab66" r="5"/><circle cx="136.951" cy="305.898" fill="#fff" r="5"/><circle cx="219.603" cy="402.113" fill="#ffab66" r="5"/><circle cx="203.648" cy="402.113" fill="#ffab66" r="5"/></g><path d="m248.565 454.804h-158.508c-5.523 0-10-4.477-10-10v-211.121h178.509v211.121c-.001 5.523-4.478 10-10.001 10z" fill="url(#SVGID_3_)"/></g></g><path d="m188.648 130.431c-2.761 0-5-2.239-5-5 0-3.492-2.841-6.333-6.333-6.333-2.761 0-5-2.239-5-5s2.239-5 5-5c3.492 0 6.333-2.841 6.333-6.333 0-2.761 2.239-5 5-5s5 2.239 5 5c0 3.492 2.841 6.333 6.333 6.333 2.761 0 5 2.239 5 5s-2.239 5-5 5c-3.492 0-6.333 2.841-6.333 6.333 0 2.761-2.239 5-5 5z" fill="#6c6cff"/><path d="m143.284 102.05c-2.761 0-5-2.239-5-5 0-3.492-2.841-6.333-6.333-6.333-2.761 0-5-2.239-5-5s2.239-5 5-5c3.492 0 6.333-2.841 6.333-6.334 0-2.761 2.239-5 5-5s5 2.239 5 5c0 3.492 2.841 6.334 6.333 6.334 2.761 0 5 2.239 5 5s-2.239 5-5 5c-3.492 0-6.333 2.841-6.333 6.333 0 2.761-2.239 5-5 5z" fill="#ff4d4d"/><path d="m468.625 261.094c-2.761 0-5-2.239-5-5 0-3.492-2.841-6.333-6.333-6.333-2.761 0-5-2.239-5-5s2.239-5 5-5c3.492 0 6.333-2.841 6.333-6.333 0-2.761 2.239-5 5-5s5 2.239 5 5c0 3.492 2.841 6.333 6.333 6.333 2.761 0 5 2.239 5 5s-2.239 5-5 5c-3.492 0-6.333 2.841-6.333 6.333 0 2.761-2.238 5-5 5z" fill="#ff9d33"/><g fill="#ff4d4d"><g><path d="m136.775 134.866c-2.761 0-5-2.239-5-5v-.15c0-2.761 2.239-5 5-5s5 2.239 5 5v.15c0 2.761-2.239 5-5 5z"/><path d="m136.775 162.65c-2.761 0-5-2.239-5-5v-.15c0-2.761 2.239-5 5-5s5 2.239 5 5v.15c0 2.762-2.239 5-5 5z"/></g><g><path d="m124.804 141.775c-.846 0-1.702-.215-2.488-.667l-.13-.075c-2.394-1.376-3.218-4.433-1.841-6.827 1.376-2.393 4.431-3.218 6.827-1.841l.13.075c2.394 1.376 3.218 4.433 1.841 6.827-.925 1.609-2.608 2.508-4.339 2.508z"/><path d="m148.866 155.668c-.843 0-1.697-.213-2.481-.663l-.13-.075c-2.396-1.373-3.225-4.428-1.853-6.824 1.373-2.396 4.427-3.226 6.824-1.853l.13.075c2.396 1.373 3.225 4.428 1.853 6.824-.923 1.612-2.609 2.516-4.343 2.516z"/></g><g><path d="m124.684 155.668c-1.731 0-3.414-.9-4.339-2.508-1.377-2.394-.553-5.451 1.841-6.827l.13-.075c2.395-1.378 5.451-.552 6.827 1.841 1.377 2.394.553 5.451-1.841 6.827l-.13.075c-.785.452-1.643.667-2.488.667z"/><path d="m148.746 141.775c-1.734 0-3.419-.903-4.343-2.515-1.372-2.396-.543-5.451 1.853-6.824l.13-.075c2.395-1.374 5.451-.543 6.824 1.853 1.372 2.396.543 5.451-1.853 6.824l-.13.075c-.784.449-1.639.662-2.481.662z"/></g></g><g fill="#6c6cff"><g><path d="m468.226 387.464c-2.761 0-5-2.239-5-5v-.15c0-2.761 2.239-5 5-5s5 2.239 5 5v.15c0 2.761-2.239 5-5 5z"/><path d="m468.226 415.248c-2.761 0-5-2.239-5-5v-.15c0-2.761 2.239-5 5-5s5 2.239 5 5v.15c0 2.761-2.239 5-5 5z"/></g><g><path d="m456.255 394.373c-.85 0-1.711-.217-2.5-.674l-.13-.075c-2.39-1.384-3.206-4.442-1.822-6.833 1.383-2.389 4.442-3.205 6.833-1.822l.13.075c2.39 1.384 3.206 4.442 1.822 6.832-.928 1.602-2.607 2.497-4.333 2.497z"/><path d="m480.316 408.265c-.85 0-1.711-.217-2.501-.674l-.13-.075c-2.39-1.384-3.206-4.442-1.822-6.832 1.383-2.389 4.442-3.205 6.832-1.822l.13.075c2.39 1.384 3.206 4.442 1.822 6.832-.925 1.601-2.605 2.496-4.331 2.496z"/></g><g><path d="m456.135 408.265c-1.726 0-3.405-.895-4.332-2.496-1.384-2.39-.568-5.449 1.822-6.832l.13-.075c2.391-1.383 5.45-.568 6.832 1.822 1.384 2.39.568 5.449-1.822 6.832l-.13.075c-.789.457-1.65.674-2.5.674z"/><path d="m480.196 394.373c-1.726 0-3.405-.895-4.332-2.496-1.384-2.39-.568-5.449 1.822-6.832l.13-.075c2.391-1.383 5.449-.568 6.832 1.822 1.384 2.39.568 5.449-1.822 6.833l-.13.075c-.788.456-1.65.673-2.5.673z"/></g></g></g></g></g></svg>