<svg id="Capa_1" enable-background="new 0 0 512 512" height="512" viewBox="0 0 512 512" width="512" xmlns="http://www.w3.org/2000/svg" xmlns:xlink="http://www.w3.org/1999/xlink"><linearGradient id="SVGID_1_" gradientUnits="userSpaceOnUse" x1="-21.409" x2="490.399" y1="373.272" y2="77.779"><stop offset="0" stop-color="#fff" stop-opacity="0"/><stop offset=".2532" stop-color="#eef" stop-opacity=".403"/><stop offset=".629" stop-color="#d9d9ff"/></linearGradient><linearGradient id="SVGID_2_" gradientUnits="userSpaceOnUse" x1="300.951" x2="300.951" y1="476.612" y2="25.392"><stop offset="0" stop-color="#ff4d4d" stop-opacity=".4"/><stop offset="1" stop-color="#ff4d4d" stop-opacity="0"/></linearGradient><g><g><path d="m451.798 43.963c-160.556-97.869-410.51-8.611-439.594 61.949-38.908 94.393 26.578 110.528 38.743 187.874 9.761 62.06-51.182 121.494-16.394 176.282 37.882 59.663 163.465 44.681 211.198 16.447 87.376-51.682 43.309-112.012 84.684-187.299 39.407-71.707 116.244-42.625 160.961-99.99 42.5-54.521 14.311-122.402-39.598-155.263z" fill="url(#SVGID_1_)"/></g><g><g><g><path d="m419.241 35.392v431.22c0 5.52-4.47 10-10 10h-216.58c-5.53 0-10-4.48-10-10v-431.22c0-5.53 4.47-10 10-10h216.58c5.53 0 10 4.47 10 10z" fill="#fff"/><g><path d="m254.826 262.666h112.812c2.761 0 5-2.239 5-5v-23.787c0-2.761-2.239-5-5-5h-112.812z" fill="#ffab66"/><g><path d="m367.638 298.41h-65.978c-2.611 0-4.943-1.909-5.191-4.508-.285-2.982 2.053-5.492 4.977-5.492h66.193c2.761 0 5 2.239 5 5-.001 2.761-2.24 5-5.001 5z" fill="#6c6cff"/></g><g><path d="m367.638 317.776h-65.978c-2.611 0-4.943-1.909-5.191-4.508-.285-2.982 2.053-5.492 4.977-5.492h66.193c2.761 0 5 2.238 5 5-.001 2.762-2.24 5-5.001 5z" fill="#6c6cff"/></g></g><path d="m419.241 35.392v26.55l-236.58 169.996v-196.546c0-5.53 4.47-10 10-10h216.58c5.53 0 10 4.47 10 10z" fill="#ff4d4d"/><ellipse cx="353.726" cy="373.698" fill="#ffab66" rx="30.431" ry="30.431" transform="matrix(.105 -.995 .995 .105 -55.059 686.216)"/><g><g><circle cx="382.759" cy="150.224" fill="#ff4d4d" r="5"/></g><g><circle cx="367.088" cy="150.224" fill="#ff4d4d" r="5"/></g></g><g><path d="m318.018 69.913h-9.339v-9.339c0-2.915-2.363-5.278-5.278-5.278h-4.899c-2.915 0-5.278 2.363-5.278 5.278v9.339h-9.34c-2.915 0-5.278 2.363-5.278 5.278v4.899c0 2.915 2.363 5.278 5.278 5.278h9.34v9.34c0 2.915 2.363 5.278 5.278 5.278h4.899c2.915 0 5.278-2.363 5.278-5.278v-9.34h9.339c2.915 0 5.278-2.363 5.278-5.278v-4.899c0-2.915-2.363-5.278-5.278-5.278z" fill="#fff"/></g><path d="m419.241 35.392v431.22c0 5.52-4.47 10-10 10h-216.58c-5.53 0-10-4.48-10-10v-431.22c0-5.53 4.47-10 10-10h216.58c5.53 0 10 4.47 10 10z" fill="url(#SVGID_2_)"/><g><path d="m200.203 173.96v-58.687h-91.225v58.687c-30.63 2.805-54.623 28.552-54.623 59.913v222.735c0 11.046 8.954 20 20 20h160.47c11.046 0 20-8.954 20-20v-42.042l-35.811-93.005 35.811-70.725v-16.962c.001-31.362-23.992-57.109-54.622-59.914z" fill="#ff6c6c"/><path d="m108.978 115.273h91.225v34.259h-91.225z" fill="#ff4d4d"/><g><path d="m254.826 414.566h-134.34c-5.523 0-10-4.477-10-10v-143.73c0-5.523 4.477-10 10-10h134.339v163.73z" fill="#fee"/><g><g><path d="m254.826 317.79h-96.193c-2.762 0-5-2.239-5-5s2.238-5 5-5h96.193z" fill="#6c6cff"/></g><g><path d="m254.826 336.561h-71.193c-2.762 0-5-2.239-5-5s2.238-5 5-5h71.193z" fill="#6c6cff"/></g><g><path d="m254.826 355.332h-71.193c-2.762 0-5-2.239-5-5s2.238-5 5-5h71.193z" fill="#6c6cff"/></g></g><path d="m254.826 281.083v-30.248h-134.34c-5.523 0-10 4.477-10 10v20.248z" fill="#ffab66"/></g><path d="m209.014 124.419h-108.848c-5.523 0-10-4.477-10-10v-39.827c0-11.046 8.954-20 20-20h88.848c11.046 0 20 8.954 20 20v39.827c0 5.523-4.477 10-10 10z" fill="#fff"/><path d="m90.167 100.473v13.946c0 5.523 4.477 10 10 10h108.848c5.523 0 10-4.477 10-10v-13.946z" fill="#d9d9ff"/><path d="m177.656 398.363h-38.499c-2.762 0-5-2.239-5-5v-18.156c0-2.761 2.238-5 5-5h38.499c2.761 0 5 2.239 5 5v18.156c0 2.762-2.239 5-5 5z" fill="#ff6c6c"/><g><g><circle cx="226.85" cy="384.285" fill="#ffab66" r="5"/></g><g><circle cx="211.178" cy="384.285" fill="#ffab66" r="5"/></g></g></g></g><g fill="#ff9d33"><g><path d="m55.043 141.407c-2.761 0-5-2.239-5-5v-.15c0-2.761 2.239-5 5-5s5 2.239 5 5v.15c0 2.761-2.239 5-5 5z"/><path d="m55.043 169.191c-2.761 0-5-2.239-5-5v-.15c0-2.761 2.239-5 5-5s5 2.239 5 5v.15c0 2.761-2.239 5-5 5z"/></g><g><path d="m43.072 148.316c-.85 0-1.712-.217-2.5-.674l-.13-.075c-2.39-1.384-3.206-4.442-1.822-6.832 1.383-2.389 4.442-3.205 6.833-1.822l.13.075c2.39 1.384 3.206 4.442 1.822 6.833-.927 1.6-2.607 2.495-4.333 2.495z"/><path d="m67.134 162.209c-.85 0-1.711-.217-2.501-.674l-.13-.075c-2.39-1.384-3.205-4.442-1.822-6.833 1.383-2.389 4.442-3.206 6.833-1.822l.13.075c2.39 1.384 3.206 4.442 1.822 6.833-.927 1.601-2.606 2.496-4.332 2.496z"/></g><g><path d="m42.952 162.209c-1.726 0-3.405-.895-4.332-2.496-1.384-2.39-.568-5.449 1.822-6.833l.13-.075c2.391-1.384 5.449-.568 6.833 1.822s.568 5.449-1.822 6.833l-.13.075c-.789.456-1.651.674-2.501.674z"/><path d="m67.014 148.316c-1.726 0-3.405-.895-4.332-2.496-1.384-2.39-.568-5.449 1.822-6.833l.13-.075c2.391-1.383 5.45-.568 6.833 1.822 1.384 2.39.568 5.449-1.822 6.832l-.13.075c-.79.458-1.651.675-2.501.675z"/></g></g><g fill="#ff9d33"><g><path d="m456.957 387.659c-2.761 0-5-2.239-5-5v-.15c0-2.761 2.239-5 5-5s5 2.239 5 5v.15c0 2.761-2.239 5-5 5z"/><path d="m456.957 415.443c-2.761 0-5-2.239-5-5v-.15c0-2.761 2.239-5 5-5s5 2.239 5 5v.15c0 2.761-2.239 5-5 5z"/></g><g><path d="m444.986 394.568c-.846 0-1.702-.215-2.488-.667l-.13-.075c-2.394-1.376-3.218-4.433-1.841-6.827 1.376-2.393 4.432-3.219 6.827-1.841l.13.075c2.393 1.376 3.218 4.433 1.841 6.827-.925 1.608-2.608 2.508-4.339 2.508z"/><path d="m469.048 408.46c-.846 0-1.702-.215-2.488-.667l-.13-.075c-2.394-1.376-3.218-4.433-1.841-6.827 1.377-2.393 4.432-3.219 6.827-1.841l.13.075c2.394 1.377 3.218 4.433 1.841 6.827-.925 1.608-2.608 2.508-4.339 2.508z"/></g><g><path d="m444.866 408.46c-1.731 0-3.414-.9-4.339-2.508-1.377-2.394-.553-5.451 1.841-6.827l.13-.075c2.395-1.378 5.451-.552 6.827 1.841 1.377 2.394.553 5.451-1.841 6.827l-.13.075c-.785.452-1.643.667-2.488.667z"/><path d="m468.928 394.568c-1.731 0-3.414-.9-4.339-2.508-1.377-2.394-.553-5.451 1.841-6.827l.13-.075c2.395-1.378 5.45-.552 6.827 1.841 1.377 2.394.553 5.451-1.841 6.827l-.13.075c-.786.452-1.643.667-2.488.667z"/></g></g><path d="m55.867 113.504c-2.761 0-5-2.239-5-5 0-3.492-2.841-6.333-6.333-6.333-2.761 0-5-2.239-5-5s2.239-5 5-5c3.492 0 6.333-2.841 6.333-6.333 0-2.761 2.239-5 5-5s5 2.239 5 5c0 3.492 2.841 6.333 6.333 6.333 2.761 0 5 2.239 5 5s-2.239 5-5 5c-3.492 0-6.333 2.841-6.333 6.333 0 2.762-2.239 5-5 5z" fill="#6c6cff"/><path d="m456.957 268.212c-2.761 0-5-2.239-5-5 0-3.492-2.841-6.333-6.333-6.333-2.761 0-5-2.239-5-5s2.239-5 5-5c3.492 0 6.333-2.841 6.333-6.334 0-2.761 2.239-5 5-5s5 2.239 5 5c0 3.492 2.841 6.334 6.333 6.334 2.761 0 5 2.239 5 5s-2.239 5-5 5c-3.492 0-6.333 2.841-6.333 6.333 0 2.761-2.239 5-5 5z" fill="#ff9d33"/><path d="m450.624 337.894c-2.761 0-5-2.239-5-5 0-3.492-2.841-6.333-6.333-6.333-2.761 0-5-2.239-5-5s2.239-5 5-5c3.492 0 6.333-2.841 6.333-6.333 0-2.761 2.239-5 5-5s5 2.239 5 5c0 3.492 2.841 6.333 6.333 6.333 2.761 0 5 2.239 5 5s-2.239 5-5 5c-3.492 0-6.333 2.841-6.333 6.333 0 2.761-2.239 5-5 5z" fill="#ff4d4d"/></g></g></g></svg>