<svg id="Capa_1" enable-background="new 0 0 512 512" height="512" viewBox="0 0 512 512" width="512" xmlns="http://www.w3.org/2000/svg" xmlns:xlink="http://www.w3.org/1999/xlink"><linearGradient id="SVGID_1_" gradientUnits="userSpaceOnUse" x1="0" x2="512" y1="254.559" y2="254.559"><stop offset="0" stop-color="#ffd9d9" stop-opacity="0"/><stop offset=".9981" stop-color="#ffb3b3"/></linearGradient><linearGradient id="SVGID_2_" gradientUnits="userSpaceOnUse" x1="255.745" x2="255.745" y1="400.994" y2="150.088"><stop offset="0" stop-color="#ff4d4d" stop-opacity=".4"/><stop offset="1" stop-color="#ff4d4d" stop-opacity="0"/></linearGradient><g><g><path d="m4.896 322.818c17.448 172.871 292.417 167.142 420.803 136.265 82.47-19.834 87.596-59.472 86.106-144.001-.96-54.486 3.443-198.725-32.004-244.123-54.448-69.733-103.228-25.998-170.656-3.235-86.488 29.197-120.189-22.932-202.476-21.379-120.641 2.277-110.778 187.251-101.773 276.473z" fill="url(#SVGID_1_)"/></g><g><g><g><path d="m200.864 153.538v-40.617c0-2.757 2.243-5 5-5h99.761c2.757 0 5 2.243 5 5v40.617h20v-40.617c0-13.785-11.215-25-25-25h-99.761c-13.785 0-25 11.215-25 25v40.617z" fill="#9494ff"/></g><g fill="#9494ff"><path d="m169.515 421.196h-68.555c-2.761 0-5-2.239-5-5v-22.693h78.555v22.693c0 2.761-2.239 5-5 5z"/><path d="m410.53 421.196h-68.555c-2.761 0-5-2.239-5-5v-22.693h78.555v22.693c0 2.761-2.239 5-5 5z"/></g><g><path d="m443.4 400.994h-375.31c-5.523 0-10-4.477-10-10v-230.906c0-5.523 4.477-10 10-10h375.31c5.523 0 10 4.477 10 10v230.906c0 5.523-4.478 10-10 10z" fill="#fff"/><g fill="#ebebff"><path d="m138.825 211.963h-37.865c-2.761 0-5-2.239-5-5v-51.875c0-2.761 2.239-5 5-5h37.865c2.762 0 5 2.239 5 5v51.875c0 2.761-2.239 5-5 5z"/><path d="m410.53 211.963h-37.865c-2.761 0-5-2.239-5-5v-51.875c0-2.761 2.239-5 5-5h37.865c2.761 0 5 2.239 5 5v51.875c0 2.761-2.239 5-5 5z"/></g></g><g><circle cx="255.745" cy="275.541" fill="#ff4d4d" r="69.494"/><path d="m288.081 260.9h-17.695v-17.695c0-5.523-4.477-10-10-10h-9.282c-5.523 0-10 4.477-10 10v17.695h-17.695c-5.523 0-10 4.477-10 10v9.282c0 5.523 4.477 10 10 10h17.695v17.695c0 5.523 4.477 10 10 10h9.282c5.523 0 10-4.477 10-10v-17.695h17.695c5.523 0 10-4.477 10-10v-9.282c0-5.523-4.477-10-10-10z" fill="#fff"/></g><g><g><path d="m138.825 192.957h-37.865c-2.761 0-5-2.239-5-5v-41.875c0-2.761 2.239-5 5-5h37.865c2.762 0 5 2.239 5 5v41.875c0 2.761-2.239 5-5 5z" fill="#ff4d4d"/><path d="m143.825 161.422v-15.34c0-2.762-2.238-5-5-5h-37.865c-2.761 0-5 2.238-5 5v15.34z" fill="#ff9494"/></g><g><path d="m410.53 192.957h-37.865c-2.761 0-5-2.239-5-5v-41.875c0-2.761 2.239-5 5-5h37.865c2.761 0 5 2.239 5 5v41.875c0 2.761-2.239 5-5 5z" fill="#ff4d4d"/><path d="m415.53 161.422v-15.34c0-2.762-2.239-5-5-5h-37.865c-2.762 0-5 2.238-5 5v15.34z" fill="#ff9494"/></g></g></g><g fill="#ff9d33"><g><path d="m130.701 74.627c-2.761 0-5-2.239-5-5v-.15c0-2.761 2.239-5 5-5s5 2.239 5 5v.15c0 2.761-2.239 5-5 5z"/><path d="m130.701 102.411c-2.761 0-5-2.239-5-5v-.15c0-2.761 2.239-5 5-5s5 2.239 5 5v.15c0 2.761-2.239 5-5 5z"/></g><g><path d="m118.73 81.537c-.85 0-1.711-.217-2.501-.674l-.13-.075c-2.39-1.384-3.206-4.442-1.822-6.832 1.384-2.389 4.441-3.205 6.833-1.822l.13.075c2.39 1.384 3.206 4.442 1.822 6.833-.927 1.6-2.606 2.495-4.332 2.495z"/><path d="m142.792 95.429c-.85 0-1.711-.217-2.501-.674l-.13-.075c-2.39-1.384-3.206-4.442-1.822-6.832 1.383-2.389 4.442-3.206 6.833-1.822l.13.075c2.39 1.384 3.206 4.442 1.822 6.833-.927 1.6-2.606 2.495-4.332 2.495z"/></g><g><path d="m118.61 95.429c-1.726 0-3.405-.895-4.332-2.496-1.384-2.39-.568-5.449 1.822-6.833l.13-.075c2.392-1.384 5.449-.567 6.833 1.822 1.384 2.39.568 5.449-1.822 6.832l-.13.075c-.79.457-1.651.675-2.501.675z"/><path d="m142.672 81.537c-1.726 0-3.405-.894-4.332-2.496-1.384-2.39-.568-5.449 1.822-6.833l.13-.075c2.391-1.383 5.449-.568 6.833 1.822s.568 5.449-1.822 6.832l-.13.075c-.79.457-1.651.675-2.501.675z"/></g></g><g fill="#ff4d4d"><g><g><path d="m247.763 428.372c-2.761 0-5-2.239-5-5v-.15c0-2.761 2.239-5 5-5s5 2.239 5 5v.15c0 2.761-2.239 5-5 5z"/><path d="m247.763 456.155c-2.761 0-5-2.239-5-5v-.15c0-2.761 2.239-5 5-5s5 2.239 5 5v.15c0 2.762-2.239 5-5 5z"/></g><g><path d="m235.792 435.281c-.85 0-1.711-.217-2.501-.674l-.13-.075c-2.39-1.384-3.206-4.442-1.822-6.832 1.383-2.389 4.442-3.206 6.833-1.822l.13.075c2.39 1.384 3.206 4.442 1.822 6.833-.927 1.6-2.606 2.495-4.332 2.495z"/><path d="m259.854 449.173c-.848 0-1.706-.216-2.493-.67l-.13-.075c-2.392-1.379-3.213-4.437-1.833-6.829 1.379-2.392 4.436-3.213 6.829-1.833l.13.075c2.392 1.379 3.213 4.437 1.833 6.829-.926 1.605-2.607 2.503-4.336 2.503z"/></g><g><path d="m235.672 449.173c-1.726 0-3.405-.895-4.332-2.496-1.384-2.39-.568-5.449 1.822-6.833l.13-.075c2.391-1.383 5.449-.568 6.833 1.822s.568 5.449-1.822 6.833l-.13.075c-.79.457-1.651.674-2.501.674z"/><path d="m259.733 435.281c-1.729 0-3.41-.898-4.336-2.503-1.38-2.392-.559-5.45 1.833-6.829l.13-.075c2.392-1.381 5.449-.558 6.829 1.833 1.38 2.392.559 5.45-1.833 6.829l-.13.075c-.786.454-1.645.67-2.493.67z"/></g></g><g><g><path d="m441.814 95.675c-2.761 0-5-2.239-5-5v-.15c0-2.761 2.239-5 5-5s5 2.239 5 5v.15c0 2.762-2.238 5-5 5z"/><path d="m441.814 123.46c-2.761 0-5-2.239-5-5v-.15c0-2.761 2.239-5 5-5s5 2.239 5 5v.15c0 2.761-2.238 5-5 5z"/></g><g><path d="m429.844 102.585c-.848 0-1.706-.216-2.493-.67l-.13-.075c-2.392-1.379-3.213-4.437-1.833-6.829 1.379-2.392 4.436-3.213 6.829-1.833l.13.075c2.392 1.379 3.213 4.437 1.833 6.829-.926 1.605-2.607 2.503-4.336 2.503z"/><path d="m453.905 116.477c-.85 0-1.712-.217-2.501-.674l-.13-.075c-2.39-1.384-3.206-4.442-1.822-6.832 1.383-2.389 4.442-3.206 6.833-1.822l.13.075c2.39 1.384 3.206 4.442 1.822 6.833-.927 1.6-2.606 2.495-4.332 2.495z"/></g><g><path d="m429.723 116.477c-1.729 0-3.41-.898-4.336-2.503-1.38-2.392-.559-5.45 1.833-6.829l.13-.075c2.391-1.381 5.45-.559 6.829 1.833 1.38 2.392.559 5.45-1.833 6.829l-.13.075c-.786.454-1.646.67-2.493.67z"/><path d="m453.785 102.585c-1.726 0-3.405-.895-4.332-2.496-1.384-2.39-.568-5.449 1.822-6.833l.13-.075c2.391-1.383 5.45-.568 6.833 1.822 1.384 2.39.568 5.449-1.822 6.833l-.13.075c-.789.457-1.651.674-2.501.674z"/></g></g><path d="m173.182 72.138c-2.761 0-5-2.239-5-5 0-3.492-2.841-6.333-6.333-6.333-2.761 0-5-2.239-5-5s2.239-5 5-5c3.492 0 6.333-2.841 6.333-6.333 0-2.761 2.239-5 5-5s5 2.239 5 5c0 3.492 2.841 6.333 6.333 6.333 2.761 0 5 2.239 5 5s-2.239 5-5 5c-3.492 0-6.333 2.841-6.333 6.333 0 2.761-2.239 5-5 5z"/></g><path d="m200.864 478.862c-2.761 0-5-2.239-5-5 0-3.492-2.841-6.333-6.333-6.333-2.761 0-5-2.239-5-5s2.239-5 5-5c3.492 0 6.333-2.841 6.333-6.333 0-2.761 2.239-5 5-5s5 2.239 5 5c0 3.492 2.841 6.333 6.333 6.333 2.761 0 5 2.239 5 5s-2.239 5-5 5c-3.492 0-6.333 2.841-6.333 6.333 0 2.762-2.239 5-5 5z" fill="#6c6cff"/></g><path d="m443.4 400.994h-375.31c-5.523 0-10-4.477-10-10v-230.906c0-5.523 4.477-10 10-10h375.31c5.523 0 10 4.477 10 10v230.906c0 5.523-4.478 10-10 10z" fill="url(#SVGID_2_)"/></g></svg>