<svg id="Capa_1" enable-background="new 0 0 512 512" height="512" viewBox="0 0 512 512" width="512" xmlns="http://www.w3.org/2000/svg" xmlns:xlink="http://www.w3.org/1999/xlink"><linearGradient id="SVGID_1_" gradientUnits="userSpaceOnUse" x1="27.58" x2="504.532" y1="389.429" y2="114.061"><stop offset="0" stop-color="#fff" stop-opacity="0"/><stop offset=".2532" stop-color="#eef" stop-opacity=".403"/><stop offset=".629" stop-color="#d9d9ff"/></linearGradient><linearGradient id="SVGID_2_" gradientUnits="userSpaceOnUse" x1="275.68" x2="275.68" y1="459.37" y2="126.13"><stop offset="0" stop-color="#ff4d4d" stop-opacity=".4"/><stop offset="1" stop-color="#ff4d4d" stop-opacity="0"/></linearGradient><g><g><path d="m4.896 324.259c17.448 172.871 292.417 167.142 420.803 136.265 82.47-19.834 87.596-59.472 86.106-144.001-.96-54.486 3.443-198.725-32.004-244.123-54.448-69.733-103.228-25.998-170.656-3.235-86.488 29.197-120.189-22.932-202.476-21.38-120.641 2.278-110.778 187.252-101.773 276.474z" fill="url(#SVGID_1_)"/></g><g><g><g><path d="m364.371 197.913h-177.383v-125.283c0-11.046 8.954-20 20-20h137.383c11.046 0 20 8.954 20 20z" fill="#ebebff"/><g><path d="m275.68 173.99c-2.761 0-5-2.239-5-5v-90.954c0-2.761 2.239-5 5-5s5 2.239 5 5v90.955c0 2.76-2.239 4.999-5 4.999z" fill="#d9d9ff"/></g><path d="m377.46 136.13v313.24c0 5.523-4.477 10-10 10h-183.56c-5.523 0-10-4.477-10-10v-313.24c0-5.523 4.477-10 10-10h15.613c4.847 0 8.996 3.476 9.845 8.247l3.804 21.365c.85 4.772 4.999 8.247 9.845 8.247h105.346c4.847 0 8.996-3.476 9.845-8.247l3.804-21.365c.85-4.772 4.999-8.247 9.845-8.247h15.613c5.522 0 10 4.477 10 10z" fill="#ffab66"/><path d="m377.46 299.554v-163.424c0-5.523-4.477-10-10-10h-15.613c-4.847 0-8.996 3.476-9.845 8.247l-3.804 21.365c-.85 4.772-4.999 8.247-9.845 8.247h-105.346c-4.847 0-8.996-3.476-9.845-8.247l-3.804-21.365c-.849-4.772-4.998-8.247-9.845-8.247h-15.613c-5.523 0-10 4.477-10 10v80.646z" fill="#ff8b00"/></g><g fill="#ff4d4d"><circle cx="316.438" cy="105.483" r="20.648"/><circle cx="237.226" cy="105.483" r="20.648"/></g><g><path d="m335.277 306.38h-23.156c-2.761 0-5-2.239-5-5v-104.877c0-2.761 2.239-5 5-5h23.156c2.761 0 5 2.239 5 5v104.877c0 2.761-2.239 5-5 5z" fill="#fff"/><path d="m340.277 221.349v-24.845c0-2.761-2.239-5-5-5h-23.156c-2.761 0-5 2.239-5 5v24.845z" fill="#8383ff"/><g><path d="m330.277 424.944v-95.978c0-2.611 1.909-4.943 4.508-5.191 2.982-.285 5.492 2.052 5.492 4.976v96.193c0 2.761-2.239 5-5 5-2.761 0-5-2.239-5-5z" fill="#ff4d4d"/></g></g><g><path d="m311.438 399.944v-70.978c0-2.611 1.909-4.943 4.508-5.191 2.982-.285 5.492 2.052 5.492 4.976v71.193c0 2.761-2.239 5-5 5-2.761 0-5-2.239-5-5z" fill="#ff4d4d"/></g><g><path d="m200.879 371.847v-20.978c0-2.611 1.909-4.943 4.508-5.191 2.982-.285 5.492 2.053 5.492 4.977v21.193c0 2.761-2.239 5-5 5-2.762-.001-5-2.239-5-5.001z" fill="#fff"/></g><g><path d="m200.879 328.943v-10.978c0-2.611 1.909-4.943 4.508-5.191 2.982-.285 5.492 2.053 5.492 4.977v11.193c0 2.761-2.239 5-5 5-2.762-.001-5-2.239-5-5.001z" fill="#fff"/></g><ellipse cx="223.685" cy="409.088" fill="#fff" rx="22.806" ry="22.806" transform="matrix(.234 -.972 .972 .234 -226.41 530.753)"/><path d="m377.46 136.13v313.24c0 5.523-4.477 10-10 10h-183.56c-5.523 0-10-4.477-10-10v-313.24c0-5.523 4.477-10 10-10h15.613c4.847 0 8.996 3.476 9.845 8.247l3.804 21.365c.85 4.772 4.999 8.247 9.845 8.247h105.346c4.847 0 8.996-3.476 9.845-8.247l3.804-21.365c.85-4.772 4.999-8.247 9.845-8.247h15.613c5.522 0 10 4.477 10 10z" fill="url(#SVGID_2_)"/><ellipse cx="157.894" cy="438.723" fill="#ff2c2c" rx="20.648" ry="20.648" transform="matrix(.924 -.383 .383 .924 -155.873 93.819)"/><g><ellipse cx="119.602" cy="438.723" fill="#ff4d4d" rx="20.648" ry="20.648" transform="matrix(.924 -.383 .383 .924 -158.788 79.165)"/></g></g><g fill="#ff9d33"><g><path d="m129.431 352.434c-2.761 0-5-2.239-5-5v-.15c0-2.761 2.239-5 5-5s5 2.239 5 5v.15c0 2.761-2.239 5-5 5z"/><path d="m129.431 380.218c-2.761 0-5-2.239-5-5v-.15c0-2.761 2.239-5 5-5s5 2.239 5 5v.15c0 2.761-2.239 5-5 5z"/></g><g><path d="m117.46 359.344c-.85 0-1.712-.217-2.501-.674l-.13-.075c-2.39-1.384-3.206-4.442-1.822-6.833 1.383-2.389 4.442-3.206 6.832-1.822l.13.075c2.39 1.384 3.206 4.442 1.822 6.832-.926 1.602-2.605 2.497-4.331 2.497z"/><path d="m141.522 373.235c-.843 0-1.697-.213-2.481-.663l-.13-.075c-2.396-1.373-3.225-4.428-1.853-6.824 1.373-2.396 4.429-3.227 6.824-1.853l.13.075c2.396 1.373 3.225 4.428 1.852 6.824-.923 1.613-2.608 2.516-4.342 2.516z"/></g><g><path d="m117.34 373.235c-1.731 0-3.414-.9-4.339-2.508-1.377-2.394-.553-5.451 1.841-6.827l.13-.075c2.395-1.378 5.451-.552 6.827 1.841 1.377 2.394.553 5.451-1.841 6.827l-.13.075c-.786.452-1.643.667-2.488.667z"/><path d="m141.401 359.344c-1.729 0-3.41-.898-4.336-2.503-1.38-2.392-.559-5.45 1.833-6.829l.13-.075c2.391-1.381 5.449-.559 6.829 1.833s.559 5.45-1.833 6.829l-.13.075c-.786.454-1.646.67-2.493.67z"/></g></g><g fill="#6c6cff"><g><path d="m94.668 305.502c-2.761 0-5-2.239-5-5v-.15c0-2.761 2.239-5 5-5s5 2.239 5 5v.15c0 2.761-2.238 5-5 5z"/><path d="m94.668 333.286c-2.761 0-5-2.239-5-5v-.15c0-2.761 2.239-5 5-5s5 2.239 5 5v.15c0 2.761-2.238 5-5 5z"/></g><g><path d="m82.698 312.412c-.848 0-1.706-.216-2.493-.67l-.13-.075c-2.392-1.379-3.213-4.437-1.833-6.829s4.436-3.214 6.829-1.833l.13.075c2.392 1.379 3.213 4.437 1.833 6.829-.926 1.605-2.607 2.503-4.336 2.503z"/><path d="m106.759 326.304c-.85 0-1.711-.217-2.5-.674l-.13-.075c-2.39-1.384-3.206-4.442-1.822-6.832 1.383-2.389 4.441-3.205 6.832-1.822l.13.075c2.39 1.384 3.206 4.442 1.822 6.832-.926 1.601-2.606 2.496-4.332 2.496z"/></g><g><path d="m82.577 326.304c-1.729 0-3.41-.898-4.336-2.503-1.38-2.392-.559-5.45 1.833-6.829l.13-.075c2.391-1.382 5.449-.559 6.829 1.833s.559 5.45-1.833 6.829l-.13.075c-.786.454-1.646.67-2.493.67z"/><path d="m106.639 312.412c-1.726 0-3.405-.895-4.332-2.496-1.384-2.39-.568-5.449 1.822-6.832l.13-.075c2.391-1.384 5.449-.567 6.832 1.822 1.384 2.39.568 5.449-1.822 6.833l-.13.075c-.788.455-1.65.673-2.5.673z"/></g></g><path d="m137.246 121.816c-2.761 0-5-2.239-5-5 0-3.492-2.841-6.333-6.333-6.333-2.761 0-5-2.239-5-5s2.239-5 5-5c3.492 0 6.333-2.841 6.333-6.333 0-2.761 2.239-5 5-5s5 2.239 5 5c0 3.492 2.841 6.333 6.333 6.333 2.761 0 5 2.239 5 5s-2.239 5-5 5c-3.492 0-6.333 2.841-6.333 6.333 0 2.761-2.239 5-5 5z" fill="#ff4d4d"/><path d="m419.241 223.822c-2.761 0-5-2.239-5-5 0-3.492-2.841-6.333-6.333-6.333-2.761 0-5-2.239-5-5s2.239-5 5-5c3.492 0 6.333-2.841 6.333-6.333 0-2.761 2.239-5 5-5s5 2.239 5 5c0 3.492 2.841 6.333 6.333 6.333 2.761 0 5 2.239 5 5s-2.239 5-5 5c-3.492 0-6.333 2.841-6.333 6.333 0 2.761-2.239 5-5 5z" fill="#6c6cff"/><path d="m90.688 402.615c-2.761 0-5-2.239-5-5 0-3.492-2.841-6.333-6.334-6.333-2.761 0-5-2.239-5-5s2.239-5 5-5c3.492 0 6.334-2.841 6.334-6.333 0-2.761 2.239-5 5-5s5 2.239 5 5c0 3.492 2.841 6.333 6.333 6.333 2.761 0 5 2.239 5 5s-2.239 5-5 5c-3.492 0-6.333 2.841-6.333 6.333 0 2.761-2.238 5-5 5z" fill="#ff4d4d"/></g></g></svg>