<svg id="Capa_1" enable-background="new 0 0 512 512" height="512" viewBox="0 0 512 512" width="512" xmlns="http://www.w3.org/2000/svg" xmlns:xlink="http://www.w3.org/1999/xlink"><linearGradient id="SVGID_1_" gradientUnits="userSpaceOnUse" x1="23.821" x2="459.531" y1="343.269" y2="91.711"><stop offset="0" stop-color="#fff" stop-opacity="0"/><stop offset=".2532" stop-color="#eef" stop-opacity=".403"/><stop offset=".629" stop-color="#d9d9ff"/></linearGradient><linearGradient id="SVGID_2_" gradientUnits="userSpaceOnUse" x1="286.339" x2="286.339" y1="400.973" y2="36.006"><stop offset="0" stop-color="#ff4d4d" stop-opacity=".4"/><stop offset="1" stop-color="#ff4d4d" stop-opacity="0"/></linearGradient><g><g><path d="m16.074 302.88c18.727 64.003 72.707 194.564 163.922 182.845 91.486-11.755 55.758-129.725 139.508-145.894 36.867-7.118 61.857 56.689 98.806 54.704 47.588-2.557 71.81-49.663 85.108-89.264 28.197-83.968-14.029-226.352-112.858-251.011-86.245-21.519-96.333 83.855-171.322 53.248-42.149-17.203-37.938-68.576-89.272-78.942-155.299-31.36-138.811 189.15-113.892 274.314z" fill="url(#SVGID_1_)"/></g><g><g><g><g><path d="m445.411 152.014c-26.503-26.503-69.628-26.504-96.132 0l-226.33 226.33 15.559 22.63 191.543-191.544c1.952 14.172 8.356 27.843 19.228 38.715 26.503 26.503 69.627 26.503 96.131 0s26.504-69.627.001-96.131zm-81.989 81.989c-18.706-18.706-18.706-49.142-.001-67.847 18.706-18.706 49.141-18.706 67.847 0 18.705 18.705 18.705 49.141 0 67.847-18.705 18.705-49.141 18.705-67.846 0z" fill="#6c6cff"/><path d="m176.958 324.335 172.321-172.321c26.503-26.503 26.504-69.628 0-96.131-26.503-26.503-69.628-26.503-96.131 0s-26.503 69.627 0 96.131c10.872 10.872 24.542 17.276 38.714 19.228l-184.471 184.472 31.117 45.26 57.544-57.544zm90.332-186.463c-18.705-18.705-18.705-49.141 0-67.846 18.706-18.706 49.142-18.706 67.847 0s18.705 49.141 0 67.847c-18.705 18.704-49.141 18.704-67.847-.001z" fill="#9494ff"/></g><g><path d="m145.625 355.669c1.952 1.952 5.119 1.952 7.071 0l.081-.082c1.953-1.953 1.953-5.119 0-7.071-1.952-1.952-5.119-1.952-7.071 0l-.081.082c-1.952 1.952-1.952 5.118 0 7.071z" fill="#4d4dff"/></g><path d="m445.411 152.014c-26.503-26.503-69.628-26.504-96.132 0 26.503-26.503 26.504-69.628 0-96.131-26.503-26.503-69.628-26.503-96.131 0s-26.503 69.627 0 96.131c10.872 10.872 24.542 17.276 38.714 19.228l-184.471 184.472 15.559 22.63 15.559 22.63 57.544-57.544 133.998-134c1.952 14.172 8.356 27.843 19.228 38.715 26.503 26.503 69.628 26.503 96.131 0 26.504-26.503 26.504-69.627.001-96.131zm-178.121-14.142c-18.705-18.705-18.705-49.141 0-67.846 18.706-18.706 49.142-18.706 67.847 0s18.705 49.141 0 67.847c-18.705 18.704-49.141 18.704-67.847-.001zm163.978 96.131c-18.705 18.705-49.141 18.705-67.846 0-18.706-18.706-18.706-49.142-.001-67.847 18.706-18.706 49.141-18.706 67.848 0 18.705 18.706 18.705 49.142-.001 67.847z" fill="url(#SVGID_2_)"/><g><path d="m57.072 472.709-8.458-26.871c-4.612-14.653-.692-30.655 10.171-41.518l51.823-51.823 31.118 45.26-76.862 76.862c-2.49 2.49-6.735 1.45-7.792-1.91z" fill="#d9d9ff"/><path d="m141.726 397.756-70.549 70.549-5.438-17.294c-4.61-14.651-.7-30.653 10.161-41.514l43.787-43.787z" fill="#ebebff"/></g></g><g><g><circle cx="198.76" cy="123.124" fill="#ff4d4d" r="69.494"/><path d="m231.096 108.483h-17.695v-17.695c0-5.523-4.477-10-10-10h-9.282c-5.523 0-10 4.477-10 10v17.695h-17.695c-5.523 0-10 4.477-10 10v9.282c0 5.523 4.477 10 10 10h17.695v17.695c0 5.523 4.477 10 10 10h9.282c5.523 0 10-4.477 10-10v-17.695h17.695c5.523 0 10-4.477 10-10v-9.282c0-5.523-4.477-10-10-10z" fill="#fff"/></g><g fill="#2c27ff"><path d="m120.826 209.626h18.583c2.761 0 5-2.239 5-5s-2.239-5-5-5h-18.583c-2.761 0-5 2.239-5 5s2.239 5 5 5z"/><path d="m120.826 228.007h58.583c2.761 0 5-2.239 5-5s-2.239-5-5-5h-58.583c-2.761 0-5 2.239-5 5 0 2.762 2.239 5 5 5z"/><path d="m120.826 246.389h58.583c2.761 0 5-2.239 5-5s-2.239-5-5-5h-58.583c-2.761 0-5 2.239-5 5s2.239 5 5 5z"/></g></g></g><path d="m337.833 315.584c-2.762 0-5-2.239-5-5 0-3.492-2.842-6.333-6.334-6.333-2.762 0-5-2.239-5-5s2.238-5 5-5c3.492 0 6.334-2.841 6.334-6.333 0-2.761 2.238-5 5-5s5 2.239 5 5c0 3.492 2.841 6.333 6.333 6.333 2.762 0 5 2.239 5 5s-2.238 5-5 5c-3.492 0-6.333 2.841-6.333 6.333 0 2.761-2.238 5-5 5z" fill="#ff4d4d"/><path d="m289.881 368.83c-2.762 0-5-2.239-5-5 0-3.492-2.842-6.333-6.334-6.333-2.762 0-5-2.239-5-5s2.238-5 5-5c3.492 0 6.334-2.841 6.334-6.333 0-2.761 2.238-5 5-5s5 2.239 5 5c0 3.492 2.841 6.333 6.333 6.333 2.762 0 5 2.239 5 5s-2.238 5-5 5c-3.492 0-6.333 2.841-6.333 6.333 0 2.761-2.238 5-5 5z" fill="#ff9d33"/><path d="m94.219 172.713c-2.761 0-5-2.239-5-5 0-3.492-2.841-6.333-6.334-6.333-2.761 0-5-2.239-5-5s2.239-5 5-5c3.492 0 6.334-2.841 6.334-6.333 0-2.761 2.239-5 5-5s5 2.239 5 5c0 3.492 2.841 6.333 6.333 6.333 2.761 0 5 2.239 5 5s-2.239 5-5 5c-3.492 0-6.333 2.841-6.333 6.333 0 2.762-2.238 5-5 5z" fill="#6c6cff"/><g fill="#6c6cff"><g><path d="m337.833 371.074c-2.762 0-5-2.239-5-5v-.15c0-2.761 2.238-5 5-5s5 2.239 5 5v.15c0 2.761-2.238 5-5 5z"/><path d="m337.833 398.858c-2.762 0-5-2.239-5-5v-.15c0-2.761 2.238-5 5-5s5 2.239 5 5v.15c0 2.762-2.238 5-5 5z"/></g><g><path d="m325.862 377.984c-.845 0-1.701-.214-2.486-.665l-.131-.075c-2.395-1.376-3.22-4.432-1.844-6.827 1.376-2.394 4.432-3.22 6.826-1.844l.131.075c2.395 1.376 3.22 4.432 1.844 6.827-.925 1.608-2.608 2.509-4.34 2.509z"/><path d="m349.924 391.876c-.851 0-1.712-.217-2.5-.674l-.13-.075c-2.39-1.384-3.206-4.442-1.822-6.833 1.383-2.39 4.445-3.204 6.832-1.822l.13.075c2.39 1.384 3.206 4.442 1.822 6.833-.927 1.601-2.607 2.496-4.332 2.496z"/></g><g><path d="m325.741 391.876c-1.732 0-3.415-.9-4.34-2.51-1.376-2.395-.551-5.451 1.844-6.827l.131-.075c2.396-1.375 5.451-.55 6.826 1.844 1.376 2.395.551 5.451-1.844 6.827l-.131.075c-.785.451-1.641.666-2.486.666z"/><path d="m349.804 377.984c-1.727 0-3.405-.895-4.332-2.496-1.384-2.39-.567-5.449 1.822-6.832l.13-.075c2.39-1.384 5.449-.567 6.832 1.822 1.384 2.39.567 5.449-1.822 6.833l-.13.075c-.788.456-1.651.673-2.5.673z"/></g></g><g fill="#ff9d33"><g><path d="m82.123 282.642c-2.761 0-5-2.239-5-5v-.15c0-2.761 2.239-5 5-5s5 2.239 5 5v.15c0 2.761-2.239 5-5 5z"/><path d="m82.123 310.426c-2.761 0-5-2.239-5-5v-.15c0-2.761 2.239-5 5-5s5 2.239 5 5v.15c0 2.762-2.239 5-5 5z"/></g><g><path d="m70.152 289.551c-.846 0-1.702-.215-2.488-.667l-.13-.075c-2.394-1.377-3.218-4.433-1.841-6.827 1.376-2.393 4.432-3.218 6.827-1.841l.13.075c2.394 1.377 3.218 4.433 1.841 6.827-.925 1.608-2.608 2.508-4.339 2.508z"/><path d="m94.214 303.443c-.843 0-1.697-.213-2.481-.663l-.13-.075c-2.396-1.373-3.225-4.428-1.853-6.824 1.373-2.395 4.429-3.225 6.824-1.852l.13.075c2.396 1.373 3.225 4.428 1.853 6.824-.923 1.612-2.609 2.515-4.343 2.515z"/></g><g><path d="m70.032 303.443c-1.731 0-3.414-.9-4.339-2.508-1.377-2.394-.553-5.451 1.841-6.827l.13-.075c2.395-1.378 5.45-.552 6.827 1.841 1.377 2.394.553 5.451-1.841 6.827l-.13.075c-.785.453-1.643.667-2.488.667z"/><path d="m94.094 289.551c-1.734 0-3.419-.903-4.343-2.515-1.373-2.396-.543-5.451 1.853-6.824l.13-.075c2.396-1.374 5.451-.543 6.824 1.853s.543 5.451-1.853 6.824l-.13.075c-.784.449-1.638.662-2.481.662z"/></g></g></g></g></svg>