<svg id="Capa_1" enable-background="new 0 0 512 512" height="512" viewBox="0 0 512 512" width="512" xmlns="http://www.w3.org/2000/svg" xmlns:xlink="http://www.w3.org/1999/xlink"><linearGradient id="SVGID_1_" gradientUnits="userSpaceOnUse" x1="8.753" x2="524.203" y1="401.161" y2="103.566"><stop offset="0" stop-color="#fff" stop-opacity="0"/><stop offset=".2532" stop-color="#eef" stop-opacity=".403"/><stop offset=".629" stop-color="#d9d9ff"/></linearGradient><linearGradient id="SVGID_2_" gradientUnits="userSpaceOnUse" x1="257.145" x2="257.145" y1="448.828" y2="164.248"><stop offset="0" stop-color="#ff4d4d" stop-opacity=".4"/><stop offset="1" stop-color="#ff4d4d" stop-opacity="0"/></linearGradient><g><g><path d="m418.32 2.5c-55.666-9.521-178.298 12.183-200.004 105.016-14.432 61.722-14.007 112.075-50.427 113.02-21.67.562-32.97-44.31-62.889-48.001-39.047-4.817-66.145 27.695-83.057 57.138-37.205 64.772-25.571 174.918 23.354 228.632 118.488 130.086 259.197-5.952 319.358-112.309 38.585-68.213 125.637-123.352 143.767-200.248 15.177-64.375-18.503-131.002-90.102-143.248z" fill="url(#SVGID_1_)"/></g><g><g><g><path d="m319.437 316.262-37.99-48.008 105.647-83.601c13.257-10.491 32.509-8.248 42.999 5.009 10.491 13.257 8.248 32.509-5.009 42.999z" fill="#ffd6bb"/><path d="m359.07 174.248v240.82c0 18.64-15.11 33.76-33.76 33.76h-136.32c-18.65 0-33.77-15.12-33.77-33.76v-240.82c0-5.52 4.48-10 10-10h183.85c5.53 0 10 4.48 10 10z" fill="#ffc599"/><path d="m319.18 347.948c-2.47 0-4.47 2-4.47 4.47v50.83c0 2.47 2 4.47 4.47 4.47h39.89v-59.77zm25.65 45.38h-15.44v-30.98h15.44z" fill="#ffab66"/><path d="m325.31 448.828h-136.32c-18.65 0-33.77-15.12-33.77-33.76v-98.44z" fill="#ff9d33"/><path d="m359.075 174.243v48.91l-162.57 225.68h-7.51c-18.65 0-33.77-15.13-33.77-33.76v-240.83c0-5.52 4.48-10 10-10h183.85c5.53 0 10 4.48 10 10z" fill="#ffab66"/><path d="m249.735 261.193v63.82c0 5.53-4.48 10-10 10h-84.51v-83.82h84.51c5.52 0 10 4.47 10 10z" fill="#ff9d33"/><path d="m359.07 174.248v173.7l-203.85-74v-99.7c0-5.52 4.48-10 10-10h183.85c5.53 0 10 4.48 10 10z" fill="#ff9d33"/><path d="m359.075 174.248v17l-203.85 137.99v-154.99c0-5.52 4.48-10 10-10h183.85c5.53 0 10 4.48 10 10z" fill="#ff8b00"/><path d="m359.07 174.248v91.91l-203.85-57.86v-34.05c0-5.52 4.48-10 10-10h183.85c5.53 0 10 4.48 10 10z" fill="#ffab66"/><g fill="#ffd6bb"><path d="m209.731 164.248h-46.463v-54.897c0-12.83 10.401-23.231 23.231-23.231 12.83 0 23.231 10.401 23.231 23.231v54.897z"/><path d="m256.194 164.466v-71.248c0-12.83-10.401-23.231-23.231-23.231-12.83 0-23.231 10.401-23.231 23.231v71.248z"/><path d="m302.656 164.248h-46.463v-104.321c0-12.83 10.401-23.231 23.231-23.231 12.83 0 23.231 10.401 23.231 23.231v104.321z"/><path d="m349.119 164.248h-46.463v-82.245c0-12.83 10.401-23.231 23.231-23.231 12.83 0 23.231 10.401 23.231 23.231v82.245z"/></g><g fill="#ffc599"><path d="m214.731 164.466v-60.253c0-2.762-2.239-5-5-5s-5 2.238-5 5v60.253z"/><path d="m261 164.466v-71.248c0-2.762-2.239-5-5-5s-5 2.238-5 5v71.248z"/><path d="m307.656 164.466v-82.463c0-2.762-2.239-5-5-5s-5 2.238-5 5v82.463z"/></g></g><path d="m359.07 174.248v240.82c0 18.64-15.11 33.76-33.76 33.76h-136.32c-18.65 0-33.77-15.12-33.77-33.76v-240.82c0-5.52 4.48-10 10-10h183.85c5.53 0 10 4.48 10 10z" fill="url(#SVGID_2_)"/><path d="m314.706 330.233v50.826c0 2.471 2.003 4.474 4.474 4.474h44.464c2.471 0 4.474-2.003 4.474-4.474v-50.826c0-2.471-2.003-4.474-4.474-4.474h-44.464c-2.47 0-4.474 2.003-4.474 4.474zm30.12 40.903h-15.436v-30.979h15.436z" fill="#b3b3ff"/><g><path d="m239.73 308.048h-113.459c-5.523 0-10-4.477-10-10v-63.83c0-5.523 4.477-10 10-10h113.459c5.523 0 10 4.477 10 10v63.83c0 5.522-4.477 10-10 10z" fill="#ff4d4d"/><g><g><path d="m220.553 251.188h-18.583c-2.762 0-5-2.239-5-5s2.238-5 5-5h18.583c2.762 0 5 2.239 5 5s-2.238 5-5 5z" fill="#fff"/></g><g><path d="m220.553 269.57h-58.583c-2.762 0-5-2.239-5-5s2.238-5 5-5h58.583c2.762 0 5 2.239 5 5s-2.238 5-5 5z" fill="#fff"/></g><g><path d="m220.553 287.951h-58.583c-2.762 0-5-2.239-5-5s2.238-5 5-5h58.583c2.762 0 5 2.239 5 5s-2.238 5-5 5z" fill="#fff"/></g></g></g></g><path d="m104.45 179.941c-2.761 0-5-2.238-5-5 0-3.492-2.841-6.334-6.333-6.334-2.761 0-5-2.238-5-5s2.239-5 5-5c3.492 0 6.333-2.841 6.333-6.333 0-2.762 2.239-5 5-5s5 2.238 5 5c0 3.492 2.841 6.333 6.334 6.333 2.761 0 5 2.238 5 5s-2.239 5-5 5c-3.492 0-6.334 2.842-6.334 6.334 0 2.762-2.239 5-5 5z" fill="#6c6cff"/><path d="m437.904 314.284c-2.761 0-5-2.238-5-5 0-3.492-2.841-6.333-6.334-6.333-2.761 0-5-2.238-5-5s2.239-5 5-5c3.492 0 6.334-2.841 6.334-6.333 0-2.762 2.239-5 5-5s5 2.238 5 5c0 3.492 2.841 6.333 6.333 6.333 2.761 0 5 2.238 5 5s-2.239 5-5 5c-3.492 0-6.333 2.841-6.333 6.333 0 2.762-2.238 5-5 5z" fill="#6c6cff"/><path d="m116.271 424.052c-2.761 0-5-2.238-5-5 0-3.492-2.841-6.334-6.333-6.334-2.761 0-5-2.238-5-5s2.239-5 5-5c3.492 0 6.333-2.841 6.333-6.333 0-2.762 2.239-5 5-5s5 2.238 5 5c0 3.492 2.841 6.333 6.334 6.333 2.761 0 5 2.238 5 5s-2.239 5-5 5c-3.492 0-6.334 2.842-6.334 6.334 0 2.762-2.239 5-5 5z" fill="#ff9d33"/><g fill="#ff4d4d"><g><path d="m121.271 97.303c-2.761 0-5-2.238-5-5v-.15c0-2.762 2.239-5 5-5s5 2.238 5 5v.15c0 2.762-2.239 5-5 5z"/><path d="m121.271 125.087c-2.761 0-5-2.238-5-5v-.15c0-2.762 2.239-5 5-5s5 2.238 5 5v.15c0 2.762-2.239 5-5 5z"/></g><g><path d="m109.3 104.213c-.85 0-1.711-.217-2.5-.674l-.13-.075c-2.39-1.384-3.206-4.442-1.822-6.832 1.383-2.391 4.441-3.207 6.832-1.822l.13.075c2.39 1.384 3.206 4.442 1.822 6.832-.927 1.601-2.606 2.496-4.332 2.496z"/><path d="m133.362 118.105c-.848 0-1.706-.216-2.493-.67l-.13-.075c-2.392-1.38-3.213-4.438-1.833-6.829 1.38-2.393 4.437-3.213 6.829-1.833l.13.075c2.392 1.38 3.213 4.438 1.833 6.829-.926 1.605-2.607 2.503-4.336 2.503z"/></g><g><path d="m109.18 118.105c-1.726 0-3.405-.895-4.332-2.496-1.384-2.39-.568-5.448 1.822-6.832l.13-.075c2.391-1.385 5.449-.568 6.832 1.822 1.384 2.39.568 5.448-1.822 6.832l-.13.075c-.789.457-1.65.674-2.5.674z"/><path d="m133.241 104.213c-1.729 0-3.41-.897-4.336-2.503-1.38-2.392-.559-5.449 1.833-6.829l.13-.075c2.392-1.382 5.45-.56 6.829 1.833 1.38 2.392.559 5.449-1.833 6.829l-.13.075c-.786.454-1.646.67-2.493.67z"/></g></g><g fill="#ff9d33"><g><path d="m424.605 339.131c-2.761 0-5-2.238-5-5v-.15c0-2.762 2.239-5 5-5s5 2.238 5 5v.15c0 2.762-2.239 5-5 5z"/><path d="m424.605 366.915c-2.761 0-5-2.238-5-5v-.15c0-2.762 2.239-5 5-5s5 2.238 5 5v.15c0 2.762-2.239 5-5 5z"/></g><g><path d="m412.635 346.04c-.841 0-1.694-.213-2.476-.66l-.13-.074c-2.398-1.37-3.231-4.424-1.861-6.821 1.37-2.398 4.425-3.23 6.822-1.86l.13.074c2.398 1.37 3.231 4.424 1.861 6.821-.923 1.615-2.611 2.52-4.346 2.52z"/><path d="m436.696 359.933c-.85 0-1.711-.217-2.5-.674l-.13-.075c-2.39-1.384-3.206-4.442-1.822-6.832s4.441-3.208 6.832-1.822l.13.075c2.39 1.384 3.206 4.442 1.822 6.832-.927 1.601-2.606 2.496-4.332 2.496z"/></g><g><path d="m412.514 359.933c-1.726 0-3.405-.895-4.332-2.496-1.384-2.39-.568-5.448 1.822-6.832l.13-.075c2.391-1.386 5.449-.567 6.832 1.822 1.384 2.39.568 5.448-1.822 6.832l-.13.075c-.788.457-1.65.674-2.5.674z"/><path d="m436.575 346.04c-1.736 0-3.423-.905-4.346-2.521-1.37-2.397-.537-5.451 1.861-6.821l.13-.074c2.396-1.371 5.452-.538 6.822 1.86 1.37 2.397.537 5.451-1.861 6.821l-.13.074c-.782.448-1.634.661-2.476.661z"/></g></g></g></g></svg>