<svg id="Capa_1" enable-background="new 0 0 512 512" height="512" viewBox="0 0 512 512" width="512" xmlns="http://www.w3.org/2000/svg" xmlns:xlink="http://www.w3.org/1999/xlink"><linearGradient id="SVGID_1_" gradientUnits="userSpaceOnUse" x1="8.753" x2="524.203" y1="401.161" y2="103.566"><stop offset="0" stop-color="#fff" stop-opacity="0"/><stop offset=".2532" stop-color="#eef" stop-opacity=".403"/><stop offset=".629" stop-color="#d9d9ff"/></linearGradient><linearGradient id="lg1"><stop offset="0" stop-color="#ff4d4d" stop-opacity=".4"/><stop offset="1" stop-color="#ff4d4d" stop-opacity="0"/></linearGradient><linearGradient id="SVGID_2_" gradientUnits="userSpaceOnUse" x1="186.606" x2="186.606" xlink:href="#lg1" y1="443.593" y2="193.706"/><linearGradient id="SVGID_3_" gradientUnits="userSpaceOnUse" x1="325.395" x2="325.395" xlink:href="#lg1" y1="443.593" y2="193.706"/><g><g><path d="m418.32 2.5c-55.666-9.521-178.298 12.183-200.004 105.016-14.432 61.722-14.007 112.075-50.427 113.02-21.67.562-32.97-44.31-62.889-48.001-39.047-4.817-66.145 27.695-83.057 57.138-37.205 64.772-25.571 174.918 23.354 228.632 118.488 130.086 259.197-5.952 319.358-112.309 38.585-68.213 125.637-123.352 143.767-200.248 15.177-64.375-18.503-131.002-90.102-143.248z" fill="url(#SVGID_1_)"/></g><g><g><g><g><g><path d="m231.966 443.592c-6.903 0-12.5-5.597-12.5-12.5v-171.67c0-22.451-18.266-40.717-40.717-40.717h-37.504c-6.903 0-12.5-5.597-12.5-12.5s5.597-12.5 12.5-12.5h37.504c36.236 0 65.717 29.48 65.717 65.717v171.67c0 6.904-5.596 12.5-12.5 12.5z" fill="#6c6cff"/></g><g><path d="m231.966 443.592c-6.903 0-12.5-5.597-12.5-12.5v-171.67c0-22.451-18.266-40.717-40.717-40.717h-37.504c-6.903 0-12.5-5.597-12.5-12.5s5.597-12.5 12.5-12.5h37.504c36.236 0 65.717 29.48 65.717 65.717v171.67c0 6.904-5.596 12.5-12.5 12.5z" fill="url(#SVGID_2_)"/></g><path d="m193.387 131.553c.002-21.09-10.008-41.879-28.853-55.196-31.213-22.057-74.842-15.251-97.449 15.202-24.836 33.456-37.964 73.012-37.964 114.391 0 41.381 13.128 80.938 37.965 114.393 22.608 30.453 66.237 37.258 97.45 15.2 31.214-22.057 38.186-64.628 15.579-95.078-7.477-10.072-11.43-22.008-11.43-34.515s3.952-24.442 11.431-34.515c8.958-12.067 13.27-26.041 13.271-39.882z" fill="#ff4d4d"/><g><path d="m178.749 218.706h-37.504c-6.904 0-12.5-5.597-12.5-12.5s5.596-12.5 12.5-12.5h37.504c22.451 0 40.717-18.266 40.717-40.717 0-6.903 5.596-12.5 12.5-12.5 6.903 0 12.5 5.597 12.5 12.5 0 36.236-29.48 65.717-65.717 65.717z" fill="#9494ff"/></g><path d="m153.976 240.465c-7.477-10.072-11.43-22.008-11.43-34.515s3.952-24.442 11.431-34.515h-53.888v69.031h53.887z" fill="#ff4d4d"/><circle cx="140.116" cy="124.692" fill="#ff6c6c" r="26.464"/><ellipse cx="113.651" cy="155.693" fill="#ff9494" rx="18.713" ry="18.713" transform="matrix(.23 -.973 .973 .23 -63.989 230.533)"/></g><g><g><path d="m280.034 443.592c6.903 0 12.5-5.597 12.5-12.5v-171.67c0-22.451 18.266-40.717 40.717-40.717h37.504c6.903 0 12.5-5.597 12.5-12.5s-5.597-12.5-12.5-12.5h-37.504c-36.236 0-65.717 29.48-65.717 65.717v171.67c0 6.904 5.596 12.5 12.5 12.5z" fill="#6c6cff"/></g><g><path d="m280.034 443.592c6.903 0 12.5-5.597 12.5-12.5v-171.67c0-22.451 18.266-40.717 40.717-40.717h37.504c6.903 0 12.5-5.597 12.5-12.5s-5.597-12.5-12.5-12.5h-37.504c-36.236 0-65.717 29.48-65.717 65.717v171.67c0 6.904 5.596 12.5 12.5 12.5z" fill="url(#SVGID_3_)"/></g><path d="m318.613 131.553c-.002-21.09 10.008-41.879 28.853-55.196 31.213-22.057 74.842-15.251 97.449 15.202 24.836 33.456 37.964 73.012 37.964 114.391 0 41.381-13.128 80.938-37.965 114.393-22.608 30.453-66.238 37.258-97.449 15.2-31.214-22.057-38.186-64.628-15.579-95.078 7.477-10.072 11.43-22.008 11.43-34.515s-3.952-24.442-11.431-34.515c-8.958-12.067-13.271-26.041-13.272-39.882z" fill="#ff4d4d"/><g><path d="m333.251 218.706h37.504c6.904 0 12.5-5.597 12.5-12.5s-5.596-12.5-12.5-12.5h-37.504c-22.451 0-40.717-18.266-40.717-40.717 0-6.903-5.596-12.5-12.5-12.5-6.903 0-12.5 5.597-12.5 12.5 0 36.236 29.48 65.717 65.717 65.717z" fill="#9494ff"/></g><path d="m358.024 240.465c7.477-10.072 11.43-22.008 11.43-34.515s-3.952-24.442-11.431-34.515h53.888v69.031h-53.887z" fill="#ff4d4d"/><g fill="#ff2c2c"><path d="m150.615 223.706-2.495-10c-.375-2.55-.574-5.138-.574-7.757 0-2.443.175-4.86.502-7.243l2.386-10c1.752-5.067 4.28-9.876 7.558-14.291 1.646-2.218 1.183-5.35-1.034-6.995-2.217-1.646-5.349-1.183-6.995 1.034-7.302 9.836-11.498 21.311-12.273 33.4v8.19c.775 12.09 4.971 23.564 12.272 33.401.981 1.321 2.49 2.02 4.019 2.02 1.036 0 2.081-.32 2.977-.985 2.217-1.646 2.68-4.777 1.034-6.995-3.168-4.266-5.633-8.9-7.377-13.779z"/><path d="m363.952 198.706c.326 2.383.502 4.8.502 7.243 0 2.618-.199 5.207-.573 7.757l-2.495 10c-1.744 4.879-4.209 9.513-7.376 13.778-1.646 2.218-1.183 5.35 1.034 6.995.896.665 1.94.985 2.977.985 1.528 0 3.038-.698 4.019-2.02 8.122-10.941 12.415-23.907 12.415-37.496 0-13.588-4.293-26.554-12.416-37.495-1.646-2.217-4.777-2.681-6.995-1.034-2.217 1.645-2.68 4.777-1.034 6.995 3.278 4.415 5.805 9.224 7.558 14.291z"/></g><circle cx="371.884" cy="124.692" fill="#ff6c6c" r="26.464"/><ellipse cx="398.349" cy="155.693" fill="#ff9494" rx="18.713" ry="18.713" transform="matrix(.973 -.23 .23 .973 -25.115 95.687)"/></g></g></g><path d="m138.262 418.71c-2.761 0-5-2.238-5-5 0-3.492-2.841-6.333-6.333-6.333-2.761 0-5-2.238-5-5s2.239-5 5-5c3.492 0 6.333-2.842 6.333-6.334 0-2.762 2.239-5 5-5s5 2.238 5 5c0 3.492 2.841 6.334 6.333 6.334 2.761 0 5 2.238 5 5s-2.239 5-5 5c-3.492 0-6.333 2.841-6.333 6.333 0 2.762-2.239 5-5 5z" fill="#6c6cff"/><path d="m398.349 407.919c-2.761 0-5-2.238-5-5 0-3.492-2.841-6.334-6.333-6.334-2.761 0-5-2.238-5-5s2.239-5 5-5c3.492 0 6.333-2.841 6.333-6.333 0-2.762 2.239-5 5-5s5 2.238 5 5c0 3.492 2.841 6.333 6.334 6.333 2.761 0 5 2.238 5 5s-2.239 5-5 5c-3.492 0-6.334 2.842-6.334 6.334 0 2.762-2.239 5-5 5z" fill="#ff4d4d"/><path d="m256 111.95c-2.761 0-5-2.238-5-5 0-3.492-2.841-6.334-6.333-6.334-2.761 0-5-2.238-5-5s2.239-5 5-5c3.492 0 6.333-2.841 6.333-6.333 0-2.762 2.239-5 5-5s5 2.238 5 5c0 3.492 2.841 6.333 6.333 6.333 2.761 0 5 2.238 5 5s-2.239 5-5 5c-3.492 0-6.333 2.842-6.333 6.334 0 2.762-2.239 5-5 5z" fill="#ff4d4d"/><g fill="#ff9d33"><g><path d="m178.14 364.013c-2.761 0-5-2.238-5-5v-.15c0-2.762 2.239-5 5-5s5 2.238 5 5v.15c0 2.761-2.239 5-5 5z"/><path d="m178.14 391.797c-2.761 0-5-2.238-5-5v-.15c0-2.762 2.239-5 5-5s5 2.238 5 5v.15c0 2.762-2.239 5-5 5z"/></g><g><path d="m166.169 370.922c-.85 0-1.711-.217-2.5-.674l-.13-.075c-2.39-1.384-3.206-4.442-1.822-6.832 1.383-2.39 4.442-3.207 6.833-1.822l.13.075c2.39 1.384 3.206 4.442 1.822 6.832-.928 1.601-2.607 2.496-4.333 2.496z"/><path d="m190.231 384.815c-.848 0-1.706-.216-2.493-.67l-.13-.075c-2.392-1.38-3.213-4.438-1.833-6.829 1.379-2.392 4.437-3.213 6.829-1.833l.13.075c2.392 1.38 3.213 4.438 1.833 6.829-.926 1.605-2.607 2.503-4.336 2.503z"/></g><g><path d="m166.049 384.815c-1.726 0-3.405-.895-4.332-2.496-1.384-2.39-.568-5.448 1.822-6.832l.13-.075c2.391-1.385 5.449-.568 6.833 1.822s.568 5.448-1.822 6.832l-.13.075c-.79.457-1.651.674-2.501.674z"/><path d="m190.11 370.922c-1.729 0-3.41-.897-4.336-2.503-1.38-2.392-.559-5.449 1.833-6.829l.13-.075c2.392-1.383 5.45-.56 6.829 1.833 1.38 2.392.559 5.449-1.833 6.829l-.13.075c-.786.454-1.645.67-2.493.67z"/></g></g><g fill="#6c6cff"><g><path d="m297.791 61.649c-2.761 0-5-2.238-5-5v-.15c0-2.762 2.239-5 5-5s5 2.238 5 5v.15c0 2.762-2.239 5-5 5z"/><path d="m297.791 89.434c-2.761 0-5-2.238-5-5v-.15c0-2.762 2.239-5 5-5s5 2.238 5 5v.15c0 2.761-2.239 5-5 5z"/></g><g><path d="m285.82 68.559c-.85 0-1.711-.217-2.5-.674l-.13-.075c-2.39-1.384-3.206-4.442-1.822-6.832 1.384-2.391 4.441-3.208 6.832-1.822l.13.075c2.39 1.384 3.205 4.442 1.822 6.832-.926 1.601-2.606 2.496-4.332 2.496z"/><path d="m309.883 82.45c-.839 0-1.689-.211-2.469-.655l-.13-.074c-2.4-1.366-3.238-4.42-1.872-6.819 1.367-2.4 4.421-3.236 6.819-1.872l.13.074c2.4 1.366 3.238 4.42 1.872 6.819-.922 1.619-2.612 2.527-4.35 2.527z"/></g><g><path d="m285.7 82.45c-1.736 0-3.423-.905-4.346-2.521-1.37-2.397-.537-5.451 1.861-6.821l.13-.074c2.397-1.37 5.452-.538 6.822 1.86 1.37 2.397.537 5.451-1.861 6.821l-.13.074c-.782.448-1.635.661-2.476.661z"/><path d="m309.762 68.559c-1.729 0-3.41-.897-4.336-2.503-1.38-2.392-.559-5.449 1.833-6.829l.13-.075c2.392-1.382 5.45-.56 6.829 1.833 1.38 2.392.559 5.449-1.833 6.829l-.13.075c-.787.454-1.646.67-2.493.67z"/></g></g></g></g></svg>