<svg id="Capa_1" enable-background="new 0 0 512 512" height="512" viewBox="0 0 512 512" width="512" xmlns="http://www.w3.org/2000/svg" xmlns:xlink="http://www.w3.org/1999/xlink"><linearGradient id="SVGID_1_" gradientUnits="userSpaceOnUse" x1="0" x2="512" y1="256" y2="256"><stop offset="0" stop-color="#ffd9d9" stop-opacity="0"/><stop offset=".9981" stop-color="#ffb3b3"/></linearGradient><linearGradient id="SVGID_2_" gradientUnits="userSpaceOnUse" x1="257.943" x2="257.943" y1="451.805" y2="56.268"><stop offset="0" stop-color="#ff4d4d" stop-opacity=".4"/><stop offset="1" stop-color="#ff4d4d" stop-opacity="0"/></linearGradient><g><g><path d="m451.798 43.963c-160.556-97.869-410.51-8.611-439.594 61.949-38.908 94.393 26.578 110.528 38.743 187.874 9.761 62.061-51.182 121.495-16.394 176.282 37.882 59.663 163.465 44.681 211.198 16.447 87.376-51.682 43.309-112.012 84.684-187.299 39.408-71.707 116.244-42.625 160.961-99.99 42.5-54.521 14.311-122.402-39.598-155.263z" fill="url(#SVGID_1_)"/></g><g><g><g><g><path d="m79.324 448.144c-4.881-4.881-4.881-12.796 0-17.678l150.625-150.625c32.586-32.586 49.731-77.66 47.037-123.665l-.598-10.218c-1.332-22.748 7.146-45.035 23.259-61.148l15.065-15.065c17.967-17.967 47.201-17.967 65.168 0l56.683 56.683c4.881 4.881 4.881 12.796 0 17.678-4.881 4.881-12.796 4.881-17.678 0l-56.683-56.683c-8.219-8.219-21.594-8.219-29.813 0l-15.065 15.065c-11.07 11.07-16.894 26.382-15.98 42.01l.598 10.219c3.11 53.124-16.688 105.174-54.317 142.803l-150.624 150.624c-4.881 4.881-12.796 4.881-17.677 0z" fill="#d9d9ff"/></g><g><path d="m79.324 448.144c-4.881-4.881-4.881-12.796 0-17.678l150.625-150.625c32.586-32.586 49.731-77.66 47.037-123.665l-.598-10.218c-1.332-22.748 7.146-45.035 23.259-61.148l15.065-15.065c17.967-17.967 47.201-17.967 65.168 0l56.683 56.683c4.881 4.881 4.881 12.796 0 17.678-4.881 4.881-12.796 4.881-17.678 0l-56.683-56.683c-8.219-8.219-21.594-8.219-29.813 0l-15.065 15.065c-11.07 11.07-16.894 26.382-15.98 42.01l.598 10.219c3.11 53.124-16.688 105.174-54.317 142.803l-150.624 150.624c-4.881 4.881-12.796 4.881-17.677 0z" fill="url(#SVGID_2_)"/></g><g><path d="m436.564 126.426-56.683-56.683c-17.967-17.967-47.201-17.967-65.168 0l-15.065 15.065c-4.484 4.484-8.364 9.454-11.618 14.771l18.44 18.44c2.67-5.71 6.307-10.985 10.856-15.533l15.065-15.065c8.219-8.219 21.594-8.219 29.813 0l56.683 56.683c4.881 4.881 12.796 4.881 17.678 0 4.88-4.882 4.88-12.797-.001-17.678z" fill="#b3b3ff"/></g><g><path d="m77.029 414.435-7.454 7.454c-10.092 10.092-10.336 26.853-.055 36.752 9.966 9.596 25.826 9.482 35.652-.344l7.859-7.859c3.905-3.905 3.905-10.237 0-14.142l-21.86-21.86c-3.905-3.906-10.236-3.906-14.142-.001z" fill="#6c6cff"/></g></g><path d="m299.647 70.667 7.994-7.994c21.901-21.901 57.409-21.901 79.31 0l56.292 56.292c8.615 8.616 9.277 22.65.993 31.585-8.709 9.394-23.446 9.602-32.423.626l-56.682-56.682c-4.327-4.327-11.344-4.327-15.671 0l-7.994 7.994c-3.905 3.905-10.237 3.905-14.142 0l-17.678-17.678c-3.905-3.906-3.905-10.238.001-14.143z" fill="#6c6cff"/></g><g><circle cx="213.109" cy="133.553" fill="#ff4d4d" r="69.494"/><path d="m245.446 118.911h-17.696v-17.696c0-5.523-4.477-10-10-10h-9.282c-5.523 0-10 4.477-10 10v17.696h-17.695c-5.523 0-10 4.477-10 10v9.282c0 5.523 4.477 10 10 10h17.695v17.695c0 5.523 4.477 10 10 10h9.282c5.523 0 10-4.477 10-10v-17.695h17.695c5.523 0 10-4.477 10-10v-9.282c.001-5.522-4.476-10-9.999-10z" fill="#fff"/></g><g fill="#2c27ff"><path d="m329.127 179.299h18.583c2.762 0 5-2.238 5-5s-2.238-5-5-5h-18.583c-2.762 0-5 2.238-5 5s2.238 5 5 5z"/><path d="m387.71 187.681h-58.583c-2.762 0-5 2.238-5 5s2.238 5 5 5h58.583c2.762 0 5-2.238 5-5s-2.238-5-5-5z"/><path d="m387.71 206.063h-58.583c-2.762 0-5 2.238-5 5s2.238 5 5 5h58.583c2.762 0 5-2.238 5-5s-2.238-5-5-5z"/></g><path d="m184.195 260.969c-2.761 0-5-2.238-5-5 0-3.492-2.841-6.334-6.333-6.334-2.761 0-5-2.238-5-5s2.239-5 5-5c3.492 0 6.333-2.841 6.333-6.333 0-2.762 2.239-5 5-5s5 2.238 5 5c0 3.492 2.841 6.333 6.333 6.333 2.761 0 5 2.238 5 5s-2.239 5-5 5c-3.492 0-6.333 2.842-6.333 6.334 0 2.762-2.239 5-5 5z" fill="#ff4d4d"/><path d="m338.871 308.039c-2.762 0-5-2.238-5-5 0-3.492-2.841-6.333-6.333-6.333-2.762 0-5-2.238-5-5s2.238-5 5-5c3.492 0 6.333-2.842 6.333-6.334 0-2.762 2.238-5 5-5s5 2.238 5 5c0 3.492 2.842 6.334 6.334 6.334 2.762 0 5 2.238 5 5s-2.238 5-5 5c-3.492 0-6.334 2.841-6.334 6.333 0 2.762-2.238 5-5 5z" fill="#ff9d33"/><path d="m143.615 279.625c-2.761 0-5-2.238-5-5 0-3.492-2.841-6.334-6.333-6.334-2.761 0-5-2.238-5-5s2.239-5 5-5c3.492 0 6.333-2.841 6.333-6.333 0-2.762 2.239-5 5-5s5 2.238 5 5c0 3.492 2.841 6.333 6.333 6.333 2.761 0 5 2.238 5 5s-2.239 5-5 5c-3.492 0-6.333 2.842-6.333 6.334 0 2.762-2.239 5-5 5z" fill="#ff9d33"/><g fill="#ff4d4d"><g><path d="m424.763 196.029c-2.762 0-5-2.238-5-5v-.15c0-2.762 2.238-5 5-5s5 2.238 5 5v.15c0 2.762-2.239 5-5 5z"/><path d="m424.763 223.814c-2.762 0-5-2.238-5-5v-.15c0-2.762 2.238-5 5-5s5 2.238 5 5v.15c0 2.761-2.239 5-5 5z"/></g><g><path d="m412.792 202.939c-.845 0-1.701-.215-2.486-.666l-.131-.075c-2.395-1.376-3.22-4.432-1.844-6.826 1.377-2.394 4.432-3.219 6.826-1.844l.131.075c2.395 1.376 3.22 4.432 1.844 6.826-.925 1.609-2.609 2.51-4.34 2.51z"/><path d="m436.854 216.831c-.851 0-1.712-.217-2.5-.674l-.13-.075c-2.39-1.384-3.206-4.442-1.822-6.832 1.384-2.392 4.445-3.206 6.832-1.822l.13.075c2.39 1.384 3.206 4.442 1.822 6.832-.927 1.602-2.607 2.496-4.332 2.496z"/></g><g><path d="m412.671 216.831c-1.732 0-3.415-.9-4.34-2.51-1.376-2.395-.551-5.45 1.844-6.826l.131-.075c2.396-1.377 5.45-.551 6.826 1.844s.551 5.45-1.844 6.826l-.131.075c-.785.451-1.641.666-2.486.666z"/><path d="m436.733 202.939c-1.727 0-3.405-.895-4.332-2.496-1.384-2.39-.567-5.448 1.822-6.832l.13-.075c2.39-1.386 5.449-.567 6.832 1.822 1.384 2.39.567 5.448-1.822 6.832l-.13.075c-.788.457-1.65.674-2.5.674z"/></g></g><g fill="#6c6cff"><g><path d="m348.871 329.274c-2.762 0-5-2.238-5-5v-.15c0-2.762 2.238-5 5-5s5 2.238 5 5v.15c0 2.762-2.238 5-5 5z"/><path d="m348.871 357.059c-2.762 0-5-2.238-5-5v-.15c0-2.762 2.238-5 5-5s5 2.238 5 5v.15c0 2.761-2.238 5-5 5z"/></g><g><path d="m336.9 336.184c-.851 0-1.712-.217-2.5-.674l-.13-.075c-2.39-1.384-3.206-4.442-1.822-6.832 1.384-2.391 4.445-3.207 6.832-1.822l.13.075c2.39 1.384 3.206 4.442 1.822 6.832-.926 1.601-2.606 2.496-4.332 2.496z"/><path d="m360.963 350.076c-.845 0-1.701-.215-2.486-.666l-.131-.075c-2.395-1.376-3.22-4.432-1.844-6.826 1.376-2.395 4.431-3.22 6.826-1.844l.131.075c2.395 1.376 3.22 4.432 1.844 6.826-.925 1.61-2.609 2.51-4.34 2.51z"/></g><g><path d="m336.78 350.076c-1.727 0-3.405-.895-4.332-2.496-1.384-2.39-.567-5.448 1.822-6.832l.13-.075c2.39-1.386 5.449-.567 6.832 1.822 1.384 2.39.567 5.448-1.822 6.832l-.13.075c-.788.457-1.65.674-2.5.674z"/><path d="m360.842 336.184c-1.732 0-3.415-.9-4.34-2.51-1.376-2.395-.551-5.45 1.844-6.826l.131-.075c2.396-1.376 5.45-.55 6.826 1.844 1.376 2.395.551 5.45-1.844 6.826l-.131.075c-.785.451-1.641.666-2.486.666z"/></g></g></g></g></svg>