<svg id="Capa_1" enable-background="new 0 0 512 512" height="512" viewBox="0 0 512 512" width="512" xmlns="http://www.w3.org/2000/svg" xmlns:xlink="http://www.w3.org/1999/xlink"><linearGradient id="SVGID_1_" gradientUnits="userSpaceOnUse" x1="0" x2="512" y1="256" y2="256"><stop offset="0" stop-color="#ffd9d9" stop-opacity="0"/><stop offset=".9981" stop-color="#ffb3b3"/></linearGradient><linearGradient id="lg1"><stop offset="0" stop-color="#ff4d4d" stop-opacity=".4"/><stop offset="1" stop-color="#ff4d4d" stop-opacity="0"/></linearGradient><linearGradient id="SVGID_2_" gradientUnits="userSpaceOnUse" x1="261.419" x2="261.419" xlink:href="#lg1" y1="467.902" y2="293.335"/><linearGradient id="SVGID_3_" gradientUnits="userSpaceOnUse" x1="337.78" x2="337.78" xlink:href="#lg1" y1="221.781" y2="74.098"/><g><g><path d="m20.337 133.512c-23.967 39.398-26.493 107.613-8.937 150.256 15.377 37.351 45.966 72.409 86.12 76.801 14.766 1.615 29.858-1.024 44.472 1.638 50.258 9.152 68.952 71.09 108.01 104.014 27.183 22.913 64.898 31.022 100.174 26.607 35.276-4.414 68.302-20.363 97.376-40.824 22.957-16.157 44.436-36.022 55.764-61.707 23.744-53.839-4.19-118.501-47.587-158.239-13.516-12.377-28.581-23.294-39.875-37.727-11.293-14.434-18.48-33.695-13.099-51.214 4.293-13.977 15.849-24.812 20.227-38.763 5.958-18.984-3.035-40.281-17.802-53.616s-34.308-20.039-53.666-24.64c-81.103-19.281-258.823-11.524-331.177 107.414z" fill="url(#SVGID_1_)"/></g><g><g><circle cx="261.419" cy="380.618" fill="#ff9d33" r="87.284"/><circle cx="261.419" cy="380.618" fill="url(#SVGID_2_)" r="87.284"/><path d="m194.73 394.17c0 10.16-4.35 19.29-11.3 25.65-5.95-11.79-9.29-25.1-9.29-39.2 0-5.95.6-11.77 1.73-17.39 11.2 5.78 18.86 17.47 18.86 30.94z" fill="#ff8b00"/><path d="m331.04 334.05c0 15.55-12.6 28.16-28.15 28.16s-28.16-12.61-28.16-28.16c0-1.85.18-3.65.52-5.4-2.45.58-5.02.9-7.65.9h-76.97c15.85-21.94 41.65-36.22 70.79-36.22 27.86 0 52.67 13.06 68.66 33.39.62 2.34.96 4.8.96 7.33z" fill="#ff8b00"/><path d="m348.702 385.619h-174.566c-2.762 0-5-2.239-5-5s2.238-5 5-5h174.566c2.762 0 5 2.239 5 5s-2.238 5-5 5z" fill="#ff7300"/><path d="m267.597 309.338h-81.463c-18.286 0-33.11-14.824-33.11-33.11 0-18.286 14.824-33.11 33.11-33.11h81.463c18.286 0 33.11 14.824 33.11 33.11 0 18.286-14.824 33.11-33.11 33.11z" fill="#fff"/><path d="m214.92 243.12c-.84 1.08-1.75 2.13-2.75 3.12l-51.34 51.34c-4.87-5.76-7.81-13.22-7.81-21.35 0-9.15 3.71-17.42 9.7-23.41 5.99-6 14.27-9.7 23.41-9.7z" fill="#ebebff"/><g><path d="m212.168 226.034-57.603 57.603c-12.93 12.93-33.894 12.93-46.825 0-12.93-12.93-12.93-33.894 0-46.824l57.603-57.603c12.93-12.93 33.894-12.93 46.824 0 12.931 12.93 12.931 33.894.001 46.824z" fill="#ff2c2c"/><path d="m136.542 208.011 28.801-28.801c12.93-12.93 33.894-12.93 46.824 0 12.93 12.93 12.93 33.894 0 46.825l-28.801 28.801z" fill="#ff6c6c"/></g><g><path d="m370.89 107.208v81.463c0 18.286-14.824 33.11-33.11 33.11-18.286 0-33.11-14.824-33.11-33.11v-81.463c0-18.286 14.824-33.11 33.11-33.11 18.286 0 33.11 14.824 33.11 33.11z" fill="#ff9d33"/><path d="m304.67 147.939v-40.731c0-18.286 14.824-33.11 33.11-33.11 18.286 0 33.11 14.824 33.11 33.11v40.731z" fill="#fff"/><path d="m370.89 107.208v81.463c0 18.286-14.824 33.11-33.11 33.11-18.286 0-33.11-14.824-33.11-33.11v-81.463c0-18.286 14.824-33.11 33.11-33.11 18.286 0 33.11 14.824 33.11 33.11z" fill="url(#SVGID_3_)"/></g><g><path d="m226.865 293.335c-2.762 0-5-2.239-5-5v-24.214c0-2.761 2.238-5 5-5s5 2.239 5 5v24.214c0 2.761-2.238 5-5 5z" fill="#ebebff"/></g><ellipse cx="302.886" cy="313.843" fill="#ff4d4d" rx="28.156" ry="28.156" transform="matrix(.16 -.987 .987 .16 -55.421 562.546)"/><g><g><circle cx="159.954" cy="373.963" fill="#8383ff" r="34.78"/><path d="m136.54 366.95c0 7.94-3.4 15.09-8.83 20.07-1.64-4.03-2.54-8.44-2.54-13.06 0-8.03 2.72-15.43 7.31-21.32 2.57 4.15 4.06 9.06 4.06 14.31z" fill="#6c6cff"/></g></g><ellipse cx="109.318" cy="346.74" fill="#ff6c6c" rx="27.224" ry="27.224" transform="matrix(.16 -.987 .987 .16 -250.455 399.104)"/><ellipse cx="125.8" cy="137.822" fill="#ff9d33" rx="27.224" ry="27.224" transform="matrix(.924 -.383 .383 .924 -43.166 58.633)"/><ellipse cx="398.916" cy="299.027" fill="#ebebff" rx="40.99" ry="40.99" transform="matrix(.707 -.707 .707 .707 -94.604 369.659)"/><ellipse cx="309.961" cy="206.668" fill="#8383ff" rx="26.748" ry="62.628" transform="matrix(.707 -.707 .707 .707 -55.351 279.708)"/></g><g fill="#ff9d33"><g><path d="m103.897 412.539c-2.762 0-5-2.239-5-5v-.15c0-2.761 2.238-5 5-5s5 2.239 5 5v.15c0 2.761-2.238 5-5 5z"/><path d="m103.897 440.323c-2.762 0-5-2.239-5-5v-.15c0-2.761 2.238-5 5-5s5 2.239 5 5v.15c0 2.761-2.238 5-5 5z"/></g><g><path d="m91.927 419.448c-.851 0-1.712-.217-2.5-.674l-.13-.075c-2.39-1.384-3.206-4.442-1.822-6.833 1.384-2.39 4.445-3.205 6.832-1.822l.13.075c2.39 1.384 3.206 4.442 1.822 6.832-.927 1.602-2.607 2.497-4.332 2.497z"/><path d="m115.988 433.34c-.851 0-1.712-.217-2.5-.674l-.13-.075c-2.39-1.384-3.206-4.442-1.822-6.832 1.384-2.389 4.444-3.204 6.832-1.822l.13.075c2.39 1.384 3.206 4.442 1.822 6.833-.926 1.6-2.606 2.495-4.332 2.495z"/></g><g><path d="m91.807 433.34c-1.726 0-3.405-.895-4.332-2.496-1.384-2.39-.567-5.449 1.822-6.833l.13-.075c2.39-1.384 5.449-.567 6.832 1.822 1.384 2.39.567 5.449-1.822 6.832l-.13.075c-.788.458-1.651.675-2.5.675z"/><path d="m115.868 419.448c-1.727 0-3.405-.895-4.332-2.496-1.384-2.39-.567-5.449 1.822-6.832l.13-.075c2.39-1.384 5.449-.567 6.832 1.822 1.384 2.39.567 5.449-1.822 6.833l-.13.075c-.788.456-1.65.673-2.5.673z"/></g></g><g fill="#6c6cff"><g><path d="m398.916 371.832c-2.762 0-5-2.239-5-5v-.15c0-2.761 2.238-5 5-5s5 2.239 5 5v.15c0 2.761-2.238 5-5 5z"/><path d="m398.916 399.616c-2.762 0-5-2.239-5-5v-.15c0-2.761 2.238-5 5-5s5 2.239 5 5v.15c0 2.761-2.238 5-5 5z"/></g><g><path d="m386.945 378.741c-.846 0-1.702-.215-2.488-.667l-.13-.075c-2.393-1.376-3.218-4.433-1.841-6.827 1.377-2.393 4.432-3.218 6.827-1.841l.13.075c2.393 1.376 3.218 4.433 1.841 6.827-.925 1.608-2.607 2.508-4.339 2.508z"/><path d="m411.007 392.633c-.846 0-1.702-.215-2.488-.667l-.13-.075c-2.394-1.376-3.218-4.433-1.841-6.827 1.376-2.394 4.432-3.219 6.827-1.841l.13.075c2.393 1.376 3.218 4.433 1.841 6.827-.925 1.608-2.608 2.508-4.339 2.508z"/></g><g><path d="m386.825 392.633c-1.731 0-3.414-.9-4.339-2.508-1.377-2.394-.553-5.451 1.841-6.827l.13-.075c2.396-1.377 5.451-.552 6.827 1.841 1.377 2.394.553 5.451-1.841 6.827l-.13.075c-.786.452-1.642.667-2.488.667z"/><path d="m410.887 378.741c-1.731 0-3.414-.9-4.339-2.508-1.377-2.394-.553-5.451 1.841-6.827l.13-.075c2.396-1.377 5.451-.552 6.827 1.841 1.377 2.394.553 5.451-1.841 6.827l-.13.075c-.786.452-1.643.667-2.488.667z"/></g></g><path d="m80.469 217.174c-2.762 0-5-2.239-5-5 0-3.492-2.842-6.333-6.334-6.333-2.762 0-5-2.239-5-5s2.238-5 5-5c3.492 0 6.334-2.841 6.334-6.333 0-2.761 2.238-5 5-5s5 2.239 5 5c0 3.492 2.841 6.333 6.333 6.333 2.762 0 5 2.239 5 5s-2.238 5-5 5c-3.492 0-6.333 2.841-6.333 6.333 0 2.761-2.239 5-5 5z" fill="#ff4d4d"/><path d="m417.906 228.507c-2.762 0-5-2.239-5-5 0-3.492-2.841-6.333-6.333-6.333-2.762 0-5-2.239-5-5s2.238-5 5-5c3.492 0 6.333-2.841 6.333-6.333 0-2.761 2.238-5 5-5s5 2.239 5 5c0 3.492 2.841 6.333 6.333 6.333 2.762 0 5 2.239 5 5s-2.238 5-5 5c-3.492 0-6.333 2.841-6.333 6.333 0 2.762-2.238 5-5 5z" fill="#6c6cff"/><path d="m434.8 181.379c-2.762 0-5-2.239-5-5 0-3.492-2.841-6.333-6.333-6.333-2.762 0-5-2.239-5-5s2.238-5 5-5c3.492 0 6.333-2.841 6.333-6.334 0-2.761 2.238-5 5-5s5 2.239 5 5c0 3.492 2.841 6.334 6.333 6.334 2.762 0 5 2.239 5 5s-2.238 5-5 5c-3.492 0-6.333 2.841-6.333 6.333 0 2.762-2.239 5-5 5z" fill="#ff9d33"/><g><ellipse cx="247.201" cy="93.496" fill="#ff4d4d" rx="48.164" ry="20.571" transform="matrix(.7 -.715 .715 .7 7.443 204.697)"/><path d="m241.11 92.26c0 15.04-12.19 27.23-27.22 27.23-1.17 0-2.33-.07-3.46-.22.02-10.4 8.26-26.07 22.07-40.17 1.06-1.08 2.12-2.12 3.2-3.13 3.4 4.55 5.41 10.18 5.41 16.29z" fill="#ff2c2c"/></g><g><g><circle cx="213.885" cy="75.394" fill="#ffb3b3" r="27.224"/><g><path d="m298.766 318.843h8.241c2.762 0 5-2.239 5-5s-2.238-5-5-5h-8.241c-2.762 0-5 2.239-5 5s2.238 5 5 5z" fill="#ff2c2c"/></g></g></g></g></g></svg>