<svg id="Capa_1" enable-background="new 0 0 507.259 507.259" height="512" viewBox="0 0 507.259 507.259" width="512" xmlns="http://www.w3.org/2000/svg" xmlns:xlink="http://www.w3.org/1999/xlink"><linearGradient id="SVGID_1_" gradientUnits="userSpaceOnUse" x1="86.347" x2="440.444" y1="457.943" y2="35.946"><stop offset="0" stop-color="#fff3ee" stop-opacity="0"/><stop offset=".2938" stop-color="#ffeade" stop-opacity=".373"/><stop offset=".7874" stop-color="#ffd6bb"/></linearGradient><linearGradient id="lg1"><stop offset="0" stop-color="#ff4d4d" stop-opacity=".4"/><stop offset="1" stop-color="#ff4d4d" stop-opacity="0"/></linearGradient><linearGradient id="SVGID_2_" gradientUnits="userSpaceOnUse" x1="206.899" x2="206.899" xlink:href="#lg1" y1="210.175" y2="46.184"/><linearGradient id="SVGID_3_" gradientUnits="userSpaceOnUse" x1="248.277" x2="248.277" xlink:href="#lg1" y1="471.153" y2="300.772"/><g><g><path d="m.156 321.01c-7.914 179.092 288.253 168.164 420.803 136.265 82.467-19.846 87.596-59.472 86.106-144.001-.96-54.486 3.443-198.725-32.004-244.123-54.448-69.733-103.228-25.998-170.656-3.235-86.488 29.197-120.189-22.932-202.476-21.38-120.641 2.278-97.815 186.886-101.773 276.474z" fill="url(#SVGID_1_)"/></g><g><g><g><g><path d="m364.027 210.175h-314.255c-5.523 0-10-4.477-10-10v-143.991c0-5.523 4.477-10 10-10h314.255c5.523 0 10 4.477 10 10v143.991c0 5.523-4.478 10-10 10z" fill="#6c6cff"/><path d="m161.543 46.184h-111.771c-5.523 0-10 4.477-10 10v143.991c0 5.523 4.477 10 10 10h111.771z" fill="#4d4dff"/><path d="m91.717 46.184h-41.945c-5.523 0-10 4.477-10 10v143.991c0 5.523 4.477 10 10 10h41.945z" fill="#2c27ff"/><path d="m174.067 300.772h148.421c6.064 0 10.98 4.916 10.98 10.98v137.44c0 12.129-9.832 21.961-21.961 21.961h-126.46c-12.129 0-21.961-9.832-21.961-21.961v-137.44c0-6.064 4.916-10.98 10.981-10.98z" fill="#fff"/><path d="m308.446 333.245h25.022v9.641h-25.022z" fill="#ff6c6c"/><path d="m308.446 342.886h25.022v34.641h-25.022z" fill="#ffab66"/><path d="m308.446 357.643h25.022v19.884h-25.022z" fill="#ffd6bb"/><path d="m303.446 386.328h-110.337c-2.761 0-5-2.239-5-5v-54.589c0-2.761 2.239-5 5-5h110.337c2.761 0 5 2.239 5 5v54.589c0 2.762-2.239 5-5 5z" fill="#9494ff"/><circle cx="199.91" cy="411.303" fill="#ffab66" r="11.801"/><circle cx="229.473" cy="411.303" fill="#ffab66" r="11.801"/><path d="m296.645 423.103h-21.376c-6.517 0-11.801-5.283-11.801-11.801 0-6.517 5.283-11.801 11.801-11.801h21.376c6.517 0 11.801 5.283 11.801 11.801 0 6.518-5.284 11.801-11.801 11.801z" fill="#ff6c6c"/><g><g><g><path d="m281.866 372.809h-16.213c-2.122 0-4.012-1.339-4.716-3.341-.704-2.001-.068-4.229 1.586-5.558 4.472-3.592 11.381-10.132 12.742-13.426.563-1.362.28-2.571-.173-3.248-.427-.638-1.042-.948-1.881-.948-1.411 0-2.559 1.148-2.559 2.559 0 2.761-2.238 5-5 5s-5-2.239-5-5c0-6.925 5.634-12.559 12.559-12.559 4.188 0 7.903 1.964 10.193 5.389 2.446 3.658 2.858 8.378 1.103 12.626-1.117 2.704-3.485 5.73-6.069 8.506h3.428c2.762 0 5 2.239 5 5s-2.238 5-5 5z" fill="#ebebff"/></g><g><path d="m242.116 372.811c-.626 0-1.262-.118-1.878-.368-2.559-1.038-3.792-3.954-2.754-6.513l7.966-19.642h-8.711c-2.761 0-5-2.239-5-5s2.239-5 5-5h16.134c1.663 0 3.218.827 4.147 2.207.929 1.379 1.111 3.131.486 4.672l-10.757 26.522c-.786 1.943-2.658 3.121-4.633 3.122z" fill="#ebebff"/></g></g><g><path d="m224.966 372.809h-5.537c-2.761 0-5-2.239-5-5s2.239-5 5-5h5.537c2.761 0 5 2.239 5 5s-2.238 5-5 5z" fill="#ebebff"/></g></g><g fill="#fff"><path d="m315.906 121.63v13.1c0 1.547 1.681 2.508 3.014 1.724l11.136-6.55c1.315-.773 1.315-2.674 0-3.448l-11.136-6.55c-1.333-.784-3.014.177-3.014 1.724z"/><path d="m118.934 134.729v-13.1c0-1.547-1.681-2.508-3.014-1.724l-11.136 6.55c-1.315.773-1.315 2.675 0 3.448l11.136 6.55c1.333.784 3.014-.177 3.014-1.724z"/></g></g><g><g><path d="m61.556 74.264c-2.761 0-5-2.239-5-5v-.115c0-2.761 2.239-5 5-5s5 2.239 5 5v.115c0 2.761-2.239 5-5 5z" fill="#4d4dff"/></g><g><path d="m76.453 83.155c-2.761 0-5-2.239-5-5v-.115c0-2.761 2.239-5 5-5s5 2.239 5 5v.115c0 2.761-2.239 5-5 5z" fill="#4d4dff"/></g><g><path d="m61.556 93.922c-2.761 0-5-2.239-5-5v-.115c0-2.761 2.239-5 5-5s5 2.239 5 5v.115c0 2.761-2.239 5-5 5z" fill="#4d4dff"/></g><g><path d="m76.453 102.812c-2.761 0-5-2.239-5-5v-.115c0-2.761 2.239-5 5-5s5 2.239 5 5v.115c0 2.761-2.239 5-5 5z" fill="#4d4dff"/></g><g><path d="m61.556 113.579c-2.761 0-5-2.239-5-5v-.115c0-2.761 2.239-5 5-5s5 2.239 5 5v.115c0 2.762-2.239 5-5 5z" fill="#4d4dff"/></g><g><path d="m76.453 122.47c-2.761 0-5-2.239-5-5v-.115c0-2.761 2.239-5 5-5s5 2.239 5 5v.115c0 2.761-2.239 5-5 5z" fill="#4d4dff"/></g><g><g><path d="m61.556 133.237c-2.761 0-5-2.239-5-5v-.115c0-2.761 2.239-5 5-5s5 2.239 5 5v.115c0 2.761-2.239 5-5 5z" fill="#4d4dff"/></g><g><path d="m76.453 142.127c-2.761 0-5-2.239-5-5v-.115c0-2.761 2.239-5 5-5s5 2.239 5 5v.115c0 2.762-2.239 5-5 5z" fill="#4d4dff"/></g></g><g><g><path d="m61.556 152.895c-2.761 0-5-2.239-5-5v-.115c0-2.761 2.239-5 5-5s5 2.239 5 5v.115c0 2.761-2.239 5-5 5z" fill="#4d4dff"/></g></g><g><path d="m76.453 161.785c-2.761 0-5-2.239-5-5v-.115c0-2.761 2.239-5 5-5s5 2.239 5 5v.115c0 2.761-2.239 5-5 5z" fill="#4d4dff"/></g><g><g><path d="m61.556 172.552c-2.761 0-5-2.239-5-5v-.115c0-2.761 2.239-5 5-5s5 2.239 5 5v.115c0 2.762-2.239 5-5 5z" fill="#4d4dff"/></g><g><path d="m76.453 181.443c-2.761 0-5-2.239-5-5v-.115c0-2.761 2.239-5 5-5s5 2.239 5 5v.115c0 2.761-2.239 5-5 5z" fill="#4d4dff"/></g></g><g><g><path d="m61.556 192.21c-2.761 0-5-2.239-5-5v-.115c0-2.761 2.239-5 5-5s5 2.239 5 5v.115c0 2.761-2.239 5-5 5z" fill="#4d4dff"/></g></g></g><path d="m364.027 210.175h-314.255c-5.523 0-10-4.477-10-10v-143.991c0-5.523 4.477-10 10-10h314.255c5.523 0 10 4.477 10 10v143.991c0 5.523-4.478 10-10 10z" fill="url(#SVGID_2_)"/><path d="m391.184 123.179h-37.873v-12.555c0-2.761-2.239-5-5-5s-5 2.239-5 5v35.109c0 2.761 2.239 5 5 5s5-2.239 5-5v-12.555h37.873c33.414 0 60.598 27.185 60.598 60.599s-27.184 60.598-60.598 60.598h-290.436c-36.379 0-65.976 29.597-65.976 65.976s29.597 65.976 65.976 65.976h62.338v-10h-62.338c-30.865 0-55.976-25.111-55.976-55.976s25.111-55.976 55.976-55.976h290.436c38.928 0 70.598-31.67 70.598-70.599.001-38.926-31.67-70.597-70.598-70.597z" fill="#2c27ff"/></g></g><path d="m423.899 99.488c-2.761 0-5-2.239-5-5 0-3.492-2.841-6.333-6.333-6.333-2.761 0-5-2.239-5-5s2.239-5 5-5c3.492 0 6.333-2.841 6.333-6.334 0-2.761 2.239-5 5-5s5 2.239 5 5c0 3.492 2.841 6.334 6.333 6.334 2.761 0 5 2.239 5 5s-2.239 5-5 5c-3.492 0-6.333 2.841-6.333 6.333 0 2.761-2.238 5-5 5z" fill="#6c6cff"/><path d="m111.366 468.116c-2.761 0-5-2.239-5-5 0-3.492-2.841-6.333-6.333-6.333-2.761 0-5-2.239-5-5s2.239-5 5-5c3.492 0 6.333-2.841 6.333-6.333 0-2.761 2.239-5 5-5s5 2.239 5 5c0 3.492 2.841 6.333 6.333 6.333 2.761 0 5 2.239 5 5s-2.239 5-5 5c-3.492 0-6.333 2.841-6.333 6.333 0 2.762-2.239 5-5 5z" fill="#6c6cff"/><g fill="#ff9d33"><g><path d="m379.9 327.211c-2.761 0-5-2.239-5-5v-.15c0-2.761 2.239-5 5-5s5 2.239 5 5v.15c0 2.761-2.239 5-5 5z"/><path d="m379.9 354.995c-2.761 0-5-2.239-5-5v-.15c0-2.761 2.239-5 5-5s5 2.239 5 5v.15c0 2.762-2.239 5-5 5z"/></g><g><path d="m367.929 334.121c-.848 0-1.706-.216-2.493-.67l-.13-.075c-2.392-1.379-3.213-4.437-1.833-6.829s4.436-3.213 6.829-1.833l.13.075c2.392 1.379 3.213 4.437 1.833 6.829-.926 1.605-2.607 2.503-4.336 2.503z"/><path d="m391.991 348.013c-.85 0-1.711-.217-2.5-.674l-.13-.075c-2.39-1.384-3.206-4.442-1.822-6.833 1.383-2.388 4.441-3.206 6.832-1.822l.13.075c2.39 1.384 3.206 4.442 1.822 6.832-.927 1.602-2.606 2.497-4.332 2.497z"/></g><g><path d="m367.808 348.013c-1.729 0-3.41-.898-4.336-2.503-1.38-2.392-.559-5.45 1.833-6.829l.13-.075c2.392-1.381 5.449-.559 6.829 1.833s.559 5.45-1.833 6.829l-.13.075c-.786.454-1.645.67-2.493.67z"/><path d="m391.87 334.121c-1.726 0-3.405-.895-4.332-2.496-1.384-2.39-.568-5.449 1.822-6.833l.13-.075c2.392-1.384 5.449-.568 6.832 1.822 1.384 2.39.568 5.449-1.822 6.832l-.13.075c-.788.458-1.649.675-2.5.675z"/></g></g><g fill="#ff4d4d"><g><g><path d="m100.033 299.567c-2.761 0-5-2.239-5-5v-.15c0-2.761 2.239-5 5-5s5 2.239 5 5v.15c0 2.761-2.239 5-5 5z"/><path d="m100.033 327.351c-2.761 0-5-2.239-5-5v-.15c0-2.761 2.239-5 5-5s5 2.239 5 5v.15c0 2.761-2.239 5-5 5z"/></g><g><path d="m88.062 306.476c-.85 0-1.711-.217-2.5-.674l-.13-.075c-2.39-1.384-3.206-4.442-1.822-6.833 1.383-2.389 4.441-3.204 6.833-1.822l.13.075c2.39 1.384 3.206 4.442 1.822 6.832-.928 1.602-2.607 2.497-4.333 2.497z"/><path d="m112.124 320.368c-.848 0-1.706-.216-2.493-.67l-.13-.075c-2.392-1.379-3.213-4.437-1.833-6.829 1.379-2.392 4.437-3.214 6.829-1.833l.13.075c2.392 1.379 3.213 4.437 1.833 6.829-.926 1.605-2.607 2.503-4.336 2.503z"/></g><g><path d="m87.942 320.368c-1.726 0-3.405-.895-4.332-2.496-1.384-2.39-.568-5.449 1.822-6.832l.13-.075c2.392-1.384 5.45-.568 6.833 1.822 1.384 2.39.568 5.449-1.822 6.833l-.13.075c-.79.456-1.651.673-2.501.673z"/><path d="m112.003 306.476c-1.729 0-3.41-.898-4.336-2.503-1.38-2.392-.559-5.45 1.833-6.829l.13-.075c2.391-1.381 5.449-.558 6.829 1.833 1.38 2.392.559 5.45-1.833 6.829l-.13.075c-.786.455-1.646.67-2.493.67z"/></g></g><path d="m413.899 393.226c-2.761 0-5-2.239-5-5 0-3.492-2.841-6.333-6.333-6.333-2.761 0-5-2.239-5-5s2.239-5 5-5c3.492 0 6.333-2.841 6.333-6.333 0-2.761 2.239-5 5-5s5 2.239 5 5c0 3.492 2.841 6.333 6.333 6.333 2.761 0 5 2.239 5 5s-2.239 5-5 5c-3.492 0-6.333 2.841-6.333 6.333 0 2.762-2.238 5-5 5z"/></g></g><path d="m174.067 300.772h148.421c6.064 0 10.98 4.916 10.98 10.98v137.44c0 12.129-9.832 21.961-21.961 21.961h-126.46c-12.129 0-21.961-9.832-21.961-21.961v-137.44c0-6.064 4.916-10.98 10.981-10.98z" fill="url(#SVGID_3_)"/></g></svg>