<svg id="Capa_1" enable-background="new 0 0 512 512" height="512" viewBox="0 0 512 512" width="512" xmlns="http://www.w3.org/2000/svg" xmlns:xlink="http://www.w3.org/1999/xlink"><linearGradient id="SVGID_1_" gradientUnits="userSpaceOnUse" x1="96.524" x2="444.685" y1="453.699" y2="38.776"><stop offset="0" stop-color="#fff3ee" stop-opacity="0"/><stop offset=".2938" stop-color="#ffeade" stop-opacity=".373"/><stop offset=".7874" stop-color="#ffd6bb"/></linearGradient><linearGradient id="lg1"><stop offset="0" stop-color="#ff4d4d" stop-opacity=".4"/><stop offset="1" stop-color="#ff4d4d" stop-opacity="0"/></linearGradient><linearGradient id="SVGID_2_" gradientUnits="userSpaceOnUse" x1="260.123" x2="260.123" xlink:href="#lg1" y1="345.545" y2="273.936"/><linearGradient id="SVGID_3_" gradientUnits="userSpaceOnUse" x1="132.84" x2="132.84" xlink:href="#lg1" y1="461.702" y2="263.484"/><g><g><path d="m4.896 324.259c17.448 172.871 292.417 167.142 420.803 136.265 82.47-19.834 87.596-59.472 86.106-144.001-.96-54.486 3.443-198.725-32.004-244.123-54.448-69.733-103.228-25.998-170.656-3.235-86.488 29.197-120.189-22.932-202.476-21.38-120.641 2.278-110.778 187.252-101.773 276.474z" fill="url(#SVGID_1_)"/></g><g><g><g><path d="m383.053 419.943 84.101-9.379c6.861-.765 11.803-6.948 11.038-13.808-.765-6.861-6.948-11.803-13.809-11.038l-84.101 9.379z" fill="#b3b3ff"/></g><g><path d="m172.871 296.28h-42.685v-224.64c0-11.787 9.555-21.343 21.343-21.343 11.787 0 21.343 9.555 21.343 21.343v224.64z" fill="#ff8b00"/><path d="m130.186 207.794h42.685v25.34h-42.685z" fill="#ff7300"/></g><g><path d="m132.84 295.984c-6.903 0-12.5-5.597-12.5-12.5v-185.243c0-12.064-9.815-21.88-21.88-21.88h-16.302c-6.903 0-12.5-5.597-12.5-12.5s5.597-12.5 12.5-12.5h16.302c25.85 0 46.88 21.03 46.88 46.88v185.243c0 6.903-5.597 12.5-12.5 12.5z" fill="#9494ff"/></g><g><path d="m132.84 295.984c-6.903 0-12.5-5.597-12.5-12.5v-185.243c0-12.064-9.815-21.88-21.88-21.88h-16.302c-6.903 0-12.5-5.597-12.5-12.5s5.597-12.5 12.5-12.5h16.302c25.85 0 46.88 21.03 46.88 46.88v185.243c0 6.903-5.597 12.5-12.5 12.5z" fill="#9494ff"/></g><g><path d="m120.34 207.794h25v25.34h-25z" fill="#8383ff"/></g><g><path d="m367.406 419.943c-6.903 0-12.5-5.597-12.5-12.5v-157.105c0-19.051-15.498-34.549-34.548-34.549h-217.927c-6.903 0-12.5-5.597-12.5-12.5s5.597-12.5 12.5-12.5h217.928c32.835 0 59.548 26.714 59.548 59.549v157.105c-.001 6.903-5.597 12.5-12.501 12.5z" fill="#b3b3ff"/></g><g><path d="m354.906 322.67v84.773c0 6.903 5.597 12.5 12.5 12.5s12.5-5.597 12.5-12.5v-84.773z" fill="#9494ff"/></g><path d="m300.966 233.397h-82.105c-5.523 0-10-4.477-10-10v-32.608h102.105v32.608c0 5.523-4.477 10-10 10z" fill="#4d4dff"/><g><ellipse cx="367.475" cy="413.998" fill="#4d4dff" rx="47.705" ry="47.705" transform="matrix(.707 -.707 .707 .707 -185.11 381.101)"/><ellipse cx="367.475" cy="413.998" fill="#ffab66" rx="23.308" ry="23.308" transform="matrix(.16 -.987 .987 .16 -100.04 710.412)"/></g><g><path d="m377.406 345.545h-244.567v-71.609h244.567c5.523 0 10 4.477 10 10v51.609c0 5.523-4.477 10-10 10z" fill="#ffab66"/><path d="m323.737 345.545h-41.108v-40.701c0-2.761 2.239-5 5-5h31.108c2.761 0 5 2.239 5 5z" fill="#ffd6bb"/><path d="m377.406 345.545h-244.567v-71.609h244.567c5.523 0 10 4.477 10 10v51.609c0 5.523-4.477 10-10 10z" fill="url(#SVGID_2_)"/></g><g><circle cx="132.839" cy="362.593" fill="#4d4dff" r="99.109"/><g transform="matrix(.707 -.707 .707 .707 -217.484 200.133)"><ellipse cx="132.84" cy="362.593" fill="#d9d9ff" rx="72.749" ry="72.749"/><ellipse cx="132.84" cy="362.593" fill="#ffab66" rx="41.725" ry="41.725"/></g></g><circle cx="132.839" cy="362.593" fill="url(#SVGID_3_)" r="99.109"/></g><path d="m263.603 148.127c-2.762 0-5-2.238-5-5 0-3.492-2.841-6.333-6.333-6.333-2.762 0-5-2.238-5-5s2.238-5 5-5c3.492 0 6.333-2.842 6.333-6.334 0-2.762 2.238-5 5-5s5 2.238 5 5c0 3.492 2.842 6.334 6.334 6.334 2.762 0 5 2.238 5 5s-2.238 5-5 5c-3.492 0-6.334 2.841-6.334 6.333 0 2.762-2.238 5-5 5z" fill="#ff4d4d"/><path d="m256 440.004c-2.762 0-5-2.238-5-5 0-3.492-2.841-6.333-6.333-6.333-2.762 0-5-2.238-5-5s2.238-5 5-5c3.492 0 6.333-2.841 6.333-6.333 0-2.762 2.238-5 5-5s5 2.238 5 5c0 3.492 2.841 6.333 6.333 6.333 2.762 0 5 2.238 5 5s-2.238 5-5 5c-3.492 0-6.333 2.841-6.333 6.333 0 2.762-2.238 5-5 5z" fill="#6c6cff"/><path d="m435.431 327.463c-2.762 0-5-2.238-5-5 0-3.492-2.841-6.334-6.333-6.334-2.762 0-5-2.238-5-5s2.238-5 5-5c3.492 0 6.333-2.841 6.333-6.333 0-2.762 2.238-5 5-5s5 2.238 5 5c0 3.492 2.842 6.333 6.334 6.333 2.762 0 5 2.238 5 5s-2.238 5-5 5c-3.492 0-6.334 2.842-6.334 6.334 0 2.762-2.239 5-5 5z" fill="#ff4d4d"/><g fill="#ff9d33"><g><g><path d="m315.966 134.31c-2.762 0-5-2.238-5-5v-.149c0-2.762 2.238-5 5-5s5 2.238 5 5v.149c0 2.761-2.239 5-5 5z"/><path d="m315.966 162.094c-2.762 0-5-2.238-5-5v-.15c0-2.762 2.238-5 5-5s5 2.238 5 5v.15c0 2.761-2.239 5-5 5z"/></g><g><path d="m303.995 141.22c-.851 0-1.712-.217-2.5-.674l-.13-.075c-2.39-1.384-3.206-4.442-1.822-6.832 1.384-2.391 4.445-3.207 6.832-1.822l.13.075c2.39 1.384 3.206 4.442 1.822 6.832-.927 1.601-2.606 2.496-4.332 2.496z"/><path d="m328.057 155.111c-.85 0-1.712-.217-2.5-.674l-.13-.075c-2.39-1.384-3.206-4.442-1.822-6.832 1.384-2.391 4.444-3.206 6.832-1.822l.13.075c2.39 1.384 3.206 4.442 1.822 6.832-.927 1.602-2.607 2.496-4.332 2.496z"/></g><g><path d="m303.875 155.111c-1.727 0-3.405-.895-4.332-2.496-1.384-2.39-.567-5.448 1.822-6.832l.13-.075c2.391-1.386 5.449-.567 6.832 1.822 1.384 2.39.567 5.448-1.822 6.832l-.13.075c-.788.457-1.65.674-2.5.674z"/><path d="m327.936 141.22c-1.727 0-3.405-.895-4.332-2.496-1.384-2.39-.567-5.448 1.822-6.832l.13-.075c2.39-1.386 5.449-.567 6.832 1.822 1.384 2.39.567 5.448-1.822 6.832l-.13.075c-.788.457-1.65.674-2.5.674z"/></g></g><g><g><path d="m55.091 230.478c-2.762 0-5-2.238-5-5v-.15c0-2.762 2.238-5 5-5s5 2.238 5 5v.15c0 2.762-2.239 5-5 5z"/><path d="m55.091 258.262c-2.762 0-5-2.238-5-5v-.149c0-2.762 2.238-5 5-5s5 2.238 5 5v.149c0 2.761-2.239 5-5 5z"/></g><g><path d="m43.12 237.388c-.845 0-1.701-.215-2.486-.666l-.131-.075c-2.395-1.376-3.22-4.432-1.844-6.826 1.376-2.393 4.432-3.219 6.826-1.844l.131.075c2.395 1.376 3.22 4.432 1.844 6.826-.925 1.609-2.608 2.51-4.34 2.51z"/><path d="m67.182 251.279c-.851 0-1.712-.217-2.5-.674l-.13-.075c-2.39-1.384-3.206-4.442-1.822-6.832 1.383-2.391 4.444-3.207 6.832-1.822l.13.075c2.39 1.384 3.206 4.442 1.822 6.832-.927 1.602-2.607 2.496-4.332 2.496z"/></g><g><path d="m42.999 251.279c-1.732 0-3.415-.9-4.34-2.51-1.376-2.395-.551-5.45 1.844-6.826l.131-.075c2.395-1.376 5.45-.551 6.826 1.844s.551 5.45-1.844 6.826l-.131.075c-.785.451-1.641.666-2.486.666z"/><path d="m67.061 237.388c-1.726 0-3.405-.895-4.332-2.496-1.384-2.39-.567-5.448 1.822-6.832l.13-.075c2.39-1.386 5.449-.567 6.832 1.822 1.384 2.39.567 5.448-1.822 6.832l-.13.075c-.788.457-1.65.674-2.5.674z"/></g></g></g></g></g></svg>