<svg id="Capa_1" enable-background="new 0 0 510 510" height="512" viewBox="0 0 510 510" width="512" xmlns="http://www.w3.org/2000/svg" xmlns:xlink="http://www.w3.org/1999/xlink"><linearGradient id="SVGID_1_" gradientTransform="matrix(.707 .707 -.707 .707 -756.898 -524.766)" gradientUnits="userSpaceOnUse" x1="1179.615" x2="1354.181" y1="-108.314" y2="-108.314"><stop offset="0" stop-color="#edf5ff"/><stop offset="1" stop-color="#d5e8fe"/></linearGradient><linearGradient id="SVGID_2_" gradientTransform="matrix(.707 .707 -.707 .707 -756.898 -524.766)" gradientUnits="userSpaceOnUse" x1="1201.354" x2="1288.822" y1="-116.811" y2="-66.023"><stop offset="0" stop-color="#ff637b"/><stop offset="1" stop-color="#e63950"/></linearGradient><linearGradient id="lg1"><stop offset="0" stop-color="#07485e" stop-opacity="0"/><stop offset=".2708" stop-color="#074459" stop-opacity=".271"/><stop offset=".597" stop-color="#05394a" stop-opacity=".597"/><stop offset=".9505" stop-color="#032632" stop-opacity=".951"/><stop offset="1" stop-color="#03232e"/></linearGradient><linearGradient id="SVGID_3_" gradientTransform="matrix(.707 .707 -.707 .707 331.227 -74.05)" gradientUnits="userSpaceOnUse" x1="178.773" x2="178.773" xlink:href="#lg1" y1="487.516" y2="631.796"/><linearGradient id="SVGID_4_" gradientTransform="matrix(.707 .707 -.707 .707 -756.898 -524.766)" gradientUnits="userSpaceOnUse" x1="1240.679" x2="1370.912" xlink:href="#lg1" y1="-320.476" y2="-320.476"/><linearGradient id="SVGID_5_" gradientUnits="userSpaceOnUse" x1="232.945" x2="146.207" y1="300.855" y2="69.14"><stop offset="0" stop-color="#fff" stop-opacity="0"/><stop offset="1" stop-color="#fff"/></linearGradient><linearGradient id="SVGID_6_" gradientTransform="matrix(.707 .707 -.707 .707 -756.898 -524.766)" gradientUnits="userSpaceOnUse" x1="1266.898" x2="1266.898" xlink:href="#lg1" y1="-284.652" y2="-449.525"/><linearGradient id="SVGID_7_" gradientTransform="matrix(.707 .707 -.707 .707 -756.898 -524.766)" gradientUnits="userSpaceOnUse" x1="1266.898" x2="1266.898" y1="-412.395" y2="-354.938"><stop offset="0" stop-color="#9ae1d3"/><stop offset="1" stop-color="#80d1c1"/></linearGradient><linearGradient id="lg2"><stop offset="0" stop-color="#0b799d" stop-opacity="0"/><stop offset=".1739" stop-color="#117d9e" stop-opacity=".174"/><stop offset=".414" stop-color="#2389a0" stop-opacity=".414"/><stop offset=".6928" stop-color="#409ca3" stop-opacity=".693"/><stop offset=".9986" stop-color="#69b7a8" stop-opacity=".999"/><stop offset="1" stop-color="#69b7a8"/></linearGradient><linearGradient id="SVGID_8_" gradientTransform="matrix(.707 .707 -.707 .707 331.227 -74.05)" gradientUnits="userSpaceOnUse" x1="171.13" x2="196.596" xlink:href="#lg2" y1="28.894" y2="139.537"/><linearGradient id="SVGID_9_" gradientTransform="matrix(-.707 -.707 -.707 .707 691.851 286.574)" gradientUnits="userSpaceOnUse" x1="325.035" x2="345.667" xlink:href="#lg2" y1="35.196" y2="124.841"/><linearGradient id="SVGID_10_" gradientTransform="matrix(.707 .707 -.707 .707 331.227 -74.05)" gradientUnits="userSpaceOnUse" x1="178.773" x2="178.773" xlink:href="#lg2" y1="69.821" y2="95.726"/><linearGradient id="lg3"><stop offset="0" stop-color="#e63950" stop-opacity="0"/><stop offset=".0467" stop-color="#e4354b" stop-opacity=".047"/><stop offset=".4669" stop-color="#d31822" stop-opacity=".467"/><stop offset=".7991" stop-color="#c90709" stop-opacity=".799"/><stop offset="1" stop-color="#c50000"/></linearGradient><linearGradient id="SVGID_11_" gradientTransform="matrix(-.612 .791 -.791 -.612 452.655 -3763.62)" gradientUnits="userSpaceOnUse" x1="3428.113" x2="3487.566" xlink:href="#lg3" y1="-2279.775" y2="-2197.352"/><linearGradient id="SVGID_12_" gradientTransform="matrix(-.612 .791 -.791 -.612 452.655 -3763.62)" gradientUnits="userSpaceOnUse" x1="3468.886" x2="3515.821" xlink:href="#lg3" y1="-2331.827" y2="-2266.759"/><linearGradient id="SVGID_13_" gradientTransform="matrix(-.612 .791 -.791 -.612 452.655 -3763.62)" gradientUnits="userSpaceOnUse" x1="3400.325" x2="3428.621" xlink:href="#lg3" y1="-2333.648" y2="-2294.419"/><linearGradient id="SVGID_14_" gradientTransform="matrix(-.997 .071 -.071 -.997 1907.582 -3928.48)" gradientUnits="userSpaceOnUse" x1="1984.343" x2="2028.275" xlink:href="#lg3" y1="-4073.081" y2="-4012.176"/><linearGradient id="SVGID_15_" gradientTransform="matrix(-.997 .071 -.071 -.997 1907.582 -3928.48)" gradientUnits="userSpaceOnUse" x1="2014.472" x2="2049.154" xlink:href="#lg3" y1="-4111.544" y2="-4063.463"/><linearGradient id="SVGID_16_" gradientTransform="matrix(-.997 .071 -.071 -.997 1907.582 -3928.48)" gradientUnits="userSpaceOnUse" x1="1963.81" x2="1984.719" xlink:href="#lg3" y1="-4112.89" y2="-4083.902"/><g><g><g><path d="m35.209 486.955-12.164-12.164c-30.727-30.727-30.727-80.546 0-111.273l304.583-304.583c6.944-6.944 18.203-6.944 25.148 0l98.289 98.289c6.944 6.944 6.944 18.203 0 25.148l-304.583 304.583c-30.727 30.727-80.545 30.727-111.273 0z" fill="url(#SVGID_1_)"/><path d="m41.81 468.19c-28.355-28.355-28.355-74.328 0-102.684l227.738-227.738c4.573-4.572 11.986-4.572 16.558 0l86.125 86.125c4.573 4.572 4.573 11.986 0 16.558l-227.737 227.739c-28.356 28.355-74.329 28.355-102.684 0z" fill="url(#SVGID_2_)"/><path d="m197.687 188.876-174.642 174.642c-30.727 30.727-30.727 80.546 0 111.273l12.164 12.164c30.727 30.727 80.546 30.727 111.273 0l174.642-174.642z" fill="url(#SVGID_3_)"/></g><path d="m346.994 198.656-35.65-35.65 72.751-72.751 35.65 35.65z" fill="url(#SVGID_4_)"/><path d="m362.452 68.611-327.243 327.243c-25.157 25.157-25.157 65.944 0 91.1 30.727 30.727 80.546 30.727 111.273 0l304.583-304.583c6.944-6.944 6.944-18.203 0-25.148z" fill="url(#SVGID_5_)"/><path d="m451.065 157.224-98.289-98.289c-6.944-6.944-18.203-6.944-25.148 0v246.874l123.437-123.437c6.944-6.944 6.944-18.203 0-25.148z" fill="url(#SVGID_6_)"/><g><path d="m456.716 186.71-133.426-133.426c-7.781-7.781-7.781-20.397 0-28.178l19.27-19.27c7.781-7.781 20.397-7.781 28.178 0l133.426 133.426c7.781 7.781 7.781 20.397 0 28.178l-19.27 19.27c-7.781 7.781-20.397 7.781-28.178 0z" fill="url(#SVGID_7_)"/><path d="m433.614 163.608-87.222-87.222c-6.435-6.435-6.435-16.868 0-23.303l24.145-24.145c6.435-6.435 16.868-6.435 23.303 0l87.222 87.222c6.435 6.435 6.435 16.868 0 23.303l-24.145 24.145c-6.435 6.435-16.868 6.435-23.303 0z" fill="url(#SVGID_8_)"/><path d="m374.021 104.015 31.964 31.964c4.205 4.205 11.022 4.205 15.227 0l32.221-32.221c4.205-4.205 4.205-11.022 0-15.227l-31.964-31.964c-4.205-4.205-11.022-4.205-15.227 0l-32.221 32.221c-4.205 4.205-4.205 11.023 0 15.227z" fill="url(#SVGID_9_)"/><path d="m332.925 15.471-9.635 9.635c-7.781 7.781-7.781 20.397 0 28.178l133.426 133.426c7.781 7.781 20.397 7.781 28.178 0l9.635-9.635z" fill="url(#SVGID_10_)"/></g></g><g><g><circle cx="126.068" cy="341.739" fill="url(#SVGID_11_)" r="21.471"/><circle cx="149.177" cy="406.066" fill="url(#SVGID_12_)" r="16.95"/><circle cx="202.804" cy="353.289" fill="url(#SVGID_13_)" r="10.219"/></g><g><circle cx="203.796" cy="257.426" fill="url(#SVGID_14_)" r="15.866"/><circle cx="179.755" cy="301.845" fill="url(#SVGID_15_)" r="12.525"/><circle cx="235.24" cy="305.377" fill="url(#SVGID_16_)" r="7.551"/></g></g></g></svg>