<svg xmlns="http://www.w3.org/2000/svg" id="Layer_1" enable-background="new 0 0 48 48" viewBox="0 0 48 48"><path fill="#ff7170" d="M37.8,41.9c0-2.6,2.1-4.6,4.6-4.6c2.6,0,4.6,2.1,4.6,4.6c0,2.6-2.1,4.6-4.6,4.6C39.9,46.5,37.8,44.4,37.8,41.9
		z"/><path fill="#ffbf5b" d="M26.7,17.9c-0.8,0-1.6,0.5-1.9,1.3c-1.6,4-5.5,6.9-10,6.9s-8.5-2.9-10-6.9c-0.3-0.8-1-1.3-1.9-1.3l0,0
		c-1.4,0-2.4,1.4-1.9,2.7c2.1,5.5,7.5,9.4,13.8,9.4s11.6-3.9,13.8-9.4C29.1,19.4,28.2,17.9,26.7,17.9L26.7,17.9z"/><path d="M43.2,36.6V13.3c0-2.4-1.9-4.3-4.3-4.3c-2.4,0-4.3,1.9-4.3,4.3v14.9c0,1.6-1.3,2.9-2.9,2.9c-2.4,0-4.4,2-4.4,4.4v4.4
			c0,3.2-2.6,5.9-5.9,5.9c-3.2,0-5.9-2.6-5.9-5.9v-9c6-0.3,11.5-4.2,13.7-9.9c0.3-0.9,0.2-1.8-0.3-2.6c-0.2-0.3-0.5-0.6-0.8-0.8
			c0.1-0.7,0.2-1.5,0.2-2.3V5c0-2.3-1.9-4.2-4.2-4.2v1.5c1.5,0,2.7,1.2,2.7,2.7v10.4c0,0.6,0,1.2-0.1,1.9c-1.1,0-2.1,0.7-2.5,1.8
			c-1.5,3.8-5.2,6.4-9.3,6.4c-4.1,0-7.8-2.6-9.3-6.4c-0.4-1.1-1.4-1.8-2.6-1.8c-0.1-0.6-0.1-1.2-0.1-1.9V5c0-1.5,1.2-2.7,2.7-2.7
			V0.8C3.2,0.8,1.3,2.6,1.3,5v10.4c0,0.8,0.1,1.5,0.2,2.3c-0.3,0.2-0.6,0.5-0.8,0.8C0.2,19.1,0,20.1,0.4,21
			c2.2,5.7,7.7,9.6,13.7,9.9v9c0,4.1,3.3,7.4,7.4,7.4c4.1,0,7.4-3.3,7.4-7.4v-4.4c0-1.6,1.3-2.9,2.9-2.9c2.4,0,4.4-2,4.4-4.4V13.3
			c0-1.5,1.2-2.8,2.8-2.8c1.5,0,2.8,1.2,2.8,2.8v23.3c-2.6,0.4-4.6,2.6-4.6,5.3c0,3,2.4,5.4,5.4,5.4c3,0,5.4-2.4,5.4-5.4
			C47.8,39.2,45.8,37,43.2,36.6z M1.8,20.4c-0.2-0.4-0.1-0.8,0.1-1.2c0,0,0,0,0,0c0.2-0.3,0.6-0.5,1-0.5c0.1,0,0.2,0,0.4,0.1h0
			c0.3,0.1,0.7,0.4,0.8,0.8c1.7,4.5,6,7.4,10.7,7.4c4.8,0,9-2.9,10.7-7.4c0.2-0.4,0.5-0.7,0.8-0.8h0c0.1,0,0.2-0.1,0.4-0.1
			c0.4,0,0.8,0.2,1,0.5c0,0,0,0,0,0c0.2,0.3,0.3,0.8,0.1,1.2c-2.1,5.4-7.3,9-13.1,9C9.1,29.4,3.9,25.8,1.8,20.4z M42.4,45.8
			c-2.1,0-3.9-1.7-3.9-3.9s1.7-3.9,3.9-3.9s3.9,1.7,3.9,3.9S44.6,45.8,42.4,45.8z"/><circle cx="42.4" cy="41.9" r="1.4"/></svg>