<svg xmlns="http://www.w3.org/2000/svg" viewBox="0 0 64 64"><path fill="#78b9eb" d="M56 15V60H22V52.39l4-4.62V49a6 6 0 0 1 6 6H46a6 6 0 0 1 6-6V11h4zM26 11V38.32a3.59 3.59 0 0 0-1.77.66L22 40.57V11z"/><polygon fill="#78b9eb" points="57 6 57 11 56 11 52 11 26 11 22 11 21 11 21 6 57 6"/><circle cx="39" cy="30" r="9" fill="#78b9eb"/><polygon fill="#78b9eb" points="21 6 21 11 22 11 22 15 17 15 17 3 61 3 61 15 56 15 56 11 57 11 57 6 21 6"/><path fill="#006df0" d="M61,2H17a1,1,0,0,0-1,1V15a1,1,0,0,0,1,1h4v5.49L2.41,35.19A1,1,0,0,0,2,36V54a.967.967,0,0,0,.17.55L4,57.3V61a1,1,0,0,0,1,1H19a1,1,0,0,0,1-1V56.22l1-1.15V60a1,1,0,0,0,1,1H56a1,1,0,0,0,1-1V16h4a1,1,0,0,0,1-1V3A1,1,0,0,0,61,2ZM18.24,55.19a1.048,1.048,0,0,0-.24.66V60H6V57a.967.967,0,0,0-.17-.55L4,53.7V36.51L21,23.98v7.61l-3.71,3.7a1.028,1.028,0,0,0-.24,1.03l2,6a1,1,0,0,0,.64.63.975.975,0,0,0,.89-.14l4.23-3.02a2.609,2.609,0,0,1,3.54.49v.01a2.6,2.6,0,0,1-.07,3.32ZM21,34.41v5.65l-.48.34-1.38-4.13Zm2,4.22V12h2V37.52a4.312,4.312,0,0,0-1.35.65Zm6.91.41A4.6,4.6,0,0,0,27,37.36V12H51V48.07A7.022,7.022,0,0,0,45.07,54H32.93a7.023,7.023,0,0,0-5.88-5.92l2.74-3.16A4.592,4.592,0,0,0,29.91,39.04ZM55,59H23V52.76l2.51-2.9A1.032,1.032,0,0,0,26,50a5,5,0,0,1,5,5,1,1,0,0,0,1,1H46a1,1,0,0,0,1-1,5,5,0,0,1,5-5,1,1,0,0,0,1-1V12h2Zm1-49H22V7H56Zm4,4H57V12a1,1,0,0,0,1-1V6a1,1,0,0,0-1-1H21a1,1,0,0,0-1,1v5a1,1,0,0,0,1,1v2H18V4H60Z"/><path fill="#006df0" d="M39,40A10,10,0,1,0,29,30,10.011,10.011,0,0,0,39,40Zm0-18a8,8,0,1,1-8,8A8.009,8.009,0,0,1,39,22Z"/></svg>